<svg xmlns="http://www.w3.org/2000/svg" viewBox="0 0 2150.86 2154.62"><defs><style>.cls-1{fill:#febe42;}.cls-2{fill:#febe41;}.cls-3{fill:#177e9f;}.cls-4{fill:#51c6e9;}.cls-5{fill:#116680;}.cls-6{fill:#1bb1dd;}.cls-7{fill:#38bfe7;}.cls-8{fill:#1898bf;}</style></defs><g id="Layer_2" data-name="Layer 2"><g id="Layer_4" data-name="Layer 4"><path class="cls-1" d="M1108.07,465.26c116.66-58,72.37-215.47,72.37-215.47C1152.94,153.53,1080.37,95,1080.37,95,967.15,195.17,967.22,307.77,967.22,307.77c-3,132.56,77.59,158.84,77.59,158.84-1.07,40.53.49,63.35.49,63.35.7,7.23,32.25,13.71,33.73,11.62a1.42,1.42,0,0,0,.08-1c-2.1-7.44-10.38-52.83-12.9-77.57-7.22-59.37-5.92-153.64,14-243.51C1076,365.21,1095,451.78,1095,451.78,1098.47,463.13,1100.54,469,1108.07,465.26Z"/><path class="cls-1" d="M1418.67,732.51c77.18,1.53,94.88-93.56,94.88-93.56,12.66-58.57-8.81-109.61-8.81-109.61C1417.52,551.1,1386,610.75,1386,610.75c-38.77,69.36-3.29,107.26-3.29,107.26-11.93,21.16-17.53,33.68-17.53,33.68-1.66,4,13,16.17,14.36,15.47a.87.87,0,0,0,.33-.52c1-4.52,9.4-30.84,15-44.64,12.89-33.43,39.25-84.7,74.87-126.79-43.11,76-54.08,126.56-54.08,126.56C1414,728,1412.74,732.31,1418.67,732.51Z"/><path class="cls-1" d="M1713.18,822.08c75.52,38.36,131.92-47.31,131.92-47.31,36.37-51.24,36-111.41,36-111.41-94.94-20.39-150.4,22.87-150.4,22.87-66.53,49.33-46.63,102.12-46.63,102.12-20.4,15-31,24.57-31,24.57-3.28,3.14,6.23,22,7.85,22a.87.87,0,0,0,.54-.34c2.82-3.95,21.86-25.68,33-36.49,26.35-26.54,72.92-62.87,125.22-87-73.52,53.74-105.12,99.07-105.12,99.07C1710.41,815.41,1707.42,819.05,1713.18,822.08Z"/><path class="cls-1" d="M1685.28,1309.58c4.81,96.31,126.41,113.72,126.41,113.72,74.34,11,136.3-19.85,136.3-19.85-34.8-107-112.14-141.46-112.14-141.46-90.11-42.7-134.18,7.91-134.18,7.91-27.51-13.16-43.64-19.12-43.64-19.12-5.18-1.74-19.09,17.5-18.1,19.14a1.07,1.07,0,0,0,.67.37c5.74.87,39.39,9.23,57.14,15.12,42.92,13.37,109.1,38.74,164.83,79.73-98.78-47.58-164.12-60.2-164.12-60.2C1690.55,1303.39,1685,1302.18,1685.28,1309.58Z"/><path class="cls-1" d="M1793.38,1055.84c68.64,106,217,45.56,217,45.56,91-36.5,140.47-112.32,140.47-112.32-109.4-98.25-219.14-86.39-219.14-86.39-129.52,11-145.94,97.39-145.94,97.39-39.6,3.22-61.69,7.11-61.69,7.11-7,1.43-10,32.4-7.82,33.61a1.44,1.44,0,0,0,1,0c7-2.79,50.42-15.5,74.27-20.52,57.12-13.15,148.31-28,238-18.29-142.48,11.2-224.34,40-224.34,40C1795.25,1045.35,1788.23,1047.64,1793.38,1055.84Z"/><path class="cls-1" d="M1716.71,542.22c103.53,40.65,167.45-77.52,167.45-77.52,41.44-71.64,33.71-150.32,33.71-150.32-126.78-14.68-194.2,48.92-194.2,48.92C1642.48,436.24,1676,503.69,1676,503.69c-24.91,22.2-37.67,36.06-37.67,36.06-3.91,4.52,10.81,28,12.94,27.78a1.15,1.15,0,0,0,.65-.53c3.23-5.52,25.54-36.35,38.87-51.9,31.31-38.06,86.81-92.36,152.4-130.56-89.8,79.6-126.11,141.87-126.11,141.87C1712.28,533.84,1708.8,539,1716.71,542.22Z"/><path class="cls-1" d="M1436.42,313.26C1540.25,292,1533.29,164,1533.29,164c-4.31-78.49-51.54-137.11-51.54-137.11-108.82,54-129.42,139.52-129.42,139.52-26.73,100.11,33.32,137,33.32,137-8.29,30.57-11.23,48.21-11.23,48.21-.77,5.63,23.24,16.71,24.81,15.41a1.08,1.08,0,0,0,.25-.75c-.31-6.07,1.41-42.17,3.93-61.45,5.13-46.51,23.09-123.66,55.49-188-30.12,109.87-30.42,183.74-30.42,183.74C1428.17,309,1428.43,314.78,1436.42,313.26Z"/><path class="cls-2" d="M768.37,739.79c-1-4.53-9.41-30.85-15-44.65-12.9-33.43-36.59-84.7-72.21-126.79,43.11,76,56.57,127.31,56.57,127.31,1.65,6.2,2.9,10.54-3,10.74-77.19,1.53-97.38-94.31-97.38-94.31-12.65-58.57,8.81-109.61,8.81-109.61,87.23,21.76,118.8,81.41,118.8,81.41,38.77,69.36.62,107.26.62,107.26,11.93,21.16,17.52,33.68,17.52,33.68"/><path class="cls-1" d="M440.28,793.64C364.75,832,305.75,747.91,305.75,747.91c-36.36-51.24-36-111.41-36-111.41,94.93-20.39,150.39,22.87,150.39,22.87C486.69,708.7,464.5,764,464.5,764c20.4,15,31,24.57,31,24.57,3.28,3.14-6.23,22-7.85,22a.85.85,0,0,1-.54-.35c-2.82-4-21.86-25.68-33-36.48-26.35-26.54-70.63-65.37-122.93-89.52,73.51,53.74,107.71,97.49,107.71,97.49C443,787,446,790.62,440.28,793.64Z"/><path class="cls-1" d="M357.47,1029c-68.63,106-217,45.55-217,45.55C49.5,1038,0,962.22,0,962.22,109.39,864,219.14,875.83,219.14,875.83c129.52,11,145.93,97.39,145.93,97.39,39.61,3.22,61.7,7.11,61.7,7.11,7,1.43,10,32.4,7.82,33.61a1.47,1.47,0,0,1-1,0c-7-2.79-50.42-15.5-74.27-20.52-57.11-13.15-148.3-28-238-18.29,142.49,11.2,224.35,39.95,224.35,39.95C355.61,1018.5,362.62,1020.78,357.47,1029Z"/><path class="cls-1" d="M437.36,514.66C333.83,555.31,266.7,437.84,266.7,437.84,225.25,366.2,233,287.52,233,287.52c126.78-14.68,194.2,48.92,194.2,48.92,81.19,72.95,45.46,142.49,45.46,142.49,24.91,22.2,37.67,36.06,37.67,36.06,3.91,4.53-10.81,28-12.94,27.78a1.13,1.13,0,0,1-.65-.52c-3.23-5.52-25.53-36.36-38.87-51.91-31.31-38-84.62-94.45-150.2-132.66C397.46,437.28,437,498.85,437,498.85,441.78,506.28,445.27,511.43,437.36,514.66Z"/><path class="cls-1" d="M798.53,139.52c26.72,100.11-38.06,137-38.06,137,8.29,30.57,11.23,48.21,11.23,48.21.76,5.63-23.24,16.71-24.81,15.41a1.08,1.08,0,0,1-.25-.75c.31-6.07-1.41-42.17-3.93-61.45-5.13-46.51-18.24-119-50.63-183.39C722.2,204.39,721.6,273.87,721.6,273.87c0,8.4,0,14.31-7.94,12.78-103.82-21.26-96.09-149.54-96.09-149.54C621.87,58.62,669.1,0,669.1,0,777.92,54,798.53,139.52,798.53,139.52"/><rect class="cls-3" x="1034.03" y="936.64" width="88.37" height="754.43"/><path class="cls-4" d="M1122.4,1907l-88.37,3.27V1537.14c0-90.07,49.12-135.5,59.34-144,34.12-29.67,75.9-50.88,77.67-51.78l1.86-.88c42.27-18.91,102.36-22.87,109.07-23.25l2-.08c56.26-.64,81.28-11.61,86.42-14.21l7.25-4.07c12.61-5.8,29.37-26.84,35.55-36.81,7.93-13.3,12.64-36.42,13.44-41.84l1-4.81c2.76-10.44,1.47-22.38.74-26.11l86.41-18.48a153.26,153.26,0,0,1-1.13,64.85c-1.69,10.07-8.44,44.63-24.94,72.29-5.51,8.91-32.49,50.27-70.65,69.51-14.45,9.06-52.9,27-131.93,28-14.38,1-53.21,5.29-76.2,15.21-5.44,2.84-35.65,19-59,39.44l-1.86,1.54c-.37.35-26.73,23.66-26.73,75.43Z"/><path class="cls-5" d="M1078.22,997.78c-88,0-159.67-71.62-159.67-159.65s71.63-159.66,159.67-159.66,159.65,71.63,159.65,159.66S1166.24,997.78,1078.22,997.78Zm0-230.94a71.29,71.29,0,1,0,71.28,71.29A71.37,71.37,0,0,0,1078.22,766.84Z"/><path class="cls-6" d="M1034,1537.14c0-51.77-26.36-75.08-26.73-75.43l-1.86-1.54c-23.33-20.42-53.54-36.6-59-39.44-23-9.92-61.82-14.26-76.2-15.21-79-1.06-117.48-19-131.93-28-38.16-19.24-65.14-60.6-70.65-69.51-16.5-27.66-23.25-62.22-24.94-72.29a153.26,153.26,0,0,1-1.13-64.85L728,1189.32c-.72,3.73-2,15.67.74,26.11l1,4.81c.81,5.42,5.51,28.54,13.44,41.84,6.18,10,22.94,31,35.55,36.81l2.94.12,4.31,4c5.14,2.6,30.16,13.57,86.42,14.21l2.05.08c6.71.38,66.8,4.34,109.07,23.25l1.86.88c1.77.9,43.55,22.11,77.67,51.78,10.22,8.48,59.34,53.91,59.34,144V1893.4H1034Z"/><path class="cls-7" d="M1479.67,1236.72c-88,0-159.67-71.62-159.67-159.65s71.63-159.67,159.67-159.67,159.65,71.63,159.65,159.67S1567.7,1236.72,1479.67,1236.72Zm0-231a71.29,71.29,0,1,0,71.28,71.3A71.37,71.37,0,0,0,1479.67,1005.77Z"/><path class="cls-8" d="M517.11,1077.07c0-88,71.63-159.67,159.65-159.67S836.43,989,836.43,1077.07s-71.63,159.65-159.67,159.65S517.11,1165.1,517.11,1077.07Zm88.37,0a71.29,71.29,0,1,0,71.28-71.3A71.35,71.35,0,0,0,605.48,1077.07Z"/><path class="cls-1" d="M447.17,1332.71c14.59,100-103.49,135.63-103.49,135.63-72.12,22.15-140.29-.72-140.29-.72C216.65,1352.26,287,1305.45,287,1305.45c81.51-57.11,135.78-11.29,135.78-11.29,24.84-17.56,39.78-26.05,39.78-26.05,4.82-2.54,22.61,15.29,21.95,17.12a1,1,0,0,1-.6.48c-5.56,1.73-37.53,15.23-54.08,23.88-40.23,20-101.3,55.77-148.77,106.13,89.2-63.39,152-85.88,152-85.88C440.65,1327.09,445.94,1325.05,447.17,1332.71Z"/><path class="cls-7" d="M1077.92,2154.62c-88,0-159.67-71.62-159.67-159.65s71.63-159.67,159.67-159.67,159.65,71.63,159.65,159.67S1166,2154.62,1077.92,2154.62Zm0-230.95a71.3,71.3,0,1,0,71.29,71.3A71.39,71.39,0,0,0,1077.92,1923.67Z"/></g></g></svg>