<?xml version="1.0" encoding="utf-8"?>
<!-- Generator: Adobe Illustrator 25.3.1, SVG Export Plug-In . SVG Version: 6.00 Build 0)  -->
<svg version="1.1" xmlns="http://www.w3.org/2000/svg" xmlns:xlink="http://www.w3.org/1999/xlink" x="0px" y="0px"
	 viewBox="0 0 595.3 841.9" style="enable-background:new 0 0 595.3 841.9;" xml:space="preserve">
<style type="text/css">
	.st0{display:none;}
	.st1{fill:#511D72;}
	.st2{fill:#93DDF8;}
	.st3{fill:#FFFFFF;}
	.st4{fill:#251230;}
	.st5{fill:#5CB2D3;}
	.st6{fill:#C4EFFE;}
	.st7{fill:#F2F2F2;}
	.st8{opacity:0.2;}
	.st9{fill:#712899;}
	.st10{fill:#531D72;}
	.st11{fill:#A54DD6;}
	.st12{fill:#452956;}
	.st13{fill:none;stroke:#000000;stroke-miterlimit:10;}
	.st14{fill:#B564E3;}
	.st15{fill:none;}
	.st16{fill:#55A850;}
	.st17{fill:#531D73;}
	.st18{fill:#33752E;}
	.st19{fill:#9ED699;}
	.st20{fill:none;stroke:#000000;stroke-width:2;stroke-miterlimit:10;}
	.st21{fill:none;stroke:#153570;stroke-width:3.5;stroke-linecap:round;stroke-linejoin:round;stroke-miterlimit:10;}
	.st22{fill:none;stroke:#153570;stroke-width:3.5;stroke-linejoin:round;stroke-miterlimit:10;}
	.st23{fill:none;stroke:#EB8F38;stroke-width:3;stroke-linecap:round;stroke-linejoin:round;stroke-miterlimit:10;}
	.st24{fill:#EB8F38;}
</style>
<g id="Layer_2" class="st0">
	
		<image style="display:inline;overflow:visible;" width="731" height="770" xlink:href="EFC90095.png"  transform="matrix(0.5998 0 0 0.5998 92.6828 34.4006)">
	</image>
</g>
<g id="Layer_3_1_">
	<path class="st1" d="M376.1,296l1.5,0.4l1.4,0.4c0,0,3.6,9.9,0,18.3c-3.5,8.4-6.7,9.8-4.3,18.8l-9.4-0.8l-20.1,0.8
		C345.1,333.9,345.4,286.2,376.1,296"/>
	<path class="st2" d="M396.6,397.3c0,35.7-17.8,67.2-45.2,86c-2.1,1.5-4.3,2.8-6.4,4.1c-0.6,0.4-1.2,0.7-1.9,1
		c-14.8,8.3-31.8,13.1-49.9,13.3c-0.4,0-0.9,0-1.3,0c-0.6,0-1.2,0-1.9,0c-19.5-0.4-37.6-6.1-53.1-15.8
		c-29.1-18.1-48.7-50.2-49.3-86.8c0-0.7,0-1.3,0-2.1c0-17.6,4.4-34.2,12-48.8c12.2-23.1,32.8-41.1,57.6-49.9c10.9-3.8,22.6-6,34.8-6
		C349.9,292.7,396.6,339.5,396.6,397.3z"/>
	<path class="st3" d="M363.9,403.1c0,19.5-3.4,29.5-6,34.4c-1.7,3.1-3,4-3,4s-25.4,16.3-63,16.3s-62.5-16.3-62.5-16.3
		s-9-11.5-9-38.5s9-43.6,9-43.6s3.9,2.2,11.3,4.7c10.5,3.5,27.8,7.7,51.2,7.7c40,0,63-12.3,63-12.3S363.9,371.3,363.9,403.1z"/>
	<path class="st2" d="M400.4,568.7c-2.5,2.4-6.1,4.1-11.2,4.6c-12.5,1.2-22.7-9-29.8-19.7l0,0c0.8-5,1.2-10.1,1.2-15.2
		c0-12-2.3-23.4-6.3-33.7c18.6,8.8,31.1,16.4,39,24.9c2.8,3,5,6.1,6.7,9.4C405.1,549.1,407.3,562,400.4,568.7z"/>
	<path class="st2" d="M220.3,538.5c0,1.5,0,2.8,0.1,4.3c-8,8.1-19,16.5-30.1,16.5c-2.3,0-4.7-0.4-7-1.2c-0.6-0.2-1.1-0.4-1.7-0.6
		c-0.5-0.2-0.9-0.4-1.4-0.6c-10.5-5.3-10.2-15.4-5.8-24.7c1.6-3.5,4-6.9,6.6-10c4.1-4.7,9.4-8.5,16.4-11.8c0,0,0,0,0,0
		c7.9-3.7,18-6.7,30.8-9.4C223.2,512,220.3,524.9,220.3,538.5z"/>
	<path class="st2" d="M267.7,638.3c-4,9.6-11.1,17.9-18.1,21.7c-2.5,1.3-5.2,2.2-7.8,2.6c-3,0.4-6,0.1-8.7-1
		c-5.2-2.2-9.1-7-10.8-13.3c-0.6-2.2-0.8-4.7-0.8-7.3c0-6.3,1.8-13.6,4.7-20.2c4.3-10,11.2-17.5,18.6-21l26.6,16.6
		C272,622.9,270.9,630.6,267.7,638.3z"/>
	<path class="st2" d="M361.9,641c-0.1,1.8-0.4,3.5-0.8,5.1c-1.7,6.1-5.6,11.1-10.8,13.3c-2.8,1.2-6,1.5-9.2,1
		c-2.5-0.4-5-1.2-7.3-2.5c-7-3.7-14.1-12-18.1-21.7c-3-7.2-4.1-14.4-3.6-20.7l26.5-18c7.5,3.5,14.5,11.1,18.8,21.3
		C360.5,626,362.3,634.1,361.9,641z"/>
	<path class="st2" d="M360.7,538.4c0,5.2-0.4,10.4-1.2,15.2l0,0c-0.9,5.5-2.3,10.9-4.1,16c-0.3,0.8-0.6,1.6-0.8,2.3
		c-11.1,28-35.6,47.4-64,47.4c-14.5,0-27.9-5.1-39.1-13.7c-6.6-5.1-12.4-11.5-17.2-18.8c-8.1-12.4-13.1-27.7-13.9-44.2l0,0
		c-0.1-1.3-0.1-2.8-0.1-4.3c0-13.6,2.9-26.3,8.1-37.6c1.3-3,2.8-5.8,4.5-8.5c0.7-1.1,1.3-2.3,2.2-3.3c0.6-0.9,1.2-1.9,2-2.8
		c16.1,10,34.9,15.8,55.2,15.8c18.6,0,36-4.9,51.1-13.3c0.8-0.1,1.7-0.2,2.4-0.3c0.5,0.7,0.9,1.3,1.3,2.1c2,3.1,3.7,6.3,5.3,9.6
		c0.7,1.6,1.5,3.1,2.1,4.8C358.4,515,360.7,526.4,360.7,538.4z"/>
	<path class="st4" d="M205,381l-4,14.3l-0.2,0.1l-12.3,4.7c-3.5-0.8-6.5-1.6-8.9-2.4c-2.5-0.8-4.5-1.6-6.1-2.3c-7.3-3.4-6.4-6-6.4-6
		c-0.1-5.1,3.6-8.7,7.8-11.1c5.2-3,11.1-4.3,11.1-4.3L205,381z"/>
	<path class="st2" d="M345.5,488.3c-0.8,0.1-1.6,0.2-2.4,0.3c0.6-0.3,1.2-0.7,1.9-1C345.2,487.8,345.4,488,345.5,488.3z"/>
	<path class="st5" d="M343.1,488.5c-14.8,8.3-31.8,13.1-49.9,13.4c-0.4,0-0.9,0-1.3,0c-0.6,0-1.2,0-1.9,0
		c-19.5-0.4-37.6-6.1-53.1-15.8c-29.1-18.1-48.7-50.2-49.3-86.8c0-0.7,0-1.3,0-2.1c0-17.6,4.4-34.2,12-48.8
		c12.4-21.9,32.6-38.8,56.7-47.3c-40.7,36.5-58.2,81.2-45,124C231.7,491.9,302.5,493.6,343.1,488.5z"/>
	<path class="st6" d="M351.5,487.4c-1.5,1-3,2-4.6,3c-0.4-0.7-0.9-1.5-1.3-2.1C347.6,488,349.7,487.8,351.5,487.4z"/>
	<path class="st5" d="M400.4,568.7c-2.5,2.4-6.1,4.1-11.2,4.6c-12.5,1.2-22.7-9-29.8-19.7l0,0c0.8-5,1.2-10.1,1.2-15.2
		c0-12-2.3-23.4-6.3-33.7c18.6,8.8,33.2,18.6,42.3,29c-21.4-13.3-24.5-13-24.5-13c-2.2,18,0.2,30.4,0.2,30.4
		C377.1,562.6,389.5,567.1,400.4,568.7z"/>
	<path class="st7" d="M357.9,437.5c-1.7,3.1-3,4-3,4s-25.4,16.3-63,16.3s-62.5-16.3-62.5-16.3s-9-11.5-9-38.5s9-43.6,9-43.6
		s3.9,2.2,11.3,4.7c-13.2,39.7-1.3,67.2-1.3,67.2C290.2,461.7,347.8,441.4,357.9,437.5z"/>
	<path class="st5" d="M360.7,538.4c0,5.2-0.4,10.4-1.2,15.2l0,0c-0.9,5.5-2.3,10.9-4.1,16c2.5-19.3,1.3-42.9-12.1-62.2
		c0,0-51.6,22.2-96.7,10.1c0,0-21,33.5,5,88.1c-6.6-5.1-12.4-11.5-17.2-18.8c-8.1-12.4-13.1-27.7-13.9-44.2l0,0
		c-0.1-1.3-0.1-2.8-0.1-4.3c0-13.6,2.9-26.3,8.1-37.6c1.3-3,2.8-5.8,4.5-8.5c0.7-1.1,1.3-2.3,2.2-3.3c0.6-0.9,1.2-1.9,2-2.8
		c16.1,10,34.9,15.8,55.2,15.8c18.6,0,36-4.9,51.1-13.3c0.8-0.1,1.7-0.2,2.4-0.3c0.5,0.7,0.9,1.3,1.3,2.1c2,3.1,3.7,6.3,5.3,9.6
		c0.7,1.6,1.5,3.1,2.1,4.8C358.4,515,360.7,526.4,360.7,538.4z"/>
	<path class="st5" d="M267.7,638.3c-4,9.6-11.1,17.9-18.1,21.7c-2.5,1.3-5.2,2.2-7.8,2.6c8.1-8.2,16.6-20.6,15-36.3
		c0,0-11.7-3.2-16.2-11.5c0,0-10.1,4.1-19.3,26.2c0-6.3,1.8-13.6,4.7-20.2c4.3-10,11.2-17.5,18.6-21l26.6,16.6
		C272,622.9,270.9,630.6,267.7,638.3z"/>
	<path class="st5" d="M361.9,641c-9.5-24.8-20.5-29.3-20.5-29.3c-4.4,8.4-16.2,11.5-16.2,11.5c-1.6,16.2,7.6,28.9,15.9,37.1
		c-2.5-0.4-5-1.2-7.3-2.5c-7-3.7-14.1-12-18.1-21.7c-3-7.2-4.1-14.4-3.6-20.7l26.5-18c7.5,3.5,14.5,11.1,18.8,21.3
		C360.5,626,362.3,634.1,361.9,641z"/>
	<path class="st6" d="M368.8,456.4c7.7-10.3,16-30,13.2-34.8c-1.6-2.7-7.2,16-18.8,30.1c-12.9,15.7-28.5,24.4-25.9,26
		C341.1,480.3,359.6,469,368.8,456.4z"/>
	<path class="st6" d="M387.9,402.3c0-3.7-0.9-10-3.2-10.7c-1.2-0.4-0.9,5.2-1.3,10.5c-0.5,5.9-1.3,10.4,0.1,10.5
		C385.3,412.5,387.8,406.8,387.9,402.3z"/>
	<path class="st5" d="M220.3,538.5c0,1.5,0,2.8,0.1,4.3c-8,8.1-19,16.5-30.1,16.5c-2.3,0-4.7-0.4-7-1.2c-0.6-0.2-1.1-0.4-1.7-0.6
		c-0.5-0.2-0.9-0.4-1.4-0.6c10.3-0.9,20.9-4.5,26.7-14c0,0,6.1-10.6,6.8-30.5c0,0-18.5-0.5-35.7,12.1c4-3.3,14.2-11,19.5-14
		c0,0,0,0,0,0c7.9-3.7,18-6.7,30.8-9.4C223.2,512,220.3,524.9,220.3,538.5z"/>
	<path class="st8" d="M372.6,330.7c0,0-8.4,6.7-25.8,11c-17.4,4.3-16.7,9.2-27.5,15.4c-10.8,6.3-21,16.4-40.7,18.4
		c-19.7,2.1-32,3-47.6,9.8c-8.8,3.8-19.1,7.7-30.3,10.1c-6.8,1.4-5.7,1.8-13.1,1.8c-1.6-0.5-0.5-6.8,0.1-11.7c0,0,0,0,0,0
		c0.3-2.9,0.5-5.2-0.1-5.5l-10-2.6l-2.8,0.8l1.2-13.6l0-0.2c3.1-4.4,6.3-9.7,9.4-16.1c0.6-1.3,1.2-2.6,1.8-4
		c0.1-0.3,0.3-0.6,0.4-0.9c2.1-4.8,4-10.1,5.8-16l3.8-4L210,310l96.5-12.6l55.8-0.5l-3.7,19.7v0L372.6,330.7z"/>
	<path class="st6" d="M304.4,563.8c9.7-14,20.1-17,25.3-5c6.9,15.7,2,28.1-9.6,31.7c-10.7,3.3-19.6-1.5-20.6-9.8
		S304.4,563.8,304.4,563.8z"/>
	<path class="st9" d="M392.6,284.6c-0.1,0.2-0.3,0.5-0.4,0.7c-0.5,0.8-1.2,1.7-2,2.5c-0.2,0.2-0.5,0.5-0.7,0.7h0
		c-0.2,0.2-0.5,0.5-0.7,0.7c-0.3,0.2-0.5,0.4-0.8,0.7c-0.3,0.2-0.5,0.4-0.8,0.6c-0.3,0.2-0.5,0.4-0.8,0.6c-0.3,0.2-0.5,0.4-0.8,0.6
		c-0.3,0.2-0.6,0.4-0.8,0.6c-0.3,0.2-0.5,0.4-0.8,0.6h0c-0.3,0.2-0.5,0.4-0.8,0.5c-3.7,2.4-7,3.9-7.3,4c0,0,0,0,0,0c0,0,0,0,0,0
		c-0.1,0.2-0.1,0.4-0.2,0.6c-0.1,0.2-0.1,0.4-0.1,0.6c-0.1,0.2-0.1,0.4-0.2,0.6c0,0.2-0.1,0.4-0.2,0.6c-0.1,0.2-0.1,0.4-0.2,0.6
		c-0.1,0.2-0.1,0.3-0.2,0.5c-0.2,0.4-0.4,0.9-0.6,1.3c-0.1,0.1-0.1,0.3-0.2,0.5c-0.1,0.3-0.3,0.6-0.5,0.8c-0.1,0.2-0.3,0.4-0.4,0.7
		c-0.7,1.1-1.5,2.1-2.4,3.2c-0.2,0.2-0.4,0.5-0.6,0.7c-0.4,0.5-0.9,0.9-1.3,1.4c0,0,0,0-0.1,0.1c-0.2,0.1-0.3,0.3-0.5,0.5
		c-0.1,0.1-0.1,0.1-0.2,0.2c-0.3,0.3-0.7,0.6-1,0.9c-0.3,0.3-0.7,0.6-1.1,0.9c-0.2,0.1-0.3,0.3-0.5,0.4c-0.2,0.2-0.4,0.3-0.6,0.5
		c-0.4,0.3-0.8,0.6-1.1,0.8c-0.1,0.1-0.1,0.1-0.2,0.1c-1.1,0.8-2.2,1.4-3.4,2.1c0,0,0,0-0.1,0c-0.4,0.2-0.8,0.4-1.2,0.6v0
		c-0.4,0.2-0.8,0.4-1.3,0.5c-0.3,0.1-0.6,0.2-0.9,0.3c-0.8,0.3-1.6,0.5-2.3,0.7c-0.3,0.1-0.7,0.2-1,0.2c-0.7,0.1-1.4,0.2-2.1,0.3
		c-0.1,0-0.2,0-0.3,0c-0.3,0-0.7,0-1,0c-0.2,0-0.5,0-0.7,0h0c0.1,1,0,2-0.6,2.8c-3.7,5.1-9.5,6.5-16.9,8.3c-1,0.2-1.9,0.6-2.8,1
		c-5.7,2.4-10.5,7.2-15.5,10.7c-9.8,6.8-14.5,11.8-25.6,12.8c-8.1,0.8-13.1,1.4-15-4.7c0-0.1-0.1-0.2-0.1-0.3
		c0.2,1.2,0.4,2.5,0.6,3.9c0,0-1.4,3.8-6.3,6.5c-1.6,0.9-3.6,1.7-6,2.2c-9.6,2-9.2,0.8-16.2,2.7c-7.1,1.8-8.6,6.9-17,7.1
		c-0.5,0-0.9,0-1.4,0c-1.8,0-3.2-0.1-4.6-0.3c-0.5-0.1-1-0.1-1.5-0.2c0,0,0,0,0,0c-0.1,0.1-0.2,0.2-0.3,0.3c0,0,0,0,0,0.1
		c-0.2,0.2-0.3,0.3-0.5,0.5c-0.1,0.1-0.2,0.2-0.4,0.3c-0.1,0.1-0.2,0.2-0.4,0.3c-0.4,0.3-0.8,0.6-1.2,0.9c-0.5,0.3-0.9,0.6-1.5,0.9
		c-0.7,0.4-1.5,0.9-2.3,1.3h0c-0.2,0.1-0.4,0.2-0.5,0.3c-0.2,0.1-0.4,0.2-0.6,0.3c-0.2,0.1-0.4,0.2-0.6,0.3
		c-0.4,0.2-0.9,0.4-1.3,0.7c-0.3,0.1-0.5,0.3-0.8,0.4c-0.4,0.2-0.8,0.4-1.3,0.6c-1.5,0.7-3,1.3-4.6,1.9c-0.4,0.2-0.9,0.3-1.3,0.5
		c-0.9,0.4-1.8,0.7-2.8,1c-3.3,1.2-6.8,2.3-10.3,3.4c-0.4,0.1-0.7,0.2-1.1,0.3c-0.1,0-0.3,0.1-0.4,0.1c-0.7,0.2-1.4,0.4-2.1,0.6
		c-1.2,0.3-2.3,0.6-3.5,0.9c-0.7,0.2-1.5,0.3-2.2,0.5c-1,0.2-1.9,0.4-2.8,0.6c-0.3,0.1-0.7,0.1-1,0.2c-0.2,0-0.4,0.1-0.6,0.1
		c-0.4,0.1-0.9,0.1-1.3,0.2c-0.1,0-0.2,0-0.3,0c-0.7,0.1-1.4,0.2-2.1,0.3c-0.4,0.1-0.9,0.1-1.3,0.1c-0.5,0.1-1,0.1-1.4,0.1
		c-6.1,0.5-10.2-0.4-10.2-3.3c0-0.8,0.4-1.7,1.2-2.7c2.5-3.5,8.9-8.8,16-18.9c3.1-4.4,6.3-9.7,9.4-16.1c0.6-1.3,1.2-2.6,1.8-4
		c0.1-0.3,0.3-0.6,0.4-0.9c2.1-4.8,4-10.1,5.8-16c1.5-4.8,2.8-10.1,4-15.8v0c0.6-0.6,1.3-1.2,1.9-1.8c0.3-0.3,0.6-0.6,1-1
		c0.3-0.3,0.5-0.5,0.8-0.8c0.9-0.9,1.8-1.8,2.6-2.7c0.4-0.4,0.8-0.8,1.2-1.3c1-1.1,2-2.3,2.9-3.3c0.4-0.5,0.8-1,1.2-1.4
		c0.8-0.9,1.4-1.8,2-2.5c2.7-3.5,2.5-11.1,1.7-17.3c0-0.4-0.1-0.8-0.2-1.2c-0.1-0.7-0.2-1.3-0.3-2c-0.1-0.4-0.1-0.8-0.2-1.2
		c0-0.2-0.1-0.4-0.1-0.6c-0.1-0.3-0.1-0.6-0.2-0.8c0-0.1,0-0.2-0.1-0.3c0-0.3-0.1-0.5-0.1-0.7c-0.1-0.5-0.2-0.9-0.3-1.3
		c0-0.1,0-0.2-0.1-0.3c0,0,0,0,0-0.1c0-0.2-0.1-0.3-0.1-0.5c-0.1-0.2-0.1-0.3-0.1-0.5c0-0.1,0-0.2,0-0.2c4.5,8,9.7,14.3,14.4,19.1
		c1.4,1.5,2.8,2.7,4.1,3.9c0.5,0.5,1.1,1,1.6,1.4c0.1,0.1,0.2,0.1,0.3,0.2c0.3,0.2,0.6,0.5,0.9,0.7c0.5,0.5,1.1,0.9,1.6,1.3
		c2.4,1.9,4,2.9,4,2.9c1.2,0.9,1.8,0.9,1.9,0.3c0,0,0-0.1,0-0.1c0-0.1,0-0.3,0-0.5c0-0.1,0-0.1,0-0.2c-0.1-0.8-0.4-1.9-0.9-3.2
		c-0.2-0.6-0.4-1.2-0.7-1.8c-1.3-3.1-3.2-7.2-5.3-11.4c-0.3-0.5-0.5-1.1-0.8-1.6c-0.4-0.7-0.7-1.4-1.1-2.2c-0.3-0.5-0.5-1-0.7-1.4
		c-2.2-4.2-4.4-8.3-6.3-11.7c-0.2-0.4-0.4-0.8-0.6-1.2c-0.5-0.9-1-1.8-1.4-2.6c-0.1-0.2-0.2-0.4-0.3-0.6c-0.5-0.9-1-1.7-1.3-2.3
		c-0.1-0.1-0.1-0.2-0.2-0.3c-0.4-0.8-0.7-1.2-0.7-1.2c2.7,2.6,5.4,5,8,7.1c1,0.8,2.1,1.6,3.1,2.4c0.5,0.4,1,0.7,1.5,1.1s1,0.7,1.5,1
		c0.5,0.3,1,0.7,1.5,1c0.2,0.1,0.3,0.2,0.5,0.3c0.3,0.2,0.7,0.4,1,0.6c2.4,1.5,4.7,2.7,6.9,3.8c1,0.5,2,0.9,2.9,1.3
		c0.4,0.2,0.8,0.3,1.1,0.4c2.6,1,5,1.8,7.2,2.3c0.4,0.1,0.7,0.2,1,0.2c1.3,0.3,2.5,0.5,3.6,0.6c0.3,0,0.7,0.1,1,0.1
		c0.8,0.1,1.6,0.1,2.4,0.1c2,0,3.6-0.2,4.8-0.5c0.5-0.1,0.9-0.3,1.2-0.4c0.2-0.1,0.3-0.2,0.5-0.3c0.1,0,0.1-0.1,0.2-0.1
		c0,0,0.1-0.1,0.1-0.1c0.2-0.2,0.3-0.4,0.2-0.6c-0.2-0.4-1.3-1-2.9-1.7c-0.2-0.1-0.4-0.2-0.6-0.3c-2.9-1.2-7.1-3-11.5-5.2
		c-0.3-0.2-0.6-0.3-0.9-0.5c-2.2-1.1-4.4-2.4-6.5-3.8c-0.8-0.5-1.5-1-2.2-1.5c-1.6-1.1-3.1-2.2-4.4-3.2c-0.3-0.2-0.6-0.5-0.9-0.7
		c-0.9-0.7-1.7-1.4-2.5-2c-0.3-0.2-0.5-0.4-0.8-0.6c-2.5-2.1-4.2-3.7-5.3-4.8c-0.1-0.1-0.2-0.2-0.3-0.3c-0.5-0.5-0.8-0.9-1-1.1
		c0,0-0.1-0.1-0.1-0.1c0-0.1-0.1-0.1-0.1-0.1c0,0-0.1-0.1-0.1-0.1h0c0,0,0,0,0,0c6.6,2.8,12.3,4.8,17.4,6h0c1.2,0.3,2.5,0.6,3.6,0.8
		c4.1,0.8,7.7,1.1,10.7,0.9c0.3,0,0.6,0,0.9,0c0.1,0,0.2,0,0.4,0c0.3,0,0.6,0,1-0.1c0.8-0.1,1.5-0.2,2.2-0.3c0.3-0.1,0.7-0.1,1-0.2
		c0.3-0.1,0.6-0.1,1-0.2c0,0,0,0,0,0c0.3-0.1,0.6-0.2,0.9-0.2c0.6-0.2,1.2-0.4,1.7-0.6c0.2-0.1,0.4-0.2,0.6-0.3
		c0.6-0.2,1.1-0.5,1.6-0.8c0.2-0.1,0.5-0.3,0.7-0.4c0.2-0.1,0.4-0.2,0.6-0.4c0.2-0.1,0.4-0.3,0.7-0.4c0,0,0,0,0,0
		c0.2,0.1,0.4,0.2,0.6,0.4l0.1,0.1c0.3,0.2,0.6,0.4,1,0.6c0.7,0.4,1.4,0.8,2.1,1.2c1.8,1.1,3.9,2.2,6,3.3
		c10.1,5.3,22.6,10.9,27.8,13.1c0.8,0,1.6-0.1,2.4-0.2c0.8-0.1,1.6-0.1,2.4-0.2c0.1,0,0.2,0,0.3,0c0.6-0.1,1.3-0.1,1.9-0.2
		c0.3,0,0.5,0,0.8-0.1c0.8-0.1,1.7-0.2,2.5-0.3c1.7-0.2,3.5-0.4,5.2-0.7c1.1-0.1,2.2-0.3,3.3-0.5c1.4-0.2,2.8-0.4,4.1-0.7
		c0.4-0.1,0.8-0.1,1.2-0.2c0.4-0.1,0.9-0.1,1.3-0.2c0.7-0.1,1.5-0.3,2.2-0.4c0.6-0.1,1.3-0.2,1.9-0.4c0.1,0,0.2,0,0.4-0.1
		c1.2-0.2,2.4-0.5,3.6-0.7c0.6-0.1,1.3-0.3,1.9-0.4c0.9-0.2,1.8-0.4,2.7-0.6c0.4-0.1,0.7-0.2,1.1-0.2c0.6-0.1,1.2-0.3,1.8-0.4
		c1.5-0.3,2.8-0.7,4-1c1.4-0.4,2.7-0.7,3.7-0.9c0.3-0.1,0.5-0.1,0.7-0.2c0.1,0,0.1,0,0.2,0c0.2-0.1,0.4-0.1,0.6-0.2
		c1-0.3,1.5-0.4,1.5-0.4c0.6,1,1.2,1.9,1.8,2.7c0.2,0.2,0.3,0.4,0.5,0.6c0.5,0.6,0.9,1.2,1.4,1.7c0.4,0.5,0.8,0.9,1.3,1.3
		c1.7,1.7,3.5,2.9,5.2,3.7c0.2,0.1,0.4,0.2,0.6,0.3c8.2,3.6,15.8-0.2,18.3,2.6c0.4,0.4,0.7,0.8,0.9,1.3c0.1,0.1,0.1,0.3,0.2,0.4
		c0.1,0.3,0.2,0.5,0.2,0.8C393.8,281.7,393.4,283.1,392.6,284.6z"/>
	<path class="st10" d="M220.1,371.1c-0.1,0.1-0.2,0.2-0.3,0.3c0,0,0,0,0,0.1c-0.1,0.2-0.3,0.3-0.5,0.5c-0.1,0.1-0.2,0.2-0.4,0.3
		c-0.1,0.1-0.2,0.2-0.4,0.3c-0.4,0.3-0.8,0.6-1.2,0.9c-0.4,0.3-0.9,0.6-1.5,0.9c-0.7,0.4-1.5,0.9-2.3,1.3h0
		c-0.2,0.1-0.4,0.2-0.5,0.3c-0.2,0.1-0.4,0.2-0.6,0.3c-0.2,0.1-0.4,0.2-0.6,0.3c-0.4,0.2-0.9,0.4-1.3,0.7c-0.3,0.1-0.5,0.3-0.8,0.4
		c-0.4,0.2-0.8,0.4-1.3,0.6c-1.5,0.7-3,1.3-4.6,1.9c-0.4,0.2-0.9,0.3-1.3,0.5c-0.9,0.4-1.8,0.7-2.8,1c-3.3,1.2-6.8,2.3-10.3,3.4
		c-0.4,0.1-0.7,0.2-1.1,0.3c-0.1,0-0.3,0.1-0.4,0.1c-0.7,0.2-1.4,0.4-2.1,0.6c-1.2,0.3-2.3,0.6-3.5,0.9c-0.7,0.2-1.5,0.3-2.2,0.5
		c-1,0.2-1.9,0.4-2.8,0.6c-0.4,0.1-0.7,0.1-1,0.2c-0.2,0-0.4,0.1-0.6,0.1c-0.4,0.1-0.9,0.1-1.3,0.2c-0.1,0-0.2,0-0.3,0
		c-0.7,0.1-1.4,0.2-2.1,0.3c-0.4,0.1-0.9,0.1-1.3,0.1c-0.5,0.1-1,0.1-1.4,0.1c-6.1,0.5-10.2-0.4-10.2-3.3c0-0.8,0.4-1.7,1.2-2.7
		c2.5-3.4,8.9-8.6,16-18.7c3.1-4.4,6.4-9.9,9.5-16.5c0.6-1.2,1.2-2.5,1.7-3.8c0.1-0.3,0.3-0.6,0.4-0.9c3.6-8.4,6.9-18.6,9.5-30.9
		c2.1,21.2-7.6,41.4-8.7,44.8c-7.1,22,11.9,13.8,17.7,13.2C212,369.8,220.1,371.1,220.1,371.1z"/>
	<path class="st11" d="M387.8,279.4c0,0-0.1,0-0.1,0c-6.2,2.9-9.9,11.8-11.6,18c-0.1,0.2-0.1,0.4-0.2,0.6c-0.1,0.2-0.1,0.4-0.1,0.6
		c-0.1,0.2-0.1,0.4-0.2,0.6c0,0.2-0.1,0.4-0.2,0.6c-0.1,0.2-0.1,0.4-0.2,0.6c-0.2,0.5-0.5,1.1-0.8,1.7c-0.1,0.1-0.1,0.3-0.2,0.4
		c-0.1,0.3-0.3,0.5-0.5,0.8c-0.1,0.2-0.3,0.4-0.4,0.6c-0.7,1-1.4,2-2.3,3c-0.2,0.2-0.4,0.4-0.6,0.7c-0.4,0.4-0.8,0.9-1.3,1.3
		c0,0,0,0-0.1,0.1c-0.2,0.1-0.3,0.3-0.5,0.4c-0.1,0.1-0.1,0.1-0.2,0.2c-0.3,0.3-0.7,0.6-1,0.9c-0.3,0.3-0.7,0.6-1,0.8
		c-0.2,0.1-0.3,0.2-0.5,0.4c0,0,0,0,0,0c-0.1-0.5,1-15.4-19.6-16.8c-23.6-1.5-41-7.1-54.5-15.3c0,0,20.7,7.2,52.1,5.1
		c18-1.2,19.7-9.6,29.7-8.3c0,0,0,0,0,0C380.6,279.5,385.1,278.2,387.8,279.4z"/>
	<path class="st4" d="M221.5,371.3l-5.4,4c0,0-1,0.1-2.7,0.4h0c-5,0.7-16.4,3.9-24.5,4c-4.6,0.1-11.6-1.6-10.3-8.9
		c1.7-10.3,13.7-23.8,15.4-39.1c0,0-3.7,8.4-8.6,16.3c0,0.1-0.1,0.1-0.1,0.1c0.6-1.3,1.2-2.6,1.8-4c0.1-0.3,0.3-0.6,0.4-0.9
		c2.1-4.8,4-10.1,5.8-16c1.5-4.8,2.8-10.1,4-15.8c0.1,4.3,0,8.2-0.2,11.8c-1.3,23.1-8.2,32.4-9.2,36.2c-4.9,17.5,6.2,11.7,18,10.9
		c7.3-0.5,10.5,0.2,13.9,0.7c0,0,0,0,0,0C220.5,371.1,221,371.2,221.5,371.3z"/>
	<path class="st11" d="M280.8,273c18.7,2,48.8,1.8,70.9-5.4c11.1-3.6,11.3,3,6,7.7C353.3,279.1,310.2,285.6,280.8,273z"/>
	<path class="st12" d="M357.4,317.1c-0.3,0.1-0.6,0.2-0.9,0.3c-0.8,0.3-1.6,0.5-2.3,0.7c-0.3,0.1-0.7,0.2-1,0.2
		c-0.7,0.1-1.4,0.2-2.1,0.3c-0.1,0-0.2,0-0.3,0c-0.3,0-0.7,0-1,0c-0.2,0-0.5,0-0.7,0h0c-0.5-3.8-5.5-8.6-10.4-10.3
		c-10.7-3.7-16.4-1.5-27.5-3.8c-27.1-5.7-48-24.5-48.7-25.1c2,0,3.6-0.2,4.8-0.5c0.5-0.1,0.9-0.3,1.2-0.4c0.2-0.1,0.3-0.2,0.5-0.3
		c0.1,0,0.1-0.1,0.2-0.1c0,0,0.1-0.1,0.1-0.1c0.2-0.2,0.3-0.4,0.2-0.6c-0.2-0.4-1.3-1-2.9-1.7c-0.2-0.1-0.4-0.2-0.6-0.3
		c-2.9-1.2-7.1-3-11.5-5.2c-0.3-0.2-0.6-0.3-0.9-0.5c-2.2-1.1-4.4-2.4-6.5-3.8c-0.8-0.5-1.5-1-2.2-1.5c-1.6-1.1-3.1-2.2-4.4-3.2
		c-0.3-0.2-0.6-0.5-0.9-0.7c-0.9-0.7-1.7-1.4-2.5-2c-0.3-0.2-0.5-0.4-0.8-0.6c-2.5-2.1-4.2-3.7-5.3-4.8c-0.1-0.1-0.2-0.2-0.3-0.3
		c-0.5-0.5-0.8-0.9-1-1.1c0,0-0.1-0.1-0.1-0.1c0-0.1-0.1-0.1-0.1-0.1c0,0-0.1-0.1-0.1-0.1c6.6,2.8,12.3,4.8,17.4,6h0
		c1.3,0.3,2.5,0.6,3.6,0.8c4.1,0.8,7.7,1.1,10.7,0.9c0.3,0,0.6,0,0.9,0c0.1,0,0.2,0,0.4,0c0.3,0,0.6,0,1-0.1
		c0.8-0.1,1.5-0.2,2.2-0.3c0.3-0.1,0.7-0.1,1-0.2c0.3-0.1,0.6-0.1,1-0.2c0,0,0,0,0,0c0.3-0.1,0.6-0.2,0.9-0.2
		c0.6-0.2,1.2-0.4,1.7-0.6c0.2-0.1,0.4-0.2,0.6-0.3c0.6-0.2,1.1-0.5,1.6-0.8c0.2-0.1,0.5-0.3,0.7-0.4c0.2-0.1,0.4-0.2,0.6-0.4
		c0.2-0.1,0.4-0.3,0.7-0.4c0,0,0,0,0,0c0.2,0.1,0.4,0.2,0.6,0.4l0.1,0.1c0.3,0.2,0.6,0.4,1,0.6c0.7,0.4,1.4,0.8,2.1,1.2
		c1.8,1.1,3.9,2.2,6,3.3c0,0,0,0,0,0c-11.9,6.3-31.3,3.6-31.3,3.6c7.6,3.7,16.2,5.4,20.7,8.2c6.1,3.7,3.1,9.8,12.7,14.5
		c10.6,5.2,31.2,12.6,47.1,13.8C353.6,302.4,357.4,317.1,357.4,317.1z"/>
	<path class="st13" d="M702.9,461.6C702.9,461.6,702.9,461.6,702.9,461.6"/>
	<path class="st14" d="M279.3,302.6c-1.6,1.4,11.1,20.7,14.4,29.1c2,5.1,11-3.2,16.4-6c5.4-2.8,18.5-5,18.5-8.1
		c0-3.2-5.3-3.4-16.7-4S280.9,301.2,279.3,302.6z"/>
	<path class="st4" d="M220.9,260c15.9,25.1,19.4,39.6,19.4,39.6c5.3,28.7,28.1,35.9,28.1,35.9l0,0c0,0-1.7,14,0,0
		c1.7-14-23.8-59.9-23.8-59.9C230.6,267.6,220.9,260,220.9,260"/>
	<path class="st15" d="M239.6,299.5c0,0.2,0.6,3.2,2.2,7.4c2.9,7.8,9.3,19.8,21.9,26.4c0,0,0,0,0,0c1.5,0.8,3.1,1.5,4.8,2.1
		c0,0,2.8,3.9,4.6,17.6c0,0-2.4,6.6-12.4,8.7c-9.6,2-9.2,0.8-16.2,2.7c-7.1,1.8-8.6,6.9-17,7.1c-2.5,0.1-4.3-0.1-5.9-0.3
		c-4-0.5-7-1.4-15.4-0.9c-11.8,0.8-22.9,6.6-18-10.9c1.2-4.4,10.2-16.1,9.4-48"/>
	<path class="st15" d="M262.4,279.4c0.7,0.6,21.6,19.4,48.7,25.1c11.1,2.3,16.8,0.2,27.5,3.8c0,0,0,0,0,0c4.9,1.7,9.9,6.5,10.4,10.3
		c0.1,1,0,2-0.6,2.8c-3.7,5.1-9.5,6.5-16.9,8.3c-1,0.2-1.9,0.6-2.8,1c-5.7,2.4-10.5,7.2-15.5,10.7c-9.8,6.8-14.5,11.8-25.6,12.8
		c-8.1,0.8-13.1,1.4-15-4.7c0-0.1-0.1-0.2-0.1-0.3v0c-1.8-6.3-2.5-19.9-12.9-43.4c-3.7-8.4-8.6-18.1-15.2-29.2
		c-0.4-0.7-0.8-1.4-1.3-2.1"/>
	<path class="st15" d="M274,255.1c0.2,0.1,0.4,0.2,0.6,0.4l0.1,0.1c0.3,0.2,0.6,0.4,1,0.6c0.7,0.4,1.4,0.8,2.1,1.2
		c1.8,1.1,3.9,2.2,6,3.3c10.1,5.2,22.6,10.7,27.7,12.8"/>
	<path class="st12" d="M238.2,283.7c6,10,7.8,16.9,7.8,16.9c2.1,12.3,12.7,19,12.7,19s0.5-1.4-0.9-5.1c-2-5.7-10.8-25.9-10.8-25.9
		C242.6,286.6,238.2,283.7,238.2,283.7"/>
	<path class="st15" d="M375.7,297.4C375.7,297.4,375.7,297.4,375.7,297.4c0.2-0.1,3.6-1.7,7.3-4.1c0.3-0.2,0.5-0.4,0.8-0.5h0
		c0.3-0.2,0.5-0.4,0.8-0.6c0.3-0.2,0.6-0.4,0.8-0.6c0.3-0.2,0.5-0.4,0.8-0.6c0.3-0.2,0.6-0.4,0.8-0.6c0.3-0.2,0.5-0.4,0.8-0.6
		c0.3-0.2,0.5-0.4,0.8-0.7c0.3-0.2,0.5-0.4,0.7-0.7c0,0,0,0,0,0c0.2-0.2,0.5-0.4,0.7-0.7c0.8-0.8,1.5-1.6,2-2.5
		c0.2-0.2,0.3-0.5,0.4-0.7c0.8-1.4,1.2-2.8,0.9-4.2c-0.1-0.3-0.1-0.5-0.2-0.8c-0.1-0.1-0.1-0.3-0.2-0.4c-0.2-0.4-0.5-0.9-0.9-1.3
		c-2.6-2.9-10.5,1.2-18.9-2.9c-1.7-0.8-3.5-2-5.2-3.7c-0.4-0.4-0.8-0.8-1.3-1.3c-0.6-0.7-1.2-1.5-1.9-2.3c-0.6-0.8-1.2-1.8-1.8-2.7
		c0,0-0.5,0.1-1.5,0.4c-0.2,0-0.4,0.1-0.6,0.2c-0.1,0-0.1,0-0.2,0c-0.2,0.1-0.5,0.1-0.7,0.2c-1.9,0.5-4.5,1.2-7.7,1.9
		c-0.9,0.2-1.9,0.4-2.9,0.7c-0.9,0.2-1.7,0.4-2.7,0.6c-0.6,0.1-1.2,0.3-1.9,0.4c-1.1,0.2-2.3,0.5-3.6,0.7c-0.1,0-0.2,0-0.4,0.1
		c-0.6,0.1-1.3,0.2-1.9,0.4c-0.7,0.1-1.5,0.3-2.2,0.4c-0.4,0.1-0.9,0.2-1.3,0.2c-0.4,0.1-0.8,0.1-1.2,0.2c-1.4,0.2-2.7,0.5-4.1,0.7
		c-1.1,0.2-2.2,0.3-3.3,0.5c-1.7,0.2-3.4,0.5-5.2,0.7c-0.8,0.1-1.7,0.2-2.5,0.3c-0.3,0-0.6,0.1-0.8,0.1c-0.6,0.1-1.3,0.1-1.9,0.2
		c-0.1,0-0.2,0-0.3,0c-0.8,0.1-1.6,0.1-2.4,0.2c-0.8,0.1-1.6,0.1-2.4,0.2c-5.9,0.3-11.8,0.3-17.2-0.1"/>
	<polyline class="st15" points="273.9,255.2 274.5,255.5 274.6,255.6 275,255.8 	"/>
	<path class="st15" d="M387.8,278.2c0,0-0.1,0-0.1,0c-6.5,3.1-10.2,12.5-12,19.1c-0.1,0.2-0.1,0.4-0.2,0.6c-0.1,0.2-0.1,0.4-0.1,0.6
		c-0.1,0.2-0.1,0.4-0.2,0.6c0,0.2-0.1,0.4-0.2,0.6c-0.1,0.2-0.1,0.4-0.2,0.6c-0.2,0.6-0.5,1.2-0.8,1.8c-0.1,0.1-0.1,0.3-0.2,0.5
		c-0.1,0.3-0.3,0.6-0.5,0.8c-0.1,0.2-0.3,0.4-0.4,0.7c-0.7,1.1-1.5,2.1-2.4,3.2c-0.2,0.2-0.4,0.5-0.6,0.7c-0.4,0.5-0.9,0.9-1.3,1.4
		c0,0,0,0-0.1,0.1c-0.2,0.1-0.3,0.3-0.5,0.5c-0.1,0.1-0.1,0.1-0.2,0.2c-0.3,0.3-0.7,0.6-1,0.9c-0.3,0.3-0.7,0.6-1.1,0.9
		c-0.2,0.1-0.3,0.3-0.5,0.4c-0.2,0.2-0.4,0.3-0.6,0.5c-0.4,0.3-0.8,0.6-1.1,0.8c-0.1,0.1-0.1,0.1-0.2,0.1c-1.1,0.8-2.2,1.4-3.4,2.1
		c0,0,0,0-0.1,0c-0.4,0.2-0.8,0.4-1.2,0.6c-0.4,0.2-0.8,0.4-1.3,0.5c-0.3,0.1-0.6,0.2-0.9,0.3c-0.8,0.3-1.6,0.5-2.3,0.7
		c-0.3,0.1-0.7,0.2-1,0.2c-0.7,0.1-1.4,0.2-2.1,0.3c-0.1,0-0.2,0-0.3,0c-0.3,0-0.7,0-1,0c-0.2,0-0.5,0-0.7,0c0,0,0,0,0,0"/>
	<path class="st16" d="M274,255.1C273.9,255.1,273.9,255.2,274,255.1c-0.3,0.2-0.5,0.3-0.7,0.5c-0.2,0.1-0.4,0.3-0.6,0.4
		c-0.2,0.1-0.4,0.3-0.7,0.4c-0.5,0.3-1,0.5-1.6,0.8c-0.2,0.1-0.4,0.2-0.6,0.3c-0.5,0.2-1.1,0.4-1.7,0.6c-0.3,0.1-0.6,0.2-0.9,0.2
		c0,0,0,0,0,0c-0.3,0.1-0.6,0.1-1,0.2c-0.3,0.1-0.7,0.1-1,0.2c-0.7,0.1-1.4,0.2-2.2,0.3c-0.3,0-0.6,0.1-1,0.1c-0.1,0-0.2,0-0.4,0
		c-0.3,0-0.6,0-0.9,0c-3.1,0.1-6.6-0.2-10.7-0.9c-1.2-0.2-2.4-0.5-3.6-0.8h0c-5-1.2-10.8-3.2-17.4-6c0,0,0,0,0.1,0.1
		c0,0,0.1,0.1,0.1,0.1c0,0,0.1,0.1,0.1,0.1c0.2,0.2,0.6,0.6,1,1.1c0.1,0.1,0.2,0.2,0.3,0.3c1.1,1.1,2.8,2.7,5.3,4.8l0,0
		c0.2,0.2,0.5,0.4,0.8,0.6c0.8,0.6,1.6,1.3,2.5,2c0.3,0.2,0.6,0.5,0.9,0.7c0.7,0.5,1.4,1,2.1,1.6c0.7,0.5,1.5,1.1,2.3,1.6
		c0.7,0.5,1.4,1,2.2,1.5c0.2,0.2,0.5,0.3,0.7,0.5c0.3,0.2,0.6,0.4,0.9,0.6c1.6,1,3.2,1.9,4.9,2.8c0.3,0.2,0.6,0.3,0.9,0.5
		c4.4,2.2,8.7,4,11.5,5.2c0.2,0.1,0.4,0.2,0.6,0.3c1.6,0.7,2.7,1.3,2.9,1.7c0.1,0.2,0,0.4-0.2,0.6c0,0-0.1,0.1-0.1,0.1
		c-0.1,0-0.1,0.1-0.2,0.1c-0.1,0.1-0.3,0.2-0.5,0.3c-0.3,0.1-0.7,0.3-1.2,0.4c-1.2,0.3-2.8,0.5-4.8,0.5c-0.4,0-0.8,0-1.2,0
		c-0.4,0-0.8,0-1.2-0.1c-0.3,0-0.6-0.1-1-0.1c-1.1-0.1-2.3-0.3-3.6-0.6c-0.3-0.1-0.7-0.1-1-0.2c-2.2-0.5-4.6-1.2-7.2-2.3
		c-0.4-0.1-0.7-0.3-1.1-0.4c-1-0.4-1.9-0.8-2.9-1.3c-2.2-1-4.5-2.3-6.9-3.8c-0.3-0.2-0.6-0.4-1-0.6c0,0,0,0,0,0
		c-0.2-0.1-0.3-0.2-0.5-0.3c-0.5-0.3-1-0.6-1.5-1c-0.5-0.3-1-0.7-1.5-1s-1-0.7-1.5-1.1c-1-0.7-2-1.5-3.1-2.4c-2.6-2.1-5.3-4.4-8-7.1
		c0,0,0.2,0.4,0.7,1.2c0.1,0.1,0.1,0.2,0.2,0.3c0.4,0.6,0.8,1.4,1.3,2.3c0.1,0.2,0.2,0.4,0.3,0.6c0.4,0.8,0.9,1.6,1.4,2.6
		c0.2,0.4,0.4,0.8,0.6,1.2c1.1,1.9,2.3,4.1,3.5,6.5l0,0c0,0,0,0,0,0.1c0.9,1.7,1.8,3.4,2.7,5.1c0.2,0.5,0.5,1,0.7,1.4
		c0.4,0.7,0.7,1.4,1.1,2.2c0.2,0.4,0.4,0.8,0.6,1.2c0.1,0.1,0.1,0.2,0.2,0.3c2.1,4.2,4,8.2,5.3,11.4c0.3,0.7,0.5,1.3,0.7,1.8
		c0.5,1.4,0.8,2.5,0.9,3.2c0,0,0,0,0,0l0,0.8v0c-0.2,0.6-0.8,0.5-1.9-0.3c0,0-1.5-1-4-2.9c-0.5-0.4-1-0.8-1.6-1.3
		c-0.3-0.2-0.6-0.5-0.9-0.7c-0.6-0.5-1.2-1-1.8-1.6c-1.3-1.1-2.6-2.5-4.1-3.9c-4.6-4.7-9.9-11.1-14.4-19.1c0,0,0,0.1,0,0.2
		c0,0.1,0.1,0.3,0.1,0.5c0,0.1,0.1,0.3,0.1,0.5c0,0,0,0,0,0.1c0,0.1,0.1,0.2,0.1,0.3c0.1,0.4,0.2,0.8,0.3,1.3c0,0.2,0.1,0.5,0.1,0.7
		c0,0.1,0,0.2,0.1,0.3c0,0,0,0.1,0,0.1c0,0.2,0.1,0.5,0.1,0.7c0,0.2,0.1,0.4,0.1,0.6c0.1,0.4,0.1,0.8,0.2,1.2c0.1,0.6,0.2,1.3,0.3,2
		c0.1,0.4,0.1,0.8,0.2,1.2c0.2,1.2,0.3,2.5,0.4,3.8c0.4,5.2,0.1,10.6-2.1,13.4c-0.5,0.7-1.2,1.5-2,2.5c-0.4,0.5-0.8,0.9-1.2,1.4
		c-0.9,1-1.9,2.2-2.9,3.3c-0.4,0.4-0.8,0.8-1.2,1.3c-0.9,0.9-1.8,1.8-2.6,2.7c-0.3,0.3-0.5,0.5-0.8,0.8c-0.3,0.3-0.7,0.7-1,1
		c-0.6,0.6-1.3,1.2-1.9,1.8v0c-4.7,4.3-8.5,6.8-8.1,3c0.2-1.9,1.5-5.3,4.2-10.9c11.1-22.2,7.5-51.1-0.9-61
		c-13.7-16.1-28.4-20.9-41-11.8c-17.6,12.6-32.5,43.9-36.7,42c-4.2-1.8,25.1-59.8,51.1-62.3c23-2.2,36.8,15.1,63,30
		c0.2,0.1,0.3,0.2,0.5,0.3c15.8,8.9,27.5,10.2,35.6,9c9.6-1.4,14.3-6.2,14.8-5.8C280.7,244.4,280,250.8,274,255.1z"/>
	<path class="st16" d="M239.7,298.8c0,0.2,0,0.3,0,0.5c0,0.1,0,0.1,0,0.1l0-0.8C239.7,298.7,239.7,298.8,239.7,298.8z"/>
	<path class="st11" d="M227.6,305.4c4.9,0.6,5.8,17.7,11.8,22.1c12,8.8,18.5,19,13.1,19.9c-6.6,1.1-11.6-6.8-18.2-7
		c-6.7-0.3-6.2,1.3-11.6,1.8S222.7,304.8,227.6,305.4z"/>
	<path class="st17" d="M348.3,321.5c-3.7,5.1-9.5,6.5-16.9,8.3c-1,0.2-1.9,0.6-2.8,1c-5.7,2.4-10.5,7.2-15.5,10.7
		c-9.8,6.8-14.5,11.8-25.6,12.8c-8.1,0.8-13.1,1.4-15-4.7c0-0.1-0.1-0.2-0.1-0.3v0c-1.8-6.3-2.5-19.9-12.9-43.4
		c-3.7-8.4-8.6-18.1-15.2-29.2l2.8-0.4c20.5,20.9,29.6,57.6,36.8,65.6c5.2,5.8,17.7-4.4,32-12c11-5.9,23.1-8,27.1-10
		c5.9-3.1-4.2-10.9-4.6-11.3c4.9,1.7,9.9,6.5,10.4,10.3C349.1,319.7,348.9,320.6,348.3,321.5z"/>
	<path class="st12" d="M273.1,353.1c0,0-2.4,6.6-12.4,8.7c-9.6,2-9.2,0.8-16.2,2.7c-7.1,1.8-8.6,6.9-17,7.1
		c-2.5,0.1-4.3-0.1-5.9-0.3c-4-0.5-7-1.4-15.4-0.9c-11.8,0.8-22.9,6.6-18-10.9c1.2-4.4,10.2-16.1,9.4-48c-4.7,4.3-8.5,6.8-8.1,3
		l11.8-6.6c4.8,13.2-2.7,44.3-3.6,51.5c-1,7.2,10.5,4.1,15,3.3c4.5-0.8,10.1,1.1,15,0.7c4.9-0.4,9.2-3.2,15.1-4
		c8.9-1.2,21.4-1.6,22.2-4.7c3.7-8.3-0.9-20.8-1.1-21.3c1.5,0.8,3.1,1.5,4.8,2.1C268.5,335.5,271.3,339.4,273.1,353.1z"/>
	<path class="st18" d="M211.1,296.7c-0.5,0.7-1.2,1.5-2,2.5c-0.4,0.5-0.8,0.9-1.2,1.4c-0.9,1-1.9,2.2-2.9,3.3
		c-0.4,0.4-0.8,0.8-1.2,1.3c-0.9,0.9-1.8,1.8-2.6,2.7c-0.3,0.3-0.5,0.5-0.8,0.8c-0.3,0.3-0.7,0.7-1,1c-0.6,0.6-1.3,1.2-1.9,1.8v0
		c-4.7,4.3-8.5,6.8-8.1,3c0.2-1.9,1.5-5.3,4.2-10.9c11.1-22.2,7.5-51.1-0.9-61c-13.7-16.1-28.4-20.9-41-11.8
		c-17.6,12.6-32.5,43.9-36.7,42c23.3-41.1,34-51.9,54.2-50.6c16.3,1.1,33.8,18,35.7,39.8c2.5,30.4-7.9,41.7-6.4,42.6
		c0.9,0.5,8.3-6.9,10.6-10.8c1.8-3,3-11.8,2.8-19.3c0,0.2,0.1,0.4,0.1,0.6c0.1,0.4,0.1,0.8,0.2,1.2c0.1,0.6,0.2,1.3,0.3,2
		c0.1,0.4,0.1,0.8,0.2,1.2c0.2,1.2,0.3,2.5,0.4,3.8C213.6,288.5,213.3,293.9,211.1,296.7z"/>
	<path class="st12" d="M239.6,299.3c0,0.1,0,0.1,0,0.1l0-0.8c0,0.1,0,0.1,0,0.2C239.7,299,239.7,299.2,239.6,299.3z"/>
	<path class="st12" d="M241.8,306.9c-2.5-1-17.2-7-28.6-23.6c-0.1-1.3-0.2-2.6-0.4-3.8c-0.1-0.4-0.1-0.8-0.2-1.2
		c-0.1-0.7-0.2-1.3-0.3-2c-0.1-0.4-0.1-0.8-0.2-1.2c0-0.2-0.1-0.4-0.1-0.6c-0.1-0.3-0.1-0.6-0.2-0.8c0-0.1,0-0.2-0.1-0.3
		c0-0.3-0.1-0.5-0.1-0.7c-0.1-0.5-0.2-0.9-0.3-1.3c0-0.1,0-0.2-0.1-0.3c0,0,0,0,0-0.1c0-0.2-0.1-0.3-0.1-0.5
		c-0.1-0.2-0.1-0.3-0.1-0.5c0-0.1,0-0.2,0-0.2c4.5,8,9.7,14.3,14.4,19.1c1.4,1.4,2.8,2.7,4.1,3.9c0.6,0.6,1.2,1.1,1.8,1.6
		c0.3,0.2,0.6,0.5,0.9,0.7c0.5,0.5,1.1,0.9,1.6,1.3c2.4,1.9,4,2.9,4,2.9c1.1,0.8,1.8,0.9,1.9,0.3
		C239.7,299.7,240.2,302.7,241.8,306.9z"/>
	<path class="st18" d="M239.6,298.6C239.6,298.7,239.6,298.7,239.6,298.6l0,0.8v0c-0.2,0.6-0.8,0.5-1.9-0.3c0,0-1.5-1-4-2.9
		c-0.5-0.4-1-0.8-1.6-1.3c-0.3-0.2-0.6-0.5-0.9-0.7c-0.6-0.5-1.2-1-1.8-1.6c-1.3-1.1-2.6-2.5-4.1-3.9c-4.6-4.7-9.9-11.1-14.4-19.1
		c0,0,0,0.1,0,0.2c0,0.1,0.1,0.3,0.1,0.5c0,0.1,0.1,0.3,0.1,0.5c0,0,0,0,0,0.1c0,0.1,0.1,0.2,0.1,0.3c0.1,0.4,0.2,0.8,0.3,1.3
		c0,0.2,0.1,0.5,0.1,0.7c0,0.1,0,0.2,0.1,0.3c0,0,0,0.1,0,0.1l-3.3-10.4c17.3,22,24.3,27.5,25.1,26.7c0.7-0.8-5.7-16.7-6.3-18.1
		c0.9,1.7,1.8,3.4,2.7,5.1c0.2,0.5,0.5,1,0.7,1.4c0.4,0.7,0.7,1.4,1.1,2.2c0.2,0.4,0.4,0.8,0.6,1.2c0.1,0.1,0.1,0.2,0.2,0.3
		c2.1,4.2,4,8.2,5.3,11.4c0.3,0.7,0.5,1.3,0.7,1.8C239.3,296.8,239.5,297.9,239.6,298.6z"/>
	<path class="st18" d="M269.1,278c0,0-0.1,0.1-0.1,0.1c-0.1,0-0.1,0.1-0.2,0.1c-0.1,0.1-0.3,0.2-0.5,0.3c-0.3,0.1-0.7,0.3-1.2,0.4
		c-1.2,0.3-2.8,0.5-4.8,0.5c-0.4,0-0.8,0-1.2,0c-0.4,0-0.8,0-1.2-0.1c-0.3,0-0.6-0.1-1-0.1c-1.1-0.1-2.3-0.3-3.6-0.6
		c-0.3-0.1-0.7-0.1-1-0.2c-2.2-0.5-4.6-1.2-7.2-2.3c-0.4-0.1-0.7-0.3-1.1-0.4c-1-0.4-1.9-0.8-2.9-1.3c-2.2-1-4.5-2.3-6.9-3.8
		c-0.3-0.2-0.6-0.4-1-0.6c0,0,0,0,0,0c-0.2-0.1-0.3-0.2-0.5-0.3c-0.5-0.3-1-0.6-1.5-1c-0.5-0.3-1-0.7-1.5-1s-1-0.7-1.5-1.1
		c-1-0.7-2-1.5-3.1-2.4c-2.6-2.1-5.3-4.4-8-7.1c0,0,0.2,0.4,0.7,1.2c0.1,0.1,0.1,0.2,0.2,0.3c0.4,0.6,0.8,1.4,1.3,2.3
		c0.1,0.2,0.2,0.4,0.3,0.6c0.4,0.8,0.9,1.6,1.4,2.6c0.2,0.4,0.4,0.8,0.6,1.2c1.9,3.4,4.1,7.5,6.3,11.7c0.2,0.5,0.5,1,0.7,1.4
		c0.4,0.7,0.7,1.4,1.1,2.2c0.2,0.4,0.4,0.8,0.6,1.2l-1.6-0.7l-15.7-29.1c22.7,21.4,46.4,25.3,46.9,24.2c0.3-0.6-12.8-4.9-13.7-9.2
		c0,0,0-0.1,0-0.1c1.6,1,3.2,1.9,4.9,2.8c0.3,0.2,0.6,0.3,0.9,0.5c4.4,2.2,8.7,4,11.5,5.2c0.2,0.1,0.4,0.2,0.6,0.3
		c1.6,0.7,2.7,1.3,2.9,1.7C269.4,277.6,269.3,277.8,269.1,278z"/>
	<path class="st18" d="M274,255.1C273.9,255.1,273.9,255.2,274,255.1c-0.3,0.2-0.5,0.3-0.7,0.5c-0.2,0.1-0.4,0.3-0.6,0.4
		c-0.2,0.1-0.4,0.3-0.7,0.4c-0.5,0.3-1,0.5-1.6,0.8c-0.2,0.1-0.4,0.2-0.6,0.3c-0.5,0.2-1.1,0.4-1.7,0.6c-0.3,0.1-0.6,0.2-0.9,0.2
		c0,0,0,0,0,0c-0.3,0.1-0.6,0.1-1,0.2c-0.3,0.1-0.7,0.1-1,0.2c-0.7,0.1-1.4,0.2-2.2,0.3c-0.3,0-0.6,0.1-1,0.1c-0.1,0-0.2,0-0.4,0
		c-0.3,0-0.6,0-0.9,0c-3.1,0.1-6.6-0.2-10.7-0.9c-1.2-0.2-2.4-0.5-3.6-0.8h0c-5-1.2-10.8-3.2-17.4-6c0,0-1.8-1.8-1.8-1.8
		c38.7,13.4,46.6,2.2,45.8,1.2c-0.5-0.7-4.9,1.3-7.6-1c9.6-1.4,14.3-6.2,14.8-5.8C280.7,244.4,280,250.8,274,255.1z"/>
	<path class="st19" d="M184.4,218.1c1.6-1.1,16.8,6.2,17.7,10.2c0.9,4.1-6.7-3.1-9-4.5C191,222.4,182.8,219.1,184.4,218.1z"/>
</g>
<g id="Layer_4">
	<path class="st20" d="M188.4,400.1c-23.2-5.4-21.4-10.8-21.4-10.8"/>
	<path class="st20" d="M376.1,296l1.5,0.4l1.4,0.4c0,0,3.6,9.9,0,18.3c-3.5,8.4-6.7,9.8-4.3,18.8"/>
	<path class="st21" d="M243.1,364.9c10.6,3.3,27.1,6.9,48.7,6.9c40,0,63-12.3,63-12.3s9,11.9,9,43.7c0,31.7-9,38.5-9,38.5
		s-25.4,16.3-63,16.3c-37.6,0-62.5-16.3-62.5-16.3s-9-11.5-9-38.5c0-13.2,2.2-24,4.4-31.5"/>
	<path class="st22" d="M188.1,385.4c-0.4,3.9-0.7,7.9-0.7,11.9c0,0.9,0,1.7,0,2.6c0.9,36.4,20.3,68.2,49.4,86.2
		c16.1,10,34.9,15.8,55.2,15.8c19.3,0,37.4-5.3,53-14.4c30.9-18.1,51.6-51.7,51.6-90.2c0-32.5-14.8-61.5-38-80.7"/>
	<path class="st21" d="M360.7,538.4c0,44.7-31.4,80.9-70.2,80.9s-70.2-36.2-70.2-80.9c0-19.9,6.2-38.2,16.6-52.2
		c16.1,10,34.9,15.8,55.2,15.8c19.3,0,37.4-5.3,53-14.4C354.9,501.4,360.7,519.2,360.7,538.4z"/>
	<path class="st21" d="M354.3,504.8c25.2,11.9,39.2,21.7,45.6,34.3c6.9,13.6,8.5,32.2-10.8,34.2c-12.5,1.2-22.7-9-29.8-19.7"/>
	<path class="st21" d="M271.2,616.2c0.8,6.6-0.3,14.4-3.5,22.1c-4,9.6-11.1,17.9-18.1,21.7c-5.5,2.9-11.4,3.6-16.5,1.5
		c-5.2-2.2-9.1-7-10.8-13.3c-2.1-7.6-0.2-18,3.7-27.5c4.3-10,11.2-17.5,18.5-21"/>
	<path class="st21" d="M338.6,597.3c7.5,3.5,14.5,11.1,18.8,21.3c4,9.4,5.8,19.9,3.7,27.5c-1.7,6.1-5.6,11.1-10.8,13.3
		c-5,2.2-11,1.3-16.5-1.5c-7-3.7-14.1-12-18.1-21.7c-3-7.2-4.1-14.4-3.6-20.7"/>
	<path class="st23" d="M288.4,431.9c9.8,14,16.6-6.2,16.6-6.2"/>
	<ellipse class="st24" cx="319.9" cy="407.2" rx="6.3" ry="12.8"/>
	<ellipse class="st24" cx="268.6" cy="407.2" rx="6.3" ry="12.8"/>
	<path class="st21" d="M220.4,542.6c-9.6,9.8-23.7,20.1-37.1,15.3c-18.2-6.5-12.2-24.3-2.3-35.8c8.7-10.1,23.1-16.1,47.3-21.4"/>
	<path class="st20" d="M239.6,298.6C239.6,298.7,239.6,298.7,239.6,298.6l0,0.8v0v0c0.1,0.7,5.5,27.2,28.9,36c0,0,2.8,3.9,4.6,17.6
		c0,0-2.4,6.6-12.4,8.7c-9.6,2-9.2,0.8-16.2,2.7c-7.1,1.8-8.6,6.9-17,7.1c-8.4,0.3-9.5-1.9-21.4-1.1c-11.8,0.8-22.9,6.6-18-10.9
		c1.2-4.4,10.2-16.1,9.4-48v0"/>
	<path class="st20" d="M239.6,299.5C239.6,299.5,239.6,299.5,239.6,299.5L239.6,299.5"/>
	<path class="st20" d="M262.4,279.4c0.7,0.6,21.6,19.4,48.7,25.1c11.1,2.3,16.8,0.2,27.5,3.8c6.2,2.2,12.6,9.3,9.8,13.1
		c-3.7,5.1-9.5,6.5-16.9,8.3c-7,1.8-12.6,7.6-18.3,11.7c-9.8,6.8-14.5,11.8-25.6,12.8c-8.1,0.8-13.1,1.4-15-4.7
		c-2.5-8.4-2.7-31-29.5-75.1"/>
	<path class="st20" d="M311.5,273.5c-6.8-2.9-26.9-11.6-36.8-17.9l-0.1-0.1c-0.2-0.1-0.4-0.3-0.6-0.4"/>
	<g>
		<path d="M294.3,273.3c2.9-0.1,5.8-0.1,8.7-0.2c2.9-0.1,5.8-0.3,8.6-0.5c5.8-0.4,11.5-1,17.2-1.9c5.7-0.9,11.4-1.8,17.1-3
			c5.7-1.2,11.3-2.4,16.9-3.9l0.8-0.2l0.4,0.6l0,0c2.6,4.4,6.1,8.3,10.7,10.2c2.3,1,4.8,1.4,7.3,1.4c1.3,0,2.5,0,3.8-0.1
			c1.3-0.1,2.6-0.2,4.1,0c0.7,0.1,1.5,0.3,2.3,0.8c0.4,0.2,0.7,0.6,0.9,0.9c0.2,0.3,0.5,0.6,0.6,0.9c0.8,1.3,1,3.1,0.6,4.5
			c-0.4,1.5-1.2,2.7-2,3.8c-0.9,1.1-1.8,2.1-2.8,3c-2,1.8-4.2,3.3-6.5,4.7c-2.3,1.4-4.6,2.7-7,3.9c-0.5,0.2-1.1,0-1.3-0.5
			c-0.2-0.5,0-1.1,0.5-1.3l0,0c4.6-2.3,9.1-4.9,12.9-8.3c1.9-1.7,3.6-3.6,4.2-5.8c0.3-1.1,0.2-2.1-0.4-3c-0.3-0.4-0.7-1-0.9-1.2
			c-0.3-0.2-0.8-0.4-1.4-0.5c-1.1-0.1-2.4,0-3.7,0c-1.3,0.1-2.6,0.1-4,0.1c-2.7,0-5.5-0.5-8-1.6c-2.6-1-4.8-2.7-6.8-4.6
			c-1.9-1.9-3.5-4.1-4.9-6.4l0,0l1.1,0.4c-2.8,0.9-5.6,1.6-8.4,2.3c-2.8,0.7-5.7,1.4-8.5,2c-5.7,1.2-11.4,2.3-17.2,3.1
			c-5.8,0.8-11.6,1.4-17.4,1.8c-5.8,0.3-11.8,0.1-17.5-1c-0.2,0-0.3-0.2-0.3-0.4C293.9,273.5,294.1,273.3,294.3,273.3L294.3,273.3z"
			/>
	</g>
	<line class="st20" x1="275" y1="255.8" x2="273.9" y2="255.2"/>
	<path class="st20" d="M349,318.6C349,318.6,349,318.6,349,318.6c11.8,0.5,24.4-11.8,26.2-19.4c1.8-7.6,6.7-21.1,16.1-22"/>
	<line class="st20" x1="349" y1="318.8" x2="349" y2="318.8"/>
	<path class="st20" d="M115.1,272.9c4.2,1.8,19.1-29.4,36.7-42c12.6-9.1,27.3-4.3,41,11.8c8.4,9.9,12,38.7,0.9,60.9
		c-14.2,28.5,11,1.4,17.5-7c5.1-6.6-0.1-26.9-0.1-26.9c11,19.7,26.7,29.4,26.7,29.4c9.6,7.1-18.4-42-18.4-42
		c28.8,28,51.3,22.5,50,20.2c-0.8-1.4-13-5-22.5-11.5c-13.4-9.1-17.8-14.6-17.8-14.6c48.1,20.8,52.3-6.6,51.2-7.3
		s-15.9,16.3-50.4-3.2c-26.6-15-40.5-32.6-63.6-30.3C140.2,213.1,110.9,271.1,115.1,272.9z"/>
	<path class="st20" d="M195.9,314.5c-12,56.5-37,64.9-37,71.4c0,10.5,53.3-5.7,61.2-14.8"/>
</g>
</svg>
