<?xml version="1.0" encoding="utf-8"?>
<!-- Generator: Adobe Illustrator 25.3.1, SVG Export Plug-In . SVG Version: 6.00 Build 0)  -->
<svg version="1.1" xmlns="http://www.w3.org/2000/svg" xmlns:xlink="http://www.w3.org/1999/xlink" x="0px" y="0px"
	 viewBox="0 0 595.3 841.9" style="enable-background:new 0 0 595.3 841.9;" xml:space="preserve">
<style type="text/css">
	.st0{display:none;}
	.st1{fill:#93DDF8;}
	.st2{fill:#FFFFFF;}
	.st3{fill:#C4EFFE;}
	.st4{fill:#5CB2D3;}
	.st5{fill:#F2F2F2;}
	.st6{fill:none;stroke:#153570;stroke-width:3.5;stroke-linecap:round;stroke-linejoin:round;stroke-miterlimit:10;}
	.st7{fill:none;stroke:#EB8F38;stroke-width:2.5;stroke-linecap:round;stroke-linejoin:round;stroke-miterlimit:10;}
	.st8{fill:#EB8F38;}
	.st9{fill:none;stroke:#FFEC48;stroke-width:1.5;stroke-miterlimit:10;}
	.st10{fill:#8C8C8C;enable-background:new    ;}
	.st11{fill:none;stroke:#434343;stroke-linecap:round;stroke-miterlimit:10;enable-background:new    ;}
	.st12{fill:none;stroke:#8C8C8C;stroke-linejoin:round;stroke-miterlimit:10;}
	.st13{fill:none;stroke:#FFEC48;stroke-width:1.5;stroke-linecap:round;stroke-miterlimit:10;}
</style>
<g id="Layer_1" class="st0">
	
		<image style="display:inline;overflow:visible;enable-background:new    ;" width="3508" height="2480" xlink:href="3DA94D83.png"  transform="matrix(0.24 0 0 0.24 -388.4077 63.272)">
	</image>
</g>
<g id="color">
	<path class="st1" d="M288.7,293.5c-55.7,0-100.9,43.5-100.9,97.2c0,34.9,19,65.4,47.7,82.6c15.5,9.3,33.7,14.6,53.2,14.6
		c18.6,0,36.1-4.9,51.1-13.4c29.8-16.9,49.8-48.1,49.8-83.8C389.6,337,344.5,293.5,288.7,293.5z"/>
	<path class="st1" d="M395.2,558.6c-2.1,1.6-5,2.7-8.7,3.1c-11.2,1.1-20.2-8.2-26.5-17.9l-0.4-4.5c0.3-3.1,0.5-6.2,0.5-9.4
		c0-8.8-1.2-17.2-3.6-25l-0.5-5.5c17.4,8.4,28.5,15.6,35.2,23.8c2,2.4,3.5,4.8,4.8,7.4C400.9,540.3,402.8,552.8,395.2,558.6z"/>
	<path class="st1" d="M278.4,620.6c-3.6,8.7-9.9,16.2-16.2,19.6c-1.7,0.9-3.4,1.6-5.1,2c-3.3,0.8-6.6,0.6-9.5-0.6
		c-4.6-2-8.1-6.4-9.6-12c-0.8-3.1-1-6.8-0.5-10.8c0.5-4.6,1.9-9.6,3.8-14.2c3.8-9.1,9.9-15.9,16.5-19.1l0.7,0.5
		c6.6,6.6,14.3,11.6,22.8,14.5l0.2,0.1C282.3,606.7,281.3,613.7,278.4,620.6z"/>
	<path class="st1" d="M361.5,627.7c-1.5,5.6-5,10-9.6,12c-3.1,1.3-6.6,1.4-10.1,0.5c-1.5-0.4-3-1-4.5-1.8
		c-6.2-3.4-12.5-10.9-16.1-19.6c-2.7-6.5-3.7-13-3.2-18.8l23.6-16.4c6.6,3.2,12.9,10.1,16.7,19.2c2.2,5.4,3.7,11.3,4.1,16.6
		C362.4,622.3,362.2,625.2,361.5,627.7z"/>
	<path class="st1" d="M240.9,502.6l-4.6,25.4c-20.9-4.2-38.1-14.5-43.9-24.1c-0.2-0.4-0.4-0.7-0.6-1.1c-6.1-11.2-3.4-23.6,8.2-27.4
		c0.5-0.2,1.1-0.3,1.6-0.5c6.7-1.6,14.9,0.6,22.4,5c6.7,4,12.8,9.7,16.7,16.3C240.7,498.4,240.8,500.5,240.9,502.6z"/>
	<path class="st2" d="M354.6,393.5c0,17.7-2.4,28.1-4.7,34c-2.1,5.3-4,6.9-4,6.9s-24.5,17.3-60.8,17.3s-60.3-17.3-60.3-17.3
		s-8.7-12.2-8.7-40.9S224,349,224,349s3.8,1.9,11,4.1c10.3,3.2,27.4,7.1,50.1,7.1c38.6,0,62-10.9,62-10.9S354.6,359.8,354.6,393.5z"
		/>
	<g>
		<path class="st1" d="M361.1,529c0,41.1-28,74.4-62.4,74.4c-5.2,0-10.3-0.8-15.2-2.2c-10.1-3-19.2-8.9-26.7-17
			c-12.6-13.6-20.6-33.3-20.6-55.2c0-18.4,5.6-35.2,14.8-48.1c11.6,4.5,24.3,7,37.6,7c18.6,0,36.1-4.9,51.1-13.4
			c0.3-0.2,0.6-0.3,0.9-0.5C353.3,487.5,361.1,507.1,361.1,529z"/>
		<path class="st1" d="M340.7,473.9c-0.3,0.2-0.6,0.4-0.9,0.5c-15,8.5-32.5,13.4-51.1,13.4c-13.3,0-26-2.5-37.6-7L340.7,473.9z"/>
		<path class="st1" d="M340.7,473.9c-0.3,0.2-0.6,0.4-0.9,0.5c-15,8.5-32.5,13.4-51.1,13.4c-13.3,0-26-2.5-37.6-7L340.7,473.9z"/>
	</g>
	<path class="st3" d="M341.3,567.3c6.3-10.6,12.4-30.3,9.3-34.7c-1.7-2.4-5.3,16-15,30.7c-10.8,16.3-25,26.1-22.3,27.5
		C317,592.8,333.7,580.2,341.3,567.3z"/>
	<path class="st3" d="M362.9,443.4c7.4-9.9,15.4-28.9,12.7-33.6c-1.5-2.6-6.9,15.4-18.1,29c-12.4,15.1-27.5,23.5-25,25.1
		C336.2,466.3,354,455.4,362.9,443.4z"/>
	<path class="st3" d="M381.3,391.1c0-3.6-0.9-9.6-3.1-10.3c-1.2-0.4-0.9,5-1.3,10.1c-0.5,5.7-1.3,10,0.1,10.1
		C378.9,401,381.2,395.5,381.3,391.1z"/>
	<path class="st4" d="M395.2,558.6c-2.1,1.6-5,2.7-8.7,3.1c-11.2,1.1-20.2-8.2-26.5-17.9l-0.4-4.5c0.3-3.1,0.5-6.2,0.5-9.4
		c0-8.8-1.2-17.2-3.6-25l-0.5-5.5c17.4,8.4,28.5,15.6,35.2,23.8c-17.4-10.6-20.1-10.3-20.1-10.3c-2.1,17.4,0.2,29.3,0.2,29.3
		C375.5,552.2,385.5,556.7,395.2,558.6z"/>
	<path class="st4" d="M240.9,502.6l-4.6,25.4c-20.9-4.2-38.1-14.5-43.9-24.1c-0.2-0.4-0.4-0.7-0.6-1.1c30.1,12.9,34.6,7.3,34.6,7.3
		c1.8-8.6,3.9-12.4,5.8-16.6c-2-5.2-4.2-8.1-8.3-13.5c0,0,0.1,0,0.1-0.1c6.7,4,12.8,9.7,16.7,16.3
		C240.7,498.4,240.8,500.5,240.9,502.6z"/>
	<path class="st4" d="M278.4,620.6c-3.6,8.7-9.9,16.2-16.2,19.6c-1.7,0.9-3.4,1.6-5.1,2c7.1-7.8,13.8-19,12.4-32.8
		c0,0-11.4-3.1-15.6-11.1c0,0-8.2,3.4-16.4,20.5c0.5-4.6,1.9-9.6,3.8-14.2c3.8-9.1,9.9-15.9,16.5-19.1l0.7,0.5
		c6.6,6.6,14.3,11.6,22.8,14.5l0.2,0.1C282.3,606.7,281.3,613.7,278.4,620.6z"/>
	<path class="st4" d="M362.2,619.3c-8.7-19.9-17.9-23.7-17.9-23.7c-4.2,8.1-15.6,11.1-15.6,11.1c-1.4,14.1,5.7,25.6,13,33.5
		c-1.5-0.4-3-1-4.5-1.8c-6.2-3.4-12.5-10.9-16.1-19.6c-2.7-6.5-3.7-13-3.2-18.8l23.6-16.4c6.6,3.2,12.9,10.1,16.7,19.2
		C360.4,608.2,361.9,614,362.2,619.3z"/>
	<path class="st5" d="M350,427.5c-2.1,5.3-4,6.9-4,6.9s-24.5,17.3-60.8,17.3s-60.3-17.3-60.3-17.3s-8.7-12.2-8.7-40.9
		S224,349,224,349s3.8,1.9,11,4.1c-9.5,41.6-2.1,71.7-2.1,71.7C279.4,451.6,332.3,434.5,350,427.5z"/>
</g>
<g id="outline">
	<path class="st6" d="M354.6,393.5c0,33.7-8.7,40.9-8.7,40.9s-24.5,17.3-60.8,17.3s-60.3-17.3-60.3-17.3s-8.7-12.2-8.7-40.9
		S224,349,224,349s22.5,11.2,61.1,11.2c38.6,0,62-10.9,62-10.9S354.6,359.8,354.6,393.5z"/>
	<path class="st6" d="M288.7,293.5c-55.7,0-100.9,43.5-100.9,97.2c0,34.9,19,65.4,47.7,82.6c15.5,9.3,33.7,14.6,53.2,14.6
		c18.6,0,36.1-4.9,51.1-13.4c29.8-16.9,49.8-48.1,49.8-83.8C389.6,337,344.5,293.5,288.7,293.5z"/>
	<path class="st6" d="M356,499.4c22.4,10.8,34.3,19.7,40,31.2c6.2,12.4,7.6,29.3-9.6,31.1c-11.2,1.1-20.2-8.2-26.5-17.8"/>
	<path class="st6" d="M281.5,600.6c0.7,6.1-0.3,13.1-3.1,20c-3.6,8.7-9.9,16.2-16.1,19.6c-4.9,2.6-10.2,3.3-14.6,1.4
		c-4.6-2-8.1-6.4-9.6-12c-1.9-6.9-0.2-16.4,3.3-25c3.8-9.1,9.9-15.9,16.5-19.1"/>
	<path class="st6" d="M341.5,583.5c6.6,3.2,12.9,10.1,16.7,19.3c3.5,8.6,5.2,18.1,3.4,25c-1.5,5.6-5,10-9.6,12
		c-4.5,1.9-9.8,1.3-14.7-1.4c-6.3-3.4-12.5-10.9-16.1-19.6c-2.7-6.5-3.7-13.1-3.3-18.8"/>
	<path class="st7" d="M291.8,416.6"/>
	<path class="st7" d="M275.8,422.3"/>
	<ellipse class="st8" cx="306.2" cy="399.4" rx="6.1" ry="11.9"/>
	<ellipse class="st8" cx="256.7" cy="399.4" rx="6.1" ry="11.9"/>
	<path class="st6" d="M241.7,498.2c-7.7-14.8-27-26.4-40.2-23.2c-13.4,3.2-16.5,16.9-9.2,28.9c5.8,9.6,23,19.9,43.9,24.1"/>
	<ellipse class="st8" cx="284.9" cy="424.8" rx="3.5" ry="6.1"/>
	<g>
		<path class="st8" d="M243.4,383.4c1-2.5,2.6-4.8,4.8-6.7c2.1-1.9,5.1-3.1,8.2-3c3.1,0.1,5.9,1.4,8.1,3.2c2.2,1.8,4,3.9,5.2,6.4
			c0.1,0.1,0,0.3-0.1,0.4c-0.1,0-0.2,0-0.3,0l0,0c-2-1.7-4-3.4-6.2-4.6c-2.2-1.2-4.4-2.1-6.7-2.2c-2.3-0.1-4.5,0.6-6.6,1.9
			c-2.1,1.3-4.1,3-6.1,4.8c-0.1,0.1-0.2,0.1-0.2,0C243.4,383.5,243.4,383.5,243.4,383.4z"/>
	</g>
	<g>
		<path class="st8" d="M293.2,383.4c1-2.5,2.6-4.8,4.8-6.7c2.1-1.9,5.1-3.1,8.2-3c3.1,0.1,5.9,1.4,8.1,3.2c2.2,1.8,4,3.9,5.2,6.4
			c0.1,0.1,0,0.3-0.1,0.4c-0.1,0-0.2,0-0.3,0l0,0c-2-1.7-4-3.4-6.2-4.6c-2.2-1.2-4.4-2.1-6.7-2.2c-2.3-0.1-4.5,0.6-6.6,1.9
			c-2.1,1.3-4.1,3-6.1,4.8c-0.1,0.1-0.2,0.1-0.2,0C293.2,383.5,293.2,383.5,293.2,383.4z"/>
	</g>
	<g>
		<path class="st6" d="M340.7,473.9c12.5,13.6,20.4,33.2,20.4,55.1c0,41.1-27.9,74.4-62.4,74.4s-62.4-33.3-62.4-74.4
			c0-18.4,5.6-35.2,14.8-48.1"/>
		<path class="st6" d="M251.1,480.8c11.6,4.5,24.3,7,37.6,7c18.6,0,36.1-4.9,51.1-13.4c0.3-0.2,0.6-0.3,0.9-0.5"/>
	</g>
	<g>
		<path class="st9" d="M283,265.4c3.6-12.5-9-16.9-10.4-28.1c-0.6-5,0.8-17.1,16.8-17.6c12.9-0.4,19.2,12.8,13.7,23.3
			c-4,7.6-9.6,14-7.1,22.3"/>
		<rect x="281.9" y="265" class="st10" width="15.1" height="11.2"/>
		<line class="st11" x1="284.5" y1="268.2" x2="294.4" y2="267.6"/>
		<line class="st11" x1="284.7" y1="271" x2="294.6" y2="270.4"/>
		<line class="st11" x1="284.7" y1="273.8" x2="294.6" y2="273.2"/>
		<path class="st12" d="M282.7,265.4c6.9-5.3,4.7-19,3.5-18.8c-1.3,0.2-1.5,2.6-0.2,3.6c1.4,0.9,4.2,0.3,5.7-0.3
			c1.5-0.6,1.6-4.1,0.1-3.8c-2.5,0.5,1.9,17.1,4.1,19.4"/>
		<line class="st13" x1="258.6" y1="225.3" x2="266.1" y2="229.2"/>
		<line class="st13" x1="257.5" y1="210" x2="268.9" y2="221.2"/>
		<line class="st13" x1="269.5" y1="206.2" x2="274.4" y2="213.4"/>
		<line class="st13" x1="277.3" y1="199.7" x2="281.5" y2="214"/>
		<line class="st13" x1="288.4" y1="200.7" x2="287.8" y2="209.8"/>
		<line class="st13" x1="294.2" y1="213.7" x2="299.1" y2="199.2"/>
		<line class="st13" x1="303.1" y1="212.5" x2="307.7" y2="204.5"/>
		<line class="st13" x1="308.4" y1="220.7" x2="319.5" y2="210.7"/>
		<line class="st13" x1="312.4" y1="227.4" x2="319.9" y2="225.3"/>
	</g>
</g>
</svg>
