<?xml version="1.0" encoding="utf-8"?>
<!-- Generator: Adobe Illustrator 25.3.1, SVG Export Plug-In . SVG Version: 6.00 Build 0)  -->
<svg version="1.1" id="Layer_1" xmlns="http://www.w3.org/2000/svg" xmlns:xlink="http://www.w3.org/1999/xlink" x="0px" y="0px"
	 viewBox="0 0 595.3 841.9" style="enable-background:new 0 0 595.3 841.9;" xml:space="preserve">
<style type="text/css">
	.st0{display:none;}
	.st1{display:inline;}
	.st2{opacity:0.5;fill:#C4EFFE;enable-background:new    ;}
	.st3{fill:#93DDF8;}
	.st4{fill:#B2B2B2;}
	.st5{fill:none;}
	.st6{fill:#5CB2D3;}
	.st7{fill:#D0D0D0;}
	.st8{fill:#B0B0B0;}
	.st9{fill:#717171;}
	.st10{fill:#6F6F6F;}
	.st11{fill:#E7F8FF;}
	.st12{fill:#FFFFFF;}
	.st13{fill:#F2F2F2;}
	.st14{fill:#399BB2;}
	.st15{fill:#C4EFFE;}
	.st16{fill:none;stroke:#153570;stroke-width:3.5;stroke-linejoin:round;stroke-miterlimit:10;}
	.st17{fill:none;stroke:#000000;stroke-width:1.5;stroke-linejoin:round;stroke-miterlimit:10;}
	.st18{fill:none;stroke:#000000;stroke-linecap:round;stroke-linejoin:round;stroke-miterlimit:10;}
	.st19{fill:none;stroke:#153570;stroke-width:3.5;stroke-linecap:round;stroke-linejoin:round;stroke-miterlimit:10;}
	.st20{fill:none;stroke:#EB8F38;stroke-width:2.5;stroke-linecap:round;stroke-linejoin:round;stroke-miterlimit:10;}
	.st21{fill:#EB8F38;}
	.st22{fill:none;stroke:#EB8F38;stroke-width:3;stroke-linecap:round;stroke-linejoin:round;stroke-miterlimit:10;}
	.st23{fill:none;stroke:#000000;stroke-width:1.5;stroke-linecap:round;stroke-linejoin:round;stroke-miterlimit:10;}
	.st24{fill:none;stroke:#000000;stroke-width:3;stroke-linecap:round;stroke-linejoin:round;stroke-miterlimit:10;}
	.st25{fill:none;stroke:#000000;stroke-width:3.0001;stroke-linecap:round;stroke-linejoin:round;stroke-miterlimit:10.0003;}
</style>
<g id="Layer_2_2_" class="st0">
	<g id="Layer_2_1_" class="st1">
		
			<image style="overflow:visible;enable-background:new    ;" width="3514" height="2549" xlink:href="CFE416B0.png"  transform="matrix(0.313 0 0 0.313 -369.3242 -187.1817)">
		</image>
	</g>
</g>
<g id="Layer_5">
	<ellipse class="st2" cx="198.9" cy="314.7" rx="164.5" ry="157.9"/>
	
		<ellipse transform="matrix(0.1558 -0.9878 0.9878 0.1558 123.7458 786.7089)" class="st2" cx="522.1" cy="321" rx="57.5" ry="45.1"/>
	<ellipse class="st2" cx="424" cy="301.5" rx="10.8" ry="13.6"/>
	
		<ellipse transform="matrix(0.3108 -0.9505 0.9505 0.3108 -51.5633 836.0592)" class="st2" cx="550.7" cy="453.6" rx="8.4" ry="5.4"/>
	
		<ellipse transform="matrix(0.1558 -0.9878 0.9878 0.1558 -261.2925 939.7303)" class="st2" cx="419.1" cy="622.7" rx="62.1" ry="71.4"/>
	
		<ellipse transform="matrix(0.2568 -0.9665 0.9665 0.2568 -375.9849 702.6965)" class="st2" cx="268.9" cy="595.8" rx="26.6" ry="19.8"/>
</g>
<g id="Layer_3_1_">
	<path class="st3" d="M376.4,386c0,16.2-5.4,31.1-14.5,43.2c-18.3,5.4-45.2,4.2-61.3-2.6c-9.2-12.3-16.3-42.4-4.5-67.6
		c9.2,1.9,36.3,7.3,72.5,0.1c0.8-0.1,1.6-0.4,2.4-0.5l0,0l0,0C374.5,367.1,376.4,376.4,376.4,386z"/>
	<path class="st3" d="M301.6,528.9c0.1,0,0.3-0.1,0.4-0.1l0,0C301.9,528.9,301.8,528.9,301.6,528.9z"/>
	<path class="st3" d="M302.1,528.8l15.8-7.4c-0.3,0.2-0.7,0.4-1,0.7c-0.1,0-0.1,0.1-0.1,0.1l-0.1,0.1c-0.1,0.1-0.3,0.2-0.5,0.3
		c-0.3,0.1-0.5,0.4-0.8,0.5c-0.4,0.2-0.7,0.4-1,0.7c-0.4,0.2-0.7,0.4-1.1,0.6c-0.7,0.4-1.5,0.8-2.2,1.2c-0.4,0.1-0.7,0.4-1.1,0.5
		s-0.7,0.4-1.1,0.5c-0.7,0.3-1.5,0.6-2.3,0.9c-0.3,0.1-0.6,0.2-0.9,0.3c-0.1,0-0.1,0.1-0.3,0.1c-0.4,0.1-0.7,0.2-1.1,0.4
		c-0.3,0.1-0.6,0.1-0.8,0.2c-0.1,0-0.1,0-0.1,0c-0.1,0.1-0.4,0.1-0.5,0.1C302.6,528.6,302.4,528.7,302.1,528.8z"/>
	<path class="st3" d="M339.9,458.7c-0.7-3.2-1.8-6.3-3-9.2L339.9,458.7l-15.8,6.7l-7,3l22.4,19.2c-2.3,9.3-6.4,17.7-11.8,24.3
		c-0.1,0.1-0.2,0.2-0.3,0.4c-5.4-0.4-11-1.8-16-3.7c-22.6,20.5-41.8,8.4-51.9-1.7c1.6,2.8,3.4,5.4,5.4,7.8
		c5.1,6.1,11.6,10.6,18.9,13c1.3,0.4,2.8,0.8,4.2,1.1l0,0c0.5,0.1,1,0.1,1.6,0.2c3.7,0.5,7.4,0.4,11-0.1c0.3-0.1,0.6-0.1,0.9-0.1
		c-0.1,0-0.3,0.1-0.4,0.1c-0.1,0.1-0.3,0.1-0.4,0.1c-0.2,0.1-0.4,0.1-0.7,0.1c-0.2,0.1-0.4,0.1-0.7,0.1c-0.2,0.1-0.5,0.1-0.7,0.1
		c0,0,0,0-0.1,0c-0.4,0.1-0.8,0.1-1.2,0.1c-0.4,0.1-0.9,0.1-1.3,0.1s-0.7,0.1-1,0.1s-0.8,0-1.2,0c-1.7,0-3.4-0.1-5.1-0.4
		c-0.5-0.1-1.1-0.1-1.6-0.2l0,0c-1.4-0.3-2.8-0.7-4.2-1.1c-7.3-2.4-13.8-7-18.9-13c-9.2-10.8-14.4-26.5-13-43.5c0-0.4,0.1-0.7,0.1-1
		c0-0.1,0-0.2,0.1-0.4c0-0.3,0.1-0.6,0.1-1s0.1-0.7,0.1-1v-0.2c1.1-7.4,3.3-14.3,6.4-20.4c0.1-0.1,0.1-0.4,0.3-0.5
		c0.2-0.4,0.4-0.7,0.6-1.1c9.7-17.8,27-28.6,45-26.2c14.5,2,26.2,12.2,32.6,26.3c1.8,3.9,3.2,8.1,4,12.5L339.9,458.7z"/>
	<path class="st3" d="M336.9,449.4c1.2,2.9,2.3,6,3,9.2l0,0L336.9,449.4z"/>
	<path class="st3" d="M376.4,386c0,9.9-2,19.4-5.7,28c-5.5,12.8-14.6,23.7-26.1,31.4c-1.1,0.7-2.2,1.4-3.3,2.1
		c-2.1,1.2-4.1,2.3-6.2,3.3c-9,4.2-19.1,6.5-29.7,6.5c-13.8,0-26.6-4-37.5-10.7c-2.8-1.7-5.4-3.6-7.9-5.7
		c-15.7-13.1-25.7-32.7-25.7-54.8c0-39.3,31.8-71.2,71.1-71.2C344.6,314.9,376.4,346.8,376.4,386z"/>
	<path class="st3" d="M251.1,470.5c-0.1,0.4-0.1,0.8-0.1,1.2c0-0.1,0-0.1,0-0.2C251,471.1,251.1,470.7,251.1,470.5z"/>
	<path class="st3" d="M251,471.6c-1.4,16.9,3.7,32.5,13,43.3c5.1,6.1,11.6,10.6,18.9,13c1.4,0.4,2.8,0.8,4.2,1.1
		C264,525,248.4,500,251,471.6z"/>
	<path class="st3" d="M340.9,480.7c-0.3,2.3-0.7,4.6-1.3,6.8l-22.4-19.2l7-3l15.7-6.7l-3-9.2c1.2,2.9,2.3,6,3,9.2l0.3-0.1
		c1.2,5.6,1.5,11.5,1.2,17.6C341.3,477.6,341.1,479.2,340.9,480.7z"/>
	<polygon class="st4" points="468.5,506.7 397.2,537 339.6,487.6 331.8,480.9 331,480.2 317.2,468.3 324.2,465.4 327.5,464 
		339.9,458.7 339.9,458.7 340.2,458.6 361.7,449.4 375.8,443.5 388.5,438.1 	"/>
	<line class="st5" x1="331.8" y1="480.9" x2="331" y2="480.2"/>
	<path class="st6" d="M361.7,449.4l-21.5,9.2l-0.3,0.1l-0.1,0.1l-12.4,5.3c-0.3-0.5-0.6-1-1-1.5c0,0-46.9,8.9-66.9-19.5l0.3-2.3
		c2.5,2.1,5.1,4,7.9,5.7c10.9,6.7,23.7,10.7,37.5,10.7c10.6,0,20.7-2.3,29.7-6.5c0.8-0.4,1.7-0.8,2.5-1.3c1-0.5,2-1.1,3-1.6
		c1.1-0.4,2.3-0.9,3.4-1.4c1.2-0.5,2.3-1,3.5-1.6C353.1,445.1,358,446.9,361.7,449.4z"/>
	<polygon class="st7" points="389.3,438.1 468.6,506.7 503.4,433.7 424.1,365.1 	"/>
	<polygon class="st8" points="427.9,365.2 507.4,434.3 503.5,433.9 424,364.7 	"/>
	<polygon class="st9" points="468.8,506.6 470.1,512.4 507.4,434.3 503.2,433.8 	"/>
	<polygon class="st10" points="394.7,544.9 470.4,511.9 468.6,506.7 396.8,537.6 	"/>
	<path class="st10" d="M316.9,468.3l20.9,17.9c-5.3-2.9-11.9-5-18-5.7l-5-4.2L316.9,468.3z"/>
	<path class="st10" d="M396.8,536.8l-2.1,8l-46.8-40.3c0.4-0.7,0.7-1.6,1-2.5c0.7-2.6,0.1-5.2-1.4-7.6L396.8,536.8z"/>
	<polygon class="st11" points="397.2,436.8 427.3,462.8 454,486 466.3,496.5 473.4,481.4 478.5,470.2 494.9,434.9 464.6,408.6 
		455.1,400.4 455.1,400.4 429.8,378.6 426.4,375.6 425.8,375.1 425.5,375.9 413.4,401.6 	"/>
	<polygon class="st12" points="455.1,400.4 473.4,481.4 478.5,470.2 464.6,408.6 	"/>
	<polygon class="st12" points="413.4,401.6 427.3,462.8 454,486 429.8,378.6 426.4,375.6 425.8,375.1 425.5,375.9 	"/>
	<path class="st3" d="M339.9,458.7c-0.7-3.2-1.8-6.3-3-9.2L339.9,458.7l0.1,0.4C340,459,339.9,458.8,339.9,458.7z M251.4,468
		c1.1-7.4,3.3-14.3,6.4-20.4C254.6,453.7,252.4,460.6,251.4,468z M328.3,512.5l-0.1-0.1l-0.4-0.4c-0.1,0.1-0.2,0.2-0.3,0.4
		c-0.4,0.4-0.7,0.9-1.1,1.3c0,0.1-0.1,0.1-0.1,0.1c-0.1,0.1-0.2,0.2-0.4,0.4c-0.2,0.3-0.5,0.6-0.7,0.8l-0.1,0.1
		c-0.4,0.4-0.8,0.9-1.2,1.2c-0.4,0.4-0.8,0.8-1.2,1.2c-0.4,0.4-0.7,0.7-1.2,1c-0.4,0.4-1,0.8-1.4,1.2c-0.3,0.3-0.7,0.5-1,0.7
		l-0.1,0.1c-0.1,0-0.1,0.1-0.1,0.1c-0.3,0.2-0.7,0.5-1,0.7l0,0l0,0l0,0c-0.3,0.2-0.7,0.4-1,0.7c-0.1,0-0.1,0.1-0.1,0.1l-0.1,0.1
		c-0.1,0.1-0.3,0.2-0.5,0.3c-0.3,0.1-0.5,0.4-0.8,0.5c-0.4,0.2-0.7,0.4-1,0.7c-0.4,0.2-0.7,0.4-1.1,0.6c-0.7,0.4-1.5,0.8-2.2,1.2
		c-0.4,0.1-0.7,0.4-1.1,0.5s-0.7,0.4-1.1,0.5c-0.7,0.3-1.5,0.6-2.3,0.9c-0.3,0.1-0.6,0.2-0.9,0.3c-0.1,0-0.1,0.1-0.3,0.1
		c-0.4,0.1-0.7,0.2-1.1,0.4c-0.3,0.1-0.5,0.1-0.8,0.2c-0.1,0-0.1,0-0.1,0c-0.1,0.1-0.4,0.1-0.5,0.1c-0.3,0.1-0.6,0.1-0.9,0.2l0,0
		c-0.1,0-0.3,0.1-0.4,0.1l0,0c-0.1,0-0.3,0.1-0.4,0.1c-0.1,0.1-0.3,0.1-0.4,0.1c-0.2,0.1-0.4,0.1-0.7,0.1c-0.2,0.1-0.4,0.1-0.7,0.1
		c-0.2,0.1-0.5,0.1-0.7,0.1c0,0,0,0-0.1,0c-0.4,0.1-0.8,0.1-1.2,0.1c-0.4,0.1-0.9,0.1-1.3,0.1s-0.7,0.1-1,0.1s-0.8,0-1.2,0
		c-1.7,0-3.4-0.1-5.1-0.4c-0.5-0.1-1.1-0.1-1.6-0.2c1.5,0.3,3,0.5,4.5,0.7c3.1,0.3,6.1,0.1,9-0.3l0,0h0.1c7.5-1.2,14.6-4.5,20.7-9.6
		l0,0c0.7-0.6,1.4-1.2,2.1-1.8c1.6-1.5,3.1-3.1,4.5-4.8c0.1-0.1,0.3-0.4,0.4-0.5L328.3,512.5z"/>
	<path class="st12" d="M376.4,386c0,13.3-3.7,25.8-10,36.4c-1.4,2.3-2.9,4.5-4.5,6.7c-18.3,5.4-45.2,4.2-61.3-2.6
		c-9.2-12.3-16.3-42.4-4.5-67.6c2.3,0.5,5.7,1.2,10,1.8c13.2,2,35.2,3.7,62.4-1.7c0.8-0.1,1.6-0.4,2.4-0.5l0,0l0,0
		C374.5,367.1,376.4,376.4,376.4,386z"/>
	<path class="st3" d="M282.8,528c-0.1,1.3-0.2,2.7-0.5,4.1c-0.5,2.8-1.5,5.7-3,8.6c-2.2,4.2-5.3,8.1-8.6,10.6
		c-1.5,1.1-2.9,2.1-4.4,2.7c-3.7,1.6-7.6,1.8-10.8,0.1c-1.8-1-3.3-2.5-4.5-4.3c-0.4-0.7-0.7-1.4-1-2.1c-0.4-0.9-0.7-1.9-0.8-2.9
		c-0.1-0.8-0.2-1.7-0.2-2.6l0,0c-0.1-4.8,1.6-10.4,4.2-15.5c2.6-5.1,6.3-9.1,10.3-11.5c0.1-0.1,0.3-0.1,0.4-0.2l2.4,1.7l15.8,10.8
		L282.8,528z"/>
	<path class="st3" d="M331,551.2c-0.1,0.1-0.1,0.3-0.1,0.4c-1.5,4-4.2,7-7.8,8.2c-3.1,1-6.4,0.4-9.6-1.3c-0.4-0.2-0.7-0.4-1-0.6
		c-4.3-2.9-8.4-8.7-10.6-15.3c-1.3-4.2-1.8-8.4-1.5-12.1c0-0.4,0.1-0.7,0.1-1l0,0h0.1l1.4-0.7l0,0l0,0l0,0l15.8-7.4l0,0l0,0l2.2-1
		l0,0l1.1-0.5l0,0c3.7,3,6.7,7.7,8.6,13.4C332,539.5,332.5,546.4,331,551.2z"/>
	<path class="st3" d="M297.4,500.9c8.6,10.2,43,18.5,50.3,4c0.4-0.7,0.7-1.6,1-2.5c0.7-2.6,0.1-5.2-1.4-7.6c-2-3.2-5.4-6-9.7-8.3
		c-5.3-2.9-11.9-5-18-5.7c-3.7-0.4-7.3-0.4-10.2,0.3"/>
	<path class="st5" d="M361.8,428.8c-18.3,5.4-45.2,4.2-61.3-2.6c-9.2-12.3-16.3-42.4-4.5-67.6c9.2,1.9,36.3,7.3,72.5,0.1
		c0.8-0.1,1.6-0.4,2.4-0.5l0,0"/>
	<path class="st13" d="M366.4,422.5c-1.4,2.3-2.9,4.5-4.5,6.7c-18.3,5.4-45.2,4.2-61.3-2.6c-9.2-12.3-16.3-42.4-4.5-67.6
		c2.3,0.5,5.7,1.2,10,1.8c-9.8,35.8,2.1,56.9,2.1,56.9C328.7,425.3,350.1,425,366.4,422.5z"/>
	<path class="st6" d="M327.5,512.3c-0.4,0.4-0.7,0.9-1.1,1.3c0,0.1-0.1,0.1-0.1,0.1c-0.1,0.1-0.2,0.2-0.4,0.4
		c-0.2,0.3-0.5,0.6-0.7,0.8l-0.1,0.1c-0.4,0.4-0.8,0.9-1.2,1.2c-0.4,0.4-0.8,0.8-1.2,1.2c-0.4,0.4-0.7,0.7-1.2,1
		c-0.4,0.4-1,0.8-1.4,1.2c-0.3,0.3-0.7,0.5-1,0.7l-0.1,0.1c-0.1,0-0.1,0.1-0.1,0.1c-0.3,0.2-0.7,0.5-1,0.7l0,0l0,0l0,0l-15.9,7.6
		l0,0c-0.1,0-0.3,0.1-0.4,0.1l0,0c-0.3,0.1-0.6,0.1-0.9,0.1c-3.6,0.6-7.3,0.7-11,0.1c-0.5-0.1-1-0.1-1.6-0.2l0,0
		c-1.4-0.3-2.8-0.7-4.2-1.1c-7.3-2.4-13.8-7-18.9-13c-2.1-2.3-3.8-5-5.4-7.8c10.1,10.1,29.2,22.2,51.9,1.7
		C316.4,510.5,322.1,511.9,327.5,512.3z"/>
	<path class="st6" d="M328.4,512.4l-0.1,0.1c-1.6,1.9-3.3,3.7-5.1,5.3c-1,0.9-2,1.8-3,2.6l0,0c-5.5,4.2-11.7,7.2-18.2,8.4
		c-0.1,0-0.3,0.1-0.4,0.1c0.1,0,0.3-0.1,0.4-0.1l0,0l15.8-7.4l0,0l0,0l0,0c0.3-0.2,0.7-0.5,1-0.7c0.1,0,0.1-0.1,0.1-0.1l0.1-0.1
		c0.3-0.2,0.7-0.5,1-0.7c0.4-0.4,1-0.8,1.4-1.2s0.7-0.7,1.2-1c0.4-0.4,0.8-0.8,1.2-1.2c0.4-0.4,0.8-0.8,1.2-1.2l0.1-0.1
		c0.2-0.3,0.5-0.6,0.7-0.8c0.1-0.1,0.2-0.3,0.4-0.4l0.1-0.1c0.4-0.4,0.7-0.9,1.1-1.3c0.2,0,0.4,0,0.7,0.1L328.4,512.4z"/>
	<path class="st14" d="M331,551.2c-1.9-15.6-7.8-20.3-7.8-20.3c-5.9,5.1-16,6.1-16,6.1c-0.4,8.9,2.7,15.6,6.4,21.6
		c-0.4-0.2-0.7-0.4-1-0.6c-4.3-2.9-8.4-8.7-10.6-15.3c-1.3-4.2-1.8-8.4-1.5-12.1c0.1-0.4,0.1-0.7,0.2-1l0,0c0-0.1,0.1-0.3,0.1-0.4
		l0,0c0.3-0.1,0.6-0.1,0.9-0.1l0,0c0.1,0,0.3-0.1,0.4-0.1l0,0l15.8-7.4l0,0l0,0l0,0c0.3-0.2,0.7-0.5,1-0.7c0.1,0,0.1-0.1,0.1-0.1
		l0.1-0.1c0.3-0.2,0.7-0.5,1-0.7c0.4-0.4,1-0.8,1.4-1.2s0.7-0.7,1.2-1c0.1,0.1,0.4,0.2,0.5,0.4c0.1,0.1,0.1,0.1,0.2,0.1
		c-0.7,0.7-1.4,1.2-2.1,1.8l0,0l0,0c3.7,3,6.7,7.7,8.6,13.4C332,539.5,332.5,546.4,331,551.2z"/>
	<path class="st14" d="M282.3,532.1c-0.5,2.8-1.5,5.7-3,8.6c-2.2,4.2-5.3,8.1-8.6,10.6c2.9-5.2,4.9-11.1,4.5-18.5c0,0-10.2-1-16-6.1
		c0,0-6.6,5.3-8.1,22.9c-0.4-0.7-0.7-1.4-1-2.1c-0.4-1.7-0.7-3.6-1-5.5l0,0c-0.1-4.8,1.6-10.4,4.2-15.5c2.6-5.1,6.3-9.1,10.3-11.5
		l2.9,1.4l15.8,10.8C282.3,529,282.3,530.5,282.3,532.1z"/>
	<path class="st14" d="M361.7,449.4l-21.5,9.2c-0.6-3.2-1.6-6.3-2.6-9.2c-0.1-0.2-0.1-0.4-0.2-0.6c1.1-0.3,2.2-0.7,3.2-1.1
		c1.1-0.4,2.3-0.9,3.4-1.4c1.2-0.5,2.3-1,3.5-1.6C353.1,445.1,358,446.9,361.7,449.4z"/>
	<path class="st15" d="M271.2,436c2-1-8.4-8.3-16.2-20.3c-7-10.8-9.5-24.4-10.8-22.6c-2.3,3.2,1.9,17.7,6.5,25.5
		C256.2,428.2,268.3,437.6,271.2,436z"/>
	<path class="st15" d="M243.9,386.7c1,0,0.8-3.2,0.9-7.3c0.1-3.7,0.8-7.7-0.1-7.5c-1.7,0.3-2.8,4.6-3.1,7.2
		C241.3,382.3,242.6,386.5,243.9,386.7z"/>
	<path class="st15" d="M271.2,510.1c1.8-0.5-5.1-9-8.9-21.1c-3.4-10.9-2.5-23.4-3.9-22.1c-2.7,2.4-2.4,16-0.3,23.8
		C260.5,500.2,268.4,510.9,271.2,510.1z"/>
</g>
<g id="Layer_4_1_">
	<path class="st16" d="M345.7,444.3c5.1,0.4,12.4,2.3,15.7,5.3"/>
	<path class="st16" d="M340.1,458.7c-0.8-3.4-1.8-6.6-3.1-9.6 M261.2,441.4c-5.5,8.2-9.2,18.4-10.1,29.6c-1.5,17,3.7,32.7,13,43.5
		c5.2,6.1,11.6,10.6,18.9,13c2.8,1,5.7,1.5,8.7,1.8c3.1,0.3,6.1,0.1,9-0.3c7.5-1.2,14.7-4.5,20.8-9.7c2.3-2,4.5-4.2,6.6-6.7
		c0.1-0.1,0.3-0.4,0.4-0.5"/>
	<polygon class="st17" points="317.2,468.3 397.2,537 468.5,506.7 388.5,438.1 	"/>
	<polyline class="st18" points="319.7,480.4 314.8,476.2 316.9,468.3 337.7,486.1 337.7,486.1 347.3,494.4 396.8,536.8 394.7,544.8 
		347.8,504.5 	"/>
	<path class="st19" d="M361.8,428.8c-18.3,5.4-45.2,4.2-61.3-2.6c-9.2-12.3-16.3-42.4-4.5-67.6c9.2,1.9,36.3,7.3,72.5,0.1
		c0.8-0.1,1.6-0.4,2.4-0.5l0,0"/>
	<path class="st16" d="M305.4,314.5c-39.3,0-71.1,31.9-71.1,71.2c0,25.6,13.4,47.9,33.6,60.5c10.9,6.8,23.7,10.7,37.5,10.7
		c13.1,0,25.4-3.6,36-9.8c21-12.4,35.1-35.2,35.1-61.4C376.4,346.3,344.6,314.5,305.4,314.5z"/>
	<path class="st19" d="M282.9,527.6c-0.1,4-1.3,8.4-3.5,12.6c-3.2,6.2-8.2,11.3-13,13.3c-3.7,1.6-7.6,1.8-10.8,0.1
		c-3.2-1.8-5.5-5.2-6.3-9.4c-1-5.1,0.9-12,4-18c2.7-5.3,6.6-9.4,10.6-11.7"/>
	<path class="st19" d="M321.4,519.4c3.7,3,6.7,7.7,8.6,13.4c2.1,6.4,2.7,13.6,0.9,18.5c-1.5,4-4.2,7-7.8,8.2
		c-3.4,1.1-7.3,0.3-10.6-1.9c-4.3-2.9-8.5-8.7-10.6-15.3c-1.5-4.5-1.8-9.1-1.3-13.1"/>
	<path class="st20" d="M316.4,395.6"/>
	<path class="st20" d="M304.3,398.2"/>
	<ellipse class="st21" cx="363.4" cy="386.9" rx="4.5" ry="8.7"/>
	<ellipse class="st21" cx="319.1" cy="388.4" rx="4.5" ry="8.7"/>
	<path class="st22" d="M338,412.6c3.5-7.7,8.8-3.6,9.9,0"/>
	<path class="st19" d="M297.4,500.5c8.6,10.2,43,18.5,50.3,4c0.4-0.7,0.7-1.6,1-2.5c0.7-2.6,0.1-5.2-1.4-7.6c-2-3.2-5.4-6-9.7-8.3
		c-5.3-2.9-11.9-5-18-5.7c-3.7-0.4-7.3-0.4-10.2,0.3"/>
	<polygon class="st23" points="389.3,438.1 468.6,506.7 503.4,433.7 424.1,365.1 	"/>
	<polygon class="st18" points="427.9,365.2 507.4,434.3 503.5,433.9 424,364.7 	"/>
	<polygon class="st18" points="469,506 470.4,511.9 507.4,434.3 503.2,433.8 	"/>
	<polygon class="st18" points="394.7,544.9 470.4,511.9 468.6,506.7 396.8,537.6 	"/>
	<g>
		<polyline class="st24" points="437.7,399.4 419.1,410.5 437,421.8 		"/>
		<line class="st24" x1="417.5" y1="445" x2="439.6" y2="401.5"/>
		
			<ellipse transform="matrix(0.4276 -0.904 0.904 0.4276 -139.6299 651.3834)" class="st25" cx="444.5" cy="435.9" rx="26.1" ry="8.6"/>
		<polyline class="st24" points="476.7,431.1 458.2,442.2 476.1,453.5 		"/>
		<line class="st24" x1="456.6" y1="476.8" x2="478.6" y2="433.3"/>
	</g>
</g>
</svg>
