<?xml version="1.0" encoding="utf-8"?>
<!-- Generator: Adobe Illustrator 25.3.1, SVG Export Plug-In . SVG Version: 6.00 Build 0)  -->
<svg version="1.1" xmlns="http://www.w3.org/2000/svg" xmlns:xlink="http://www.w3.org/1999/xlink" x="0px" y="0px"
	 viewBox="0 0 595.3 841.9" style="enable-background:new 0 0 595.3 841.9;" xml:space="preserve">
<style type="text/css">
	.st0{display:none;}
	.st1{display:inline;}
	.st2{fill:#96CC80;}
	.st3{fill:#93DDF8;}
	.st4{fill:#FFFFFF;}
	.st5{fill:#5CB2D3;}
	.st6{fill:#C4EFFE;}
	.st7{fill:#F2F2F2;}
	.st8{fill:#5B9443;}
	.st9{fill:none;}
	.st10{fill:none;stroke:#245511;stroke-width:2;stroke-linecap:round;stroke-linejoin:round;stroke-miterlimit:10;}
	.st11{fill:none;stroke:#153570;stroke-width:3.5;stroke-linecap:round;stroke-linejoin:round;stroke-miterlimit:10;}
	.st12{fill:none;stroke:#EB8F38;stroke-width:3;stroke-linecap:round;stroke-linejoin:round;stroke-miterlimit:10;}
	.st13{fill:#EB8F38;}
	.st14{fill:#245511;}
	.st15{display:inline;fill:#B2B2B2;}
	.st16{display:inline;fill:#D0D0D0;}
	.st17{display:inline;fill:#B0B0B0;}
	.st18{display:inline;fill:#717171;}
	.st19{display:inline;fill:#6F6F6F;}
	.st20{display:inline;fill:#E7F8FF;}
	.st21{display:inline;fill:#FFFFFF;}
	
		.st22{display:inline;fill:none;stroke:#000000;stroke-width:1.5;stroke-linecap:round;stroke-linejoin:round;stroke-miterlimit:10;}
	.st23{display:inline;fill:none;stroke:#000000;stroke-linecap:round;stroke-linejoin:round;stroke-miterlimit:10;}
</style>
<g id="Layer_1" class="st0">
	<g id="Layer_1_1_" class="st1">
		
			<image style="overflow:visible;enable-background:new    ;" width="1080" height="1080" xlink:href="../../../Downloads/Untitled design (4).png"  transform="matrix(0.75 0 0 0.75 -178 -186.1)">
		</image>
	</g>
	<g id="Layer_3" class="st1">
	</g>
</g>
<g id="color">
	<path class="st2" d="M320,244.6l-2.6-18l-0.6-4.2l0-0.3c0,0,0,0-0.2,0c-0.3,0-1,0.1-2.8,0.1c0,0-28.5-1-27.6-28.3
		c0,0,0.2,0,0.6-0.1c3.7-0.3,24.7-0.6,31.3,29.9c0.2,0.8,0.3,1.5,0.5,2.3C319.4,231.3,320,237.5,320,244.6z"/>
	<path class="st2" d="M318.7,234.3c0-0.5,0.1-0.9,0.2-1.3L318.7,234.3l0,1.8C318.6,235.4,318.6,234.8,318.7,234.3z"/>
	<path class="st2" d="M319,230.6c0,0,0.2,0,0.6,0.1c-0.2,0.8-0.5,1-0.8,2.3L319,230.6z"/>
	<path class="st2" d="M350.3,208.8c0,0.3-0.1,0.6-0.1,0.9c-2.5,21.7-22.3,21.8-29,21.2c-0.7-0.1-1.2-0.1-1.6-0.2c0,0,0-0.1,0-0.2
		C325.2,202.4,350.3,208.8,350.3,208.8z"/>
	<path class="st3" d="M424,345.4c0,34.4-17.2,64.8-43.6,83c-2,1.4-4.1,2.7-6.2,4c-0.6,0.4-1.2,0.7-1.8,1
		c-14.3,8-30.7,12.6-48.1,12.8c-0.4,0-0.9,0-1.3,0c-0.6,0-1.2,0-1.8,0c-18.8-0.4-36.3-5.9-51.2-15.2c-28.1-17.5-47-48.4-47.6-83.7
		c0-0.7,0-1.3,0-2c0-17,4.2-33,11.6-47.1c11.8-22.3,31.6-39.6,55.6-48.1c10.5-3.7,21.8-5.8,33.6-5.8
		C378.9,244.5,424,289.7,424,345.4z"/>
	<path class="st4" d="M392.4,351c0,18.8-3.3,28.5-5.8,33.2c-1.6,3-2.9,3.9-2.9,3.9s-24.5,15.7-60.8,15.7
		c-36.3,0-60.3-15.7-60.3-15.7s-8.7-11.1-8.7-37.1s8.7-42.1,8.7-42.1s3.8,2.1,10.9,4.5c10.1,3.4,26.8,7.4,49.4,7.4
		c38.6,0,60.8-11.9,60.8-11.9S392.4,320.4,392.4,351z"/>
	<path class="st3" d="M427.6,510.8c-2.4,2.3-5.9,4-10.8,4.4c-12.1,1.2-21.9-8.7-28.7-19v0c0.8-4.8,1.2-9.7,1.2-14.7
		c0-11.6-2.2-22.6-6.1-32.5c17.9,8.5,30,15.8,37.6,24c2.7,2.9,4.8,5.9,6.5,9.1C432.2,491.9,434.3,504.3,427.6,510.8z"/>
	<path class="st3" d="M253.9,481.6c0,1.4,0,2.7,0.1,4.1c0,0,0,0,0,0c-9.3,9.5-22.9,19.4-35.8,14.8c-0.6-0.2-1.1-0.4-1.6-0.6
		c-11.5-4.9-11.4-15.1-6.9-24.4c1.6-3.4,3.9-6.7,6.4-9.6c8.4-9.7,22.3-15.5,45.6-20.5C256.7,456.1,253.9,468.5,253.9,481.6z"/>
	<path class="st3" d="M299.6,577.9c-3.9,9.3-10.7,17.3-17.5,20.9c-2.4,1.3-5,2.1-7.5,2.5c-2.9,0.4-5.8,0.1-8.4-1
		c-5-2.1-8.8-6.8-10.4-12.8c-0.6-2.1-0.8-4.5-0.8-7c0-6.1,1.7-13.1,4.5-19.5c4.1-9.6,10.8-16.9,17.9-20.3l25.7,16
		C303.8,563.1,302.7,570.5,299.6,577.9z"/>
	<path class="st3" d="M390.5,580.5c-0.1,1.7-0.4,3.4-0.8,4.9c-1.6,5.9-5.4,10.7-10.4,12.8c-2.7,1.2-5.8,1.4-8.9,1
		c-2.4-0.4-4.8-1.2-7-2.4c-6.8-3.6-13.6-11.6-17.5-20.9c-2.9-6.9-4-13.9-3.5-20l25.6-17.4c7.2,3.4,14,10.7,18.1,20.5
		C389.1,566.1,390.9,573.9,390.5,580.5z"/>
	<path class="st3" d="M389.3,481.6c0,5-0.4,10-1.2,14.7v0c-0.9,5.3-2.2,10.5-4,15.4c-0.3,0.8-0.6,1.5-0.8,2.2
		c-10.7,27-34.3,45.7-61.7,45.7c-14,0-26.9-4.9-37.7-13.2c-6.4-4.9-12-11.1-16.6-18.1c-7.8-12-12.6-26.7-13.4-42.6c0,0,0,0,0,0
		c-0.1-1.3-0.1-2.7-0.1-4.1c0-13.1,2.8-25.4,7.8-36.3c1.3-2.9,2.7-5.6,4.3-8.2c0.7-1.1,1.3-2.2,2.1-3.2c0.6-0.9,1.2-1.8,1.9-2.7
		c15.5,9.6,33.7,15.2,53.2,15.2c17.9,0,34.7-4.7,49.3-12.8c0.8-0.1,1.6-0.2,2.3-0.3c0.5,0.7,0.9,1.3,1.3,2c1.9,3,3.6,6.1,5.1,9.3
		c0.7,1.5,1.4,3,2,4.6C387.1,459,389.3,470,389.3,481.6z"/>
	<path class="st3" d="M374.7,433.2c-0.8,0.1-1.5,0.2-2.3,0.3c0.6-0.3,1.2-0.7,1.8-1C374.4,432.7,374.6,432.9,374.7,433.2z"/>
	<path class="st5" d="M372.4,433.4c-14.3,8-30.7,12.6-48.1,12.9c-0.4,0-0.9,0-1.3,0c-0.6,0-1.2,0-1.8,0
		c-18.8-0.4-36.3-5.9-51.2-15.2c-28.1-17.5-47-48.4-47.6-83.7c0-0.7,0-1.3,0-2c0-17,4.2-33,11.6-47.1c12-21.1,31.4-37.4,54.7-45.6
		c-39.3,35.2-56.1,78.3-43.4,119.6C264.9,436.7,333.2,438.3,372.4,433.4z"/>
	<path class="st6" d="M380.5,432.4c-1.4,1-2.9,1.9-4.4,2.9c-0.4-0.7-0.9-1.4-1.3-2C376.7,432.9,378.7,432.7,380.5,432.4z"/>
	<path class="st5" d="M427.6,510.8c-2.4,2.3-5.9,4-10.8,4.4c-12.1,1.2-21.9-8.7-28.7-19v0c0.8-4.8,1.2-9.7,1.2-14.7
		c0-11.6-2.2-22.6-6.1-32.5c17.9,8.5,32,17.9,40.8,28c-20.6-12.8-23.6-12.5-23.6-12.5c-2.1,17.4,0.2,29.3,0.2,29.3
		C405.2,504.9,417.1,509.2,427.6,510.8z"/>
	<path class="st5" d="M253.9,481.6c0,1.4,0,2.7,0.1,4.1c0,0,0,0,0,0c-9.3,9.5-22.9,19.4-35.8,14.8c-0.6-0.2-1.1-0.4-1.6-0.6
		c9.4-4.8,17.8-9.6,22.2-13.5c2.1-1.9,4.2-10.4,2.7-18c0,0-4.1-5.1-31.8,7.1c1.6-3.4,3.9-6.7,6.4-9.6c8.4-9.7,22.3-15.5,45.6-20.5
		C256.7,456.1,253.9,468.5,253.9,481.6z"/>
	<path class="st7" d="M386.6,384.2c-1.6,3-2.9,3.9-2.9,3.9s-24.5,15.7-60.8,15.7c-36.3,0-60.3-15.7-60.3-15.7s-8.7-11.1-8.7-37.1
		s8.7-42.1,8.7-42.1s3.8,2.1,10.9,4.5c-12.7,38.3-1.3,64.8-1.3,64.8C321.3,407.6,376.9,388,386.6,384.2z"/>
	<path class="st5" d="M389.3,481.6c0,5-0.4,10-1.2,14.7v0c-0.9,5.3-2.2,10.5-4,15.4c2.4-18.6,1.3-41.4-11.7-60
		c0,0-49.8,21.4-93.3,9.7c0,0-20.3,32.3,4.8,85c-6.4-4.9-12-11.1-16.6-18.1c-7.8-12-12.6-26.7-13.4-42.6c0,0,0,0,0,0
		c-0.1-1.3-0.1-2.7-0.1-4.1c0-13.1,2.8-25.4,7.8-36.3c1.3-2.9,2.7-5.6,4.3-8.2c0.7-1.1,1.3-2.2,2.1-3.2c0.6-0.9,1.2-1.8,1.9-2.7
		c15.5,9.6,33.7,15.2,53.2,15.2c17.9,0,34.7-4.7,49.3-12.8c0.8-0.1,1.6-0.2,2.3-0.3c0.5,0.7,0.9,1.3,1.3,2c1.9,3,3.6,6.1,5.1,9.3
		c0.7,1.5,1.4,3,2,4.6C387.1,459,389.3,470,389.3,481.6z"/>
	<path class="st8" d="M310,215l6.5,7.1c-0.3,0-1,0.1-2.8,0.1c0,0-28.5-1-27.6-28.3c0,0,0.2,0,0.6-0.1c3.4,20.2,20.3,23.6,20.3,23.6
		c-4.9-7.4-8.8-11-9.3-11.4l4.5,2.5L310,215z"/>
	<polygon class="st9" points="319.6,225.5 318.4,226.1 317.4,226.6 316.8,222.4 318,223.7 	"/>
	<path class="st8" d="M350.3,208.8c0,0.3-0.1,0.6-0.1,0.9c-19-0.7-23.7,12.5-23.7,12.5c6.2-3.9,11.6-4.1,11.6-4.1l-9.5,5.6l-5.5,4.7
		l-1.9,2.6l-2.5,3.3l-0.1,0.1c0-0.5,0.1-0.9,0.2-1.3l0.2-2.4c0,0,0.2,0,0.6,0.1c0,0,0-0.1,0-0.2
		C325.2,202.4,350.3,208.8,350.3,208.8z"/>
	<path class="st5" d="M299.6,577.9c-3.9,9.3-10.7,17.3-17.5,20.9c-2.4,1.3-5,2.1-7.5,2.5c7.8-7.9,16-19.9,14.5-35
		c0,0-11.3-3.1-15.6-11.1c0,0-9.7,4-18.6,25.3c0-6.1,1.7-13.1,4.5-19.5c4.1-9.6,10.8-16.9,17.9-20.3l25.7,16
		C303.8,563.1,302.7,570.5,299.6,577.9z"/>
	<path class="st5" d="M390.5,580.5c-9.2-23.9-19.8-28.3-19.8-28.3c-4.2,8.1-15.6,11.1-15.6,11.1c-1.5,15.6,7.3,27.9,15.3,35.8
		c-2.4-0.4-4.8-1.2-7-2.4c-6.8-3.6-13.6-11.6-17.5-20.9c-2.9-6.9-4-13.9-3.5-20l25.6-17.4c7.2,3.4,14,10.7,18.1,20.5
		C389.1,566.1,390.9,573.9,390.5,580.5z"/>
	<path class="st6" d="M365,526.9c7.4-9.9,15.4-28.9,12.7-33.6c-1.5-2.6-6.9,15.4-18.1,29c-12.4,15.1-27.5,23.5-25,25.1
		C338.3,549.9,356.1,539,365,526.9z"/>
	<path class="st6" d="M397.2,402.5c7.4-9.9,15.4-28.9,12.7-33.6c-1.5-2.6-6.9,15.4-18.1,29c-12.4,15.1-27.5,23.5-25,25.1
		C370.4,425.5,388.3,414.6,397.2,402.5z"/>
	<path class="st6" d="M415.6,350.3c0-3.6-0.9-9.6-3.1-10.3c-1.2-0.4-0.9,5-1.3,10.1c-0.5,5.7-1.3,10,0.1,10.1
		C413.1,360.1,415.5,354.6,415.6,350.3z"/>
</g>
<g id="outline_1_">
	<path class="st10" d="M319.6,244.6c0-55.7-33.8-50.7-33.8-50.7c-0.9,27.4,27.5,29,27.5,29c2.4,0.2,4.1,0.1,4.1,0.1"/>
	<path class="st11" d="M392.4,351c0,30.6-8.7,37.1-8.7,37.1s-24.5,15.7-60.8,15.7s-60.3-15.7-60.3-15.7s-8.7-11.1-8.7-37.1
		s8.7-42.1,8.7-42.1s21.7,11.9,60.3,11.9c38.6,0,60.8-11.9,60.8-11.9S392.4,320.4,392.4,351z"/>
	<path class="st11" d="M323.1,244.5c-55.7,0-100.9,45.2-100.9,100.9c0,36.2,19,67.9,47.7,85.7c15.5,9.6,33.7,15.2,53.2,15.2
		c18.6,0,36.1-5.1,51.1-13.9c29.8-17.5,49.8-49.9,49.8-87C424,289.7,378.9,244.5,323.1,244.5z"/>
	<path class="st11" d="M389.3,481.6c0,43.1-30.3,78-67.7,78c-37.4,0-67.7-34.9-67.7-78c0-19.2,6-36.8,16-50.4
		c15.5,9.6,33.7,15.2,53.2,15.2c18.6,0,36.1-5.1,51.1-13.9C383.7,445.9,389.3,463,389.3,481.6z"/>
	<path class="st11" d="M383.2,449.1c24.3,11.5,37.8,20.9,44,33.1c6.7,13.1,8.2,31.1-10.4,33c-12.1,1.2-21.9-8.7-28.7-19"/>
	<path class="st11" d="M303,556.6c0.8,6.4-0.3,13.9-3.4,21.3c-3.9,9.3-10.7,17.3-17.5,20.9c-5.3,2.8-11,3.5-15.9,1.4
		c-5-2.1-8.8-6.8-10.4-12.8c-2-7.3-0.2-17.4,3.6-26.5c4.1-9.6,10.8-16.9,17.8-20.3"/>
	<path class="st11" d="M368,538.4c7.2,3.4,14,10.7,18.1,20.5c3.9,9.1,5.6,19.2,3.6,26.5c-1.6,5.9-5.4,10.7-10.4,12.8
		c-4.8,2.1-10.6,1.3-15.9-1.4c-6.8-3.6-13.6-11.6-17.5-20.9c-2.9-6.9-4-13.9-3.5-20"/>
	<path class="st12" d="M319.6,378.8c9.5,13.5,16-6,16-6"/>
	<ellipse class="st13" cx="350" cy="355" rx="6.1" ry="12.3"/>
	<ellipse class="st13" cx="300.5" cy="355" rx="6.1" ry="12.3"/>
	<path class="st10" d="M319.2,236.1c0-4.4,0.8-4.3,1-5.6c5.5-28.1,30.6-21.7,30.6-21.7c-2.5,27.2-31.3,21.8-31.3,21.8"/>
	<g>
		<path class="st14" d="M318.2,233.1c1.1-1.9,2.5-3.6,4-5.1c1.5-1.5,3.1-2.9,4.9-4.1c1.7-1.2,3.5-2.3,5.3-3.3c1.8-1,3.7-1.9,5.7-2.6
			c0,0,0.1,0,0.1,0c0,0,0,0.1,0,0.1c-1.8,1.1-3.5,2.2-5.3,3.3c-1.7,1.1-3.4,2.3-5,3.6c-1.6,1.3-3.1,2.7-4.4,4.2
			c-1.3,1.5-2.5,3.1-3.5,4.8l0,0c-0.3,0.5-0.9,0.7-1.4,0.4C318.1,234.2,318,233.6,318.2,233.1C318.2,233.1,318.2,233.1,318.2,233.1z
			"/>
	</g>
	<g>
		<path class="st14" d="M316.8,224.2c-1.3-1.7-2.9-3.4-4.4-5c-1.5-1.6-3.1-3.2-4.8-4.8c-1.6-1.5-3.3-3-5-4.5
			c-1.7-1.5-3.4-2.9-5.1-4.5c2,1.1,3.9,2.3,5.8,3.6c1.9,1.3,3.6,2.8,5.4,4.2c1.7,1.5,3.4,3,5.1,4.6c1.6,1.6,3.2,3.3,4.6,5.1
			c0.3,0.4,0.3,1.1-0.2,1.4C317.8,224.7,317.1,224.7,316.8,224.2C316.8,224.2,316.8,224.2,316.8,224.2L316.8,224.2z"/>
	</g>
	<path class="st11" d="M254,485.6c-9.3,9.5-22.9,19.4-35.8,14.8c-17.6-6.3-11.8-23.4-2.2-34.5c8.4-9.7,22.3-15.5,45.6-20.6"/>
</g>
<g id="laptop_color" class="st0">
	<polygon class="st15" points="243.8,468.3 156.6,511.3 99.5,468.3 186.6,425.3 	"/>
	<polygon class="st16" points="185.9,425.1 99.3,468.3 84.6,395.5 171.2,352.4 	"/>
	<polygon class="st17" points="167.8,351.6 81,395.1 84.5,395.6 171.4,352.1 	"/>
	<polygon class="st18" points="99.3,468.1 96.7,473 80.9,395.1 84.8,395.7 	"/>
	<polygon class="st19" points="157,518.9 96.6,472.5 99.3,468.3 156.7,512 	"/>
	<polygon class="st19" points="244.2,475.8 157,518.8 157,511.3 244.1,468.3 	"/>
	<polygon class="st20" points="179.2,422.2 146.3,438.5 117.1,453.1 103.7,459.8 100.8,444.7 98.7,433.6 92,398.5 125.1,382 
		135.5,376.8 135.5,376.8 163.1,363.1 166.7,361.2 167.4,360.9 167.6,361.7 172.5,387.3 	"/>
	<polygon class="st21" points="135.5,376.8 100.8,444.7 98.7,433.6 125.1,382 	"/>
	<polygon class="st21" points="172.5,387.3 146.3,438.5 117.1,453.1 163.1,363.1 166.7,361.2 167.4,360.9 167.6,361.7 	"/>
</g>
<g id="laptop_outline" class="st0">
	<polygon class="st22" points="244.5,468.4 157.3,511.4 100.2,468.4 187.4,425.4 	"/>
	<polygon class="st22" points="186.6,425.3 100,468.4 85.3,395.6 171.9,352.5 	"/>
	<polygon class="st23" points="168.5,351.7 81.7,395.2 85.2,395.8 172.1,352.2 	"/>
	<polygon class="st23" points="99.9,467.7 97.3,472.5 81.6,395.3 85.5,395.8 	"/>
	<polygon class="st23" points="157.7,519 97.3,472.6 100.1,468.4 157.4,512.1 	"/>
	<polygon class="st23" points="244.9,476 157.7,518.9 157.7,511.4 244.8,468.4 	"/>
</g>
</svg>
