<?xml version="1.0" encoding="utf-8"?>
<!-- Generator: Adobe Illustrator 25.3.1, SVG Export Plug-In . SVG Version: 6.00 Build 0)  -->
<svg version="1.1" id="Layer_1" xmlns="http://www.w3.org/2000/svg" xmlns:xlink="http://www.w3.org/1999/xlink" x="0px" y="0px"
	 viewBox="0 0 595.3 841.9" style="enable-background:new 0 0 595.3 841.9;" xml:space="preserve">
<style type="text/css">
	.st0{display:none;}
	.st1{display:inline;}
	.st2{fill:#93DDF8;}
	.st3{fill:#FFFFFF;}
	.st4{fill:#5CB2D3;}
	.st5{fill:#F2F2F2;}
	.st6{fill:#C4EFFE;}
	.st7{fill:none;stroke:#245511;stroke-width:2;stroke-linecap:round;stroke-linejoin:round;stroke-miterlimit:10;}
	.st8{fill:none;stroke:#153570;stroke-width:3.5;stroke-linecap:round;stroke-linejoin:round;stroke-miterlimit:10;}
	.st9{fill:none;stroke:#EB8F38;stroke-width:3;stroke-linecap:round;stroke-linejoin:round;stroke-miterlimit:10;}
	.st10{fill:#EB8F38;}
</style>
<g id="Layer_1_3_">
	<g id="Layer_1_2_" class="st0">
		<g id="Layer_1_1_" class="st1">
			
				<image style="overflow:visible;enable-background:new    ;" width="1080" height="1080" xlink:href="../../../Downloads/Untitled design (4).png"  transform="matrix(0.75 0 0 0.75 -178 -186.1)">
			</image>
		</g>
		<g id="Layer_3" class="st1">
		</g>
	</g>
</g>
<g id="Layer_3_1_">
	<path class="st2" d="M400.6,349.6c0,34.4-17.2,64.8-43.6,83c-2,1.4-4.1,2.7-6.2,4c-0.6,0.4-1.2,0.7-1.8,1
		c-14.3,8-30.7,12.6-48.1,12.8c-0.4,0-0.9,0-1.3,0c-0.6,0-1.2,0-1.8,0c-18.8-0.4-36.3-5.9-51.2-15.2c-28.1-17.5-47-48.4-47.6-83.7
		c0-0.7,0-1.3,0-2c0-17,4.2-33,11.6-47.1c11.8-22.3,31.6-39.6,55.6-48.1c10.5-3.7,21.8-5.8,33.6-5.8
		C355.5,248.7,400.6,293.9,400.6,349.6z"/>
	<path class="st3" d="M369,355.2c0,18.8-3.3,28.5-5.8,33.2c-1.6,3-2.9,3.9-2.9,3.9S335.8,408,299.5,408s-60.3-15.7-60.3-15.7
		s-8.7-11.1-8.7-37.1s8.7-42.1,8.7-42.1s3.8,2.1,10.9,4.5c10.1,3.4,26.8,7.4,49.4,7.4c38.6,0,60.8-11.9,60.8-11.9
		S369,324.6,369,355.2z"/>
	<path class="st2" d="M402.6,463c-1.3,3.4-3,6.6-5.4,9.8c-6.6,9-17.7,17.7-34.5,28.2c2.7-10.3,3.6-21.5,2.2-33
		c-0.6-5-1.6-9.8-2.9-14.5l0,0c5.5-11,14.1-22,26.3-22.2c4.9-0.2,8.6,1.1,11.2,3.1C407,440.1,406.4,452.7,402.6,463z"/>
	<path class="st2" d="M230.5,485.8c0,1.4,0,2.7,0.1,4.1l0,0c-9.3,9.5-22.9,19.4-35.8,14.8c-0.6-0.2-1.1-0.4-1.6-0.6
		c-11.5-4.9-11.4-15.1-6.9-24.4c1.6-3.4,3.9-6.7,6.4-9.6c8.4-9.7,22.3-15.5,45.6-20.5C233.3,460.3,230.5,472.7,230.5,485.8z"/>
	<path class="st2" d="M276.2,582.1c-3.9,9.3-10.7,17.3-17.5,20.9c-2.4,1.3-5,2.1-7.5,2.5c-2.9,0.4-5.8,0.1-8.4-1
		c-5-2.1-8.8-6.8-10.4-12.8c-0.6-2.1-0.8-4.5-0.8-7c0-6.1,1.7-13.1,4.5-19.5c4.1-9.6,10.8-16.9,17.9-20.3l25.7,16
		C280.4,567.3,279.3,574.7,276.2,582.1z"/>
	<path class="st2" d="M367.1,584.7c-0.1,1.7-0.4,3.4-0.8,4.9c-1.6,5.9-5.4,10.7-10.4,12.8c-2.7,1.2-5.8,1.4-8.9,1
		c-2.4-0.4-4.8-1.2-7-2.4c-6.8-3.6-13.6-11.6-17.5-20.9c-2.9-6.9-4-13.9-3.5-20l25.6-17.4c7.2,3.4,14,10.7,18.1,20.5
		C365.7,570.3,367.5,578.1,367.1,584.7z"/>
	<path class="st2" d="M365.9,485.8c0,5-0.4,10-1.2,14.7l0,0c-0.9,5.3-2.2,10.5-4,15.4c-0.3,0.8-0.6,1.5-0.8,2.2
		c-10.7,27-34.3,45.7-61.7,45.7c-14,0-26.9-4.9-37.7-13.2c-6.4-4.9-12-11.1-16.6-18.1c-7.8-12-12.6-26.7-13.4-42.6l0,0
		c-0.1-1.3-0.1-2.7-0.1-4.1c0-13.1,2.8-25.4,7.8-36.3c1.3-2.9,2.7-5.6,4.3-8.2c0.7-1.1,1.3-2.2,2.1-3.2c0.6-0.9,1.2-1.8,1.9-2.7
		c15.5,9.6,33.7,15.2,53.2,15.2c17.9,0,34.7-4.7,49.3-12.8c0.8-0.1,1.6-0.2,2.3-0.3c0.5,0.7,0.9,1.3,1.3,2c1.9,3,3.6,6.1,5.1,9.3
		c0.7,1.5,1.4,3,2,4.6C363.7,463.2,365.9,474.2,365.9,485.8z"/>
	<path class="st2" d="M351.3,437.4c-0.8,0.1-1.5,0.2-2.3,0.3c0.6-0.3,1.2-0.7,1.8-1C351,436.9,351.2,437.1,351.3,437.4z"/>
	<path class="st4" d="M349,437.6c-14.3,8-30.7,12.6-48.1,12.9c-0.4,0-0.9,0-1.3,0c-0.6,0-1.2,0-1.8,0c-18.8-0.4-36.3-5.9-51.2-15.2
		c-28.1-17.5-47-48.4-47.6-83.7c0-0.7,0-1.3,0-2c0-17,4.2-33,11.6-47.1c12-21.1,31.4-37.4,54.7-45.6
		c-39.3,35.2-56.1,78.3-43.4,119.6C241.5,440.9,309.8,442.5,349,437.6z"/>
	<path class="st4" d="M230.5,485.8c0,1.4,0,2.7,0.1,4.1l0,0c-9.3,9.5-22.9,19.4-35.8,14.8c-0.6-0.2-1.1-0.4-1.6-0.6
		c9.4-4.8,17.8-9.6,22.2-13.5c2.1-1.9,4.2-10.4,2.7-18c0,0-4.1-5.1-31.8,7.1c1.6-3.4,3.9-6.7,6.4-9.6c8.4-9.7,22.3-15.5,45.6-20.5
		C233.3,460.3,230.5,472.7,230.5,485.8z"/>
	<path class="st5" d="M363.2,388.4c-1.6,3-2.9,3.9-2.9,3.9S335.8,408,299.5,408s-60.3-15.7-60.3-15.7s-8.7-11.1-8.7-37.1
		s8.7-42.1,8.7-42.1s3.8,2.1,10.9,4.5c-12.7,38.3-1.3,64.8-1.3,64.8C297.9,411.8,353.5,392.2,363.2,388.4z"/>
	<path class="st4" d="M365.9,485.8c0,5-0.4,10-1.2,14.7l0,0c-0.9,5.3-2.2,10.5-4,15.4c2.4-18.6,1.3-41.4-11.7-60
		c0,0-49.8,21.4-93.3,9.7c0,0-20.3,32.3,4.8,85c-6.4-4.9-12-11.1-16.6-18.1c-7.8-12-12.6-26.7-13.4-42.6l0,0
		c-0.1-1.3-0.1-2.7-0.1-4.1c0-13.1,2.8-25.4,7.8-36.3c1.3-2.9,2.7-5.6,4.3-8.2c0.7-1.1,1.3-2.2,2.1-3.2c0.6-0.9,1.2-1.8,1.9-2.7
		c15.5,9.6,33.7,15.2,53.2,15.2c17.9,0,34.7-4.7,49.3-12.8c0.8-0.1,1.6-0.2,2.3-0.3c0.5,0.7,0.9,1.3,1.3,2c1.9,3,3.6,6.1,5.1,9.3
		c0.7,1.5,1.4,3,2,4.6C363.7,463.2,365.9,474.2,365.9,485.8z"/>
	<path class="st4" d="M276.2,582.1c-3.9,9.3-10.7,17.3-17.5,20.9c-2.4,1.3-5,2.1-7.5,2.5c7.8-7.9,16-19.9,14.5-35
		c0,0-11.3-3.1-15.6-11.1c0,0-9.7,4-18.6,25.3c0-6.1,1.7-13.1,4.5-19.5c4.1-9.6,10.8-16.9,17.9-20.3l25.7,16
		C280.4,567.3,279.3,574.7,276.2,582.1z"/>
	<path class="st4" d="M367.1,584.7c-9.2-23.9-19.8-28.3-19.8-28.3c-4.2,8.1-15.6,11.1-15.6,11.1c-1.5,15.6,7.3,27.9,15.3,35.8
		c-2.4-0.4-4.8-1.2-7-2.4c-6.8-3.6-13.6-11.6-17.5-20.9c-2.9-6.9-4-13.9-3.5-20l25.6-17.4c7.2,3.4,14,10.7,18.1,20.5
		C365.7,570.3,367.5,578.1,367.1,584.7z"/>
	<path class="st6" d="M341.6,531.1c7.4-9.9,15.4-28.9,12.7-33.6c-1.5-2.6-6.9,15.4-18.1,29c-12.4,15.1-27.5,23.5-25,25.1
		C314.9,554.1,332.7,543.2,341.6,531.1z"/>
	<path class="st6" d="M373.8,406.7c7.4-9.9,15.4-28.9,12.7-33.6c-1.5-2.6-6.9,15.4-18.1,29c-12.4,15.1-27.5,23.5-25,25.1
		C347,429.7,364.9,418.8,373.8,406.7z"/>
	<path class="st6" d="M392.2,354.5c0-3.6-0.9-9.6-3.1-10.3c-1.2-0.4-0.9,5-1.3,10.1c-0.5,5.7-1.3,10,0.1,10.1
		C389.7,364.3,392.1,358.8,392.2,354.5z"/>
	<path class="st4" d="M405.2,454.5c-0.5,3.1-1.3,6.2-2.3,9.1c-1.3,3.5-3.1,6.8-5.5,10.1c-6.7,9.3-18.2,18.2-35.4,29
		c2.8-10.6,3.7-22.1,2.3-33.9c-0.6-5.1-1.6-10-3-14.8c2.5-4.9,5.5-9.9,9.2-13.9c0.2,0.3,0.4,0.6,0.6,0.9c-1.9,2.2-2.7,7.8-2.7,12
		c0,0,7.5,11.5,8.3,25.1C376.8,478,382.3,482.8,405.2,454.5z"/>
</g>
<g id="Layer_2_1_">
	<path class="st7" d="M296.2,248.8"/>
	<path class="st8" d="M369,355.2c0,30.6-8.7,37.1-8.7,37.1S335.8,408,299.5,408s-60.3-15.7-60.3-15.7s-8.7-11.1-8.7-37.1
		s8.7-42.1,8.7-42.1s21.7,11.9,60.3,11.9s60.8-11.9,60.8-11.9S369,324.6,369,355.2z"/>
	<path class="st8" d="M299.7,248.7c-55.7,0-100.9,45.2-100.9,100.9c0,36.2,19,67.9,47.7,85.7c15.5,9.6,33.7,15.2,53.2,15.2
		c18.6,0,36.1-5.1,51.1-13.9c29.8-17.5,49.8-49.9,49.8-87C400.6,293.9,355.5,248.7,299.7,248.7z"/>
	<path class="st8" d="M365.9,485.8c0,43.1-30.3,78-67.7,78s-67.7-34.9-67.7-78c0-19.2,6-36.8,16-50.4c15.5,9.6,33.7,15.2,53.2,15.2
		c18.6,0,36.1-5.1,51.1-13.9C360.3,450.1,365.9,467.2,365.9,485.8z"/>
	<path class="st8" d="M360.3,454.8c5.5-11,15.8-23.2,28-23.4c18.7-0.3,19.3,17.8,14.2,31.6c-4.7,12.8-15.1,23.9-37.9,38.1"/>
	<path class="st8" d="M279.6,560.8c0.8,6.4-0.3,13.9-3.4,21.3c-3.9,9.3-10.7,17.3-17.5,20.9c-5.3,2.8-11,3.5-15.9,1.4
		c-5-2.1-8.8-6.8-10.4-12.8c-2-7.3-0.2-17.4,3.6-26.5c4.1-9.6,10.8-16.9,17.8-20.3"/>
	<path class="st8" d="M344.6,542.6c7.2,3.4,14,10.7,18.1,20.5c3.9,9.1,5.6,19.2,3.6,26.5c-1.6,5.9-5.4,10.7-10.4,12.8
		c-4.8,2.1-10.6,1.3-15.9-1.4c-6.8-3.6-13.6-11.6-17.5-20.9c-2.9-6.9-4-13.9-3.5-20"/>
	<path class="st9" d="M296.2,383c9.5,13.5,16-6,16-6"/>
	<ellipse class="st10" cx="326.6" cy="359.2" rx="6.1" ry="12.3"/>
	<ellipse class="st10" cx="277.1" cy="359.2" rx="6.1" ry="12.3"/>
	<path class="st8" d="M230.6,489.8c-9.3,9.5-22.9,19.4-35.8,14.8c-17.6-6.3-11.8-23.4-2.2-34.5c8.4-9.7,22.3-15.5,45.6-20.6"/>
</g>
</svg>
