<?xml version="1.0" encoding="utf-8"?>
<!-- Generator: Adobe Illustrator 25.0.1, SVG Export Plug-In . SVG Version: 6.00 Build 0)  -->
<!--ORIGINAL VALUE: viewBox="0 0 595.28 841.89"-->
<svg version="1.1" id="Layer_1" xmlns="http://www.w3.org/2000/svg" xmlns:xlink="http://www.w3.org/1999/xlink" x="0px" y="0px"
	 viewBox="150 130 400 510" style="enable-background:new 0 0 595.28 841.89;" xml:space="preserve">
<style type="text/css">
	.st0{fill:#FFFFFF;}
	.st1{fill:#DD2820;}
	.st2{fill:#F7EFEE;}
	.st3{fill:#F8F0EF;}
	.st4{fill:#1E3D76;}
	.st5{fill:#DD2821;}
	.st6{fill:#DD2A22;}
	.st7{fill:#F8EFEE;}
	.st8{fill:#F7EEED;}
	.st9{fill:#DE2A22;}
	.st10{fill:#1F3F77;}
	.st11{fill:#203F77;}
	.st12{fill:#DD2A23;}
	.st13{fill:#F5EEEE;}
	.st14{fill:#7DDFFD;}
	.st15{fill:#7DDFFE;}
	.st16{fill:#7EE0FE;}
	.st17{fill:#214078;}
	.st18{fill:#EFF4F4;}
	.st19{fill:#FF8A04;}
	.st20{fill:#FF8B05;}
</style>
<g>
	<g>
		<path class="st0" d="M702.56,725.64c-280.62,0-561.24,0-841.92,0c0-198.36,0-396.74,0-595.2c280.6,0,561.26,0,841.92,0
			C702.56,328.79,702.56,527.21,702.56,725.64z M236.59,486.04c-0.34-0.2-0.71-0.37-1.01-0.61c-2.69-2.13-5.33-4.32-8.06-6.4
			c-6.37-4.85-13.59-7.72-21.47-8.81c-1.99-0.28-4.18-0.04-6.14,0.47c-2.77,0.73-4.8,2.59-5.46,5.51c-0.54,2.42-0.64,4.89-0.05,7.36
			c1.06,4.42,3.19,8.33,5.63,12.09c7.92,12.2,18.81,21.4,30.41,29.87c-0.13,1.26-0.25,2.52-0.38,3.78
			c-0.35,2.49-0.67,4.99-1.06,7.48c-0.37,2.41-0.54,4.89-1.29,7.19c-1.18,3.6-1.02,7.32-1.55,10.97c-0.32,1.85-0.65,3.7-0.95,5.56
			c-0.94,5.88-1.81,11.77-2.8,17.63c-0.94,5.56-2,11.09-3,16.64c-0.15,0.85-0.31,1.7-0.45,2.56c-0.61,3.73-1.21,7.46-1.83,11.18
			c-0.65,3.96-1.36,7.92-1.95,11.89c-0.13,0.87-0.44,1.92,0.51,2.65c-0.27,2.36,0.6,3.95,2.93,4.69c1.65,0.53,3.41,0.9,5.13,0.99
			c5.72,0.29,11.45,0.47,17.18,0.59c2.86,0.06,5.72-0.09,8.58-0.14c3.11,0.02,6.22,0,9.33,0.07c3.41,0.08,6.82,0.25,10.23,0.38
			c0.47-0.04,0.95-0.12,1.42-0.12c8.75,0,17.5,0.02,26.24,0c1.9,0,3.81-0.14,5.71-0.22c0.75,0.14,1.5,0.4,2.25,0.41
			c5.15,0.04,10.3,0.03,15.46,0.03c3.59,0.01,7.19,0.03,10.78,0.03c1.12,0,2.24-0.04,3.35-0.13c2.17-0.19,4.22-2,4.34-4.11
			c0.07-1.26,0.14-2.54,0.05-3.8c-0.19-2.62-0.48-5.24-0.73-7.86c-0.16-1.56-0.37-3.11-0.48-4.67c-0.22-3.29-0.38-6.58-0.57-9.88
			c-0.03-0.79-0.02-1.59-0.08-2.38c-0.6-7.11-1.21-14.23-1.84-21.34c-0.08-0.86-0.24-1.72-0.37-2.58
			c-0.21-3.89-0.41-7.77-0.62-11.66c-0.14-2.05-0.22-4.11-0.42-6.16c-0.62-6.31-1.28-12.61-1.92-18.91c-0.07-0.85-0.21-1.7-0.2-2.54
			c0.01-1.14,0.14-2.28,0.22-3.42c1.31-1.16,2.68-2.27,3.93-3.5c7.47-7.35,14.44-15.16,20.88-23.42c5.33-6.84,9.59-14.33,12.38-22.6
			c1.27-3.76,1.83-7.56,1.2-11.54c-0.8-5.08-3.99-7.92-9.17-7.92c-3.27,0-6.23,1.25-9.22,2.35c0.36-0.73,0.72-1.45,1.28-2.59
			c-1.87,1.09-3.36,1.97-5.18,3.03c1.09,0.09,1.68,0.14,2.27,0.18c-0.78,0.93-1.59,1.8-2.99,1.35c-0.31,0.01-0.63,0.02-0.94,0.03
			c-0.47,0.3-1.01,0.53-1.37,0.93c-0.27,0.3-0.18,0.97-0.47,1.22c-1.08,0.94-2.19,1.89-3.41,2.62c-4.11,2.46-7.13,6.1-10.42,9.45
			c-0.88,0.9-1.65,1.9-2.48,2.86c-0.19-0.6-0.49-1.19-0.54-1.8c-0.22-2.51-0.36-5.03-0.53-7.55c0.34-0.21,0.67-0.43,1.03-0.61
			c3.78-1.89,7.57-3.76,11.35-5.66c5.17-2.6,9.61-6.25,14.17-9.76c7.41-5.7,13.83-12.35,19.34-19.85
			c16.71-22.78,24.06-48.19,21.18-76.42c-0.35-3.41-0.53-6.85-1.16-10.21c-1.49-7.87-4.21-15.35-7.42-22.69
			c-6.13-13.99-15.31-25.76-26.22-36.26c-4.62-4.45-10.07-7.84-15.44-11.29c-6.26-4.02-12.8-7.5-19.8-10.06
			c0.46-0.31,0.89-0.71,1.39-0.92c1.55-0.66,2.17-1.74,2.33-3.46c0.65-6.82,2.62-13.24,6.24-19.11c0.18-0.29,0.11-0.75,0.16-1.12
			c0.54-0.56,1.14-1.07,1.6-1.69c3.97-5.3,8.79-9.59,14.78-12.47c4.61-2.22,9.47-3.61,14.63-3.76c0.87,0.03,1.74,0.01,2.61,0.08
			c4.41,0.36,8.53,1.84,12.54,3.55c6.03,2.57,11.33,6.34,16.27,10.62c0.67,0.58,1.59,0.89,2.39,1.33c1.02,1.39,1.9,2.91,3.08,4.14
			c3.66,3.79,6.65,8.06,9.39,12.53c0.9,1.47,1.88,2.89,2.82,4.34c0.04,0.38-0.02,0.82,0.15,1.14c4.68,8.89,7.45,18.41,9.49,28.19
			c0.88,5.34,1.52,10.69,1.47,16.11c-0.06,7.59,0.01,15.19,0.02,22.78c0,7.42-0.03,14.84,0,22.26c0.02,3.63,2.02,6.75,5.85,6.72
			c6.7-0.05,13.41,0.01,20.11-0.08c2.21-0.03,4.42-0.42,6.63-0.64c0.83,0.15,1.66,0.43,2.49,0.43c5.89,0.04,11.78,0.03,17.67,0.02
			c5.01-0.01,10.03-0.06,15.04-0.1c3.66-0.04,7.32-0.07,10.99-0.11c6.45-0.07,12.89-0.1,19.33-0.23c3.46-0.07,5.01-1.43,5.37-4.81
			c0.48-4.42,0.74-8.86,1.12-13.29c0.28-3.24,0.58-6.48,0.88-9.72c-0.01-6.93-0.02-13.85-0.03-20.78c0.71-6.88,0-13.72-0.75-20.53
			c-0.55-5.06-1.3-10.1-2.2-15.11c-0.51-2.86-1.5-5.64-2.27-8.45c-0.09-0.78-0.06-1.6-0.28-2.35c-2.06-7.08-4.29-14.1-7.12-20.92
			c-0.32-0.78-0.93-1.43-1.41-2.14c-0.23-1.06-0.28-2.2-0.71-3.17c-1.23-2.76-2.56-5.49-3.96-8.17
			c-3.18-6.07-6.23-12.22-10.53-17.62c-0.36-0.45-0.93-0.73-1.4-1.09c-0.31-0.79-0.48-1.67-0.94-2.36
			c-4.09-6.13-8.79-11.79-13.66-17.31c-0.99-1.12-2.21-2.03-3.32-3.04c-0.25-0.53-0.38-1.19-0.77-1.58
			c-6.81-6.8-13.88-13.31-21.64-19.02c-0.55-0.41-1.27-0.6-1.9-0.89c-0.23-0.32-0.4-0.73-0.71-0.94c-4.36-2.9-8.68-5.87-13.13-8.61
			c-3.64-2.25-7.45-4.23-11.19-6.34c-0.17-0.16-0.3-0.38-0.5-0.46c-5.18-2.25-10.27-4.78-15.59-6.65c-5.54-1.95-11.3-3.31-16.99-4.8
			c-1.18-0.31-2.51-0.04-3.77-0.04c-0.37-0.32-0.7-0.86-1.12-0.93c-3.35-0.58-6.71-1.16-10.08-1.58c-4.16-0.52-8.33-1.21-12.5-1.26
			c-6.99-0.09-13.99,0.27-20.99,0.44c-4.1,0.57-8.23,0.97-12.29,1.76c-8.63,1.67-16.93,4.46-24.95,8.05
			c-2.47,1.11-4.99,2.12-7.41,3.34c-5.69,2.89-11.04,6.36-16.21,10.09c-2.07,1.49-4.18,2.95-6.05,4.66
			c-3.58,3.29-7.01,6.75-10.49,10.15c-4.82,4.7-8.83,10.03-12.5,15.65c-0.36,0.42-0.82,0.8-1.07,1.28
			c-3.09,5.76-6.83,11.16-9.17,17.32c-2.07,5.43-4.33,10.79-6.24,16.28c-1.09,3.13-1.65,6.45-2.44,9.69
			c-0.45,1.35-1.09,2.67-1.3,4.06c-0.66,4.47-1.17,8.96-1.71,13.44c-0.82,6.8-1.07,13.62-0.67,20.47
			c-3.95,2.41-7.92,4.78-11.84,7.24c-13.83,8.68-24.86,20.18-33.67,33.84c-5.34,8.29-9.27,17.24-12.22,26.66
			c-2.51,8.04-3.89,16.26-4.36,24.64c-0.24,4.21-0.13,8.45-0.07,12.67c0.13,9.66,1.98,19.08,5.13,28.14
			c3.97,11.41,9.24,22.21,16.66,31.89c7.97,10.39,17.43,19.06,28.6,25.87c4.01,2.44,8.07,4.8,12.11,7.19
			c-0.15,0.53-0.34,1.05-0.43,1.59C237.97,477.71,237.29,481.88,236.59,486.04z"/>
		<path class="st1" d="M396,140.93c1.26,0,2.59-0.27,3.77,0.04c5.7,1.49,11.45,2.85,16.99,4.8c5.32,1.87,10.41,4.4,15.59,6.65
			c0.2,0.09,0.34,0.3,0.5,0.46c-34.33,22.55-68.65,45.09-102.98,67.64c-22.37,14.7-44.75,29.39-67.11,44.1c-0.6,0.4-1.07,1-1.6,1.51
			l0.04-0.02c-0.36,0.16-0.71,0.32-1.07,0.47c-0.98,0.33-1.95,0.67-2.94,0.98c-4.54,1.42-9.09,2.8-13.61,4.28
			c-1.65,0.54-3.22,1.32-4.82,1.98c-0.4-6.84-0.15-13.66,0.67-20.47c0.54-4.49,1.05-8.98,1.71-13.44c0.2-1.39,0.85-2.71,1.3-4.06
			c0.93-0.62,1.84-1.26,2.78-1.84c24.59-15.19,49.17-30.38,73.77-45.54c22.49-13.87,45-27.71,67.5-41.57
			C389.69,144.95,392.83,142.92,396,140.93z"/>
		<path class="st1" d="M457.89,361.12c-2.21,0.22-4.42,0.61-6.63,0.64c-6.7,0.1-13.4,0.03-20.11,0.08
			c-3.83,0.03-5.84-3.08-5.85-6.72c-0.03-7.42-0.01-14.84,0-22.26c0.65-0.45,1.29-0.93,1.96-1.36c14.5-9.31,29-18.61,43.5-27.92
			c18.26-11.72,36.52-23.44,54.77-35.16c0.77,2.82,1.76,5.59,2.27,8.45c0.9,5.01,1.65,10.05,2.2,15.11
			c0.75,6.82,1.46,13.66,0.75,20.53c-0.45,0.32-0.91,0.63-1.35,0.97c-5.51,4.24-10.93,8.6-16.54,12.69
			c-13.56,9.9-27.91,18.6-42.24,27.32C466.4,356.09,462.14,358.59,457.89,361.12z"/>
		<path class="st2" d="M261.17,266.13c0.53-0.51,0.99-1.11,1.6-1.51c22.36-14.71,44.74-29.41,67.11-44.1
			c34.33-22.55,68.65-45.09,102.98-67.64c3.74,2.1,7.55,4.08,11.19,6.34c4.45,2.75,8.77,5.72,13.13,8.61
			c0.31,0.21,0.48,0.62,0.71,0.94c-0.79,0.52-1.57,1.07-2.37,1.57c-24.92,15.72-49.85,31.44-74.77,47.17
			c-4.8,3.02-9.6,6.04-14.37,9.1c-0.53,0.34-0.88,0.97-1.31,1.46c-5.16,0.15-10.02,1.54-14.63,3.76
			c-5.98,2.88-10.81,7.17-14.78,12.47c-0.46,0.62-1.07,1.13-1.6,1.69c-10.28,5.82-20.56,11.63-30.83,17.47
			c-0.82,0.46-1.54,1.09-2.31,1.64c-11.7-1.35-23.38-1.19-35.03,0.53C264.31,265.87,262.74,265.97,261.17,266.13z"/>
		<path class="st3" d="M396,140.93c-3.16,1.99-6.31,4.02-9.49,5.98c-22.5,13.86-45.01,27.7-67.5,41.57
			c-24.6,15.17-49.18,30.36-73.77,45.54c-0.95,0.58-1.86,1.23-2.78,1.84c0.8-3.24,1.35-6.56,2.44-9.69
			c1.91-5.49,4.17-10.85,6.24-16.28c2.35-6.15,6.08-11.56,9.17-17.32c0.26-0.48,0.71-0.85,1.07-1.28c0.72-0.29,1.49-0.49,2.15-0.89
			c24.96-14.97,49.91-29.98,74.88-44.94c4.03-2.41,8.17-4.64,12.24-6.99c0.29-0.17,0.43-0.58,0.64-0.88c7-0.17,14-0.53,20.99-0.44
			c4.17,0.05,8.35,0.74,12.5,1.26c3.37,0.42,6.73,1,10.08,1.58C395.29,140.07,395.63,140.61,396,140.93z"/>
		<path class="st1" d="M219.42,594.77c1.01-5.54,2.06-11.08,3-16.64c0.99-5.87,1.86-11.76,2.8-17.63c0.3-1.85,0.63-3.7,0.95-5.56
			c0.7-0.35,1.44-0.63,2.08-1.05c16.57-10.81,33.15-21.62,49.69-32.47c16.34-10.72,32.65-21.48,48.99-32.22
			c0.25-0.17,0.59-0.21,0.89-0.32c0.04,0.79,0.05,1.59,0.12,2.38c0.31,3.72,0.62,7.43,0.95,11.14c0.25,2.85,0.55,5.69,0.78,8.54
			c0.2,2.45,0.32,4.9,0.48,7.35c-0.89,0.67-1.77,1.37-2.68,2c-35.24,24.44-70.49,48.87-105.74,73.29
			C221.01,594.08,220.19,594.38,219.42,594.77z"/>
		<path class="st3" d="M525.53,268.44c-18.26,11.72-36.51,23.44-54.77,35.16c-14.5,9.31-29,18.61-43.5,27.92
			c-0.67,0.43-1.31,0.91-1.96,1.36c-0.01-7.59-0.08-15.19-0.02-22.78c0.04-5.43-0.59-10.78-1.47-16.11c0.8-0.33,1.63-0.6,2.38-1.01
			c16.98-9.36,33.95-18.74,50.93-28.11c13.2-7.28,26.41-14.56,39.61-21.83c0.48,0.71,1.08,1.37,1.41,2.14
			c2.83,6.82,5.06,13.84,7.12,20.92C525.47,266.84,525.44,267.65,525.53,268.44z"/>
		<path class="st1" d="M516.72,243.03c-13.2,7.28-26.41,14.55-39.61,21.83c-16.98,9.37-33.95,18.75-50.93,28.11
			c-0.75,0.41-1.59,0.68-2.38,1.01c-2.05-9.77-4.82-19.3-9.49-28.19c-0.17-0.32-0.1-0.76-0.15-1.14c1.32-0.74,2.66-1.43,3.95-2.21
			c21.41-12.88,42.82-25.77,64.23-38.66c5.94-3.58,11.86-7.21,17.78-10.81c0.47,0.36,1.04,0.64,1.4,1.09
			c4.3,5.4,7.35,11.55,10.53,17.62c1.41,2.68,2.73,5.41,3.96,8.17C516.44,240.82,516.5,241.96,516.72,243.03z"/>
		<path class="st1" d="M365.06,228.07c0.43-0.49,0.78-1.12,1.31-1.46c4.77-3.06,9.57-6.08,14.37-9.1
			c24.92-15.72,49.85-31.44,74.77-47.17c0.8-0.51,1.58-1.05,2.37-1.57c0.64,0.29,1.35,0.48,1.9,0.89
			c7.77,5.71,14.83,12.22,21.64,19.02c0.39,0.39,0.52,1.05,0.77,1.58c-0.35,0.18-0.72,0.33-1.05,0.55
			c-22.75,14.56-45.49,29.13-68.23,43.71c-4.7,3.02-9.37,6.09-14.06,9.14c-0.8-0.44-1.71-0.75-2.39-1.33
			c-4.95-4.28-10.24-8.05-16.27-10.62c-4.01-1.71-8.13-3.19-12.54-3.55C366.8,228.08,365.93,228.1,365.06,228.07z"/>
		<path class="st1" d="M331.66,536.28c0.64,6.3,1.31,12.61,1.92,18.91c0.2,2.05,0.28,4.11,0.42,6.16c-0.45,0.33-0.91,0.64-1.35,0.99
			c-23.38,18.75-46.76,37.49-70.14,56.25c-4.36,3.5-8.67,7.06-13,10.59c-2.86,0.05-5.72,0.2-8.58,0.14
			c-5.73-0.12-11.46-0.3-17.18-0.59c-1.73-0.09-3.48-0.46-5.13-0.99c-2.33-0.74-3.2-2.33-2.93-4.69c0.59-0.39,1.21-0.76,1.78-1.19
			c36.11-27.15,72.21-54.31,108.32-81.46C327.71,538.96,329.71,537.65,331.66,536.28z"/>
		<path class="st3" d="M398.87,243.65c4.69-3.05,9.35-6.12,14.06-9.14c22.74-14.58,45.48-29.14,68.23-43.71
			c0.33-0.21,0.7-0.37,1.05-0.55c1.11,1.01,2.34,1.92,3.32,3.04c4.87,5.52,9.57,11.18,13.66,17.31c0.46,0.69,0.63,1.57,0.94,2.36
			c-5.93,3.61-11.84,7.23-17.78,10.81c-21.4,12.9-42.81,25.78-64.23,38.66c-1.29,0.78-2.63,1.48-3.95,2.21
			c-0.94-1.45-1.92-2.87-2.82-4.34c-2.74-4.47-5.74-8.73-9.39-12.53C400.76,246.56,399.88,245.04,398.87,243.65z"/>
		<path class="st2" d="M331.66,536.28c-1.95,1.37-3.95,2.68-5.86,4.11c-36.11,27.15-72.22,54.31-108.32,81.46
			c-0.57,0.43-1.18,0.79-1.78,1.19c-0.95-0.73-0.64-1.77-0.51-2.65c0.59-3.97,1.3-7.93,1.95-11.89c0.62-3.73,1.21-7.46,1.83-11.18
			c0.14-0.85,0.3-1.7,0.45-2.56c0.77-0.39,1.59-0.69,2.29-1.17c35.25-24.42,70.5-48.85,105.74-73.29c0.92-0.64,1.79-1.33,2.68-2
			c0.29,2.47,0.59,4.94,0.88,7.41c0.22,1.54,0.44,3.07,0.67,4.61c-0.08,1.14-0.2,2.28-0.22,3.42
			C331.45,534.59,331.59,535.43,331.66,536.28z"/>
		<path class="st4" d="M261.17,266.13c1.57-0.16,3.14-0.26,4.7-0.49c11.65-1.72,23.33-1.88,35.03-0.53
			c0.29,0.12,0.57,0.33,0.87,0.36c6.1,0.6,11.95,2.31,17.8,4.02c1.43,0.42,2.89,0.75,4.34,1.12c7,2.56,13.54,6.04,19.8,10.06
			c5.37,3.45,10.83,6.85,15.44,11.29c10.9,10.5,20.08,22.27,26.22,36.26c3.21,7.34,5.93,14.82,7.42,22.69
			c0.64,3.36,0.81,6.8,1.16,10.21c2.88,28.23-4.48,53.64-21.18,76.42c-5.5,7.51-11.93,14.15-19.34,19.85
			c-4.56,3.51-9,7.15-14.17,9.76c-3.77,1.9-7.57,3.77-11.35,5.66c-0.36,0.18-0.68,0.41-1.03,0.61c-1.5,0.49-2.99,0.99-4.5,1.46
			c-3.63,1.12-7.27,2.22-10.9,3.33c-1.65,0.22-3.31,0.38-4.95,0.68c-6.74,1.22-13.51,2.15-20.37,2.08
			c-3.82-0.04-7.64-0.19-11.45-0.47c-3.57-0.27-7.11-0.78-10.67-1.17c-0.78-0.08-1.57-0.08-2.36-0.12c-0.91-0.29-1.8-0.66-2.73-0.84
			c-6.03-1.19-11.8-3.16-17.37-5.76c-0.76-0.36-1.66-0.44-2.49-0.65c-4.04-2.4-8.1-4.75-12.11-7.19
			c-11.17-6.81-20.63-15.48-28.6-25.87c-7.42-9.68-12.69-20.48-16.66-31.89c-3.15-9.06-5-18.48-5.13-28.14
			c-0.06-4.22-0.16-8.46,0.07-12.67c0.47-8.37,1.85-16.6,4.36-24.64c2.94-9.42,6.87-18.37,12.22-26.66
			c8.81-13.66,19.84-25.16,33.67-33.84c3.92-2.46,7.89-4.83,11.84-7.24c1.6-0.67,3.17-1.45,4.82-1.98
			c4.52-1.48,9.07-2.85,13.61-4.28c0.98-0.31,1.96-0.65,2.94-0.98c0.36-0.16,0.71-0.32,1.07-0.47L261.17,266.13z M284.61,478.53
			c3.35-0.17,6.72-0.22,10.06-0.53c11.71-1.09,22.93-4.14,33.7-8.8c10.5-4.55,19.91-10.87,28.4-18.5
			c11.23-10.1,19.55-22.33,25.58-36.12c10.19-23.29,12.19-47.34,4.91-71.67c-10.53-35.2-33.52-58.89-68.3-70.95
			c-9.89-3.43-20.14-4.95-30.62-4.89c-8.02,0.04-15.95,0.87-23.81,2.44c-11.74,2.35-22.97,6.08-33.28,12.37
			c-12.59,7.68-23.24,17.41-31.89,29.36c-22.4,30.93-26.31,72.25-10.07,106.75C206.69,454.96,243.69,478.43,284.61,478.53z"/>
		<path class="st2" d="M311.5,478.21c3.63-1.11,7.27-2.21,10.9-3.33c1.51-0.46,3-0.97,4.5-1.46c0.17,2.52,0.31,5.04,0.53,7.55
			c0.05,0.61,0.36,1.2,0.54,1.8c-0.03,1.68-0.06,3.36-0.1,5.05c-0.02,0.35-0.04,0.71-0.06,1.06c-0.3,0.1-0.63,0.15-0.88,0.32
			c-16.33,10.74-32.64,21.5-48.99,32.22c-16.55,10.85-33.12,21.66-49.69,32.47c-0.65,0.42-1.39,0.71-2.08,1.05
			c0.53-3.65,0.37-7.37,1.55-10.97c0.75-2.29,0.92-4.78,1.29-7.19c0.39-2.49,0.71-4.99,1.06-7.48
			c19.93-12.49,39.87-24.97,59.8-37.47C297.08,487.32,304.29,482.76,311.5,478.21z"/>
		<path class="st5" d="M311.5,478.21c-7.21,4.55-14.41,9.1-21.63,13.63c-19.93,12.5-39.86,24.98-59.8,37.47
			c0.13-1.26,0.25-2.52,0.38-3.78c0.17-1.16,0.34-2.32,0.51-3.48c0.12-0.29,0.31-0.56,0.36-0.86c1.03-6.77,2.02-13.54,3.06-20.3
			c0.36-2.34,0.86-4.67,1.29-7c2.02-1.11,4.05-2.21,6.06-3.35c6.67-3.77,13.32-7.55,19.98-11.33c0.79,0.04,1.58,0.03,2.36,0.12
			c3.56,0.38,7.1,0.9,10.67,1.17c3.81,0.28,7.63,0.43,11.45,0.47c6.86,0.07,13.63-0.86,20.37-2.08
			C308.19,478.59,309.85,478.43,311.5,478.21z"/>
		<path class="st6" d="M302.45,629.29c-1.9,0.08-3.81,0.22-5.71,0.22c-8.75,0.02-17.5,0-26.24,0c-0.47,0-0.95,0.08-1.42,0.12
			c-0.64-1.4,0.81-1.56,1.38-2.05c19.63-16.83,39.29-33.61,58.97-50.38c1.69-1.44,3.46-2.8,5.19-4.19c0.12,0.86,0.29,1.72,0.37,2.58
			c0.62,7.11,1.23,14.23,1.84,21.34c0.07,0.79,0.06,1.59,0.08,2.38c-2.84,2.44-5.69,4.86-8.52,7.32
			C319.74,614.19,311.1,621.74,302.45,629.29z"/>
		<path class="st7" d="M457.89,361.12c4.25-2.53,8.52-5.03,12.74-7.6c14.33-8.73,28.68-17.42,42.24-27.32
			c5.61-4.1,11.03-8.46,16.54-12.69c0.44-0.34,0.9-0.65,1.35-0.97c0.01,6.93,0.02,13.85,0.03,20.78c-0.77,0.33-1.63,0.54-2.29,1.02
			c-7.55,5.5-15.1,11-22.58,16.59c-4.09,3.06-8.07,6.27-12.07,9.44c-0.33,0.26-0.5,0.74-0.75,1.11c-5.01,0.03-10.03,0.08-15.04,0.1
			c-5.89,0.02-11.78,0.02-17.67-0.02C459.55,361.55,458.72,361.27,457.89,361.12z"/>
		<path class="st8" d="M334.62,573.01c-1.73,1.39-3.5,2.75-5.19,4.19c-19.67,16.77-39.34,33.55-58.97,50.38
			c-0.57,0.49-2.02,0.65-1.38,2.05c-3.41-0.13-6.82-0.3-10.23-0.38c-3.11-0.07-6.22-0.05-9.33-0.07c4.33-3.53,8.64-7.09,13-10.59
			c23.37-18.76,46.75-37.5,70.14-56.25c0.43-0.35,0.9-0.66,1.35-0.99C334.21,565.24,334.41,569.13,334.62,573.01z"/>
		<path class="st9" d="M351.3,137.59c-0.21,0.3-0.35,0.72-0.64,0.88c-4.07,2.35-8.21,4.58-12.24,6.99
			c-24.97,14.96-49.92,29.97-74.88,44.94c-0.66,0.39-1.43,0.6-2.15,0.89c3.67-5.61,7.68-10.95,12.5-15.65
			c3.48-3.4,6.91-6.86,10.49-10.15c1.87-1.72,3.99-3.17,6.05-4.66c5.17-3.73,10.52-7.2,16.21-10.09c2.41-1.23,4.93-2.24,7.41-3.34
			c8.03-3.59,16.32-6.38,24.95-8.05C343.07,138.57,347.2,138.17,351.3,137.59z"/>
		<path class="st9" d="M493.09,361.47c0.25-0.38,0.41-0.85,0.75-1.11c4.01-3.17,7.98-6.38,12.07-9.44
			c7.48-5.59,15.03-11.09,22.58-16.59c0.66-0.48,1.52-0.69,2.29-1.02c-0.29,3.24-0.6,6.48-0.88,9.72
			c-0.38,4.43-0.65,8.87-1.12,13.29c-0.36,3.38-1.91,4.73-5.37,4.81c-6.44,0.14-12.89,0.16-19.33,0.23
			C500.42,361.41,496.75,361.44,493.09,361.47z"/>
		<path class="st10" d="M327.87,487.83c0.03-1.68,0.06-3.36,0.1-5.05c0.82-0.96,1.59-1.96,2.48-2.86c3.29-3.35,6.31-6.99,10.42-9.45
			c1.22-0.73,2.33-1.68,3.41-2.62c0.29-0.25,0.2-0.91,0.47-1.22c0.36-0.4,0.9-0.63,1.37-0.93c0,0-0.03-0.06-0.03-0.06
			c-0.21,0.3-0.43,0.6-0.79,1.11c1-0.06,1.69-0.09,1.77-1.09l-0.01,0.01c1.4,0.46,2.21-0.41,2.99-1.35c0,0-0.07-0.04-0.07-0.04
			c0.39-0.17,0.78-0.33,1.17-0.5c0.18-0.03,0.35-0.05,0.53-0.08c2.99-1.1,5.95-2.35,9.22-2.35c5.18,0,8.37,2.84,9.17,7.92
			c0.63,3.98,0.06,7.78-1.2,11.54c-2.79,8.27-7.05,15.76-12.38,22.6c-6.44,8.25-13.41,16.07-20.88,23.42
			c-1.25,1.23-2.62,2.34-3.93,3.5c-0.22-1.54-0.44-3.07-0.67-4.61c0.69-0.54,1.41-1.05,2.07-1.62c9.73-8.54,17.89-18.43,24.91-29.27
			c3.7-5.71,6.7-11.79,8.67-18.34c0.66-2.19,0.91-4.4,0.56-6.62c-0.41-2.6-1.68-4.53-4.48-5.27c-2.57-0.68-4.95-0.13-7.24,0.81
			c-8.62,3.53-16.24,8.48-22.18,15.8C331.51,483.41,329.69,485.62,327.87,487.83z"/>
		<path class="st8" d="M302.45,629.29c8.64-7.55,17.28-15.11,25.93-22.65c2.82-2.46,5.68-4.88,8.52-7.32
			c0.19,3.29,0.35,6.59,0.57,9.88c0.1,1.56,0.31,3.11,0.48,4.67c-0.35,0.13-0.78,0.17-1.05,0.41c-5.45,4.74-10.88,9.5-16.29,14.29
			c-0.28,0.24-0.3,0.77-0.45,1.17c-5.15,0-10.3,0.01-15.46-0.03C303.96,629.69,303.21,629.43,302.45,629.29z"/>
		<path class="st11" d="M230.95,522.06c-0.17,1.16-0.34,2.32-0.51,3.48c-11.59-8.47-22.48-17.67-30.41-29.87
			c-2.44-3.76-4.58-7.67-5.63-12.09c-0.59-2.47-0.49-4.93,0.05-7.36c0.65-2.92,2.69-4.78,5.46-5.51c1.96-0.52,4.14-0.75,6.14-0.47
			c7.89,1.09,15.11,3.96,21.47,8.81c2.73,2.08,5.37,4.27,8.06,6.4c0.31,0.24,0.68,0.41,1.02,0.61c-0.24,1.19-0.48,2.38-0.72,3.57
			c-2.33-2.18-4.49-4.59-7.03-6.48c-5.81-4.32-12.24-7.54-19.25-9.45c-2.12-0.58-4.43-0.92-6.6-0.75c-3.99,0.31-5.93,2.28-6.01,6.59
			c-0.03,1.4,0.28,2.92,0.86,4.18c1.5,3.25,3.03,6.53,4.94,9.55c5.42,8.59,12.56,15.71,20.09,22.43
			C225.43,517.95,228.25,519.94,230.95,522.06z"/>
		<path class="st12" d="M323.92,270.61c-1.45-0.37-2.91-0.71-4.34-1.12c-5.85-1.71-11.7-3.42-17.8-4.02
			c-0.3-0.03-0.58-0.24-0.87-0.36c0.77-0.55,1.49-1.18,2.31-1.64c10.27-5.84,20.55-11.65,30.83-17.47
			c-0.05,0.38,0.03,0.83-0.16,1.12c-3.62,5.87-5.59,12.3-6.24,19.11c-0.17,1.72-0.78,2.8-2.33,3.46
			C324.81,269.91,324.38,270.3,323.92,270.61z"/>
		<path class="st13" d="M235.88,489.61c0.24-1.19,0.48-2.38,0.72-3.57c0.69-4.17,1.38-8.33,2.08-12.49
			c0.09-0.54,0.29-1.06,0.43-1.59c0.83,0.21,1.73,0.29,2.49,0.65c5.57,2.6,11.34,4.56,17.37,5.76c0.93,0.18,1.82,0.56,2.73,0.84
			c-6.66,3.78-13.32,7.56-19.98,11.33c-2.01,1.14-4.04,2.23-6.06,3.35C235.74,492.46,235.81,491.04,235.88,489.61z"/>
		<path class="st9" d="M320.17,629.73c0.14-0.4,0.17-0.92,0.45-1.17c5.41-4.79,10.84-9.55,16.29-14.29
			c0.27-0.23,0.69-0.27,1.05-0.41c0.25,2.62,0.54,5.23,0.73,7.86c0.09,1.26,0.02,2.53-0.05,3.8c-0.11,2.11-2.16,3.92-4.34,4.11
			c-1.11,0.1-2.23,0.13-3.35,0.13C327.35,629.77,323.76,629.74,320.17,629.73z"/>
		<path class="st14" d="M351.68,463.7c-0.18,0.03-0.35,0.05-0.53,0.08c-0.32-0.11-0.64-0.22-0.97-0.33
			c-0.07,0.28-0.13,0.55-0.2,0.83c0,0,0.07,0.04,0.07,0.04c-0.59-0.05-1.18-0.1-2.27-0.18c1.82-1.06,3.31-1.94,5.18-3.03
			C352.39,462.25,352.04,462.98,351.68,463.7z"/>
		<path class="st10" d="M346.12,465.71c0.31-0.01,0.63-0.02,0.94-0.03c0,0,0.01-0.01,0.01-0.01c-0.33,0-0.66-0.01-0.98-0.01
			L346.12,465.71z"/>
		<path class="st2" d="M261.21,266.12c-0.36,0.16-0.71,0.32-1.07,0.47C260.5,266.43,260.86,266.27,261.21,266.12z"/>
		<path class="st15" d="M327.87,487.83c1.81-2.21,3.64-4.42,5.44-6.64c5.94-7.31,13.56-12.27,22.18-15.8
			c2.29-0.94,4.67-1.49,7.24-0.81c2.8,0.74,4.07,2.67,4.48,5.27c0.35,2.22,0.1,4.43-0.56,6.62c-1.97,6.55-4.97,12.64-8.67,18.34
			c-7.02,10.83-15.18,20.73-24.91,29.27c-0.66,0.58-1.38,1.09-2.07,1.62c-0.29-2.47-0.59-4.94-0.88-7.41
			c-0.16-2.45-0.28-4.9-0.48-7.35c-0.23-2.85-0.53-5.69-0.78-8.54c-0.33-3.71-0.64-7.43-0.95-11.14c-0.07-0.79-0.08-1.59-0.12-2.38
			C327.83,488.53,327.85,488.18,327.87,487.83z"/>
		<path class="st16" d="M284.61,478.53c-40.92-0.1-77.92-23.57-95.32-60.55c-16.24-34.51-12.33-75.82,10.07-106.75
			c8.65-11.94,19.3-21.67,31.89-29.36c10.31-6.29,21.53-10.02,33.28-12.37c7.85-1.57,15.79-2.4,23.81-2.44
			c10.48-0.06,20.73,1.46,30.62,4.89c34.78,12.06,57.77,35.74,68.3,70.95c7.28,24.33,5.28,48.38-4.91,71.67
			c-6.03,13.79-14.35,26.02-25.58,36.12c-8.49,7.64-17.89,13.96-28.4,18.5c-10.77,4.66-21.99,7.71-33.7,8.8
			C291.33,478.31,287.97,478.36,284.61,478.53z M211.88,329.42c-0.1,0.93-0.23,1.62-0.23,2.31c0,28.86,0.02,57.71,0.03,86.57
			c0,0.24,0.02,0.48,0,0.72c-0.19,1.71,0.63,2.69,2.2,3.23c2.04,0.69,4.03,1.55,6.09,2.15c8.22,2.37,16.62,3.86,25.11,4.92
			c9.21,1.15,18.43,1.97,27.72,1.84c8.86-0.13,17.73-0.22,26.58-0.53c5.25-0.18,10.53-0.49,15.74-1.18
			c7.51-0.99,14.99-2.22,22.43-3.63c4.61-0.88,9.15-2.19,13.67-3.51c2.71-0.79,3.12-1.59,3.13-4.35
			c0.02-12.39,0.05-24.78,0.05-37.17c0.01-14.71,0.01-29.42,0-44.12c0-1.68,0-3.36-0.14-5.03c-0.12-1.36-0.78-1.81-2.1-1.67
			c-0.39,0.04-0.77,0.22-1.16,0.28c-6.08,0.86-12.15,1.84-18.25,2.53c-5.15,0.58-10.37,0.62-15.5,1.27
			c-7.08,0.9-14.2,0.48-21.29,0.88c-3.42,0.19-6.86,0.07-10.29,0.06c-5.66-0.03-11.33-0.07-16.99-0.14
			c-2.24-0.03-4.48-0.04-6.71-0.21c-9.63-0.75-19.25-1.52-28.87-2.36c-6.2-0.54-12.43-0.91-18.48-2.58
			C213.8,329.47,212.93,329.51,211.88,329.42z"/>
		<path class="st14" d="M235.88,489.61c-0.07,1.43-0.14,2.85-0.22,4.28c-0.44,2.33-0.93,4.66-1.29,7
			c-1.05,6.76-2.04,13.54-3.06,20.3c-0.05,0.3-0.23,0.58-0.36,0.86c-2.7-2.12-5.52-4.1-8.07-6.38
			c-7.53-6.72-14.67-13.83-20.09-22.43c-1.91-3.02-3.44-6.3-4.94-9.55c-0.58-1.26-0.89-2.79-0.86-4.18
			c0.08-4.31,2.03-6.28,6.01-6.59c2.17-0.17,4.48,0.17,6.6,0.75c7,1.91,13.44,5.13,19.25,9.45
			C231.39,485.02,233.55,487.44,235.88,489.61z"/>
		<path class="st0" d="M346.08,465.65c0.33,0,0.66,0.01,0.98,0.01c-0.08,1-0.77,1.03-1.77,1.09
			C345.66,466.25,345.87,465.95,346.08,465.65z"/>
		<path class="st0" d="M349.98,464.29c0.07-0.28,0.13-0.55,0.2-0.83c0.32,0.11,0.64,0.22,0.97,0.33
			C350.76,463.95,350.37,464.12,349.98,464.29z"/>
		<path class="st17" d="M211.88,329.42c1.04,0.1,1.92,0.05,2.73,0.28c6.05,1.67,12.28,2.03,18.48,2.58
			c9.62,0.84,19.24,1.61,28.87,2.36c2.23,0.17,4.47,0.19,6.71,0.21c5.66,0.07,11.33,0.11,16.99,0.14c3.43,0.02,6.87,0.13,10.29-0.06
			c7.09-0.4,14.2,0.03,21.29-0.88c5.14-0.66,10.35-0.69,15.5-1.27c6.1-0.69,12.17-1.67,18.25-2.53c0.39-0.06,0.77-0.24,1.16-0.28
			c1.32-0.14,1.98,0.31,2.1,1.67c0.14,1.67,0.14,3.35,0.14,5.03c0.01,14.71,0.01,29.42,0,44.12c-0.01,12.39-0.03,24.78-0.05,37.17
			c-0.01,2.77-0.42,3.56-3.13,4.35c-4.52,1.31-9.06,2.63-13.67,3.51c-7.44,1.42-14.92,2.65-22.43,3.63
			c-5.21,0.68-10.48,1-15.74,1.18c-8.86,0.3-17.72,0.4-26.58,0.53c-9.29,0.13-18.51-0.69-27.72-1.84
			c-8.49-1.06-16.88-2.54-25.11-4.92c-2.07-0.6-4.05-1.45-6.09-2.15c-1.56-0.53-2.39-1.52-2.2-3.23c0.03-0.24,0-0.48,0-0.72
			c-0.01-28.86-0.03-57.71-0.03-86.57C211.65,331.04,211.79,330.34,211.88,329.42z M213.72,419.79c0.61,0.31,1.15,0.67,1.74,0.85
			c3.57,1.12,7.1,2.47,10.75,3.24c5.77,1.23,11.63,2.01,17.42,3.1c7,1.31,14.11,1.71,21.18,1.97c11.49,0.42,22.99,0.78,34.48-0.21
			c8.02-0.69,16.07-1.15,24.05-2.2c9.01-1.19,17.86-3.34,26.6-5.88c2.43-0.71,2.45-0.69,2.45-3.23c0-27.49,0-54.98-0.01-82.47
			c0-0.69-0.07-1.38-0.11-2.1c-2.36,0.36-4.57,0.67-6.76,1.02c-10.01,1.59-20.11,2.48-30.22,3.04c-7.88,0.44-15.8,0.38-23.7,0.53
			c-2,0.04-4,0.02-5.99-0.01c-6.46-0.11-12.93-0.14-19.39-0.41c-6.61-0.28-13.22-0.75-19.82-1.24c-7.48-0.56-14.97-1.18-22.44-1.89
			c-3.4-0.32-6.77-0.93-10.24-1.43C213.72,361.58,213.72,390.65,213.72,419.79z"/>
		<path class="st18" d="M213.72,419.79c0-29.14,0-58.2,0-87.3c3.48,0.49,6.85,1.1,10.24,1.43c7.47,0.71,14.95,1.33,22.44,1.89
			c6.6,0.49,13.21,0.97,19.82,1.24c6.46,0.27,12.93,0.29,19.39,0.41c2,0.04,4,0.05,5.99,0.01c7.9-0.14,15.81-0.09,23.7-0.53
			c10.11-0.56,20.2-1.45,30.22-3.04c2.2-0.35,4.4-0.67,6.76-1.02c0.04,0.71,0.11,1.41,0.11,2.1c0.01,27.49,0.01,54.98,0.01,82.47
			c0,2.55-0.02,2.52-2.45,3.23c-8.74,2.54-17.59,4.69-26.6,5.88c-7.97,1.05-16.03,1.51-24.05,2.2c-11.49,0.99-22.99,0.62-34.48,0.21
			c-7.08-0.26-14.18-0.66-21.18-1.97c-5.8-1.09-11.66-1.87-17.42-3.1c-3.65-0.78-7.18-2.12-10.75-3.24
			C214.87,420.45,214.33,420.09,213.72,419.79z M289.19,397.52c0,0.03,0,0.05,0,0.08c-4.54,0.17-9.09,0.34-13.63,0.51
			c-0.48,0.02-0.96,0.07-1.43,0.15c-2.33,0.4-2.79,0.95-2.84,3.32c-0.14,7.73,6.71,13.56,14.33,12.19
			c6.09-1.09,10.84-7.21,10.38-13.37c-0.16-2.14-0.83-2.81-2.98-2.88C291.75,397.49,290.47,397.52,289.19,397.52z M317.35,368.55
			c-0.23-2.52-0.3-4.28-0.57-6.01c-0.2-1.25-0.58-2.49-1.03-3.67c-0.44-1.14-1.14-2.25-2.49-2.32c-1.35-0.07-2.16,0.96-2.75,2.02
			c-0.58,1.04-1.12,2.13-1.47,3.27c-1.67,5.42-2.14,10.95-1.22,16.57c0.17,1.02,0.49,2.02,0.86,2.98c0.46,1.22,1.12,2.44,2.59,2.52
			c1.35,0.08,2.2-0.93,2.75-2.02c0.71-1.42,1.49-2.87,1.82-4.4C316.52,374.3,316.93,371.06,317.35,368.55z M250.21,372.41
			c0,1.36-0.21,2.75,0.05,4.06c0.4,2.01,0.89,4.07,1.8,5.88c0.91,1.81,2.66,1.89,3.87,0.25c1.02-1.38,1.82-3.01,2.37-4.64
			c1.58-4.69,1.79-9.57,1.33-14.44c-0.18-1.86-0.75-3.78-1.56-5.48c-1.08-2.29-2.95-2.37-4.45-0.3c-0.78,1.08-1.38,2.34-1.82,3.61
			C250.55,364.92,250.1,368.64,250.21,372.41z"/>
		<path class="st19" d="M289.19,397.52c1.28,0,2.55-0.03,3.83,0.01c2.15,0.07,2.82,0.74,2.98,2.88c0.46,6.16-4.28,12.28-10.38,13.37
			c-7.62,1.37-14.47-4.46-14.33-12.19c0.04-2.38,0.51-2.93,2.84-3.32c0.47-0.08,0.95-0.13,1.43-0.15c4.54-0.18,9.08-0.34,13.63-0.51
			C289.19,397.58,289.19,397.55,289.19,397.52z"/>
		<path class="st20" d="M317.35,368.55c-0.41,2.51-0.83,5.75-1.52,8.94c-0.33,1.53-1.11,2.98-1.82,4.4
			c-0.55,1.09-1.4,2.09-2.75,2.02c-1.47-0.08-2.13-1.3-2.59-2.52c-0.37-0.96-0.69-1.97-0.86-2.98c-0.92-5.61-0.45-11.15,1.22-16.57
			c0.35-1.13,0.89-2.23,1.47-3.27c0.59-1.06,1.4-2.09,2.75-2.02c1.36,0.07,2.06,1.18,2.49,2.32c0.45,1.18,0.83,2.42,1.03,3.67
			C317.05,364.27,317.12,366.03,317.35,368.55z"/>
		<path class="st20" d="M250.21,372.41c-0.11-3.77,0.34-7.49,1.58-11.06c0.44-1.27,1.03-2.53,1.82-3.61c1.5-2.07,3.37-1.98,4.45,0.3
			c0.8,1.7,1.38,3.61,1.56,5.48c0.46,4.87,0.25,9.75-1.33,14.44c-0.55,1.63-1.35,3.26-2.37,4.64c-1.2,1.64-2.96,1.56-3.87-0.25
			c-0.91-1.81-1.39-3.88-1.8-5.88C250,375.16,250.21,373.76,250.21,372.41z"/>
	</g>
</g>
</svg>
