<?xml version="1.0" encoding="utf-8"?>
<!-- Generator: Adobe Illustrator 25.0.1, SVG Export Plug-In . SVG Version: 6.00 Build 0)  -->
<!--ORIGINAL VALUE: viewBox="0 0 595.28 841.89"-->
<svg version="1.1" id="Layer_1" xmlns="http://www.w3.org/2000/svg" xmlns:xlink="http://www.w3.org/1999/xlink" x="0px" y="0px"
	 viewBox="120 260 310 260" style="enable-background:new 0 0 595.28 841.89;" xml:space="preserve">
<style type="text/css">
	.st0{fill:#FFFFFF;}
	.st1{fill:#7B7272;}
	.st2{fill:#26477D;}
	.st3{fill:#2F5487;}
	.st4{fill:#376190;}
	.st5{fill:#C8C8C8;}
	.st6{fill:#C3C3C3;}
	.st7{fill:#7ADCFA;}
	.st8{fill:#F3F5F7;}
	.st9{fill:#3E5A8C;}
	.st10{fill:#C8C9D4;}
	.st11{fill:#A8B1C0;}
	.st12{fill:#7DE0FE;}
	.st13{fill:#EEF3F3;}
	.st14{fill:#346394;}
	.st15{fill:#7CDFFD;}
	.st16{fill:#396C9B;}
	.st17{fill:#F0F5F5;}
	.st18{fill:#FF8B12;}
	.st19{fill:#FF8C13;}
	.st20{fill:#FE8C14;}
</style>
<g>
	<g>
		<path class="st0" d="M-123,718.09c0-198.4,0-396.8,0-595.2c280.64,0,561.28,0,841.92,0c0,198.4,0,396.8,0,595.2
			C438.28,718.09,157.64,718.09-123,718.09z M361.55,500.34c2.53,5.71,6.58,9.51,13.06,10.03c3.93,0.31,6.7-1.48,8.48-5.23
			c0.37-1.12,0.9-2.21,1.09-3.35c0.96-5.82-1-10.79-4.61-15.25c-0.49-0.6-1-1.18-1.79-2.11c0.75-0.57,1.42-1,2-1.53
			c3.25-2.99,5.92-6.44,7.98-10.35c2.77-5.26,4.58-10.82,4.88-16.8c0.49-4.31,0.34-8.61-0.42-12.88c-1.15-6.5-3.04-12.71-6.93-18.17
			c-2.75-3.86-5.97-7.28-9.54-10.37c-0.7-0.61-1.38-1.23-2.14-1.9c1.14-0.79,2.08-1.39,2.96-2.06c11.95-9.2,20.93-20.75,27.27-34.4
			c5.43-11.69,8.46-23.89,8.07-36.84c-0.08-2.47-0.34-4.93-0.54-7.4c-0.61-7.45-2.38-14.62-5.27-21.52
			c-6.99-16.69-18.73-28.77-35.36-35.93c-10.54-4.54-21.63-6.08-33.05-5c-14.83,1.39-28.51,6.04-40.77,14.62
			c-6.15,4.31-11.44,9.42-15.47,15.82c-2.75,4.35-4.77,9.02-6.57,13.8c-3.45,9.18-5.54,18.63-5.42,28.49
			c0.02,1.99,0.23,3.98,0.26,5.97c0.1,6.71,0.4,13.41,2.17,19.91c1.21,4.46,2.63,8.87,4.19,13.22c2.85,7.94,7.03,15.2,12.23,21.83
			c1.76,2.25,3.9,4.21,5.86,6.32c0.35,0.37,0.65,0.79,1.39,1.67c-1.31,0-2.06-0.03-2.81,0.01c-1.19,0.05-2.41,0.04-3.57,0.26
			c-1.52,0.29-2.85,0.97-3.41,2.59c-0.76-0.11-1.56-0.12-2.28-0.34c-4.04-1.25-8.08-2.51-12.09-3.87
			c-4.76-1.61-9.48-3.35-14.24-4.96c-1.25-0.42-1.69-1.36-2.06-2.43c-2.64-7.62-5.25-15.25-7.92-22.85
			c-3.82-10.85-7.73-21.66-11.52-32.52c-2.97-8.51-5.81-17.07-8.73-25.61c-0.96-2.82-3.84-4.04-6.56-2.83
			c-0.58,0.26-1.14,0.58-1.71,0.87c-19.95,10.46-39.9,20.92-59.84,31.38c-8.56,4.49-17.14,8.94-25.66,13.5
			c-3.27,1.75-3.2,1.88-1.52,5.13c10.66,20.65,21.31,41.31,31.97,61.96c4.28,8.3,8.6,16.59,12.8,24.94c1.04,2.06,2.51,3.31,4.6,4.21
			c14.09,6.04,28.14,12.18,42.2,18.28c10.04,4.35,20.1,8.65,30.11,13.07c1.4,0.62,2.4,0.48,3.44-0.47c0.24-0.22,0.48-0.42,0.73-0.62
			c12.86-10.52,25.72-21.04,38.6-31.54c0.66-0.54,1.43-0.94,2.15-1.41c0.87,0.49,0.08,0.94-0.05,1.37
			c-0.75,2.33-1.93,4.55-1.07,7.16c0.7,2.12,1.81,4,3.62,5.22c2.02,1.37,4.19,2.65,6.47,3.51c5.63,2.11,11.54,2.78,17.65,2.75
			c1.04,1.21,2.11,2.46,3.23,3.76c-0.68,0.61-1.22,1.08-1.73,1.57c-2.32,2.21-3.81,4.89-4.48,8.02c-1.05,4.94,0.81,10.14,4.74,12.39
			c4.07,2.33,8.97,2.49,13.45-0.91c3.03-2.29,4.68-5.35,5.58-8.92c0.15-0.59,0.33-1.17,0.44-1.57c4.57,0.31,8.9,0.6,12.87,0.86
			C359.85,495.43,360.7,497.88,361.55,500.34z"/>
		<path class="st1" d="M298.24,457.66c-0.72,0.47-1.49,0.87-2.15,1.41c-12.87,10.5-25.74,21.02-38.6,31.54
			c-0.25,0.2-0.5,0.4-0.73,0.62c-1.04,0.95-2.04,1.09-3.44,0.47c-10.01-4.42-20.07-8.72-30.11-13.07
			c-14.07-6.1-28.11-12.24-42.2-18.28c-2.1-0.9-3.56-2.14-4.6-4.21c-4.2-8.35-8.52-16.63-12.8-24.94
			c-10.65-20.66-21.31-41.31-31.97-61.96c-1.68-3.25-1.74-3.38,1.52-5.13c8.52-4.57,17.1-9.01,25.66-13.5
			c19.95-10.46,39.9-20.92,59.84-31.38c0.57-0.3,1.12-0.61,1.71-0.87c2.72-1.21,5.6,0.01,6.56,2.83c2.92,8.53,5.76,17.09,8.73,25.61
			c3.79,10.86,7.71,21.67,11.52,32.52c2.68,7.6,5.28,15.24,7.92,22.85c0.37,1.06,0.81,2,2.06,2.43c4.76,1.61,9.48,3.35,14.24,4.96
			c4.01,1.35,8.05,2.61,12.09,3.87c0.73,0.23,1.52,0.23,2.28,0.34c0.27,0.25,0.53,0.51,0.8,0.76c0.63,0.32,1.24,0.71,1.9,0.94
			c3.77,1.29,7.56,2.54,11.34,3.8c6.5,2.17,13,4.35,19.51,6.52c-0.24,0.73-0.49,1.45-0.73,2.18c-0.13-1.13-1.06-1.26-1.88-1.55
			c-3.77-1.31-7.54-2.64-11.32-3.93c-9.07-3.09-18.14-6.17-27.21-9.26c-7.25-2.46-14.51-4.92-21.71-7.37
			c-6.19,4.14-12.3,8.2-18.4,12.3c-6.1,4.09-12.17,8.23-18.26,12.32c-6.1,4.09-12.25,8.12-18.32,12.25
			c-6.02,4.1-12.14,8.07-18.42,12.49c0.94,0.45,1.41,0.69,1.9,0.9c7.44,3.11,14.88,6.22,22.33,9.31
			c9.95,4.14,19.91,8.27,29.86,12.41c4.94,2.05,9.89,4.08,14.81,6.19c1.4,0.6,2.43,0.56,3.66-0.54c2.25-2.02,4.71-3.82,7.09-5.7
			c13.36-10.51,26.71-21.02,40.08-31.5c4.01-3.15,8.08-6.23,12.12-9.35c-0.23,1-0.47,2-0.7,2.99c-0.4,0.06-0.9-0.02-1.18,0.2
			c-5.17,4.01-10.31,8.05-15.45,12.1c-8.77,6.91-17.54,13.83-26.31,20.76c-5.01,3.95-9.98,7.96-15.05,11.83
			c-1.18,0.9-1.39,1.84-1.11,3.09c0.13,0.6,0.37,1.17,0.61,1.94c0.47-0.29,0.82-0.46,1.11-0.69c6.31-5.15,12.6-10.31,18.91-15.45
			c5.69-4.64,11.4-9.25,17.08-13.9c6.91-5.66,13.81-11.35,20.71-17.02c-0.16,0.93-0.32,1.86-0.47,2.79
			c-1.75,1.32-3.49,2.64-5.24,3.97c-1.16,0.92-2.31,1.84-3.47,2.77c-0.86,0.67-1.71,1.33-2.57,2c-0.66,0.96-1.31,1.91-1.97,2.87
			c-0.13,0.07-0.27,0.08-0.4,0.01c-0.67-0.47-0.99-0.08-1.23,0.5L298.24,457.66z M182.07,453.77c1.03-0.63,1.78-1.05,2.5-1.53
			c5.65-3.76,11.29-7.53,16.93-11.31c11.54-7.74,23.08-15.47,34.62-23.22c5.63-3.78,11.26-7.59,16.88-11.39
			c1.87-1.26,1.89-1.29,1.12-3.48c-1.42-4.07-2.9-8.12-4.33-12.19c-3.61-10.24-7.18-20.49-10.81-30.72
			c-2.75-7.75-5.56-15.48-8.32-23.22c-1.8-5.04-3.57-10.08-5.37-15.12c-0.91-2.55-1.13-2.64-3.59-1.33
			c-3.94,2.11-7.85,4.29-11.79,6.4c-15.63,8.36-31.25,16.75-46.93,25.05c-8.12,4.3-16.35,8.4-24.51,12.61
			c-0.75,0.39-1.42,0.94-2.32,1.54c1.13,2.14,2.18,4.1,3.2,6.07c4.24,8.15,8.47,16.29,12.71,24.44
			c6.63,12.76,13.27,25.51,19.89,38.27c2.84,5.46,5.65,10.93,8.49,16.38C180.89,451.87,181.41,452.66,182.07,453.77z M180.82,454.79
			c-15.33-29.44-30.65-58.88-46.05-88.46c-0.94,0.28-1.66,0.5-2.54,0.77c0.48,0.99,0.84,1.78,1.24,2.56
			c2.2,4.26,4.41,8.51,6.6,12.77c8.13,15.76,16.25,31.51,24.37,47.27c4.31,8.38,8.6,16.77,12.91,25.16
			c0.34,0.67,0.79,1.29,1.26,2.04c0.6-0.47,1-0.73,1.34-1.04C180.23,455.58,180.45,455.25,180.82,454.79z M179.56,458.14
			c24.88,10.79,49.51,21.46,74.49,32.29c-0.15-1.01-0.35-1.61-0.32-2.21c0.08-1.67-0.91-2.39-2.29-2.9
			c-1.2-0.43-2.35-0.99-3.53-1.48c-19.75-8.2-39.5-16.4-59.26-24.59c-2.42-1-4.85-1.97-7.32-2.98
			C180.73,456.9,180.26,457.4,179.56,458.14z"/>
		<path class="st2" d="M314.22,439.94c0.23-1,0.47-2,0.7-2.99c1.23-3,2.45-6,3.68-8.99c0.24-0.73,0.49-1.45,0.73-2.18
			c0.53-0.6,1.06-1.21,1.73-1.97c-1.78-0.6-3.22-1.06-4.64-1.57c-6.34-2.27-12.4-5.07-17.66-9.38c-0.36-0.3-0.81-0.63-1.24-0.67
			c-2.85-0.25-5.72-0.79-8.56,0.05c-1.15,0.34-2.35,0.72-2.38,2.28c-0.27-0.25-0.53-0.51-0.8-0.76c0.56-1.62,1.89-2.3,3.41-2.59
			c1.16-0.22,2.38-0.2,3.57-0.26c0.75-0.03,1.5-0.01,2.81-0.01c-0.73-0.89-1.04-1.3-1.39-1.67c-1.96-2.1-4.1-4.06-5.86-6.32
			c-5.2-6.64-9.37-13.89-12.23-21.83c-1.56-4.35-2.98-8.76-4.19-13.22c-1.77-6.5-2.07-13.2-2.17-19.91
			c-0.03-1.99-0.24-3.98-0.26-5.97c-0.11-9.86,1.98-19.3,5.42-28.49c1.8-4.79,3.82-9.45,6.57-13.8c4.03-6.4,9.32-11.51,15.47-15.82
			c12.26-8.59,25.94-13.23,40.77-14.62c11.42-1.07,22.5,0.46,33.05,5c16.63,7.16,28.36,19.24,35.36,35.93
			c2.89,6.9,4.66,14.06,5.27,21.52c0.2,2.46,0.46,4.93,0.54,7.4c0.39,12.95-2.64,25.16-8.07,36.84
			c-6.34,13.65-15.32,25.2-27.27,34.4c-0.88,0.68-1.82,1.27-2.96,2.06c0.76,0.67,1.44,1.3,2.14,1.9c3.57,3.1,6.79,6.51,9.54,10.37
			c3.89,5.46,5.78,11.68,6.93,18.17c0.76,4.27,0.91,8.56,0.42,12.88c-0.26,0-0.52,0-0.78,0c-0.01-2.88-0.03-5.76-0.04-8.63
			c0.05-0.05,0.16-0.11,0.15-0.14c-0.04-0.11-0.11-0.22-0.17-0.33c-0.03-0.31-0.06-0.62-0.09-0.92c-0.06-0.46-0.12-0.92-0.18-1.39
			c-0.08-0.4-0.16-0.8-0.24-1.21c-0.12-0.57-0.23-1.15-0.35-1.72c-1.33-6.24-3.51-12.21-7.51-17.19
			c-2.98-3.71-6.66-6.85-10.03-10.24c-0.92-0.93-1.8-0.64-2.77,0.02c-4.52,3.07-9.53,5.22-14.57,7.22
			c-10.19,4.04-20.78,4.78-31.58,3.21c-1.97-0.29-2.09-0.25-3.07,1.36c-2.9,4.76-4.8,9.9-5.97,15.33c-0.37,1.72-0.65,3.45-0.93,5.18
			c-0.11,0.66-0.08,1.33,0.89,1.27c0.16,0.14,0.33,0.29,0.49,0.43c-0.65,0.19-1.29,0.37-1.94,0.56c-0.3-0.15-0.59-0.3-0.89-0.44
			c-0.01-0.84-0.01-1.68-0.02-2.51c0.16-0.93,0.32-1.86,0.47-2.79C313.77,441.84,313.99,440.89,314.22,439.94z M280.69,388.04
			c0.8,1.43,1.58,2.87,2.39,4.3c4.14,7.3,9.39,13.7,15.84,19.06c4.83,4.02,10.36,6.8,16.26,9.01c9.64,3.6,19.47,4.13,29.49,2.46
			c11.26-1.88,21.25-6.74,30.45-13.35c5.36-3.85,9.99-8.44,14.12-13.58c7.07-8.8,12.81-18.38,16.34-29.11
			c3.63-11.02,5.36-22.38,4.15-34.02c-1.06-10.25-3.41-20.12-8.67-29.17c-5.27-9.06-11.92-16.88-20.78-22.49
			c-14.42-9.13-30.24-12-47.1-9.78c-8.01,1.05-15.52,3.69-22.95,6.67c-6.13,2.46-11.67,6-16.7,10.23
			c-9.34,7.87-14.89,18.2-18.64,29.62c-0.59,1.8-0.3,2.59,1.46,3.53c1.89,1.02,3.84,1.99,5.87,2.68c15.3,5.17,31.08,7.23,47.18,6.94
			c5.74-0.1,11.51-0.25,17.09-1.96c0.41-0.13,0.9-0.02,1.51-0.02c0.08,2.14,0.29,4.2,0.22,6.25c-0.35,9.82-0.85,19.63-1.16,29.45
			c-0.23,7.42-0.32,14.85-0.35,22.28c-0.01,1.89-0.67,3.03-2.41,3.61c-0.45,0.15-0.9,0.3-1.36,0.43c-7.32,2.21-14.89,2.62-22.44,3.1
			c-5.34,0.34-10.68-0.11-15.99-0.85C296.53,392.23,288.57,391.04,280.69,388.04z M346.21,330.88c-12.38,2.64-24.63,2.25-36.89,0.76
			c-12.23-1.49-24.23-3.87-35.36-9.68c-0.2,0.56-0.36,0.92-0.46,1.29c-0.12,0.46-0.21,0.93-0.3,1.4
			c-1.81,9.21-2.38,18.53-1.74,27.87c0.33,4.84,1.06,9.69,2.05,14.44c0.88,4.2,2.55,8.23,3.54,12.42c0.98,4.17,3.47,6.63,7.43,7.83
			c0.76,0.23,1.5,0.55,2.26,0.79c7.05,2.17,14.3,3.52,21.61,4.13c10.71,0.9,21.39,0.11,31.91-2.21c1.67-0.37,3.24-1.22,5.01-1.9
			c0-2.55-0.06-4.87,0.01-7.18c0.4-14.05,0.86-28.1,1.23-42.16C346.57,336.15,346.32,333.61,346.21,330.88z"/>
		<path class="st3" d="M391.88,455.73c0.26,0,0.52,0,0.78,0c-0.3,5.99-2.11,11.54-4.88,16.8c-2.06,3.91-4.73,7.36-7.98,10.35
			c-0.58,0.53-1.25,0.96-2,1.53c0.79,0.93,1.3,1.51,1.79,2.11c3.61,4.46,5.56,9.43,4.61,15.25c-0.19,1.15-0.72,2.24-1.09,3.35
			c-0.18-0.21-0.37-0.42-0.55-0.62c2.85-7.36-1.66-16.51-5.81-18.93c-1.55,0.97-3.07,2-4.65,2.9c-3.01,1.71-6.34,2.51-9.69,3.23
			c-2.1,0.46-2.23,0.46-1.86,2.67c0.34,2.02,0.99,3.98,1.5,5.97c-0.16,0-0.33,0-0.49,0c-0.85-2.45-1.7-4.9-2.59-7.46
			c-3.98-0.27-8.31-0.56-12.87-0.86c-0.11,0.4-0.29,0.98-0.44,1.57c-0.9,3.57-2.56,6.63-5.58,8.92c-4.48,3.39-9.38,3.23-13.45,0.91
			c-3.93-2.25-5.78-7.45-4.74-12.39c0.66-3.14,2.16-5.81,4.48-8.02c0.51-0.49,1.05-0.96,1.73-1.57c-1.12-1.3-2.19-2.55-3.23-3.76
			c-6.11,0.04-12.02-0.63-17.65-2.75c-2.28-0.86-4.45-2.13-6.47-3.51c-1.8-1.22-2.91-3.1-3.62-5.22c-0.86-2.61,0.32-4.83,1.07-7.16
			c0.14-0.43,0.93-0.89,0.05-1.37c0,0-0.05,0.03-0.05,0.03c0.74,0.63,0.89-0.18,1.23-0.5c0.13,0.07,0.27,0.07,0.4-0.01
			c0.13,0.03,0.26,0.05,0.39,0.08c-0.5,0.99-1.04,1.96-1.48,2.98c-1.56,3.65-1.01,6.87,1.87,9.59c1.31,1.23,2.87,2.29,4.48,3.1
			c5.83,2.93,12.15,3.92,18.55,3.42c4.81-0.38,9.55-1.59,14.32-2.43c0.19,0.18,0.38,0.36,0.56,0.54l-0.02,0.01
			c-0.32,0.14-0.63,0.28-0.95,0.42c-3.75,0.93-7.49,1.86-11.28,2.81c0.06,0.12,0.13,0.35,0.28,0.5c8.09,8.46,17.69,13.43,29.7,13.14
			c5.9-0.14,11.36-1.62,16.44-4.5c7.78-4.4,12.94-11.07,15.97-19.35C390.04,463.68,390.82,459.66,391.88,455.73z M328.86,482.38
			c-4.21,2.8-5.89,6.72-6.22,11.41c-0.45,6.41,6.22,11.86,12.26,9.93c5.14-1.64,8.51-4.83,9.69-10.16c0.39-1.75,0.23-2.23-1.08-2.71
			C338.21,488.93,333.48,486.03,328.86,482.38z"/>
		<path class="st4" d="M382.54,504.51c0.18,0.21,0.37,0.42,0.55,0.62c-1.78,3.75-4.55,5.55-8.48,5.23
			c-6.48-0.52-10.53-4.31-13.06-10.03c0.16,0,0.33,0,0.49,0c0.46,0.64,0.94,1.27,1.37,1.93c1.77,2.74,4.03,4.93,7.05,6.23
			c3.51,1.52,6.85,1.36,9.8-1.26C381.14,506.47,381.79,505.43,382.54,504.51z"/>
		<path class="st5" d="M318.59,427.95c-1.23,3-2.45,6-3.68,8.99c-4.04,3.11-8.1,6.2-12.12,9.35c-13.37,10.49-26.73,21-40.08,31.5
			c-2.38,1.87-4.83,3.68-7.09,5.7c-1.22,1.1-2.26,1.13-3.66,0.54c-4.92-2.11-9.87-4.13-14.81-6.19
			c-9.95-4.14-19.91-8.27-29.86-12.41c-7.44-3.1-14.89-6.21-22.33-9.31c-0.49-0.2-0.96-0.45-1.9-0.9c6.28-4.43,12.4-8.4,18.42-12.49
			c6.07-4.13,12.22-8.15,18.32-12.25c6.1-4.09,12.17-8.23,18.26-12.32c6.09-4.09,12.21-8.16,18.4-12.3
			c7.2,2.44,14.45,4.9,21.71,7.37c9.07,3.08,18.14,6.16,27.21,9.26c3.78,1.29,7.54,2.62,11.32,3.93
			C317.54,426.69,318.47,426.83,318.59,427.95z"/>
		<path class="st5" d="M182.07,453.77c-0.66-1.11-1.19-1.91-1.62-2.74c-2.84-5.46-5.65-10.93-8.49-16.38
			c-6.63-12.76-13.26-25.51-19.89-38.27c-4.24-8.15-8.47-16.3-12.71-24.44c-1.02-1.97-2.07-3.92-3.2-6.07
			c0.9-0.61,1.57-1.16,2.32-1.54c8.17-4.21,16.39-8.31,24.51-12.61c15.67-8.29,31.29-16.68,46.93-25.05
			c3.94-2.11,7.85-4.29,11.79-6.4c2.46-1.31,2.68-1.22,3.59,1.33c1.8,5.04,3.57,10.08,5.37,15.12c2.77,7.74,5.58,15.47,8.32,23.22
			c3.63,10.23,7.2,20.48,10.81,30.72c1.43,4.07,2.91,8.12,4.33,12.19c0.77,2.19,0.74,2.21-1.12,3.48
			c-5.62,3.8-11.24,7.6-16.88,11.39c-11.53,7.75-23.07,15.48-34.62,23.22c-5.64,3.78-11.28,7.55-16.93,11.31
			C183.86,452.72,183.1,453.15,182.07,453.77z M221.53,326.93c-1.88,1.1-3.35,2.05-4.9,2.86c-9.81,5.17-19.63,10.31-29.45,15.46
			c-6.36,3.34-12.72,6.68-19.08,10.01c-7.5,3.92-15,7.83-22.5,11.74c-2.21,1.15-2.29,1.25-1.15,3.43c3.13,6.02,6.33,12,9.46,18.01
			c6.84,13.16,13.67,26.33,20.49,39.5c2.79,5.39,5.56,10.79,8.35,16.17c0.98,1.88,1.18,1.93,3.06,0.7c3.79-2.5,7.55-5.05,11.34-7.54
			c7.47-4.89,14.97-9.74,22.43-14.64c9.19-6.04,18.37-12.11,27.54-18.19c1.88-1.24,1.95-1.29,1.28-3.46
			c-0.73-2.35-1.64-4.65-2.47-6.97c-2.03-5.7-4.03-11.41-6.09-17.11c-3.18-8.84-6.42-17.66-9.59-26.5
			c-2.51-6.97-4.95-13.97-7.45-20.95C222.5,328.67,222.04,327.94,221.53,326.93z"/>
		<path class="st6" d="M180.82,454.79c-0.38,0.46-0.6,0.79-0.88,1.06c-0.34,0.32-0.73,0.58-1.34,1.04
			c-0.47-0.75-0.91-1.37-1.26-2.04c-4.31-8.38-8.6-16.78-12.91-25.16c-8.11-15.76-16.24-31.52-24.37-47.27
			c-2.2-4.26-4.41-8.51-6.6-12.77c-0.4-0.77-0.76-1.57-1.24-2.56c0.87-0.26,1.6-0.48,2.54-0.77
			C150.17,395.91,165.5,425.35,180.82,454.79z"/>
		<path class="st6" d="M179.56,458.14c0.7-0.74,1.17-1.24,1.77-1.87c2.47,1,4.9,1.97,7.32,2.98c19.75,8.19,39.51,16.39,59.26,24.59
			c1.18,0.49,2.33,1.05,3.53,1.48c1.39,0.5,2.38,1.22,2.29,2.9c-0.03,0.6,0.16,1.2,0.32,2.21
			C229.07,479.6,204.44,468.93,179.56,458.14z"/>
		<path class="st6" d="M314.22,439.94c-0.22,0.95-0.45,1.9-0.67,2.85c-6.9,5.67-13.79,11.36-20.71,17.02
			c-5.68,4.65-11.4,9.26-17.08,13.9c-6.31,5.14-12.61,10.3-18.91,15.45c-0.29,0.24-0.64,0.4-1.11,0.69
			c-0.25-0.77-0.48-1.34-0.61-1.94c-0.28-1.25-0.07-2.19,1.11-3.09c5.07-3.87,10.04-7.88,15.05-11.83
			c8.77-6.92,17.53-13.84,26.31-20.76c5.14-4.05,10.29-8.09,15.45-12.1C313.32,439.93,313.82,440,314.22,439.94z"/>
		<path class="st7" d="M286.59,414.52c0.03-1.56,1.23-1.94,2.38-2.28c2.84-0.84,5.71-0.3,8.56-0.05c0.43,0.04,0.88,0.38,1.24,0.67
			c5.26,4.3,11.32,7.11,17.66,9.38c1.42,0.51,2.86,0.97,4.64,1.57c-0.67,0.76-1.2,1.36-1.73,1.97c-6.5-2.17-13-4.35-19.51-6.52
			c-3.78-1.26-7.56-2.51-11.34-3.8C287.82,415.23,287.22,414.83,286.59,414.52z"/>
		<path class="st8" d="M313.07,445.59c0.01,0.84,0.01,1.68,0.02,2.51c-1.57,0.65-3.14,1.31-4.72,1.96
			c-0.18-0.17-0.36-0.34-0.53-0.51C309.58,448.23,311.32,446.91,313.07,445.59z"/>
		<path class="st9" d="M300.22,457.27c-0.13-0.02-0.26-0.05-0.39-0.08c0.66-0.96,1.31-1.91,1.97-2.87c0.41-0.01,0.81-0.02,1.22-0.02
			c-0.77,0.81-1.53,1.62-2.3,2.43c-0.19,0.17-0.38,0.35-0.57,0.52L300.22,457.27z"/>
		<path class="st10" d="M307.83,449.56c0.18,0.17,0.36,0.34,0.53,0.51c-1.29,0.83-2.58,1.66-3.88,2.49
			c-0.01-0.1-0.05-0.18-0.13-0.24C305.52,451.4,306.68,450.48,307.83,449.56z"/>
		<path class="st11" d="M303.01,454.3c-0.41,0.01-0.81,0.02-1.22,0.02c0.86-0.67,1.71-1.33,2.57-2c0.08,0.06,0.12,0.14,0.13,0.24
			c-0.34,0.43-0.68,0.86-1.02,1.29c0,0,0.03-0.02,0.03-0.02c-0.17,0.17-0.34,0.33-0.51,0.5C302.99,454.32,303.01,454.3,303.01,454.3
			z"/>
		<path class="st0" d="M299.43,457.19c-0.35,0.32-0.5,1.13-1.23,0.5C298.44,457.12,298.76,456.73,299.43,457.19z"/>
		<path class="st12" d="M280.69,388.04c7.88,3,15.84,4.19,23.83,5.3c5.31,0.74,10.65,1.18,15.99,0.85
			c7.55-0.48,15.12-0.89,22.44-3.1c0.46-0.14,0.91-0.28,1.36-0.43c1.74-0.58,2.41-1.72,2.41-3.61c0.02-7.43,0.11-14.86,0.35-22.28
			c0.31-9.82,0.81-19.63,1.16-29.45c0.07-2.05-0.14-4.11-0.22-6.25c-0.61,0-1.1-0.11-1.51,0.02c-5.58,1.71-11.35,1.85-17.09,1.96
			c-16.1,0.29-31.88-1.76-47.18-6.94c-2.03-0.69-3.98-1.66-5.87-2.68c-1.76-0.94-2.05-1.73-1.46-3.53
			c3.75-11.42,9.3-21.76,18.64-29.62c5.02-4.23,10.56-7.77,16.7-10.23c7.42-2.98,14.94-5.62,22.95-6.67
			c16.86-2.22,32.68,0.65,47.1,9.78c8.86,5.61,15.51,13.42,20.78,22.49c5.26,9.05,7.61,18.92,8.67,29.17
			c1.2,11.64-0.53,22.99-4.15,34.02c-3.53,10.73-9.28,20.31-16.34,29.11c-4.13,5.14-8.76,9.73-14.12,13.58
			c-9.2,6.61-19.19,11.47-30.45,13.35c-10.02,1.68-19.85,1.15-29.49-2.46c-5.9-2.21-11.43-4.99-16.26-9.01
			c-6.45-5.36-11.7-11.76-15.84-19.06C282.26,390.91,281.48,389.47,280.69,388.04z"/>
		<path class="st12" d="M300.71,456.73c0.77-0.81,1.53-1.62,2.3-2.43c0,0-0.02,0.03-0.02,0.03c0.17-0.17,0.34-0.33,0.51-0.5
			l-0.03,0.02c3.5-1.77,7-3.53,10.5-5.3c0.65-0.19,1.29-0.37,1.94-0.56c7.36-1.86,14.84-2.02,22.4-1.6
			c-0.49-0.3-0.99-0.51-1.51-0.59c-5.07-0.8-10.16-0.59-15.2,0.14c-2.09,0.31-4.12,1.06-6.17,1.61c-0.98,0.06-1-0.61-0.89-1.27
			c0.28-1.73,0.56-3.47,0.93-5.18c1.17-5.43,3.07-10.57,5.97-15.33c0.98-1.61,1.1-1.65,3.07-1.36c10.79,1.57,21.39,0.83,31.58-3.21
			c5.04-2,10.05-4.15,14.57-7.22c0.97-0.66,1.84-0.95,2.77-0.02c3.37,3.39,7.06,6.53,10.03,10.24c4,4.98,6.17,10.95,7.51,17.19
			c0.12,0.57,0.23,1.15,0.35,1.72c0.08,0.4,0.16,0.8,0.23,1.21c0.06,0.46,0.12,0.92,0.18,1.39c0.03,0.31,0.06,0.62,0.09,0.92
			c-0.06,0.16-0.06,0.31,0.02,0.46c0.01,2.88,0.03,5.76,0.04,8.63c-1.05,3.92-1.83,7.94-3.22,11.74
			c-3.03,8.28-8.19,14.95-15.97,19.35c-5.08,2.87-10.54,4.36-16.44,4.5c-12.01,0.29-21.61-4.69-29.7-13.14
			c-0.15-0.15-0.22-0.39-0.28-0.5c3.79-0.94,7.54-1.87,11.28-2.81c0.32-0.14,0.63-0.28,0.95-0.42c0,0,0.02-0.01,0.02-0.01
			c3.17-1.02,6.04-2.59,8.48-4.95c-3.01,1.47-6.03,2.95-9.04,4.42c-4.77,0.84-9.51,2.06-14.32,2.43c-6.4,0.5-12.72-0.49-18.55-3.42
			c-1.61-0.81-3.17-1.87-4.48-3.1c-2.88-2.71-3.43-5.94-1.87-9.59c0.44-1.02,0.98-1.99,1.48-2.98c0,0-0.07-0.02-0.07-0.02
			C300.33,457.07,300.52,456.9,300.71,456.73z"/>
		<path class="st13" d="M346.21,330.88c0.11,2.73,0.35,5.27,0.29,7.81c-0.37,14.05-0.83,28.1-1.23,42.16
			c-0.07,2.31-0.01,4.63-0.01,7.18c-1.77,0.69-3.34,1.53-5.01,1.9c-10.52,2.32-21.2,3.11-31.91,2.21
			c-7.31-0.61-14.56-1.96-21.61-4.13c-0.76-0.23-1.5-0.55-2.26-0.79c-3.96-1.21-6.45-3.67-7.43-7.83
			c-0.99-4.19-2.66-8.22-3.54-12.42c-0.99-4.75-1.72-9.6-2.05-14.44c-0.63-9.34-0.07-18.66,1.74-27.87c0.09-0.47,0.18-0.94,0.3-1.4
			c0.1-0.38,0.26-0.74,0.46-1.29c11.13,5.81,23.13,8.19,35.36,9.68C321.58,333.13,333.84,333.51,346.21,330.88z M317.06,356.29
			c0.24,1.7,0.46,4.07,0.94,6.39c0.22,1.05,0.79,2.1,1.44,2.97c1.03,1.37,2.55,1.42,3.66,0.1c0.7-0.83,1.23-1.87,1.57-2.9
			c1.7-5.06,1.2-10.21,0.38-15.35c-0.04-0.23-0.1-0.47-0.2-0.69c-0.6-1.35-1.59-2.13-3.12-2.19c-1.42-0.06-2.26,0.71-2.75,1.88
			c-0.43,1.02-0.81,2.09-1.01,3.17C317.62,351.63,317.42,353.61,317.06,356.29z M281.56,353.07c0.48,2.48,0.87,5.15,1.55,7.74
			c0.38,1.44,1.19,2.99,2.98,3.01c1.83,0.03,2.49-1.55,2.99-2.99c1.73-5.01,1.51-10.03-0.2-14.99c-0.49-1.41-1.21-3-3.01-3.01
			c-1.95-0.02-2.69,1.64-3.08,3.17C282.24,348.24,281.99,350.53,281.56,353.07z M300.46,376.55c0.18,1.03,0.26,1.99,0.52,2.88
			c0.46,1.56,1.31,2.18,2.73,2.17c1.35,0,2.32-0.68,2.73-1.92c0.74-2.29,0.63-4.58-0.67-6.65c-1.21-1.93-3.56-1.75-4.51,0.36
			C300.81,374.38,300.71,375.52,300.46,376.55z"/>
		<path class="st14" d="M315.43,447.56c2.05-0.55,4.08-1.3,6.17-1.61c5.05-0.74,10.13-0.94,15.2-0.14c0.52,0.08,1.02,0.29,1.51,0.59
			c-7.55-0.43-15.04-0.27-22.4,1.6C315.75,447.85,315.59,447.7,315.43,447.56z"/>
		<path class="st9" d="M313.98,448.55c-3.5,1.77-7,3.53-10.5,5.3c0.34-0.43,0.68-0.86,1.02-1.29c1.29-0.83,2.58-1.66,3.88-2.49
			c1.57-0.65,3.14-1.31,4.72-1.96C313.38,448.25,313.68,448.4,313.98,448.55z"/>
		<path class="st3" d="M391.31,443.12c-0.12-0.57-0.23-1.15-0.35-1.72C391.08,441.97,391.19,442.55,391.31,443.12z"/>
		<path class="st3" d="M391.72,445.71c-0.06-0.46-0.12-0.92-0.18-1.39C391.6,444.79,391.66,445.25,391.72,445.71z"/>
		<path class="st3" d="M391.84,447.1c-0.08-0.15-0.08-0.31-0.02-0.46c0.06,0.11,0.13,0.21,0.17,0.33
			C391.99,446.99,391.89,447.05,391.84,447.1z"/>
		<path class="st15" d="M382.54,504.51c-0.75,0.92-1.4,1.96-2.28,2.74c-2.95,2.62-6.29,2.77-9.8,1.26c-3.03-1.31-5.28-3.5-7.05-6.23
			c-0.43-0.66-0.91-1.29-1.37-1.93c-0.51-1.99-1.16-3.95-1.5-5.97c-0.37-2.2-0.24-2.21,1.86-2.67c3.35-0.73,6.68-1.52,9.69-3.23
			c1.58-0.9,3.1-1.92,4.65-2.9C380.88,488,385.39,497.15,382.54,504.51z"/>
		<path class="st15" d="M328.86,482.38c4.62,3.65,9.35,6.55,14.65,8.47c1.31,0.48,1.47,0.96,1.08,2.71
			c-1.18,5.33-4.55,8.52-9.69,10.16c-6.04,1.93-12.71-3.52-12.26-9.93C322.97,489.1,324.65,485.19,328.86,482.38z"/>
		<path class="st16" d="M337.95,473.91c3.01-1.47,6.03-2.95,9.04-4.42c-2.44,2.37-5.31,3.93-8.48,4.95
			C338.33,474.27,338.14,474.09,337.95,473.91z"/>
		<path class="st16" d="M338.49,474.46c-0.32,0.14-0.63,0.28-0.95,0.42C337.86,474.74,338.18,474.6,338.49,474.46z"/>
		<path class="st17" d="M221.53,326.93c0.51,1.01,0.97,1.75,1.26,2.55c2.5,6.98,4.94,13.97,7.45,20.95
			c3.18,8.84,6.41,17.66,9.59,26.5c2.05,5.69,4.06,11.4,6.09,17.11c0.83,2.32,1.74,4.62,2.47,6.97c0.67,2.16,0.6,2.21-1.28,3.46
			c-9.17,6.07-18.35,12.15-27.54,18.19c-7.46,4.9-14.96,9.74-22.43,14.64c-3.8,2.49-7.55,5.04-11.34,7.54
			c-1.87,1.24-2.08,1.18-3.06-0.7c-2.79-5.39-5.56-10.79-8.35-16.17c-6.82-13.17-13.65-26.34-20.49-39.5
			c-3.13-6.02-6.33-12-9.46-18.01c-1.14-2.18-1.05-2.28,1.15-3.43c7.5-3.91,15.01-7.82,22.5-11.74c6.36-3.33,12.72-6.68,19.08-10.01
			c9.82-5.15,19.64-10.29,29.45-15.46C218.18,328.97,219.65,328.03,221.53,326.93z"/>
		<path class="st3" d="M300.71,456.73c-0.19,0.17-0.38,0.35-0.57,0.52C300.33,457.07,300.52,456.9,300.71,456.73z"/>
		<path class="st9" d="M303.5,453.82c-0.17,0.17-0.34,0.33-0.51,0.5C303.16,454.16,303.33,453.99,303.5,453.82z"/>
		<path class="st18" d="M317.06,356.29c0.36-2.67,0.56-4.66,0.92-6.61c0.2-1.08,0.58-2.15,1.01-3.17c0.49-1.17,1.33-1.94,2.75-1.88
			c1.54,0.06,2.52,0.84,3.12,2.19c0.1,0.22,0.16,0.45,0.2,0.69c0.82,5.14,1.32,10.28-0.38,15.35c-0.35,1.03-0.88,2.07-1.57,2.9
			c-1.11,1.32-2.63,1.28-3.66-0.1c-0.65-0.87-1.23-1.92-1.44-2.97C317.53,360.36,317.3,357.98,317.06,356.29z"/>
		<path class="st19" d="M281.56,353.07c0.43-2.53,0.68-4.83,1.24-7.05c0.39-1.54,1.13-3.19,3.08-3.17c1.8,0.02,2.53,1.6,3.01,3.01
			c1.7,4.96,1.92,9.98,0.2,14.99c-0.5,1.44-1.16,3.01-2.99,2.99c-1.8-0.03-2.6-1.57-2.98-3.01
			C282.43,358.22,282.04,355.54,281.56,353.07z"/>
		<path class="st20" d="M300.46,376.55c0.25-1.03,0.36-2.17,0.8-3.16c0.95-2.11,3.3-2.29,4.51-0.36c1.3,2.07,1.41,4.36,0.67,6.65
			c-0.4,1.24-1.37,1.92-2.73,1.92c-1.43,0-2.27-0.61-2.73-2.17C300.71,378.54,300.63,377.58,300.46,376.55z"/>
	</g>
</g>
</svg>
