<?xml version="1.0" encoding="utf-8"?>
<!-- Generator: Adobe Illustrator 25.0.1, SVG Export Plug-In . SVG Version: 6.00 Build 0)  -->
<!--ORIGINAL VALUE: viewBox="0 0 595.28 841.89"-->
<svg version="1.1" id="Layer_1" xmlns="http://www.w3.org/2000/svg" xmlns:xlink="http://www.w3.org/1999/xlink" x="0px" y="0px"
	 viewBox="130 230 310 300" style="enable-background:new 0 0 595.28 841.89;" xml:space="preserve">
<style type="text/css">
	.st0{fill:#FFFFFF;}
	.st1{fill:#454545;}
	.st2{fill:#25477D;}
	.st3{fill:#2E5386;}
	.st4{fill:#FF8B10;}
	.st5{fill:#FF8C11;}
	.st6{fill:#3A6594;}
	.st7{fill:#414F81;}
	.st8{fill:#797979;}
	.st9{fill:#7A7A7A;}
	.st10{fill:#767777;}
	.st11{fill:#757575;}
	.st12{fill:#767676;}
	.st13{fill:#79DAF8;}
	.st14{fill:#7DE0FE;}
	.st15{fill:#EEF3F3;}
	.st16{fill:#3D74A3;}
	.st17{fill:#416991;}
	.st18{fill:#7DDFFE;}
	.st19{fill:#7CDFFD;}
	.st20{fill:#5095BB;}
	.st21{fill:#FEFEFE;}
	.st22{fill:#FE8C14;}
</style>
<g>
	<g>
		<path class="st0" d="M-123,718.09c0-198.4,0-396.8,0-595.2c280.64,0,561.28,0,841.92,0c0,198.4,0,396.8,0,595.2
			C438.28,718.09,157.64,718.09-123,718.09z M368.95,497.95c2.58,0.13,5.16,0.27,7.83,0.4c0.11,0.44,0.36,0.97,0.38,1.52
			c0.11,2.98,1.4,5.55,2.84,8.03c1.76,3.03,4.19,5.4,7.46,6.81c0.74,0.29,1.45,0.69,2.21,0.86c6.36,1.35,10.23-1.49,11.81-7.09
			c0.28-0.99,0.42-2.03,0.45-3.06c0.19-5.29-1.72-9.81-5.16-13.74c-0.45-0.51-0.88-1.03-1.33-1.56c0.7-0.63,1.25-1.1,1.76-1.6
			c11.73-11.53,15.26-25.5,12.24-41.39c-1-5.88-2.9-11.42-6.26-16.4c-2.84-4.2-6.32-7.81-10.14-11.11c-0.63-0.54-1.23-1.1-1.89-1.69
			c1.24-0.87,2.26-1.49,3.19-2.23c20.15-16.18,31.9-37.04,34.93-62.75c0.64-5.43,0.08-10.83-0.42-16.24
			c-0.65-6.97-2.27-13.67-4.88-20.16c-6.62-16.45-17.89-28.58-34-36.01c-10.48-4.84-21.57-6.73-33.12-5.86
			c-15.46,1.17-29.7,5.82-42.44,14.77c-4.19,2.94-8.18,6.16-11.38,10.2c-4.24,5.35-7.57,11.21-9.97,17.64
			c-3.14,8.41-5.72,16.96-5.88,25.99c-0.11,6.37,0.24,12.75,0.54,19.13c0.14,2.92,0.29,5.92,1.03,8.72
			c3.07,11.51,6.89,22.71,13.72,32.69c3.1,4.52,6.63,8.57,10.74,12.14c-1.28,0.14-2.56,0.42-3.84,0.4c-2.32-0.03-4.43,0.42-5.93,2.3
			c-0.55,0.69-1.07,0.44-1.67,0.4c-8.84-2.99-17.68-6.01-26.55-8.92c-1.5-0.49-2.34-1.22-2.95-2.7
			c-10.32-25.2-20.7-50.37-31.09-75.54c-1.76-4.26-3.61-8.49-5.34-12.54c-2.45-0.84-4.35-0.13-6.23,0.88
			c-6.83,3.65-13.67,7.28-20.52,10.9c-21.75,11.5-43.5,22.98-65.25,34.47c-3.14,1.66-3.22,1.94-1.57,5.15
			c3.72,7.25,7.46,14.49,11.17,21.74c11.93,23.32,23.86,46.65,35.76,69.98c0.83,1.62,1.82,2.8,3.58,3.57
			c25.29,11.13,50.56,22.33,75.8,33.57c1.72,0.76,3.02,0.72,4.31-0.58c0.11-0.11,0.25-0.2,0.37-0.3
			c13.21-10.47,26.42-20.95,39.64-31.41c0.63-0.5,1.45-0.76,2.19-1.13c-1.75,4.47-0.2,8.03,3.29,10.8c1.66,1.32,3.63,2.34,5.6,3.15
			c5.3,2.16,10.92,2.79,16.61,2.99c0.68,0.02,1.57,0,2,0.39c1.1,1,2,2.22,3.02,3.39c-0.7,0.64-1.23,1.11-1.74,1.6
			c-2.83,2.72-4.4,6.03-4.71,9.94c-0.37,4.56,2.11,9.41,5.86,10.96c5.96,2.46,11.79,1.01,15.7-4.81c1.43-2.12,2.14-4.73,3.22-7.22
			C365.47,497.57,367.21,497.76,368.95,497.95z M275.84,265.82c-0.08-0.47-0.12-1.28-0.36-2.03c-2.42-7.62-6.61-14.12-12.53-19.48
			c-0.75-0.68-1.71-1.21-2.66-1.54c-1.85-0.64-3.27,0.28-3.29,2.23c-0.01,1.48,0.22,3.05,0.71,4.44
			c2.36,6.73,6.15,12.59,11.29,17.54c0.74,0.71,1.59,1.35,2.49,1.84C274.13,270.25,275.88,269.14,275.84,265.82z M253.6,285.61
			c2.72,0.17,3.74-1.09,3.01-3.28c-0.32-0.97-0.8-1.93-1.41-2.75c-4.65-6.27-10.56-11.06-17.56-14.49c-0.84-0.41-1.81-0.68-2.74-0.8
			c-2.41-0.31-3.54,0.99-2.83,3.27c0.26,0.82,0.67,1.64,1.18,2.34c4.76,6.5,10.77,11.51,18.05,14.99
			C252.14,285.31,253.11,285.47,253.6,285.61z M224.37,294.76c-1.56,0.26-3.18,0.34-4.66,0.84c-1.68,0.57-2.01,2.08-0.86,3.44
			c0.66,0.77,1.49,1.48,2.38,1.96c6.87,3.67,14.23,5.49,22.02,5.56c0.7,0.01,1.43-0.15,2.11-0.37c2.45-0.79,2.93-2.57,1.04-4.26
			c-1.11-0.99-2.43-1.83-3.78-2.46C236.85,296.8,230.76,295.31,224.37,294.76z"/>
		<path class="st1" d="M315.08,466.22c-0.73,0.37-1.56,0.63-2.19,1.13c-13.23,10.45-26.43,20.93-39.64,31.41
			c-0.13,0.1-0.26,0.19-0.37,0.3c-1.29,1.29-2.6,1.34-4.31,0.58c-25.24-11.25-50.51-22.44-75.8-33.57
			c-1.76-0.77-2.76-1.95-3.58-3.57c-11.9-23.34-23.83-46.66-35.76-69.98c-3.71-7.25-7.45-14.49-11.17-21.74
			c-1.65-3.21-1.57-3.49,1.57-5.15c21.75-11.49,43.5-22.98,65.25-34.47c6.85-3.62,13.69-7.25,20.52-10.9c1.88-1,3.79-1.71,6.23-0.88
			c1.73,4.05,3.58,8.27,5.34,12.54c10.39,25.17,20.77,50.34,31.09,75.54c0.61,1.48,1.44,2.21,2.95,2.7
			c8.87,2.91,17.7,5.93,26.54,8.92c0.74,0.24,1.48,0.48,2.23,0.72c1.01,0.39,2.02,0.82,3.04,1.18c4.65,1.63,9.29,3.25,13.95,4.84
			c3.53,1.21,7.07,2.38,10.61,3.53c1.95,0.64,3.93,1.21,5.9,1.81c-0.26,0.37-0.52,0.73-0.77,1.1c-0.38-0.1-0.77-0.19-1.15-0.32
			c-20.2-6.74-40.42-13.45-60.6-20.25c-2.17-0.73-3.85-0.53-5.78,0.78c-10.31,6.95-20.72,13.75-31.08,20.62
			c-13.42,8.89-26.84,17.8-40.25,26.7c-0.41,0.27-0.77,0.63-1.33,1.1c4.28,1.87,8.29,3.63,12.31,5.36c7.69,3.31,15.38,6.6,23.07,9.9
			c5.49,2.36,10.99,4.71,16.48,7.08c6.3,2.72,12.61,5.39,18.85,8.23c1.45,0.66,2.44,0.62,3.65-0.37c3.02-2.47,6.12-4.84,9.21-7.22
			c8.14-6.27,16.29-12.5,24.43-18.77c8.39-6.46,16.76-12.94,25.16-19.39c0.6-0.46,1.38-0.68,2.07-1.02
			c-0.15,0.78-0.3,1.56-0.46,2.34c-1.44,0.98-2.91,1.91-4.3,2.95c-5.09,3.83-10.18,7.67-15.22,11.56c-2.71,2.09-5.3,4.34-8,6.44
			c-3.77,2.93-7.63,5.75-11.41,8.68c-6.17,4.78-12.28,9.63-18.44,14.42c-3.9,3.03-3.27,1.58-2.48,6.38c0.01,0.06,0.1,0.1,0.27,0.25
			c0.42-0.23,0.93-0.44,1.35-0.77c2.5-1.98,4.97-3.98,7.46-5.98c5.96-4.79,11.86-9.65,17.89-14.36c4.89-3.82,9.94-7.45,14.9-11.19
			c0.59-0.45,1.09-0.65,1.65-0.03c0.05,0.27,0.1,0.55,0.15,0.82C315.11,466.2,315.08,466.22,315.08,466.22z M270.93,409.06
			c-0.4-1.07-0.68-1.9-1.01-2.7c-2.08-5.09-4.19-10.18-6.27-15.27c-3.65-8.93-7.29-17.87-10.95-26.8c-3.7-9-7.42-17.99-11.13-26.98
			c-2.04-4.94-4.06-9.89-6.11-14.82c-0.68-1.65-1.12-1.85-2.68-1.17c-1.03,0.44-2.01,0.97-3,1.5c-8.44,4.53-16.88,9.06-25.32,13.59
			c-4.43,2.38-8.87,4.75-13.29,7.14c-9.34,5.05-18.66,10.12-28,15.18c-4.35,2.36-8.74,4.65-13.06,7.06
			c-2.94,1.64-2.9,1.71-1.38,4.59c0.07,0.14,0.15,0.28,0.22,0.43c4.91,9.51,9.83,19.01,14.74,28.52
			c5.28,10.22,10.56,20.43,15.81,30.66c4.45,8.67,8.86,17.36,13.32,26.02c0.57,1.1,1.3,2.11,2.09,3.36
			C220.33,442.53,245.53,425.86,270.93,409.06z M143.46,369.18c0.33,0.75,0.62,1.48,0.98,2.17c1.48,2.83,3.01,5.63,4.46,8.46
			c3.49,6.79,6.95,13.6,10.42,20.41c4.1,8.03,8.2,16.06,12.29,24.1c6.18,12.17,12.35,24.34,18.54,36.5
			c0.31,0.61,0.72,1.16,1.07,1.73c2.15-1.31,2.32-1.67,1.43-3.47c-0.77-1.57-1.69-3.07-2.5-4.63c-5.18-9.99-10.35-19.98-15.5-29.98
			c-1.09-2.13-1.95-4.37-3.07-6.49c-3.27-6.21-6.66-12.35-9.92-18.56c-5.03-9.6-9.98-19.25-14.96-28.88
			C145.79,368.76,145.79,368.76,143.46,369.18z M192.71,463.96c2.21,1.5,75.19,33.49,76.89,33.73c-0.3-3.72-0.32-3.68-3.46-4.98
			c-3.24-1.33-6.45-2.76-9.67-4.15c-7.18-3.09-14.36-6.18-21.54-9.26c-7.4-3.17-14.81-6.33-22.22-9.49c-5.5-2.35-11-4.69-16.51-7.02
			C194.49,462.07,194.14,462.2,192.71,463.96z"/>
		<path class="st2" d="M336.71,432.25c0.26-0.37,0.52-0.73,0.77-1.1c0.3-0.62,0.6-1.24,0.89-1.86c-2.72-0.98-5.32-1.91-7.92-2.86
			c-4.29-1.56-8.34-3.68-11.94-6.42c-2.29-1.75-4.58-2.76-7.39-2.74c0.57-0.14,1.14-0.29,1.72-0.41c0.61-0.13,0.78-0.4,0.34-0.92
			c-4.11-3.58-7.65-7.62-10.74-12.14c-6.83-9.98-10.64-21.19-13.72-32.69c-0.75-2.8-0.9-5.8-1.03-8.72
			c-0.3-6.37-0.65-12.75-0.54-19.13c0.16-9.03,2.74-17.58,5.88-25.99c2.4-6.43,5.73-12.3,9.97-17.64c3.2-4.04,7.19-7.25,11.38-10.2
			c12.74-8.95,26.97-13.6,42.44-14.77c11.55-0.87,22.64,1.02,33.12,5.86c16.11,7.43,27.37,19.56,34,36.01
			c2.61,6.49,4.23,13.19,4.88,20.16c0.5,5.41,1.06,10.81,0.42,16.24c-3.03,25.71-14.79,46.57-34.93,62.75
			c-0.93,0.74-1.95,1.37-3.19,2.23c0.66,0.59,1.27,1.15,1.89,1.69c3.82,3.3,7.31,6.91,10.14,11.11c3.37,4.98,5.27,10.52,6.26,16.4
			c-0.29,0-0.58-0.01-0.88-0.01c-0.09-0.12-0.11-0.25-0.06-0.39c-0.03-0.16-0.07-0.32-0.1-0.48c-0.15-0.54-0.3-1.07-0.45-1.61
			c-1.51-5.6-3.66-10.97-7.35-15.47c-2.72-3.31-5.97-6.21-9.08-9.18c-1.65-1.58-1.78-1.52-3.67-0.27
			c-4.49,2.98-9.41,5.12-14.38,7.05c-9.94,3.86-20.28,4.85-30.84,3.18c-2.62-0.42-2.72-0.27-4.13,2.11
			c-3.12,5.22-4.77,10.96-6.05,16.83c-0.25,1.13-0.24,2.32-0.36,3.67c2.49-0.43,4.67-0.81,6.84-1.18c1.28,0.15,2.56,0.3,3.84,0.46
			c-8.58,0.79-16.44,3.43-23.16,8.99c-0.15-0.15-0.3-0.31-0.44-0.46c0.87-1.83,2.58-2.75,4.2-3.72c1.9-1.14,3.9-2.11,5.79-3.27
			c0.61-0.37,1.28-1.03,1.44-1.69c0.39-1.52,0.49-3.11,0.7-4.68c0.15-0.78,0.3-1.56,0.46-2.34c0,0,0.01,0.03,0.01,0.03
			c0.15-0.19,0.29-0.39,0.44-0.58c0.56-3.48,2.05-6.61,3.59-9.73C336.13,433.69,336.4,432.96,336.71,432.25z M289.89,366.05
			c0.05,0.64,0.09,1.28,0.14,1.93c-0.6,0.92-0.91,1.79,0.37,2.42c1.4,4.82,2.73,9.66,4.23,14.45c1.65,5.28,2.55,6.13,7.77,8.05
			c0.52,0.19,1.05,0.38,1.59,0.51c3.72,0.91,7.4,1.99,11.17,2.64c4.78,0.83,9.62,1.68,14.45,1.83c8.06,0.25,16.13-0.1,24.09-1.63
			c2.57-0.49,5.07-1.34,7.58-2.08c0.81-0.24,1.28-0.78,1.29-1.76c0.03-2.31,0.21-4.62,0.28-6.94c0.38-13.49,0.75-26.97,1.09-40.46
			c0.07-2.82-0.06-5.65-0.1-8.68c-12.53,2.76-24.8,2.33-37.03,0.83c-12.2-1.49-24.21-3.82-35.37-9.73
			c-0.19,0.65-0.37,1.09-0.45,1.55c-1.34,6.9-2.38,13.84-2.21,20.88c0.13,5.18,0.6,10.35,0.92,15.52
			C289.75,365.61,289.82,365.83,289.89,366.05z M298.91,393.53c-0.19-0.04-0.38-0.07-0.57-0.11c0.05,0.21,0.1,0.42,0.15,0.63
			c1.57,2.69,2.99,5.47,4.73,8.04c5.42,8.03,11.89,15.07,20.49,19.8c11.88,6.52,24.52,8.9,37.96,6.59
			c14.63-2.52,27.09-9.33,37.92-19.24c5.75-5.26,10.32-11.53,14.49-18.1c7.83-12.33,12.33-25.79,13.24-40.33
			c1-16-1.88-31.17-10.71-44.89c-5.04-7.84-11.26-14.55-19.17-19.49c-13.5-8.43-28.29-11.39-44.07-9.89c-8.36,0.8-16.3,3.19-24,6.35
			c-10.99,4.5-20.56,10.92-27.41,20.91c-4.15,6.04-7.36,12.52-9.51,19.52c-0.59,1.92-0.37,2.56,1.31,3.57
			c1.3,0.78,2.65,1.54,4.08,1.99c5.18,1.61,10.34,3.35,15.63,4.55c9.29,2.12,18.78,3,28.29,3.14c7.5,0.1,15.03,0.13,22.35-2.02
			c0.41-0.12,0.88-0.02,1.42-0.02c0.05,0.82,0.13,1.45,0.11,2.07c-0.21,7.98-0.4,15.97-0.65,23.95c-0.18,5.99-0.48,11.97-0.63,17.96
			c-0.12,4.63-0.15,9.27-0.08,13.9c0.03,2.09-0.83,3.31-2.77,3.88c-0.46,0.13-0.92,0.28-1.37,0.42c-5.76,1.8-11.75,2.21-17.69,2.71
			c-8.05,0.68-16.09,0.21-24.09-1.07C311.72,397.32,305.19,395.95,298.91,393.53z"/>
		<path class="st3" d="M408.56,447.11c0.29,0,0.58,0.01,0.88,0.01c3.01,15.89-0.51,29.86-12.24,41.39c-0.51,0.5-1.06,0.96-1.76,1.6
			c0.45,0.53,0.89,1.05,1.33,1.56c3.44,3.94,5.34,8.46,5.16,13.74c-0.04,1.02-0.18,2.07-0.45,3.06c-1.57,5.6-5.45,8.44-11.81,7.09
			c-0.76-0.16-1.48-0.56-2.21-0.86c0.18-0.17,0.37-0.34,0.55-0.5c0.46,0.12,0.93,0.23,1.39,0.35c5.5,1.43,10.31-1.39,11.28-7
			c1.15-6.61-1.48-11.98-6.11-16.58c-0.46,0.22-0.77,0.31-1.01,0.5c-3.94,3.08-8.49,4.69-13.33,5.65c-0.83,0.17-1.63,0.53-2.44,0.81
			c-2.95,0-5.89,0-8.84,0.01c-1.74-0.19-3.47-0.38-5.02-0.54c-1.08,2.49-1.79,5.1-3.22,7.22c-3.91,5.82-9.74,7.27-15.7,4.81
			c-3.76-1.55-6.23-6.4-5.86-10.96c0.31-3.91,1.89-7.22,4.71-9.94c0.51-0.49,1.04-0.96,1.74-1.6c-1.02-1.17-1.92-2.39-3.02-3.39
			c-0.43-0.39-1.32-0.37-2-0.39c-5.68-0.2-11.3-0.82-16.61-2.99c-1.97-0.8-3.94-1.83-5.6-3.15c-3.49-2.78-5.04-6.34-3.29-10.8
			c0,0,0.03-0.01,0.03-0.01c0.26,0.03,0.52,0.06,0.77,0.08c-1.1,5.27,0.26,8.39,4.94,11.21c6.17,3.72,13.05,4.8,20.01,4.45
			c7.57-0.38,15.01-1.96,21.7-5.89c-0.04,0.24-0.07,0.47-0.11,0.71c-5.67,3.61-11.92,5.51-18.88,6.04c0.43,0.64,0.6,0.99,0.86,1.26
			c8.95,9.29,19.7,13.94,32.73,12.54c7.19-0.78,13.66-3.51,18.9-8.49c9.58-9.11,13.77-20.5,13.26-33.64
			C409.2,452.02,408.81,449.57,408.56,447.11z M346.53,487.99c-4.52,2.03-7.57,9.33-5.94,14.68c1.11,3.62,3.7,5.98,7.41,6.74
			c6.28,1.3,13.64-4.47,14.17-10.89c0.09-1.11-0.2-1.81-1.29-2.21C355.6,494.36,350.85,491.49,346.53,487.99z"/>
		<path class="st4" d="M275.84,265.82c0.05,3.31-1.71,4.42-4.34,3c-0.9-0.49-1.75-1.13-2.49-1.84c-5.15-4.95-8.93-10.81-11.29-17.54
			c-0.49-1.4-0.72-2.96-0.71-4.44c0.01-1.95,1.44-2.87,3.29-2.23c0.96,0.33,1.92,0.87,2.66,1.54c5.93,5.36,10.12,11.86,12.53,19.48
			C275.71,264.54,275.76,265.36,275.84,265.82z"/>
		<path class="st5" d="M253.6,285.61c-0.49-0.15-1.46-0.3-2.31-0.71c-7.27-3.48-13.29-8.49-18.05-14.99
			c-0.51-0.7-0.92-1.52-1.18-2.34c-0.71-2.28,0.42-3.58,2.83-3.27c0.93,0.12,1.9,0.38,2.74,0.8c7,3.43,12.91,8.21,17.56,14.49
			c0.61,0.82,1.09,1.78,1.41,2.75C257.34,284.52,256.32,285.78,253.6,285.61z"/>
		<path class="st4" d="M224.37,294.76c6.39,0.55,12.48,2.03,18.25,4.7c1.36,0.63,2.67,1.47,3.78,2.46c1.89,1.69,1.4,3.47-1.04,4.26
			c-0.67,0.22-1.4,0.37-2.11,0.37c-7.79-0.06-15.15-1.89-22.02-5.56c-0.89-0.48-1.73-1.18-2.38-1.96c-1.15-1.36-0.82-2.87,0.86-3.44
			C221.19,295.1,222.81,295.02,224.37,294.76z"/>
		<path class="st6" d="M368.95,497.95c2.95,0,5.89,0,8.84-0.01c0.5,7.24,3.82,12.72,10.21,16.27c-0.18,0.17-0.37,0.34-0.55,0.5
			c-3.27-1.41-5.7-3.78-7.46-6.81c-1.44-2.48-2.72-5.06-2.84-8.03c-0.02-0.54-0.26-1.07-0.38-1.52
			C374.1,498.21,371.52,498.08,368.95,497.95z"/>
		<path class="st7" d="M313.2,415.96c0.44,0.51,0.27,0.79-0.34,0.92c-0.58,0.12-1.15,0.27-1.72,0.41c-1.56,0.18-3.13,0.33-4.69,0.55
			c-1.18,0.16-2.06,0.77-2.45,1.95c-0.74-0.24-1.49-0.48-2.23-0.72c0.6,0.04,1.12,0.29,1.67-0.4c1.5-1.88,3.61-2.33,5.93-2.3
			C310.64,416.37,311.92,416.1,313.2,415.96z"/>
		<path class="st8" d="M336.71,432.25c-0.3,0.71-0.57,1.44-0.92,2.14c-1.54,3.12-3.03,6.25-3.59,9.73c-0.15,0.2-0.29,0.39-0.44,0.58
			c0,0-0.01-0.03-0.01-0.03c-0.7,0.33-1.47,0.56-2.07,1.02c-8.4,6.44-16.77,12.93-25.16,19.39c-8.14,6.26-16.29,12.5-24.43,18.77
			c-3.09,2.38-6.18,4.76-9.21,7.22c-1.21,0.99-2.2,1.03-3.65,0.37c-6.24-2.83-12.56-5.51-18.85-8.23
			c-5.49-2.37-10.99-4.72-16.48-7.08c-7.69-3.3-15.39-6.59-23.07-9.9c-4.02-1.73-8.03-3.5-12.31-5.36c0.56-0.47,0.92-0.82,1.33-1.1
			c13.41-8.91,26.83-17.81,40.25-26.7c10.36-6.87,20.77-13.67,31.08-20.62c1.93-1.3,3.6-1.51,5.78-0.78
			c20.18,6.8,40.4,13.52,60.6,20.25C335.93,432.06,336.32,432.14,336.71,432.25z"/>
		<path class="st9" d="M270.93,409.06c-25.4,16.8-50.59,33.48-76.03,50.31c-0.78-1.25-1.52-2.26-2.09-3.36
			c-4.46-8.67-8.87-17.36-13.32-26.02c-5.26-10.23-10.54-20.44-15.81-30.66c-4.91-9.51-9.82-19.01-14.74-28.52
			c-0.07-0.14-0.15-0.28-0.22-0.43c-1.52-2.88-1.56-2.95,1.38-4.59c4.32-2.41,8.71-4.7,13.06-7.06c9.34-5.06,18.66-10.12,28-15.18
			c4.42-2.39,8.86-4.76,13.29-7.14c8.44-4.53,16.88-9.07,25.32-13.59c0.99-0.53,1.98-1.06,3-1.5c1.56-0.68,2-0.48,2.68,1.17
			c2.04,4.94,4.07,9.88,6.11,14.82c3.71,8.99,7.44,17.98,11.13,26.98c3.67,8.93,7.3,17.87,10.95,26.8
			c2.08,5.09,4.19,10.18,6.27,15.27C270.25,407.16,270.53,407.99,270.93,409.06z M264.03,407.57
			c-10.21-26.38-21.16-52.22-32.11-78.38c-1.65,0.78-3.03,1.38-4.35,2.08c-5.78,3.09-11.56,6.18-17.3,9.32
			c-17.31,9.47-34.61,18.97-51.91,28.47c-0.82,0.45-1.59,0.97-2.56,1.56c13.58,27.12,26.49,54.3,40.39,81.25
			c0.93-0.56,1.69-0.98,2.41-1.45c19.91-12.91,39.82-25.82,59.72-38.75C260.26,410.41,262.07,408.99,264.03,407.57z"/>
		<path class="st10" d="M331.29,447.01c-0.22,1.56-0.32,3.16-0.7,4.68c-0.17,0.65-0.83,1.31-1.44,1.69
			c-1.89,1.16-3.89,2.13-5.79,3.27c-1.62,0.97-3.33,1.89-4.2,3.72c-2.19,1.01-2.92,3.24-4.2,5.02c-0.56-0.62-1.06-0.42-1.65,0.03
			c-4.96,3.74-10.01,7.36-14.9,11.19c-6.03,4.7-11.93,9.56-17.89,14.36c-2.48,2-4.96,4-7.46,5.98c-0.42,0.33-0.93,0.54-1.35,0.77
			c-0.17-0.15-0.27-0.2-0.27-0.25c-0.79-4.8-1.41-3.34,2.48-6.38c6.16-4.79,12.28-9.64,18.44-14.42c3.78-2.93,7.63-5.75,11.41-8.68
			c2.7-2.1,5.29-4.35,8-6.44c5.04-3.89,10.13-7.73,15.22-11.56C328.38,448.92,329.86,447.99,331.29,447.01z"/>
		<path class="st11" d="M143.46,369.18c2.33-0.42,2.33-0.42,3.26,1.37c4.98,9.63,9.93,19.27,14.96,28.88
			c3.25,6.22,6.65,12.36,9.92,18.56c1.11,2.11,1.98,4.36,3.07,6.49c5.14,10.01,10.32,19.99,15.5,29.98c0.81,1.56,1.73,3.06,2.5,4.63
			c0.89,1.81,0.72,2.16-1.43,3.47c-0.36-0.57-0.77-1.13-1.07-1.73c-6.19-12.16-12.35-24.34-18.54-36.5
			c-4.09-8.04-8.19-16.07-12.29-24.1c-3.47-6.8-6.93-13.61-10.42-20.41c-1.46-2.84-2.99-5.64-4.46-8.46
			C144.08,370.66,143.79,369.92,143.46,369.18z"/>
		<path class="st12" d="M192.71,463.96c1.42-1.75,1.77-1.88,3.48-1.16c5.51,2.33,11.01,4.67,16.51,7.02
			c7.41,3.16,14.82,6.32,22.22,9.49c7.18,3.08,14.36,6.18,21.54,9.26c3.22,1.39,6.43,2.81,9.67,4.15c3.14,1.29,3.16,1.25,3.46,4.98
			C267.9,497.44,194.92,465.45,192.71,463.96z"/>
		<path class="st13" d="M303.98,419.78c0.4-1.18,1.27-1.79,2.45-1.95c1.56-0.22,3.13-0.37,4.69-0.55c2.81-0.02,5.09,0.99,7.39,2.74
			c3.6,2.74,7.65,4.86,11.94,6.42c2.6,0.95,5.2,1.88,7.92,2.86c-0.3,0.62-0.59,1.24-0.89,1.86c-1.97-0.6-3.94-1.18-5.9-1.81
			c-3.54-1.16-7.08-2.33-10.61-3.53c-4.66-1.59-9.3-3.22-13.95-4.84C306,420.6,305,420.18,303.98,419.78z"/>
		<path class="st2" d="M314.96,465.38c1.27-1.78,2-4.01,4.2-5.02c0.15,0.15,0.29,0.31,0.44,0.46c-1.24,1.82-2.48,3.65-3.71,5.47
			c-0.26-0.03-0.52-0.05-0.77-0.08C315.06,465.93,315.01,465.66,314.96,465.38z"/>
		<path class="st14" d="M298.91,393.53c6.28,2.42,12.81,3.79,19.44,4.84c8,1.27,16.04,1.75,24.09,1.07
			c5.94-0.51,11.93-0.91,17.69-2.71c0.46-0.14,0.91-0.29,1.37-0.42c1.94-0.57,2.8-1.79,2.77-3.88c-0.07-4.63-0.03-9.27,0.08-13.9
			c0.15-5.99,0.45-11.97,0.63-17.96c0.24-7.98,0.44-15.97,0.65-23.95c0.02-0.63-0.06-1.26-0.11-2.07c-0.54,0-1.02-0.1-1.42,0.02
			c-7.32,2.15-14.85,2.12-22.35,2.02c-9.52-0.13-19-1.01-28.29-3.14c-5.28-1.21-10.44-2.94-15.63-4.55
			c-1.43-0.44-2.79-1.21-4.08-1.99c-1.69-1.01-1.9-1.65-1.31-3.57c2.15-7,5.37-13.48,9.51-19.52c6.85-9.99,16.42-16.41,27.41-20.91
			c7.71-3.16,15.64-5.55,24-6.35c15.78-1.5,30.57,1.45,44.07,9.89c7.91,4.94,14.13,11.65,19.17,19.49
			c8.83,13.72,11.72,28.89,10.71,44.89c-0.91,14.54-5.41,28-13.24,40.33c-4.17,6.57-8.75,12.84-14.49,18.1
			c-10.83,9.91-23.3,16.72-37.92,19.24c-13.45,2.31-26.09-0.07-37.96-6.59c-8.6-4.72-15.06-11.76-20.49-19.8
			c-1.74-2.57-3.16-5.36-4.73-8.04C298.63,393.88,298.77,393.7,298.91,393.53z"/>
		<path class="st14" d="M315.88,466.29c1.24-1.82,2.48-3.65,3.71-5.47c6.73-5.56,14.58-8.2,23.16-8.99c4.35,0,8.7,0,13.05,0
			c-3.54-1.12-7.17-0.99-10.79-0.92c-2.03,0.04-4.06,0.3-6.09,0.46c-2.18,0.38-4.35,0.75-6.84,1.18c0.13-1.35,0.12-2.54,0.36-3.67
			c1.28-5.87,2.93-11.61,6.05-16.83c1.42-2.37,1.52-2.52,4.13-2.11c10.56,1.68,20.9,0.69,30.84-3.18c4.97-1.93,9.89-4.07,14.38-7.05
			c1.89-1.25,2.01-1.31,3.67,0.27c3.11,2.97,6.36,5.87,9.08,9.18c3.69,4.49,5.84,9.86,7.35,15.47c0.14,0.54,0.3,1.07,0.45,1.61
			c-0.02,0.06-0.07,0.12-0.06,0.17c0.04,0.11,0.1,0.21,0.16,0.31c-0.05,0.14-0.02,0.27,0.06,0.39c0.25,2.46,0.64,4.91,0.74,7.37
			c0.51,13.14-3.67,24.53-13.26,33.64c-5.24,4.98-11.71,7.72-18.9,8.49c-13.02,1.41-23.78-3.25-32.73-12.54
			c-0.26-0.27-0.42-0.62-0.86-1.26c6.96-0.53,13.21-2.43,18.88-6.04c1.13-0.78,2.27-1.56,3.4-2.34c0.03-0.06,0.07-0.12,0.1-0.18
			c-0.03,0.07-0.05,0.14-0.08,0.21c-1.41-0.1-2.3,0.89-3.32,1.6c-6.7,3.93-14.13,5.51-21.71,5.89c-6.96,0.35-13.84-0.73-20.01-4.45
			C316.14,474.68,314.78,471.56,315.88,466.29z"/>
		<path class="st15" d="M290.02,367.98c-0.05-0.64-0.09-1.28-0.14-1.93c-0.07-0.22-0.13-0.44-0.2-0.67
			c-0.32-5.17-0.79-10.34-0.92-15.52c-0.17-7.04,0.87-13.98,2.21-20.88c0.09-0.46,0.26-0.89,0.45-1.55
			c11.15,5.91,23.17,8.25,35.37,9.73c12.23,1.49,24.5,1.93,37.03-0.83c0.04,3.03,0.17,5.86,0.1,8.68
			c-0.33,13.49-0.71,26.98-1.09,40.46c-0.06,2.31-0.25,4.62-0.28,6.94c-0.01,0.98-0.48,1.52-1.29,1.76
			c-2.51,0.74-5.02,1.59-7.58,2.08c-7.95,1.53-16.03,1.88-24.09,1.63c-4.83-0.15-9.67-1-14.45-1.83c-3.76-0.65-7.45-1.74-11.17-2.64
			c-0.54-0.13-1.07-0.32-1.59-0.51c-5.23-1.91-6.13-2.76-7.77-8.05c-1.49-4.79-2.82-9.63-4.23-14.45
			C290.27,369.59,290.14,368.78,290.02,367.98z M343.42,360.72c-0.23-2.44-0.41-4.5-0.64-6.56c-0.07-0.63-0.22-1.26-0.45-1.85
			c-0.5-1.3-1.43-2.03-2.88-2.13c-1.49-0.1-2.43,0.57-2.98,1.88c-0.3,0.73-0.71,1.47-0.8,2.24c-0.37,3.15-0.82,6.32-0.86,9.48
			c-0.02,1.86,0.54,3.77,1.09,5.58c0.42,1.35,1.16,2.79,2.89,2.8c1.68,0,2.44-1.34,3.01-2.69c0.4-0.95,0.76-1.95,0.92-2.95
			C343.05,364.48,343.23,362.42,343.42,360.72z M308.02,359.42c-0.43-2.45-0.73-4.82-1.3-7.13c-0.28-1.11-0.93-2.22-1.66-3.12
			c-1.02-1.25-2.47-1.22-3.47,0.06c-0.67,0.85-1.22,1.9-1.49,2.94c-1.14,4.41-1.04,8.84,0.19,13.22c0.27,0.98,0.75,1.95,1.35,2.77
			c1.24,1.69,2.88,1.63,4.11-0.08c0.41-0.57,0.78-1.24,0.93-1.92C307.18,363.93,307.58,361.66,308.02,359.42z M318.01,381.8
			c0.07,0.96,0.07,1.44,0.15,1.91c0.07,0.47,0.18,0.94,0.34,1.39c0.49,1.37,1.3,1.98,2.64,2.03c1.25,0.04,2.38-0.59,2.8-1.83
			c0.8-2.38,0.67-4.75-0.75-6.88c-1.19-1.79-3.23-1.71-4.23,0.19C318.38,379.71,318.23,381.02,318.01,381.8z"/>
		<path class="st16" d="M338.92,451.38c2.03-0.16,4.06-0.42,6.09-0.46c3.62-0.07,7.25-0.2,10.79,0.92c-4.35,0-8.7,0-13.05,0
			C341.48,451.68,340.2,451.53,338.92,451.38z"/>
		<path class="st17" d="M290.02,367.98c0.12,0.81,0.25,1.62,0.37,2.42C289.11,369.77,289.42,368.89,290.02,367.98z"/>
		<path class="st1" d="M331.76,444.7c0.15-0.19,0.29-0.39,0.44-0.58C332.06,444.31,331.91,444.5,331.76,444.7z"/>
		<path class="st3" d="M408.49,446.72c-0.05-0.1-0.12-0.2-0.16-0.31c-0.01-0.04,0.03-0.11,0.06-0.17
			C408.42,446.4,408.46,446.56,408.49,446.72z"/>
		<path class="st14" d="M298.49,394.06c-0.05-0.21-0.1-0.42-0.15-0.63c0.19,0.04,0.38,0.07,0.57,0.1
			C298.77,393.7,298.63,393.88,298.49,394.06z"/>
		<path class="st17" d="M289.69,365.38c0.07,0.22,0.13,0.44,0.2,0.67C289.82,365.83,289.75,365.61,289.69,365.38z"/>
		<path class="st18" d="M387.99,514.21c-6.39-3.55-9.71-9.02-10.21-16.27c0.81-0.28,1.6-0.64,2.44-0.81
			c4.84-0.96,9.39-2.57,13.33-5.65c0.24-0.19,0.55-0.28,1.01-0.5c4.63,4.6,7.25,9.97,6.11,16.58c-0.97,5.61-5.78,8.43-11.28,7
			C388.92,514.44,388.45,514.32,387.99,514.21z"/>
		<path class="st19" d="M346.53,487.99c4.32,3.51,9.07,6.37,14.35,8.32c1.1,0.41,1.38,1.1,1.29,2.21
			c-0.52,6.42-7.89,12.18-14.17,10.89c-3.71-0.77-6.3-3.12-7.41-6.74C338.95,497.32,342,490.02,346.53,487.99z"/>
		<path class="st20" d="M365.83,474.44c-1.13,0.78-2.27,1.56-3.4,2.34c0.04-0.24,0.07-0.47,0.11-0.71c1.02-0.71,1.91-1.7,3.32-1.6
			L365.83,474.44z"/>
		<path class="st21" d="M264.03,407.57c-1.96,1.42-3.78,2.84-5.71,4.1c-19.9,12.94-39.81,25.84-59.72,38.75
			c-0.72,0.47-1.48,0.89-2.41,1.45c-13.9-26.94-26.81-54.13-40.39-81.25c0.97-0.59,1.74-1.12,2.56-1.56
			c17.3-9.5,34.6-18.99,51.91-28.47c5.75-3.14,11.52-6.23,17.3-9.32c1.32-0.7,2.7-1.29,4.35-2.08
			C242.87,355.35,253.83,381.19,264.03,407.57z"/>
		<path class="st20" d="M365.85,474.46c0.03-0.07,0.05-0.14,0.08-0.21c-0.03,0.06-0.07,0.12-0.1,0.18
			C365.83,474.44,365.85,474.46,365.85,474.46z"/>
		<path class="st22" d="M343.42,360.72c-0.2,1.7-0.38,3.76-0.7,5.8c-0.16,1.01-0.52,2.01-0.92,2.95c-0.57,1.35-1.33,2.69-3.01,2.69
			c-1.72,0-2.47-1.44-2.89-2.8c-0.56-1.81-1.12-3.72-1.09-5.58c0.04-3.16,0.49-6.33,0.86-9.48c0.09-0.77,0.5-1.5,0.8-2.24
			c0.55-1.32,1.48-1.98,2.98-1.88c1.45,0.1,2.38,0.83,2.88,2.13c0.23,0.59,0.38,1.22,0.45,1.85
			C343.02,356.22,343.19,358.28,343.42,360.72z"/>
		<path class="st22" d="M308.02,359.42c-0.44,2.24-0.83,4.51-1.34,6.75c-0.15,0.68-0.52,1.35-0.93,1.92
			c-1.23,1.72-2.87,1.78-4.11,0.08c-0.6-0.82-1.08-1.79-1.35-2.77c-1.23-4.38-1.32-8.81-0.19-13.22c0.27-1.04,0.82-2.09,1.49-2.94
			c1.01-1.28,2.46-1.31,3.47-0.06c0.73,0.9,1.38,2,1.66,3.12C307.28,354.6,307.58,356.97,308.02,359.42z"/>
		<path class="st22" d="M318.01,381.8c0.22-0.78,0.37-2.1,0.94-3.18c1.01-1.9,3.05-1.98,4.23-0.19c1.41,2.12,1.54,4.5,0.75,6.88
			c-0.42,1.24-1.55,1.87-2.8,1.83c-1.34-0.04-2.15-0.65-2.64-2.03c-0.16-0.45-0.27-0.92-0.34-1.39
			C318.08,383.24,318.08,382.76,318.01,381.8z"/>
	</g>
</g>
</svg>
