<?xml version="1.0" encoding="utf-8"?>
<!-- Generator: Adobe Illustrator 25.0.1, SVG Export Plug-In . SVG Version: 6.00 Build 0)  -->
<!--ORIGINAL VALUE: viewBox="0 0 595.28 841.89"-->
<svg version="1.1" id="Layer_1" xmlns="http://www.w3.org/2000/svg" xmlns:xlink="http://www.w3.org/1999/xlink" x="0px" y="0px"
	 viewBox="110 130 360 450" style="enable-background:new 0 0 595.28 841.89;" xml:space="preserve">
<style type="text/css">
	.st0{fill:#FFFFFF;}
	.st1{fill:#E74618;}
	.st2{fill:#1E3C73;}
	.st3{fill:#E64417;}
	.st4{fill:#FE8A03;}
	.st5{fill:#FE8903;}
	.st6{fill:#E64318;}
	.st7{fill:#ED5612;}
	.st8{fill:#E94D13;}
	.st9{fill:#F87706;}
	.st10{fill:#EA5114;}
	.st11{fill:#F2690B;}
	.st12{fill:#EF5D10;}
	.st13{fill:#204078;}
	.st14{fill:#F3730A;}
	.st15{fill:#EE652A;}
	.st16{fill:#F89960;}
	.st17{fill:#D9451D;}
	.st18{fill:#7EE0FE;}
	.st19{fill:#7EE1FE;}
	.st20{fill:#7DDFFD;}
	.st21{fill:#FC8A04;}
	.st22{fill:#7EDFFD;}
	.st23{fill:#FCFBFB;}
	.st24{fill:#EFF4F4;}
	.st25{fill:#B47B40;}
	.st26{fill:#7EDEFB;}
	.st27{fill:#FF8B06;}
	.st28{fill:#FE8D0D;}
</style>
<g>
	<g>
		<path class="st0" d="M708.88,718.09c-280.64,0-561.28,0-841.92,0c0-198.4,0-396.8,0-595.2c280.64,0,561.28,0,841.92,0
			C708.88,321.29,708.88,519.69,708.88,718.09z M465.68,267.76c-0.16,0.16-0.32,0.32-0.48,0.48c-0.83,0.45-1.66,0.91-2.49,1.36
			c-1.06,0.7-2.16,1.36-3.19,2.11c-5.25,3.81-10.71,7.22-16.83,9.49c-0.9,0.33-1.79,0.7-2.63,1.15c-6.12,3.27-12.75,4.99-19.51,6.22
			c-2.34,0.43-4.75,0.62-7.13,0.64c-2.4,0.03-4.79-0.39-6.89-1.7c-7.04-4.39-10.23-14.25-6.9-21.92c1.29-2.98,2.83-5.93,4.73-8.55
			c4.69-6.44,9.65-12.69,14.5-19.01c0.82-0.79,1.63-1.59,2.45-2.38c-0.14-0.13-0.28-0.27-0.42-0.4c-0.95,0.88-1.91,1.76-2.86,2.64
			c-2.48,1.74-5,3.4-8.02,4.06c-0.2,0.05-0.4,0.1-0.6,0.14c-0.29,0.07-0.57,0.14-0.86,0.2c-0.31,0.03-0.61,0.06-0.92,0.1
			c-0.8,0-1.6,0.01-2.41,0.01c-0.15-0.04-0.31-0.07-0.46-0.11c-0.6-0.44-1.2-0.88-1.81-1.32c-0.26-0.73-0.52-1.46-0.78-2.19
			c-0.01-0.15-0.08-0.25-0.21-0.3c-0.02-0.32-0.04-0.65-0.06-0.97c-0.07-1.26-0.14-2.51-0.22-3.77c0.02-0.82,0.04-1.65,0.06-2.47
			c0.05-0.34,0.1-0.68,0.14-1.03c0.1-0.46,0.2-0.92,0.3-1.39c0.97-2.32,1.68-4.7,1.67-7.25c0.37-1.35,0.74-2.7,1.11-4.05
			c0.41-1.53,0.82-3.06,1.23-4.58c0.11-0.46,0.23-0.92,0.34-1.38c0.07-0.34,0.14-0.68,0.2-1.03c0.51-1.52,1.02-3.05,1.53-4.57
			c0.2-0.24,0.49-0.44,0.59-0.72c1.3-3.67,2.57-7.34,3.84-11.01c0.44-1.04,0.88-2.08,1.32-3.13c0.32-0.72,0.63-1.43,0.95-2.15
			c0.17-0.41,0.33-0.81,0.5-1.22c0.32-0.87,0.63-1.75,0.95-2.62c0.58-1.73,1.17-3.45,1.75-5.18c1.37-0.93,1.72-2.31,1.44-4.05
			c-0.79,1.19-1.59,2.38-2.38,3.57c-1.79,2.73-3.52,5.5-5.38,8.19c-3,4.34-6.12,8.59-9.12,12.92c-2.32,3.35-4.45,6.83-6.84,10.13
			c-1.88,2.58-3.95,5.03-6.1,7.39c-1.62,1.78-3.58,3.21-5.95,3.9c-2.94,0.86-5.13-0.12-6.52-2.84c-0.33-0.64-0.71-1.28-0.85-1.97
			c-1.02-5-2.11-9.98-2.9-15.02c-0.44-2.8-0.33-5.68-0.46-8.53c-0.33,0.29-0.37,0.59-0.43,0.89c-1.45,6.55-2.78,13.12-4.4,19.63
			c-1.26,5.07-3.48,9.77-6.35,14.15c-4.03,6.15-8.91,11.2-16.19,13.56c-7.09,2.3-13.17,0.95-18.59-4.06
			c-5-4.61-8.74-10.16-12.13-15.98c-3.82-6.53-6.69-13.41-7.77-20.98c-0.53-3.71-1.32-7.39-1.99-11.08
			c-1.4-7.78-2.87-15.55-4.16-23.34c-0.53-3.18-0.66-6.42-0.97-9.63c-0.64,4.09-0.97,8.15-1.35,12.2c-0.41,4.32-1.41,8.5-2.94,12.56
			c-0.72,1.91-1.86,3.53-3.55,4.72c-1.41,1-2.83,1.21-4.47,0.35c-2-1.04-3.38-2.64-4.58-4.45c-2.44-3.7-4.14-7.74-5.59-11.9
			c-3.64-10.44-5.97-21.2-7.73-32.09c-0.26-1.62-0.67-3.22-1.02-4.85c-0.45,6.54-1.09,12.98-1.28,19.43
			c-0.16,5.29-0.78,10.51-1.5,15.72c-0.79,5.71-1.89,11.36-4.18,16.68c-0.94,2.18-2.04,4.36-3.44,6.27
			c-2.12,2.9-5.49,3.14-8.15,0.73c-1.17-1.06-2.2-2.32-3.09-3.63c-2.67-3.9-4.86-8.07-6.49-12.52c-0.26-0.71-0.6-1.38-0.91-2.07
			c-0.4,0.43-0.47,0.8-0.43,1.15c1,8.08,2.05,16.16,3.01,24.25c0.73,6.1,1.41,12.21,2.03,18.33c0.54,5.32,0.1,10.52-2.19,15.46
			c-0.87,1.88-1.61,3.83-2.35,5.77c-1.63,4.32-4.09,8.13-7.19,11.52c-1.23,1.34-2.58,2.71-4.13,3.61
			c-5.58,3.22-11.63,4.5-17.99,3.23c-7.02-1.41-13.6-3.98-19.57-8.08c-3.81-2.62-7.82-4.94-11.74-7.4l0.01,0.01
			c-0.17-0.13-0.34-0.25-0.51-0.38c-0.04-0.14-0.13-0.18-0.27-0.15c-0.23-0.21-0.44-0.46-0.7-0.63c-7.8-5.1-15.6-10.19-23.42-15.26
			c-0.49-0.32-1.07-0.48-1.61-0.72c0.28,0.99,0.8,1.65,1.41,2.22c2.47,2.3,4.66,4.82,6.15,7.85c1.23,2.49,2.23,5.1,3.33,7.65
			c0.36,1.95,0.98,3.89,1.04,5.85c0.15,4.5-2.41,6.99-6.85,7.02c-3.33,0.02-6.41-1.04-9.47-2.2c-8.4-3.18-15.6-8.55-23.37-12.87
			c-0.07-0.04-0.12-0.1-0.19-0.14c-3.2-2.22-6.4-4.44-9.59-6.67c-0.04-0.11-0.12-0.19-0.24-0.22c-0.68-0.83-1.42-1.56-2.72-1.5
			c0.74,0.67,1.47,1.34,2.21,2.02c0.06,0.12,0.16,0.19,0.29,0.2c1.66,1.83,3.33,3.65,4.97,5.49c7.07,7.93,13.61,16.28,19.5,25.12
			c2.62,3.93,4.89,8.05,6.46,12.51c0.54,1.55,0.87,3.25,0.91,4.89c0.05,2.18-1.26,3.16-3.44,2.88c-0.93-0.12-1.83-0.44-3.03-0.74
			c3.89,3.72,7.56,7.23,11.23,10.73l-0.06,0.05l0.12,0.02c-0.02,0.14,0.04,0.22,0.18,0.24c1.25,2.09,2.6,4.12,3.73,6.28
			c0.78,1.5,1.26,3.17,1.87,4.76c0.02,0.17,0.05,0.33,0.07,0.5c0.08,0.78,0.17,1.57,0.25,2.35c-0.39,2.25-0.78,4.51-1.17,6.76
			c-0.55,1.06-1.1,2.12-1.66,3.19c-3.39,3.37-7.31,5.9-11.89,7.38c-5.04,1.63-10.17,2.75-15.48,2.96c-0.55,0.02-1.09,0.11-1.64,0.17
			c0,0.16,0,0.33,0,0.49c2.02,0.38,4.02,0.88,6.06,1.1c8.98,0.96,17.56,3.3,25.74,7.14c1.01,0.47,2.09,0.84,3.01,1.44
			c4.69,3.09,8.43,7.08,11.09,12.04c1.09,2.04,2,4.17,2.99,6.26c1.06,3.61,1.06,7.32,1.06,11.03c-0.65,6.68-3.88,12.06-8.52,16.67
			c-3.05,3.03-6.18,6-9.44,8.79c-6.73,5.77-14.15,10.59-21.63,15.32c-1.05,0.3-1.93,0.84-2.46,1.95c0.82-0.38,1.64-0.77,2.46-1.15
			c5.59-2.14,11.26-4.06,17.21-4.89c2.27-0.32,4.62-0.36,6.9-0.15c2.08,0.19,2.76,1.36,2.24,3.36c-0.3,1.13-0.8,2.28-1.49,3.21
			c-1.62,2.17-3.41,4.22-5.13,6.31c-0.57,0.7-1.15,1.39-1.73,2.09c0.62,0.2,0.97,0.09,1.31-0.05c3.39-1.4,6.75-2.86,10.16-4.2
			c4.54-1.78,9.12-3.48,14.04-3.77c2.11-0.12,4.34,0.01,6.37,0.55c2.98,0.8,4.29,3.37,3.38,6.3c-0.51,1.64-1.35,3.24-2.35,4.64
			c-1.39,1.94-3.07,3.68-4.62,5.5c-10.06,11.78-20.12,23.55-30.16,35.34c-0.36,0.43-0.51,1.03-0.76,1.55
			c-0.18,0.03-0.36,0.05-0.54,0.08c0.02,0.07,0.03,0.14,0.05,0.22c0.16-0.1,0.32-0.2,0.48-0.31c0.3-0.08,0.63-0.11,0.9-0.25
			c10.12-5.26,19.81-11.26,29.48-17.3c2.96-1.85,6.19-3.26,9.29-4.87c-0.52,2.41-0.14,4.76,0.45,7.09
			c1.54,6.11,4.45,11.59,7.68,16.94c5.21,8.61,12.48,15.54,18.95,23.11c2.05,2.4,3.34,4.91,3.9,8.02c0.82,4.55,1.64,9.15,3.1,13.51
			c2.72,8.13,7.35,15.21,13.17,21.52c0.59,0.64,1.18,1.28,1.8,1.96c-4.08,4.73-6.33,10.11-6.91,16.16
			c-0.57,5.9,0.37,11.5,3.97,16.38c4.01,5.44,10.4,7.32,16.62,4.97c2.43-0.92,4.54-2.35,6.38-4.16c4.38-4.3,6.81-9.58,7.81-15.58
			c0.1-0.59,0.27-1.17,0.44-1.87c7.33,1.64,14.54,2.17,21.71,1.17c0.21,0.28,0.34,0.39,0.38,0.53c0.18,0.61,0.33,1.23,0.5,1.85
			c1.36,5.01,3.63,9.54,7.02,13.49c2.11,2.45,4.55,4.49,7.51,5.84c6.51,2.97,12.9,1.09,16.63-4.98c0.83-1.35,1.46-2.85,1.95-4.35
			c1.4-4.27,1.38-8.66,0.73-13.05c-0.65-4.38-2.15-8.5-4.24-12.3c0.14-0.27,0.18-0.44,0.29-0.54c0.52-0.49,1.07-0.96,1.59-1.45
			c8.46-7.88,14.87-17.08,18.24-28.23c1.81-5.99,3-12.1,3.01-18.38c0-1.13,0.34-1.94,1.19-2.69c1.44-1.26,2.88-2.55,4.11-4.01
			c5.26-6.22,10.44-12.5,15.65-18.76c1.96,0.9,3.91,1.8,5.87,2.7c0.13-0.13,0.26-0.27,0.39-0.4c-1.07-2.52-2.14-5.03-3.21-7.55
			c2.39-3.96,4.29-8.16,5.61-12.58c0.85-2.82,1.09-5.69,0.83-8.7c-0.55-6.28-5.62-8.62-10.65-7.51c-0.82,0.18-1.68,0.2-2.51,0.3
			c-0.03-0.25-0.16-0.65-0.06-0.72c0.59-0.4,1.19-0.85,1.86-1.05c3.95-1.22,7.87-2.6,11.89-3.51c5.6-1.28,11.34-1.56,17.09-1.63
			c5.06-0.06,9.78,0.99,14.28,3.25c4.76,2.4,9.57,4.7,14.36,7.04c0.64,0.45,1.29,0.89,1.93,1.34c0.09-0.13,0.19-0.27,0.28-0.4
			c-0.54-0.51-1.09-1.02-1.63-1.52c-1.65-2.35-3.41-4.64-4.92-7.08c-2.46-3.96-4.35-8.18-5-12.86c-0.65-4.63,1.32-8.89,5.43-11.11
			c1.79-0.97,3.83-1.63,5.83-2.04c5.16-1.05,10.34-0.61,15.49,0.22c8.24,1.32,16.15,3.8,23.94,6.72c0.68,0.25,1.36,0.49,2.04,0.74
			c-0.33-0.76-0.83-1.16-1.31-1.57c-5.18-4.39-10.4-8.74-15.53-13.2c-3.13-2.72-6.11-5.62-9.15-8.44c-0.6-0.6-1.2-1.2-1.8-1.8
			c-0.2-0.19-0.41-0.39-0.61-0.58c-1.46-1.52-2.92-3.04-4.39-4.56c-0.97-1.14-1.95-2.28-2.92-3.41c-1.42-2.09-2.85-4.18-4.26-6.28
			c-1.19-1.77-1.76-3.71-1.49-5.86c0.26-2.04,0.51-4.07,0.77-6.11c1.44-4.21,2.22-8.55,2.65-12.96c0.28-0.26,0.7-0.47,0.81-0.79
			c1.38-4.03,2.72-8.08,4.07-12.13c0.1-0.12,0.24-0.23,0.29-0.37c4.45-10.77,8.85-21.55,14.27-31.9c3.01-5.75,6.17-11.35,9.89-16.65
			c2.75-3.92,5.39-7.92,8.05-11.9c0.3-0.45,0.46-1,0.68-1.5c0.42-0.5,0.84-1,1.26-1.5c0.16-0.16,0.32-0.32,0.48-0.47
			c0.05-0.03,0.11-0.06,0.15-0.11c0.02-0.02,0.01-0.07,0.02-0.11C465.78,267.6,465.73,267.68,465.68,267.76z M153.63,421.11
			c0.05-0.04,0.11-0.09,0.16-0.13c-0.05-0.05-0.1-0.13-0.15-0.13c-0.05,0-0.11,0.08-0.16,0.12
			C153.53,421.01,153.58,421.06,153.63,421.11z"/>
		<path class="st1" d="M406.55,211.59c-0.11,0.46-0.23,0.92-0.34,1.38c-0.41,1.53-0.82,3.06-1.23,4.58
			c-0.37,1.35-0.74,2.7-1.11,4.05c-0.54,1.84-1.11,3.66-1.6,5.51c-0.14,0.55-0.05,1.16-0.07,1.74c-0.1,0.46-0.2,0.92-0.3,1.39
			c-0.05,0.34-0.1,0.68-0.14,1.03c-0.02,0.82-0.04,1.65-0.06,2.47c-0.47,1.29-0.55,2.55,0.22,3.77c0.02,0.32,0.04,0.65,0.06,0.97
			c-1.1-0.12-2.2-0.21-3.3-0.36c-2.67-0.35-5.33-0.87-8.01-1.04c-2.66-0.16-5.18-0.74-7.61-1.79c-1.89-0.81-2.78-0.58-4.11,1.01
			c-0.64,0.77-1.41,1.51-2.26,2.01c-1.17,0.68-1.71,1.49-1.71,2.87c0,3.21-1.34,5.62-4.39,7.01c-1.56,0.71-1.8,2.19-0.74,3.57
			c0.39,0.5,0.98,0.92,1.17,1.49c0.53,1.57,0.8,3.22,1.34,4.79c0.43,1.24,0.07,2.17-0.66,3.09c-0.26,0.33-0.55,0.63-1.09,1.25
			c2.07,0.56,3.8,1.42,5.54,1.43c3.07,0.03,4.9,1.96,6.41,3.97c1.02,1.37,1.87,2.88,3.08,4.16c0.42,0.44,0.84,1.35,0.66,1.82
			c-0.7,1.89,0.38,2.79,1.65,3.76c1.7,1.3,3.42,2.6,4.95,4.09c0.89,0.87,1.62,1.63,2.99,1.54c0.48-0.03,1.01,0.49,1.65,0.83
			c-0.98,0.9-3.11,0.02-2.63,2.23c0.88,0.17,1.7,0.33,2.35,0.46c1.02,2.01-2.04,0.71-1.47,2.29c0.65,0.08,1.4-0.01,1.98,0.26
			c2.98,1.39,6.11,1.69,9.34,1.53c1.51-0.08,2.96,0.17,4.6,1.1c-0.56,0.64-0.9,1.31-1.45,1.6c-1.22,0.63-1.59,1.63-1.86,2.86
			c-0.31,1.43-0.84,2.81-1.28,4.23c1.88,0.9,1.94,1.3,0.47,2.97c-0.71,0.81-1.33,1.7-2.22,2.86c0.74,0.54,1.21,1.15,1.77,1.25
			c0.96,0.18,1.98,0.05,2.95,0.05c0.46,0.69,0.99,1.3,1.31,2.01c0.28,0.62,0.49,1.34,0.47,2.01c-0.05,1.5-0.31,2.99-0.39,4.49
			c-0.1,2.03-0.39,2.43-2.44,2.85c-0.38,0.08-0.76,0.12-1.15,0.18c0,0.34-0.05,0.58,0.01,0.79c0.73,2.56,1.54,2.92,4.08,2.21
			c0.75-0.21,1.73-0.02,2.46,0.3c0.69,0.3,1.35,0.93,1.76,1.57c0.72,1.13,1.71,1.32,2.87,1.19c0.9-0.1,1.79-0.22,2.95-0.37
			c-0.41,0.92-0.69,1.54-0.9,2c0.92,0.96,1.67,1.84,2.52,2.61c0.81,0.73,1.64,1.62,2.62,1.92c1.41,0.44,2.97,0.41,4.47,0.59
			c-1.35,4.05-2.69,8.09-4.07,12.13c-0.11,0.32-0.53,0.53-0.81,0.79c-0.51-0.16-1.01-0.32-1.52-0.48c-0.52-0.16-1.1-0.21-1.55-0.49
			c-1.96-1.2-3.86-2.5-5.81-3.7c-0.85-0.52-1.61-1.03-1.69-2.14c-0.07-1-0.75-1.35-1.64-1.36c-1.41-0.02-2.81,0.04-4.22,0.01
			c-1.95-0.03-4.1,1.14-5.74-0.9c-2.18,0.13-2.83-1.49-3.33-3.09c-0.99-3.18-1.84-6.4-2.8-9.58c-0.94-3.11-1.93-6.21-2.95-9.3
			c-0.09-0.28-0.59-0.42-0.89-0.63c-0.19,0.03-0.37,0.05-0.56,0.08l0.03-0.01c-0.13-0.34-0.27-0.68-0.4-1.02
			c-0.09-0.09-0.12-0.2-0.08-0.33c-0.21-0.52-0.42-1.04-0.62-1.56c-0.94-2.52-1.72-5.11-2.87-7.53c-2.24-4.73-4.68-9.37-7.03-14.05
			c-0.18-0.32-0.37-0.64-0.55-0.96l0.04,0.03c-0.14-0.19-0.28-0.37-0.43-0.56c-0.64-0.97-1.27-1.95-1.91-2.92
			c-0.13-0.15-0.26-0.31-0.38-0.46l-0.06-0.08c-0.22-0.27-0.44-0.54-0.66-0.81c-0.27-0.33-0.55-0.66-0.82-0.99
			c-0.11-0.16-0.22-0.31-0.33-0.47c-0.38-0.47-0.75-0.94-1.13-1.4c0.03-0.8-0.29-1.32-1.13-1.44c-0.11-0.14-0.22-0.27-0.32-0.41
			c-0.14-0.2-0.27-0.4-0.41-0.61c-0.19-0.26-0.38-0.51-0.57-0.77c-0.2-0.21-0.39-0.41-0.59-0.62c-2.84-3.15-5.68-6.3-8.53-9.44
			c-0.19-0.21-0.38-0.42-0.58-0.63c-0.15-0.01-0.26-0.08-0.31-0.22c-0.43-1.2-1.1-2.12-2.51-2.18c-1.93-1.39-3.83-2.81-5.78-4.17
			c-4.03-2.81-7.97-5.78-12.17-8.33c-4.76-2.9-9.77-5.36-14.99-7.38c-8.85-3.42-17.98-5.56-27.41-6.5
			c-1.43-0.14-2.87-0.12-4.31-0.15c-4.87-0.1-9.76-0.51-14.6-0.19c-4.6,0.3-9.14,1.35-13.71,2.1c-7.37,1.22-14.33,3.76-21.3,6.35
			c-8.57,3.18-16.07,8.12-23.37,13.48c-5.64,4.14-10.42,9.2-15.06,14.38c-3.23,3.61-6.3,7.39-9.14,11.32
			c-2.09,2.89-3.48,6.27-5.54,9.18c-2.86,4.04-4.26,8.7-6.09,13.17c-1.14,2.78-2.01,5.66-3,8.5c-0.69-0.06-1.03-0.46-0.91-1.13
			c0.2-1.09,0.36-2.21,0.73-3.24c1.24-3.41,1.61-7.11,3.41-10.34c0.11-0.2,0.08-0.47,0.14-0.7c1.67-6.46,4.85-12.03,9.71-16.63
			c0.69-0.65,1.25-1.44,1.87-2.16c1.24-1.45,2.46-2.91,3.71-4.35c1.25-1.44,2.61-2.8,3.75-4.32c0.57-0.76,0.78-1.81,1.32-3.15
			c-1.54,0-2.63-0.09-3.7,0.04c-0.45,0.06-1,0.5-1.22,0.92c-1.2,2.25-2.86,3.71-5.54,3.85c-1.19,0.06-1.84,0.76-1.77,2.07
			c0.04,0.86,0.06,1.81-0.24,2.59c-0.81,2.06-1.69,4.1-2.74,6.04c-2.04,3.78-4.32,7.44-6.27,11.27c-1.1,2.15-2.56,3.78-4.59,5.01
			c-2.19,1.32-2.9,1.05-3.41-1.4c-0.33-1.61-0.78-1.99-2.35-2.13c-1.18-0.1-2.36-0.26-3.53-0.42c-1.37-0.19-2.47,0.04-3.26,1.38
			c-0.64,1.08-1.36,2.27-2.36,2.96c-1.2,0.83-1.6,1.89-1.91,3.13c-0.17,0.69-0.39,1.38-0.49,2.09c-0.15,1.12-0.84,1.52-1.84,1.4
			c-0.77-0.09-1.54-0.33-2.27-0.6c-1.04-0.38-2.05-0.86-3.07-1.29c-0.16-0.16-0.32-0.33-0.48-0.49c-0.61-1.59-1.09-3.26-1.87-4.76
			c-1.12-2.15-2.47-4.19-3.73-6.28c1.23-0.09,1.81,0.83,2.51,1.59c0.96,1.04,1.81,1.16,2.85,0.26c0.78-0.67,1.53-1.43,2.08-2.29
			c0.7-1.1,1.46-1.08,2.41-0.5c0.27,0.16,0.55,0.33,0.8,0.52c0.95,0.71,1.63,0.4,2.12-0.56c0.18-0.35,0.3-0.74,0.46-1.1
			c0.6-1.31,0.81-1.38,2.18-0.88c1.46,0.53,2.93,1.04,4.26,1.52c0.31-0.33,0.39-0.38,0.41-0.44c0.31-0.82,0.6-1.64,0.91-2.45
			c0.72-1.87,1.06-1.99,3.01-1.32c0.57,0.2,1.58,0.43,1.76,0.19c0.9-1.24,2.12-1.19,3.41-1.3c0.51-0.04,1.1-0.6,1.41-1.07
			c0.69-1.05,1.83-1.76,2.8-1.51c2.41,0.62,3.12-1.1,4-2.52c1.17-1.9,2.12-3.93,3.23-5.86c1.46-2.53,1.51-4.96-0.37-7.29
			c-0.55-0.69-0.84-1.33-0.17-2.21c1.36-0.06,2.76-0.13,4.61-0.21c-0.47-1.04-0.67-1.78-1.09-2.35c-2.37-3.24-5.19-6.04-8.63-8.15
			c-0.75-0.46-1.59-0.79-2.24-1.36c-2.13-1.86-4.4-3.38-7.57-3.56c0.2-1.05,0.23-1.93,0.54-2.7c0.44-1.1,0.99-2.19,1.67-3.15
			c0.72-1.01,0.93-1.97,0.5-3.13c-0.16-0.43-0.14-0.93-0.2-1.4c3.92,2.46,7.93,4.78,11.74,7.4c5.97,4.1,12.55,6.67,19.57,8.08
			c6.36,1.28,12.41-0.01,17.99-3.23c1.56-0.9,2.9-2.26,4.13-3.61c3.1-3.39,5.56-7.2,7.19-11.52c0.73-1.94,1.47-3.89,2.35-5.77
			c2.3-4.94,2.73-10.14,2.19-15.46c-0.62-6.12-1.3-12.23-2.03-18.33c-0.97-8.09-2.01-16.17-3.01-24.25
			c-0.04-0.35,0.03-0.72,0.43-1.15c0.3,0.69,0.65,1.36,0.91,2.07c1.63,4.45,3.82,8.62,6.49,12.52c0.89,1.31,1.92,2.58,3.09,3.63
			c2.67,2.4,6.04,2.17,8.15-0.73c1.4-1.91,2.5-4.09,3.44-6.27c2.29-5.32,3.39-10.98,4.18-16.68c0.72-5.22,1.34-10.43,1.5-15.72
			c0.2-6.45,0.83-12.89,1.28-19.43c0.35,1.63,0.76,3.23,1.02,4.85c1.76,10.9,4.09,21.65,7.73,32.09c1.45,4.16,3.15,8.2,5.59,11.9
			c1.2,1.82,2.57,3.41,4.58,4.45c1.64,0.85,3.06,0.65,4.47-0.35c1.68-1.19,2.83-2.81,3.55-4.72c1.53-4.05,2.54-8.24,2.94-12.56
			c0.38-4.06,0.71-8.12,1.35-12.2c0.31,3.21,0.45,6.45,0.97,9.63c1.29,7.8,2.76,15.56,4.16,23.34c0.67,3.69,1.45,7.37,1.99,11.08
			c1.08,7.56,3.96,14.44,7.77,20.98c3.4,5.81,7.14,11.36,12.13,15.98c5.42,5.01,11.51,6.36,18.59,4.06
			c7.29-2.37,12.16-7.41,16.19-13.56c2.87-4.38,5.09-9.09,6.35-14.15c1.62-6.51,2.95-13.08,4.4-19.63c0.07-0.3,0.1-0.6,0.43-0.89
			c0.14,2.85,0.03,5.73,0.46,8.53c0.79,5.03,1.88,10.02,2.9,15.02c0.14,0.69,0.53,1.33,0.85,1.97c1.39,2.72,3.58,3.69,6.52,2.84
			c2.37-0.69,4.33-2.12,5.95-3.9c2.15-2.36,4.22-4.81,6.1-7.39c2.4-3.29,4.52-6.78,6.84-10.13c3-4.33,6.12-8.59,9.12-12.92
			c1.86-2.68,3.59-5.45,5.38-8.19c0.31,0.16,0.63,0.32,0.94,0.47c-0.58,1.73-1.17,3.45-1.75,5.18c-0.32,0.87-0.63,1.75-0.95,2.62
			c-0.17,0.41-0.33,0.81-0.5,1.22c-0.32,0.72-0.63,1.43-0.95,2.15c-0.44,1.04-0.88,2.08-1.32,3.13c-0.27,0.36-0.63,0.69-0.79,1.09
			c-1.08,2.78-2.13,5.57-3.15,8.38c-0.26,0.72-0.34,1.5-0.5,2.26c-0.51,1.52-1.02,3.05-1.53,4.57
			C406.68,210.91,406.62,211.25,406.55,211.59z M407.61,315.13c0.65-1.88,1.24-3.59,1.83-5.33c-1.92-0.27-2.39,0.19-3.13,2.83
			C405.95,313.93,406.2,314.44,407.61,315.13z M182.82,250.8c0.35-0.85,0.53-1.67-0.6-2.03c-0.21-0.07-0.86,0.47-0.9,0.79
			C181.18,250.55,181.75,250.95,182.82,250.8z"/>
		<path class="st2" d="M364.38,266.98c2.84,3.15,5.68,6.3,8.53,9.44c0.2,0.21,0.39,0.41,0.59,0.62c0.19,0.26,0.38,0.51,0.57,0.77
			c0.14,0.2,0.27,0.4,0.41,0.61c0.11,0.14,0.22,0.27,0.33,0.41c0.38,0.48,0.76,0.96,1.13,1.44c0.38,0.47,0.75,0.94,1.13,1.4
			c0.11,0.16,0.22,0.31,0.34,0.47c0.27,0.33,0.55,0.66,0.82,0.99c0.22,0.27,0.44,0.54,0.66,0.81c0,0,0.06,0.08,0.06,0.08
			c0.13,0.15,0.26,0.31,0.38,0.46c0.64,0.97,1.27,1.95,1.91,2.92c0.14,0.19,0.28,0.37,0.43,0.56c0,0-0.04-0.03-0.04-0.03
			c0.18,0.32,0.37,0.64,0.55,0.96c2.36,4.68,4.8,9.31,7.03,14.05c1.14,2.42,1.92,5.02,2.87,7.53c0.21,0.52,0.42,1.04,0.62,1.56
			c-0.04,0.12-0.01,0.23,0.08,0.33c0.13,0.34,0.27,0.68,0.4,1.02c0,0-0.03,0.01-0.03,0.01c0.14,0.22,0.29,0.45,0.43,0.68
			c0.12,0.41,0.24,0.81,0.35,1.22c0.22,0.7,0.43,1.4,0.65,2.1c0.03,0.24,0.06,0.48,0.09,0.72c0.12,0.41,0.25,0.82,0.37,1.23
			c0.02,0.22,0.04,0.45,0.06,0.67c-0.36,0.69-0.17,1.24,0.44,1.68c0.04,0.25,0.07,0.49,0.11,0.74c0.23,1.25,0.46,2.49,0.69,3.74
			c0.03,0.37,0.06,0.74,0.09,1.11c0.04,0.3,0.08,0.6,0.12,0.9c0.05,0.31,0.09,0.62,0.14,0.94c0.06,0.35,0.13,0.7,0.19,1.05
			c0.05,0.81,0.09,1.61,0.14,2.42c0.02,0.28,0.04,0.55,0.06,0.83c0.05,0.34,0.09,0.68,0.14,1.02c0.03,0.48,0.07,0.96,0.1,1.43
			c0.03,0.33,0.05,0.65,0.08,0.98c-0.01,1.34-0.11,2.69-0.02,4.03c0.57,7.89,0.11,15.72-1.23,23.5c-0.57,3.28-1.4,6.52-2.11,9.78
			c-1.11,3.52-2.22,7.04-3.33,10.56c-0.3,0.63-0.65,1.24-0.9,1.89c-4.77,12-11.65,22.71-20.33,32.18
			c-10.8,11.8-23.71,20.75-38.34,27.23c-0.76,0.34-1.5,0.72-2.4,1.16c0.54,0.68,0.87,1.11,1.21,1.54c0.15,0.13,0.3,0.25,0.45,0.38
			l-0.04-0.03c0.46,2.14,2.08,3.54,3.19,5.52c0.96-1.08,1.73-1.95,2.5-2.82c0.82,0.41,1.65,0.82,2.47,1.23
			c-0.49,0.73-0.89,1.54-1.48,2.17c-1.39,1.5-1.32,2.88-0.38,4.7c3.93,7.51,6.07,15.57,6.77,24.01c0.04,0.52,0.21,1.03,0.4,1.95
			c1.1-1.07,1.95-1.87,2.78-2.71c5.65-5.68,10.43-12.08,15.2-18.49c0.98,0.49,1.97,0.98,2.95,1.46
			c-5.21,6.26-10.39,12.54-15.65,18.76c-1.23,1.46-2.68,2.74-4.11,4.01c-0.86,0.75-1.19,1.56-1.19,2.69
			c-0.01,6.28-1.21,12.39-3.01,18.38c-3.37,11.15-9.78,20.36-18.24,28.23c-0.53,0.49-1.07,0.96-1.59,1.45
			c-0.11,0.1-0.15,0.27-0.29,0.54c2.08,3.8,3.59,7.92,4.24,12.3c0.65,4.39,0.67,8.78-0.73,13.05c-0.49,1.5-1.13,3.01-1.95,4.35
			c-3.73,6.08-10.12,7.96-16.63,4.98c-2.96-1.35-5.4-3.39-7.51-5.84c-3.39-3.95-5.65-8.49-7.02-13.49c-0.17-0.62-0.32-1.24-0.5-1.85
			c-0.04-0.14-0.18-0.25-0.38-0.53c-7.17,0.99-14.38,0.47-21.71-1.17c-0.17,0.7-0.34,1.28-0.44,1.87c-1,6-3.43,11.28-7.81,15.58
			c-1.84,1.81-3.95,3.25-6.38,4.16c-6.22,2.35-12.6,0.47-16.62-4.97c-3.6-4.89-4.54-10.48-3.97-16.38
			c0.58-6.05,2.84-11.44,6.91-16.16c-0.63-0.68-1.22-1.32-1.8-1.96c-5.81-6.3-10.45-13.38-13.17-21.52
			c-1.46-4.37-2.28-8.97-3.1-13.51c-0.56-3.11-1.85-5.62-3.9-8.02c-6.47-7.58-13.74-14.5-18.95-23.11
			c-3.23-5.35-6.14-10.83-7.68-16.94c-0.59-2.34-0.98-4.69-0.45-7.09c0.85-0.32,1.69-0.64,2.54-0.96c-0.11,2.56,0.04,5.04,0.85,7.54
			c1.96,6.06,4.88,11.61,8.3,16.92c4.07,6.32,8.86,12.1,13.86,17.7c1.07,1.2,2.39,2.19,3.75,3.42c0.36-3,0.76-5.6,0.97-8.21
			c0.29-3.69,1.04-7.27,2.37-10.71c1.15-2.97,2.42-5.9,3.68-8.82c0.39-0.9,0.79-1.69,0.05-2.65c-3.05-3.89-5.84-8.04-10.03-10.84
			c-3.83-2.56-7.8-4.92-11.71-7.36c1.76-0.12,3.53-0.23,5.29-0.35c7.35,4.07,13.01,10.1,18.44,16.22c3.22-4.08,6.32-8,9.42-11.92
			c0.96,0.1,1.92,0.2,3.31,0.34c-3.12-1.74-5.87-3.18-8.53-4.78c-9.25-5.56-18.13-11.56-25.42-19.71
			c-7.13-7.98-12.86-16.82-17.54-26.41c-3.59-7.34-6.52-14.9-8.2-22.91c-0.93-6.06-2.37-12.04-2.4-18.22
			c-0.05-1.45-0.1-2.9-0.16-4.35c0.06-0.55,0.14-1.11,0.19-1.66c0.76-7.93,1.17-15.91,2.94-23.72c0.4-1.76,0.75-3.53,1.12-5.3
			c0.11-0.48,0.23-0.96,0.34-1.44c0.99-2.84,1.86-5.72,3-8.5c1.83-4.48,3.23-9.13,6.09-13.17c2.06-2.91,3.45-6.29,5.54-9.18
			c2.84-3.92,5.91-7.7,9.14-11.32c4.63-5.18,9.41-10.24,15.06-14.38c7.29-5.36,14.8-10.29,23.37-13.48
			c6.97-2.59,13.93-5.13,21.3-6.35c4.56-0.75,9.11-1.8,13.71-2.1c4.84-0.32,9.73,0.09,14.6,0.19c1.44,0.03,2.88,0.01,4.31,0.15
			c9.42,0.94,18.56,3.07,27.41,6.5c5.23,2.02,10.23,4.48,14.99,7.38c4.19,2.55,8.13,5.52,12.17,8.33c1.95,1.36,3.86,2.78,5.78,4.17
			c0.84,0.73,1.68,1.46,2.51,2.18c0.05,0.14,0.16,0.22,0.31,0.22C364,266.56,364.19,266.77,364.38,266.98z M299.22,454.28
			c-3.58,0.18-7.15,0.37-10.73,0.52c-9.79,0.41-19.31-1.22-28.7-3.85c-2.14-0.64-4.28-1.27-6.42-1.91
			c-0.24-0.01-0.51,0.04-0.71-0.05c-2.48-1.09-4.99-2.11-7.4-3.35c-1.28-0.66-2.21-0.63-3.15,0.43c-1.28,1.43-2.71,2.73-3.88,4.24
			c-10.55,13.66-15.14,29.07-13.04,46.24c2.15,17.49,10.1,31.79,24.38,42.35c9.96,7.36,21.24,10.99,33.57,10.94
			c10.28-0.04,19.86-2.99,28.61-8.41c12.46-7.71,20.76-18.7,25.34-32.58c3.17-9.6,3.77-19.41,2.23-29.33
			c-1.35-8.71-4.61-16.76-9.43-24.15c-1.31-2-2.8-3.88-4.21-5.82c-0.58-0.79-1.26-1.19-2.25-0.72c-0.43,0.2-0.91,0.3-1.37,0.42
			c-4.41,1.19-8.82,2.38-13.22,3.57C305.63,453.33,302.43,453.8,299.22,454.28z M182.84,346.34c0.1,58.2,46.77,105.13,105.08,105.09
			c61.94-0.04,107.12-49.44,106.92-107.17c-0.2-57.78-47.01-104.43-105.22-104.45C230.75,239.78,182.81,287.62,182.84,346.34z
			 M243.28,538.64c-0.34,0.32-0.67,0.55-0.9,0.86c-3.01,3.92-5.12,8.21-5.72,13.2c-0.51,4.27,0.12,8.29,2.31,11.98
			c2.76,4.66,8.23,7.8,14.83,4.77c2.38-1.09,4.32-2.68,5.92-4.72c2.74-3.48,4.16-7.49,4.7-11.85c0.26-2.12,0.28-2.21-1.78-2.93
			c-5.7-1.98-10.89-4.91-15.75-8.45C245.67,540.62,244.52,539.63,243.28,538.64z M317.13,542.31c-6.92,4.93-14.54,8.24-22.84,10.03
			c0.07,0.71,0.04,1.2,0.18,1.65c1.41,4.54,3.47,8.75,6.36,12.53c1.54,2.01,3.52,3.48,5.75,4.6c3.97,2,7.75,1.52,10.66-1.22
			c1.74-1.63,2.92-3.59,3.51-5.89c1.89-7.34,0.35-14.22-2.89-20.86C317.73,542.89,317.47,542.69,317.13,542.31z"/>
		<path class="st3" d="M430.72,332.03c-1.5-0.17-3.05-0.15-4.47-0.59c-0.98-0.31-1.81-1.2-2.62-1.92c-0.85-0.76-1.6-1.64-2.52-2.61
			c0.21-0.46,0.49-1.08,0.9-2c-1.16,0.15-2.06,0.27-2.95,0.37c-1.17,0.13-2.15-0.06-2.87-1.19c-0.41-0.65-1.07-1.27-1.76-1.57
			c-0.74-0.32-1.72-0.51-2.46-0.3c-2.54,0.71-3.35,0.36-4.08-2.21c-0.06-0.21-0.01-0.46-0.01-0.79c0.39-0.06,0.77-0.11,1.15-0.18
			c2.05-0.42,2.34-0.82,2.44-2.85c0.07-1.5,0.34-2.99,0.39-4.49c0.02-0.67-0.19-1.39-0.47-2.01c-0.32-0.7-0.85-1.32-1.31-2.01
			c-0.97,0-1.99,0.13-2.95-0.05c-0.56-0.11-1.04-0.71-1.77-1.25c0.89-1.16,1.51-2.05,2.22-2.86c1.48-1.67,1.42-2.07-0.47-2.97
			c0.44-1.43,0.97-2.81,1.28-4.23c0.27-1.23,0.64-2.23,1.86-2.86c0.55-0.28,0.9-0.96,1.45-1.6c-1.64-0.94-3.09-1.18-4.6-1.1
			c-3.22,0.16-6.36-0.14-9.34-1.53c-0.58-0.27-1.33-0.18-1.98-0.26c-0.57-1.58,2.49-0.28,1.47-2.29c-0.65-0.13-1.47-0.29-2.35-0.46
			c-0.49-2.2,1.65-1.33,2.63-2.23c-0.64-0.34-1.16-0.86-1.65-0.83c-1.38,0.09-2.1-0.67-2.99-1.54c-1.53-1.49-3.25-2.79-4.95-4.09
			c-1.27-0.97-2.35-1.87-1.65-3.76c0.18-0.47-0.24-1.38-0.66-1.82c-1.21-1.27-2.06-2.79-3.08-4.16c-1.5-2.01-3.34-3.94-6.41-3.97
			c-1.74-0.02-3.48-0.87-5.54-1.43c0.54-0.62,0.83-0.92,1.09-1.25c0.73-0.92,1.09-1.86,0.66-3.09c-0.54-1.56-0.82-3.22-1.34-4.79
			c-0.19-0.56-0.78-0.98-1.17-1.49c-1.05-1.38-0.82-2.86,0.74-3.57c3.05-1.38,4.39-3.8,4.39-7.01c0-1.38,0.54-2.19,1.71-2.87
			c0.86-0.5,1.62-1.24,2.26-2.01c1.33-1.6,2.23-1.83,4.11-1.01c2.42,1.04,4.94,1.62,7.61,1.79c2.68,0.16,5.34,0.69,8.01,1.04
			c1.1,0.14,2.2,0.24,3.3,0.36c0.14,0.05,0.21,0.15,0.21,0.3c-0.32,0.94-0.01,1.65,0.78,2.19c0.6,0.44,1.2,0.88,1.81,1.32
			c0.15,0.04,0.31,0.07,0.46,0.11c0.8,0,1.6-0.01,2.4-0.01c0.31-0.03,0.61-0.06,0.92-0.1c0.29-0.07,0.57-0.14,0.86-0.2
			c0.2-0.05,0.4-0.1,0.6-0.14c3.03-0.66,5.55-2.32,8.02-4.06c0.28,0.05,0.56,0.1,0.84,0.15c-4.85,6.32-9.82,12.57-14.5,19.01
			c-1.9,2.62-3.44,5.57-4.73,8.55c-3.33,7.67-0.14,17.53,6.9,21.92c2.1,1.31,4.49,1.73,6.89,1.7c2.38-0.03,4.79-0.22,7.13-0.64
			c6.76-1.23,13.39-2.95,19.51-6.22c0.84-0.45,1.73-0.82,2.63-1.15c6.11-2.27,11.58-5.68,16.83-9.49c1.03-0.75,2.12-1.41,3.19-2.11
			c0.4,0.04,0.8,0.07,1.19,0.11c-0.22,0.5-0.38,1.05-0.68,1.5c-2.66,3.98-5.3,7.98-8.05,11.9c-3.72,5.3-6.88,10.91-9.89,16.65
			c-5.42,10.35-9.82,21.13-14.27,31.9C430.96,331.8,430.82,331.9,430.72,332.03z"/>
		<path class="st4" d="M193.64,442.92c-0.85,0.32-1.69,0.64-2.54,0.96c-3.1,1.61-6.33,3.02-9.29,4.87
			c-9.67,6.04-19.36,12.04-29.48,17.3c-0.27,0.14-0.6,0.17-0.9,0.25l0.01,0.02c0.25-0.52,0.4-1.13,0.76-1.55
			c10.04-11.79,20.1-23.57,30.16-35.34c1.56-1.82,3.23-3.56,4.62-5.5c1-1.4,1.84-3,2.35-4.64c0.91-2.93-0.4-5.5-3.38-6.3
			c-2.03-0.55-4.26-0.67-6.37-0.55c-4.91,0.28-9.5,1.99-14.04,3.77c-3.41,1.34-6.78,2.8-10.16,4.2c-0.34,0.14-0.7,0.25-1.31,0.05
			c0.58-0.7,1.15-1.39,1.73-2.09c1.72-2.09,3.51-4.14,5.13-6.31c0.69-0.93,1.19-2.08,1.49-3.21c0.53-2-0.16-3.18-2.24-3.36
			c-2.28-0.21-4.63-0.17-6.9,0.15c-5.95,0.83-11.62,2.75-17.21,4.89c0-0.27,0-0.53,0-0.8c7.48-4.72,14.9-9.55,21.63-15.32
			c3.26-2.8,6.39-5.76,9.44-8.79c4.63-4.61,7.87-9.99,8.52-16.67c0.39,0.35,0.88,0.63,1.15,1.05c0.34,0.52,0.45,1.18,0.74,1.74
			c1.04,2.01,2.14,2.07,3.55,0.25c0.43-0.56,0.94-1.06,1.41-1.58c1.68,8.01,4.62,15.57,8.2,22.91c4.68,9.58,10.41,18.43,17.54,26.41
			c7.28,8.15,16.17,14.15,25.42,19.71c2.66,1.6,5.41,3.04,8.53,4.78c-1.39-0.14-2.35-0.24-3.31-0.34c-0.36-0.18-0.69-0.42-1.07-0.52
			c-3.77-0.96-7.51-2.07-11.33-2.8c-5.09-0.97-10.26-1.41-15.46-0.98c-1.76,0.12-3.53,0.23-5.29,0.35
			C201.53,440.21,197.54,441.4,193.64,442.92z"/>
		<path class="st5" d="M364.75,466.07c-0.98-0.49-1.97-0.98-2.95-1.46c-3.12-1.6-6.22-3.24-9.36-4.81
			c-4.63-2.31-9.29-4.56-13.93-6.83c-0.82-0.41-1.65-0.82-2.47-1.23c-1.9-0.9-3.8-1.8-5.69-2.7c0,0,0.04,0.03,0.04,0.03
			c-0.15-0.13-0.3-0.25-0.45-0.38c-0.34-0.43-0.68-0.86-1.21-1.54c0.89-0.43,1.63-0.82,2.4-1.16c14.63-6.48,27.54-15.43,38.34-27.23
			c8.68-9.48,15.56-20.19,20.33-32.18c0.26-0.65,0.6-1.26,0.9-1.89c0.21,0.8,0.5,1.6,0.61,2.41c0.36,2.72,1.05,3.45,3.79,3.93
			c0.45,0.08,0.95,0.24,1.29,0.52c1.13,0.94,2.31,0.98,3.55,0.35c1.91-0.97,3.79-0.77,5.72-0.04c0.63,0.24,1.43,0.42,2.05,0.26
			c1.56-0.41,3.06-0.5,4.65-0.2c0.73,0.14,1.55-0.21,2.33-0.32c1.27-0.17,2.46-0.24,3.65,0.59c0.81,0.56,1.93,1.01,2.88,0.97
			c3.1-0.14,5.89,0.93,8.75,1.83c2.05,0.65,6.15-0.58,7.35-2.31c0.71-1.02,1.26-2.17,0.83-3.57c-0.25-0.81-0.16-1.72-0.22-2.58
			c3.05,2.82,6.02,5.72,9.15,8.44c5.12,4.46,10.35,8.81,15.53,13.2c0.48,0.41,0.97,0.8,1.31,1.57c-0.68-0.25-1.36-0.48-2.04-0.74
			c-7.79-2.91-15.7-5.4-23.94-6.72c-5.15-0.83-10.34-1.27-15.49-0.22c-2.01,0.41-4.04,1.07-5.83,2.04
			c-4.12,2.22-6.08,6.48-5.43,11.11c0.65,4.68,2.54,8.9,5,12.86c1.51,2.44,3.27,4.72,4.92,7.07c-0.19,0.2-0.39,0.39-0.58,0.59
			c-4.79-2.34-9.6-4.65-14.36-7.04c-4.5-2.27-9.22-3.31-14.28-3.25c-5.75,0.06-11.49,0.35-17.09,1.63
			c-4.02,0.92-7.94,2.29-11.89,3.51c-0.67,0.21-1.27,0.65-1.86,1.05c-0.1,0.07,0.03,0.47,0.06,0.72c0,0,0.02-0.05,0.02-0.05
			c-0.88-0.91-1.16,0.24-1.7,0.5c-0.31,0.33-0.66,0.63-0.92,1c-0.65,0.95-1.65,1.81-0.91,3.17c0.13,0.68,0.14,1.4,0.4,2.02
			c2.35,5.63,4.73,11.25,7.13,16.86c0.25,0.58,0.66,1.08,0.99,1.62c0.57,1.13,1.15,2.25,1.72,3.38c1.07,2.52,2.14,5.03,3.21,7.55
			c-0.13,0.13-0.26,0.27-0.39,0.4C368.66,467.87,366.7,466.97,364.75,466.07z"/>
		<path class="st6" d="M179.3,241.8c0.06,0.47,0.03,0.97,0.2,1.4c0.44,1.16,0.22,2.12-0.5,3.13c-0.69,0.96-1.23,2.05-1.67,3.15
			c-0.31,0.77-0.34,1.65-0.54,2.7c3.16,0.18,5.44,1.69,7.57,3.56c0.65,0.57,1.5,0.9,2.24,1.36c3.45,2.12,6.26,4.91,8.63,8.15
			c0.42,0.57,0.62,1.31,1.09,2.35c-1.86,0.09-3.25,0.15-4.61,0.21c-0.67,0.88-0.39,1.53,0.17,2.21c1.88,2.33,1.83,4.76,0.37,7.29
			c-1.11,1.93-2.06,3.97-3.23,5.86c-0.88,1.42-1.59,3.14-4,2.52c-0.98-0.25-2.11,0.46-2.8,1.51c-0.32,0.48-0.91,1.03-1.41,1.07
			c-1.29,0.11-2.51,0.05-3.41,1.3c-0.17,0.24-1.19,0-1.76-0.19c-1.95-0.67-2.29-0.55-3.01,1.32c-0.31,0.81-0.6,1.64-0.91,2.45
			c-0.03,0.07-0.11,0.12-0.41,0.44c-1.32-0.47-2.79-0.98-4.26-1.52c-1.37-0.5-1.58-0.43-2.18,0.88c-0.17,0.36-0.28,0.75-0.46,1.1
			c-0.49,0.97-1.17,1.27-2.12,0.56c-0.25-0.19-0.53-0.36-0.8-0.52c-0.96-0.57-1.71-0.6-2.41,0.5c-0.55,0.86-1.3,1.62-2.08,2.29
			c-1.04,0.9-1.89,0.78-2.85-0.26c-0.7-0.76-1.28-1.68-2.51-1.59c-0.14-0.02-0.2-0.1-0.18-0.24c0,0-0.05-0.07-0.05-0.07
			c-3.67-3.51-7.34-7.01-11.23-10.73c1.2,0.3,2.1,0.62,3.03,0.74c2.18,0.29,3.49-0.7,3.44-2.88c-0.03-1.64-0.36-3.34-0.91-4.89
			c-1.56-4.46-3.84-8.58-6.46-12.51c-5.89-8.85-12.43-17.19-19.5-25.12c-1.64-1.84-3.31-3.66-4.97-5.49
			c0.15-0.17,0.31-0.33,0.46-0.5c3.2,2.22,6.4,4.44,9.59,6.67c0.07,0.05,0.12,0.11,0.19,0.14c7.77,4.32,14.97,9.69,23.37,12.87
			c3.06,1.16,6.14,2.22,9.47,2.2c4.44-0.02,7-2.52,6.85-7.02c-0.07-1.96-0.68-3.9-1.04-5.85c2.84-1.67,6.11-1.3,9.17-1.95
			c0.22-0.05,0.54-0.03,0.69,0.1c1.5,1.37,3.3,0.63,4.98,0.73c0.14-0.04,0.23,0.01,0.27,0.15c0.17,0.13,0.34,0.25,0.51,0.38
			C179.31,241.81,179.3,241.8,179.3,241.8z"/>
		<path class="st7" d="M184.2,317.14c-0.37,1.77-0.72,3.54-1.12,5.3c-1.77,7.81-2.18,15.79-2.94,23.72
			c-0.05,0.55-0.13,1.11-0.19,1.66c-0.1,0.17-0.21,0.34-0.31,0.5c-0.24,0.49-0.36,1.17-0.75,1.43c-1.37,0.88-1.17,2.15-0.97,3.39
			c0.47,2.95-0.35,4.16-3.33,4.76c-0.99-2.09-1.9-4.22-2.99-6.26c-2.65-4.96-6.4-8.95-11.09-12.04c-0.92-0.61-2.01-0.97-3.01-1.44
			c-8.17-3.84-16.76-6.18-25.74-7.14c-2.04-0.22-4.04-0.73-6.06-1.1c0-0.16,0-0.33,0-0.49c0.55-0.06,1.09-0.15,1.64-0.17
			c5.31-0.21,10.44-1.33,15.48-2.96c4.57-1.48,8.49-4.01,11.89-7.38c0.4,0.17,0.86,0.57,1.19,0.48c0.99-0.27,1.91-0.79,2.89-1.12
			c2.55-0.86,5.1-1.74,7.69-2.49c1.22-0.35,2.38-0.05,3.11,1.17c0.69,1.15,1.3,2.36,2.14,3.39c1.34,1.64,2.83,3.14,4.26,4.7
			c3.6-3.9,3.67-4.07,4.77-9.48c0.08-0.4,0.49-0.73,0.75-1.1c0.36,0.34,0.97,0.63,1.04,1.02
			C182.73,316.48,183.1,317.13,184.2,317.14z"/>
		<path class="st8" d="M184.2,317.14c-1.1-0.01-1.47-0.66-1.65-1.66c-0.07-0.39-0.68-0.69-1.04-1.02c-0.26,0.37-0.67,0.7-0.75,1.1
			c-1.09,5.41-1.17,5.58-4.77,9.48c-1.43-1.56-2.92-3.06-4.26-4.7c-0.84-1.03-1.45-2.24-2.14-3.39c-0.73-1.22-1.89-1.52-3.11-1.17
			c-2.59,0.75-5.13,1.62-7.69,2.49c-0.98,0.33-1.9,0.84-2.89,1.12c-0.33,0.09-0.79-0.31-1.19-0.48c0.55-1.06,1.1-2.12,1.66-3.19
			c1.67-0.43,2.01-1.87,2.43-3.23c0.61-1.96,0.52-2.18-1.26-3.54c-0.08-0.78-0.17-1.57-0.25-2.35c0,0,0.21,0,0.21,0l0.21-0.01
			c1.02,0.43,2.03,0.91,3.07,1.29c0.73,0.27,1.5,0.5,2.27,0.6c0.99,0.12,1.69-0.28,1.84-1.4c0.09-0.7,0.31-1.39,0.49-2.09
			c0.31-1.24,0.71-2.31,1.91-3.13c1-0.69,1.72-1.87,2.36-2.96c0.79-1.34,1.88-1.58,3.26-1.38c1.17,0.17,2.35,0.32,3.53,0.42
			c1.58,0.14,2.02,0.52,2.35,2.13c0.51,2.45,1.22,2.72,3.41,1.4c2.03-1.23,3.49-2.85,4.59-5.01c1.95-3.83,4.24-7.48,6.27-11.27
			c1.05-1.94,1.93-3.99,2.74-6.04c0.31-0.78,0.28-1.73,0.24-2.59c-0.06-1.32,0.59-2.01,1.77-2.07c2.68-0.14,4.35-1.6,5.54-3.85
			c0.22-0.42,0.78-0.86,1.22-0.92c1.07-0.13,2.17-0.04,3.7-0.04c-0.54,1.34-0.75,2.38-1.32,3.15c-1.14,1.52-2.5,2.88-3.75,4.32
			c-1.25,1.44-2.48,2.9-3.71,4.35c-0.62,0.72-1.18,1.51-1.87,2.16c-4.86,4.6-8.04,10.17-9.71,16.63c-0.06,0.23-0.03,0.5-0.14,0.7
			c-1.79,3.23-2.17,6.93-3.41,10.34c-0.37,1.03-0.53,2.15-0.73,3.24c-0.12,0.67,0.22,1.06,0.91,1.13
			C184.43,316.18,184.31,316.66,184.2,317.14z"/>
		<path class="st9" d="M437.9,386.51c0.06,0.86-0.03,1.78,0.22,2.58c0.44,1.41-0.12,2.55-0.83,3.57c-1.2,1.73-5.3,2.96-7.35,2.31
			c-2.85-0.9-5.64-1.98-8.75-1.83c-0.95,0.04-2.07-0.4-2.88-0.97c-1.19-0.83-2.38-0.75-3.65-0.59c-0.78,0.1-1.6,0.45-2.33,0.32
			c-1.59-0.3-3.1-0.21-4.65,0.2c-0.62,0.16-1.41-0.02-2.05-0.26c-1.93-0.73-3.81-0.93-5.72,0.04c-1.24,0.63-2.42,0.59-3.55-0.35
			c-0.34-0.28-0.84-0.44-1.29-0.52c-2.74-0.48-3.43-1.21-3.79-3.93c-0.11-0.82-0.4-1.61-0.61-2.41c1.11-3.52,2.22-7.04,3.33-10.56
			c1.28,0.86,1.08,2.18,1.14,3.45c0.04,0.97-0.36,2.11,0.92,2.8c0.5-0.24,1.02-0.42,1.47-0.73c1.86-1.26,1.82-1.23,3.65-0.18
			c0.45,0.25,1.41,0.35,1.66,0.08c1.59-1.73,3.96-1.34,5.79-2.48c0.66,1.07,1.23,1.99,1.97,3.18c0.76-0.63,1.37-1.1,1.93-1.61
			c0.6-0.55,1.15-0.67,1.92-0.21c2.12,1.26,4.35,2.33,6.43,3.64c3.44,2.18,7.35,1.67,11.09,2.11c0.09,0.01,0.2-0.21,0.41-0.43
			c-0.41-1.33-0.86-2.76-1.3-4.18c1.46,1.52,2.92,3.04,4.39,4.56c0.2,0.19,0.41,0.39,0.61,0.58
			C436.7,385.31,437.3,385.91,437.9,386.51z"/>
		<path class="st10" d="M394.65,318.09c-0.03-0.24-0.06-0.48-0.08-0.72c-0.22-0.7-0.43-1.4-0.65-2.1c-0.12-0.41-0.24-0.81-0.35-1.22
			c0.04-0.25,0.09-0.5,0.13-0.75c0.31,0.21,0.8,0.35,0.89,0.63c1.02,3.09,2.01,6.19,2.95,9.3c0.96,3.19,1.81,6.41,2.8,9.58
			c0.5,1.6,1.15,3.21,3.33,3.09c1.64,2.03,3.79,0.86,5.74,0.9c1.41,0.02,2.81-0.03,4.22-0.01c0.89,0.01,1.57,0.36,1.64,1.36
			c0.08,1.11,0.84,1.61,1.69,2.14c1.96,1.2,3.86,2.5,5.81,3.7c0.45,0.27,1.03,0.33,1.55,0.49c0.51,0.16,1.01,0.32,1.52,0.48
			c-0.43,4.41-1.2,8.76-2.65,12.96c-0.62,0.3-1.24,0.59-1.95,0.93c-0.66-0.8-1.26-1.52-1.91-2.31c-0.39,0.14-0.85,0.17-1.1,0.41
			c-1.8,1.77-3.56,1.17-5.33,0c-0.27-0.18-0.54-0.34-0.8-0.53c-0.83-0.6-1.57-0.48-2.4,0.1c-1.82,1.28-2.09,1.17-2.62-0.92
			c-0.4-1.54-0.7-3.08-2.41-3.86c-0.41-0.19-0.77-0.85-0.85-1.35c-0.6-3.58-2.22-6.79-3.61-10.08c-0.35-0.82-0.48-1.94-1.71-2.09
			c0-0.48,0-0.96,0-1.43c0.78-0.79,0.54-1.24-0.47-1.45c0-0.32,0-0.64-0.01-0.96c0.85-1.41-0.05-2.69-0.32-4.01
			c-0.03-0.13-0.55-0.17-0.84-0.25c-0.06-0.35-0.13-0.7-0.19-1.05c0.12-0.3,0.25-0.61,0.38-0.91c0.78-0.98-0.06-0.87-0.63-0.92
			c-0.03-0.37-0.06-0.74-0.09-1.11c0.64-1.41,0.03-2.58-0.69-3.74c-0.04-0.25-0.07-0.49-0.11-0.74c-0.15-0.56-0.29-1.12-0.44-1.68
			c-0.02-0.22-0.04-0.45-0.06-0.67C394.9,318.91,394.78,318.5,394.65,318.09z"/>
		<path class="st11" d="M398.51,336.8c0,0.48,0,0.96,0,1.43c0.32,2.34,0.67,4.68,0.96,7.03c0.19,1.49,0.42,2.98,0.42,4.47
			c0,1.33-0.26,2.67-0.46,4c-0.72,4.63-1.02,9.29-0.91,13.98c0.01,0.52,0.16,1.03,0.26,1.64c2.28-0.21,2.79-2.71,4.76-3.22
			c0.29,0.4,0.58,0.75,0.84,1.14c0.98,1.48,1.44,1.56,2.79,0.43c0.31-0.25,0.56-0.57,0.88-0.81c1.43-1.07,2.03-0.96,3.61,0.01
			c0.9,0.55,2.03,0.73,3.05,1.08c0.88,0.3,1.92,0.39,2.63,0.93c2.76,2.12,5.41,4.37,8.11,6.57c0.8,0.65,1.59,1.41,2.74,0.68
			c0.97,1.14,1.95,2.28,2.92,3.41c0.44,1.42,0.89,2.85,1.3,4.18c-0.21,0.22-0.32,0.44-0.41,0.43c-3.74-0.44-7.65,0.07-11.09-2.11
			c-2.08-1.32-4.31-2.39-6.43-3.64c-0.77-0.46-1.32-0.34-1.92,0.21c-0.56,0.51-1.16,0.98-1.93,1.61c-0.74-1.19-1.31-2.11-1.97-3.18
			c-1.82,1.14-4.19,0.75-5.79,2.48c-0.25,0.27-1.21,0.18-1.66-0.08c-1.84-1.05-1.8-1.08-3.65,0.18c-0.45,0.3-0.98,0.49-1.47,0.73
			c-1.28-0.69-0.88-1.84-0.92-2.8c-0.06-1.27,0.14-2.6-1.14-3.45c0.71-3.26,1.54-6.5,2.11-9.78c1.35-7.78,1.81-15.61,1.23-23.5
			c-0.1-1.33,0.01-2.68,0.02-4.03C397.75,336.81,398.13,336.8,398.51,336.8z"/>
		<path class="st12" d="M428.18,376.15c-1.15,0.73-1.94-0.03-2.74-0.68c-2.7-2.2-5.35-4.45-8.11-6.57c-0.7-0.54-1.74-0.63-2.63-0.93
			c-1.03-0.35-2.15-0.53-3.05-1.08c-1.59-0.97-2.18-1.08-3.61-0.01c-0.32,0.24-0.57,0.56-0.88,0.81c-1.35,1.12-1.81,1.04-2.79-0.43
			c-0.25-0.38-0.55-0.74-0.84-1.14c-1.97,0.51-2.48,3.01-4.76,3.22c-0.1-0.61-0.25-1.12-0.26-1.64c-0.11-4.69,0.19-9.35,0.91-13.98
			c0.21-1.33,0.46-2.67,0.46-4c0-1.49-0.23-2.98-0.42-4.47c-0.3-2.35-0.64-4.69-0.96-7.03c1.23,0.15,1.36,1.27,1.71,2.09
			c1.39,3.29,3.01,6.5,3.61,10.08c0.08,0.49,0.44,1.16,0.85,1.35c1.7,0.77,2.01,2.31,2.41,3.86c0.53,2.08,0.8,2.19,2.62,0.92
			c0.83-0.58,1.57-0.71,2.4-0.1c0.26,0.19,0.53,0.35,0.8,0.53c1.77,1.17,3.53,1.78,5.33,0c0.25-0.24,0.71-0.27,1.1-0.41
			c0.66,0.79,1.25,1.51,1.91,2.31c0.71-0.34,1.33-0.63,1.95-0.93c-0.26,2.04-0.51,4.07-0.77,6.11c-0.27,2.15,0.29,4.08,1.49,5.86
			C425.33,371.97,426.76,374.06,428.18,376.15z"/>
		<path class="st1" d="M178.53,241.29c-1.68-0.1-3.48,0.64-4.98-0.73c-0.14-0.13-0.47-0.15-0.69-0.1c-3.06,0.65-6.33,0.28-9.17,1.95
			c-1.1-2.55-2.11-5.16-3.34-7.65c-1.49-3.03-3.69-5.56-6.15-7.85c-0.61-0.57-1.13-1.23-1.41-2.22c0.54,0.24,1.12,0.4,1.61,0.72
			c7.81,5.07,15.62,10.17,23.42,15.26C178.09,240.82,178.3,241.07,178.53,241.29z"/>
		<path class="st13" d="M367.8,460.82c-0.57-1.13-1.15-2.25-1.72-3.38c2.4-4.24,4.11-8.78,5.36-13.46c0.55-2.07,0.49-4.26-0.28-6.34
			c-0.72-1.97-2.23-2.97-4.29-3.15c-3.42-0.3-6.38,1-9.31,2.45c-0.74-1.35,0.27-2.22,0.91-3.17c0.25-0.37,0.61-0.67,0.92-1
			c0.77,0.52,1.28,0.17,1.7-0.5c0,0-0.02,0.05-0.02,0.05c0.84-0.1,1.69-0.12,2.51-0.3c5.03-1.11,10.1,1.23,10.65,7.51
			c0.26,3.01,0.02,5.88-0.83,8.7C372.09,452.66,370.19,456.86,367.8,460.82z"/>
		<path class="st14" d="M174.6,357.89c2.98-0.59,3.8-1.81,3.33-4.76c-0.2-1.24-0.4-2.5,0.97-3.39c0.39-0.25,0.51-0.94,0.75-1.43
			c0.16,1.28,0.31,2.57,0.47,3.85c0.03,6.17,1.47,12.16,2.4,18.22c-0.47,0.53-0.98,1.03-1.41,1.58c-1.4,1.82-2.51,1.76-3.55-0.25
			c-0.29-0.56-0.41-1.22-0.74-1.74c-0.27-0.42-0.76-0.71-1.15-1.05C175.66,365.22,175.65,361.5,174.6,357.89z"/>
		<path class="st15" d="M157.54,308.95c1.77,1.35,1.86,1.57,1.26,3.54c-0.42,1.36-0.75,2.8-2.43,3.23
			C156.76,313.46,157.15,311.2,157.54,308.95z"/>
		<path class="st16" d="M408.28,205.99c0.16-0.75,0.24-1.54,0.5-2.26c1.01-2.81,2.07-5.6,3.15-8.38c0.16-0.41,0.52-0.73,0.79-1.09
			c-1.28,3.67-2.54,7.35-3.84,11.01C408.77,205.55,408.48,205.76,408.28,205.99z"/>
		<path class="st16" d="M418.17,179.96c-0.31-0.16-0.63-0.32-0.94-0.47c0.79-1.19,1.59-2.38,2.38-3.57
			C419.89,177.66,419.54,179.04,418.17,179.96z"/>
		<path class="st16" d="M402.2,228.84c0.02-0.58-0.08-1.19,0.07-1.74c0.49-1.85,1.06-3.68,1.6-5.51
			C403.89,224.14,403.17,226.52,402.2,228.84z"/>
		<path class="st16" d="M418.88,238.02c-0.28-0.05-0.56-0.1-0.84-0.15c0.95-0.88,1.91-1.76,2.86-2.64c0.14,0.13,0.28,0.27,0.42,0.4
			C420.51,236.43,419.69,237.23,418.88,238.02z"/>
		<path class="st16" d="M401.91,237.5c-0.77-1.22-0.69-2.48-0.22-3.77C401.77,234.99,401.84,236.25,401.91,237.5z"/>
		<path class="st16" d="M404.98,217.55c0.41-1.53,0.82-3.06,1.23-4.58C405.8,214.49,405.39,216.02,404.98,217.55z"/>
		<path class="st16" d="M136.07,409.7c0,0.27,0,0.53,0,0.8c-0.82,0.38-1.64,0.77-2.47,1.15C134.14,410.55,135.02,410,136.07,409.7z"
			/>
		<path class="st16" d="M114.51,233.67c-0.74-0.67-1.47-1.34-2.21-2.02c1.3-0.07,2.04,0.66,2.72,1.5
			C114.86,233.33,114.68,233.5,114.51,233.67z"/>
		<path class="st16" d="M463.91,269.71c-0.4-0.04-0.8-0.07-1.19-0.11c0.83-0.45,1.66-0.91,2.49-1.36c0,0-0.03-0.03-0.03-0.03
			C464.75,268.71,464.33,269.21,463.91,269.71z"/>
		<path class="st16" d="M420.49,435.71c0.19-0.2,0.39-0.39,0.58-0.59c0.54,0.51,1.09,1.02,1.63,1.53c-0.09,0.13-0.19,0.27-0.28,0.4
			C421.78,436.6,421.14,436.16,420.49,435.71z"/>
		<path class="st16" d="M415.47,187.77c0.32-0.87,0.63-1.75,0.95-2.62C416.1,186.02,415.79,186.89,415.47,187.77z"/>
		<path class="st16" d="M414.03,191.14c0.32-0.72,0.63-1.43,0.95-2.15C414.66,189.7,414.34,190.42,414.03,191.14z"/>
		<path class="st16" d="M402.97,240.96c-0.79-0.54-1.1-1.26-0.78-2.19C402.45,239.5,402.71,240.23,402.97,240.96z"/>
		<path class="st16" d="M406.55,211.59c0.07-0.34,0.14-0.68,0.2-1.03C406.68,210.91,406.62,211.25,406.55,211.59z"/>
		<path class="st16" d="M401.76,231.26c0.05-0.34,0.1-0.69,0.14-1.03C401.85,230.57,401.81,230.92,401.76,231.26z"/>
		<path class="st16" d="M408.56,242.28c-0.31,0.03-0.61,0.06-0.92,0.1C407.95,242.34,408.25,242.31,408.56,242.28z"/>
		<path class="st4" d="M151.44,466.29c-0.16,0.1-0.32,0.2-0.48,0.31c-0.02-0.07-0.03-0.14-0.05-0.22c0.18-0.03,0.36-0.05,0.54-0.07
			C151.45,466.31,151.44,466.29,151.44,466.29z"/>
		<path class="st4" d="M153.63,421.11c-0.05-0.05-0.1-0.1-0.15-0.14c0.05-0.04,0.11-0.12,0.16-0.12c0.05,0,0.1,0.09,0.15,0.13
			C153.74,421.02,153.69,421.06,153.63,421.11z"/>
		<path class="st16" d="M465.2,268.23c0.16-0.16,0.32-0.32,0.48-0.48c0,0-0.03-0.02-0.03-0.02c-0.16,0.16-0.32,0.32-0.48,0.47
			C465.17,268.21,465.2,268.23,465.2,268.23z"/>
		<path class="st16" d="M465.68,267.76c0.05-0.08,0.09-0.16,0.14-0.24c-0.01,0.04,0,0.09-0.02,0.11c-0.04,0.04-0.1,0.07-0.15,0.11
			C465.66,267.73,465.68,267.76,465.68,267.76z"/>
		<path class="st16" d="M405.24,242.38c-0.15-0.04-0.31-0.07-0.46-0.11C404.93,242.31,405.08,242.35,405.24,242.38z"/>
		<path class="st16" d="M410.01,241.93c-0.2,0.05-0.4,0.1-0.6,0.14C409.62,242.03,409.82,241.98,410.01,241.93z"/>
		<path class="st5" d="M436.1,384.7c-0.2-0.19-0.41-0.39-0.61-0.58C435.69,384.32,435.89,384.51,436.1,384.7z"/>
		<path class="st1" d="M179.31,241.81c-0.17-0.13-0.34-0.25-0.51-0.38C178.97,241.56,179.14,241.68,179.31,241.81z"/>
		<path class="st6" d="M114.51,233.67c0.17-0.17,0.34-0.35,0.51-0.52c0.12,0.04,0.19,0.11,0.24,0.22c-0.15,0.16-0.31,0.33-0.46,0.5
			C114.67,233.86,114.57,233.8,114.51,233.67z"/>
		<polygon class="st1" points="151.4,294.74 151.45,294.81 151.33,294.79 		"/>
		<path class="st15" d="M157.7,306.58l-0.21,0.01c0,0-0.21,0-0.21,0c-0.02-0.17-0.05-0.33-0.07-0.5
			C157.38,306.26,157.54,306.42,157.7,306.58z"/>
		<path class="st3" d="M407.61,315.13c-1.41-0.68-1.66-1.19-1.3-2.5c0.74-2.64,1.22-3.1,3.13-2.83
			C408.85,311.53,408.26,313.25,407.61,315.13z"/>
		<path class="st6" d="M182.82,250.8c-1.06,0.16-1.64-0.25-1.5-1.24c0.04-0.31,0.69-0.85,0.9-0.79
			C183.34,249.12,183.17,249.94,182.82,250.8z"/>
		<path class="st17" d="M363.49,266.13c-0.84-0.73-1.68-1.46-2.51-2.18C362.39,264.01,363.06,264.93,363.49,266.13z"/>
		<path class="st17" d="M375.93,280.26c-0.38-0.48-0.75-0.96-1.13-1.44C375.63,278.94,375.95,279.46,375.93,280.26z"/>
		<path class="st10" d="M392.69,312.02c-0.21-0.52-0.42-1.04-0.62-1.56C392.28,310.98,392.48,311.5,392.69,312.02z"/>
		<path class="st10" d="M393.17,313.37c-0.13-0.34-0.27-0.68-0.4-1.02C392.9,312.68,393.04,313.03,393.17,313.37z"/>
		<path class="st17" d="M382.17,288.88c-0.18-0.32-0.37-0.64-0.55-0.96C381.8,288.24,381.99,288.56,382.17,288.88z"/>
		<path class="st17" d="M378.87,283.93c-0.22-0.27-0.44-0.54-0.66-0.81C378.43,283.4,378.65,283.66,378.87,283.93z"/>
		<path class="st17" d="M373.49,277.04c-0.2-0.21-0.39-0.41-0.59-0.62C373.1,276.63,373.3,276.83,373.49,277.04z"/>
		<path class="st17" d="M374.47,278.42c-0.14-0.2-0.27-0.4-0.41-0.61C374.2,278.01,374.33,278.21,374.47,278.42z"/>
		<path class="st17" d="M364.38,266.98c-0.19-0.21-0.38-0.42-0.57-0.63C363.99,266.56,364.19,266.77,364.38,266.98z"/>
		<path class="st17" d="M377.39,282.13c-0.11-0.16-0.22-0.31-0.34-0.47C377.17,281.82,377.28,281.98,377.39,282.13z"/>
		<path class="st17" d="M379.32,284.48c-0.13-0.15-0.26-0.31-0.38-0.46C379.06,284.17,379.19,284.33,379.32,284.48z"/>
		<path class="st17" d="M381.66,287.96c-0.14-0.19-0.28-0.37-0.43-0.56C381.37,287.59,381.51,287.77,381.66,287.96z"/>
		<path class="st17" d="M393.7,313.3c-0.04,0.25-0.09,0.5-0.13,0.75c-0.14-0.22-0.29-0.45-0.43-0.67
			C393.33,313.35,393.51,313.32,393.7,313.3z"/>
		<path class="st18" d="M182.84,346.34c-0.03-58.72,47.91-106.56,106.78-106.54c58.2,0.02,105.01,46.67,105.22,104.45
			c0.2,57.72-44.98,107.12-106.92,107.17C229.61,451.47,182.94,404.54,182.84,346.34z M215.08,348.17
			C215.08,348.17,215.08,348.17,215.08,348.17c-0.01,7.35-0.01,14.71-0.01,22.06c0,6.79-0.01,13.59,0.02,20.38
			c0.01,3.85,0.02,3.99,3.57,5.18c3.77,1.27,7.59,2.48,11.46,3.37c14.54,3.34,29.3,4.89,44.2,5.08c7.66,0.1,15.33-0.05,22.99-0.32
			c6.45-0.23,12.91-0.61,19.32-1.27c6.18-0.64,12.36-1.51,18.46-2.68c6.41-1.23,12.76-2.83,19.08-4.49
			c3.29-0.86,3.65-1.59,3.68-4.93c0.04-4.47,0.01-8.95,0.01-13.42c0-22.7,0-45.4,0-68.1c0-1.36-0.01-2.72-0.13-4.07
			c-0.15-1.72-0.79-2.1-2.55-1.84c-6.55,0.96-13.09,1.98-19.65,2.8c-8.8,1.1-17.64,1.66-26.5,1.78c-2,0.03-4-0.01-5.99,0.03
			c-7.34,0.15-14.68,0.52-22.01,0.41c-7.02-0.1-14.03-0.68-21.04-1.07c-5.1-0.29-10.2-0.58-15.3-0.95
			c-3.27-0.24-6.52-0.64-9.78-0.95c-5.4-0.52-10.83-0.82-16.11-2.27c-3.49-0.96-3.72-0.72-3.72,2.82
			C215.08,319.88,215.08,334.03,215.08,348.17z"/>
		<path class="st19" d="M308.84,452.85c4.41-1.19,8.82-2.38,13.23-3.57c0.46-0.12,0.94-0.22,1.37-0.42c1-0.47,1.68-0.08,2.25,0.72
			c1.41,1.94,2.9,3.81,4.21,5.82c4.82,7.39,8.08,15.44,9.43,24.15c1.54,9.92,0.95,19.73-2.23,29.33
			c-4.58,13.88-12.88,24.87-25.34,32.58c-8.74,5.41-18.32,8.37-28.61,8.41c-12.33,0.05-23.61-3.58-33.57-10.94
			c-14.28-10.55-22.24-24.86-24.38-42.35c-2.11-17.17,2.49-32.58,13.04-46.24c1.17-1.51,2.6-2.82,3.88-4.24
			c0.95-1.06,1.88-1.09,3.15-0.43c2.4,1.24,4.92,2.26,7.4,3.35c0.21,0.09,0.47,0.04,0.71,0.05c1.82,0.76,3.64,1.51,5.46,2.27
			c2.9,1.3,5.77,2.67,8.71,3.88c1.85,0.76,2.89,1.98,3.45,3.92c1.3,4.52,1.81,9.02,0.62,13.65c-0.52,2.04,0.04,2.97,1.98,3.68
			c0.52,0.19,1.08,0.26,1.62,0.39c3.25,0.8,6.5,0.3,9.76,0.07c2.75-0.19,3.25-0.84,3.27-3.56c0.03-4.06,0.12-8.12,0.31-12.18
			c0.14-2.98,0.26-3.01,3.2-3.88c2.98-0.87,5.95-1.76,8.93-2.64C303.4,454.06,306.12,453.45,308.84,452.85z"/>
		<path class="st20" d="M193.64,442.92c3.9-1.52,7.88-2.71,12.09-3.01c3.91,2.45,7.88,4.8,11.71,7.36
			c4.19,2.8,6.98,6.95,10.03,10.84c0.75,0.95,0.34,1.75-0.05,2.65c-1.26,2.93-2.53,5.85-3.68,8.82c-1.33,3.44-2.08,7.02-2.37,10.71
			c-0.2,2.61-0.61,5.21-0.97,8.21c-1.36-1.23-2.68-2.22-3.75-3.42c-5-5.6-9.79-11.38-13.86-17.7c-3.42-5.31-6.35-10.86-8.3-16.92
			C193.68,447.96,193.53,445.48,193.64,442.92z"/>
		<path class="st20" d="M243.28,538.64c1.24,0.99,2.39,1.97,3.6,2.86c4.86,3.54,10.04,6.47,15.75,8.45
			c2.07,0.72,2.05,0.81,1.78,2.93c-0.54,4.36-1.96,8.37-4.7,11.85c-1.6,2.04-3.55,3.63-5.92,4.72c-6.6,3.03-12.07-0.11-14.83-4.77
			c-2.18-3.69-2.82-7.71-2.31-11.98c0.6-4.99,2.71-9.28,5.72-13.2C242.61,539.2,242.93,538.96,243.28,538.64z"/>
		<path class="st20" d="M317.13,542.31c0.33,0.38,0.6,0.58,0.73,0.85c3.24,6.63,4.78,13.51,2.89,20.86
			c-0.59,2.3-1.77,4.25-3.51,5.89c-2.91,2.74-6.7,3.22-10.66,1.22c-2.23-1.12-4.22-2.59-5.75-4.6c-2.89-3.79-4.95-8-6.36-12.53
			c-0.14-0.44-0.11-0.93-0.18-1.65C302.59,550.54,310.21,547.23,317.13,542.31z"/>
		<path class="st21" d="M300.69,454.66c-2.98,0.88-5.95,1.76-8.93,2.64c-2.94,0.86-3.06,0.89-3.2,3.88
			c-0.19,4.06-0.28,8.12-0.31,12.18c-0.02,2.72-0.51,3.36-3.27,3.56c-3.25,0.23-6.51,0.73-9.76-0.07c-0.54-0.13-1.1-0.2-1.62-0.39
			c-1.94-0.71-2.51-1.64-1.98-3.68c1.19-4.63,0.68-9.13-0.62-13.65c-0.56-1.94-1.59-3.16-3.45-3.92c-2.94-1.21-5.81-2.58-8.71-3.88
			c0.32-0.12,0.64-0.24,0.95-0.36c9.39,2.63,18.91,4.27,28.7,3.85c3.58-0.15,7.15-0.35,10.73-0.52
			C299.71,454.41,300.2,454.53,300.69,454.66z"/>
		<path class="st22" d="M338.51,452.97c4.65,2.27,9.3,4.53,13.93,6.83c3.14,1.56,6.24,3.2,9.36,4.81
			c-4.76,6.41-9.55,12.8-15.2,18.49c-0.83,0.83-1.69,1.64-2.78,2.71c-0.19-0.92-0.36-1.43-0.4-1.95c-0.7-8.44-2.84-16.5-6.77-24.01
			c-0.95-1.81-1.01-3.2,0.38-4.7C337.62,454.5,338.02,453.7,338.51,452.97z"/>
		<path class="st23" d="M211.02,439.56c5.2-0.43,10.37,0,15.46,0.98c3.82,0.73,7.56,1.84,11.33,2.8c0.38,0.1,0.71,0.34,1.07,0.52
			c-3.1,3.92-6.2,7.85-9.42,11.92C224.03,449.66,218.37,443.63,211.02,439.56z"/>
		<path class="st24" d="M330.34,449.04c1.9,0.9,3.8,1.8,5.69,2.7c-0.77,0.87-1.54,1.74-2.5,2.82
			C332.42,452.58,330.8,451.17,330.34,449.04z"/>
		<path class="st25" d="M300.69,454.66c-0.49-0.13-0.98-0.25-1.47-0.38c3.21-0.48,6.42-0.96,9.62-1.43
			C306.12,453.45,303.4,454.06,300.69,454.66z"/>
		<path class="st25" d="M259.79,450.95c-0.32,0.12-0.63,0.24-0.95,0.36c-1.82-0.76-3.64-1.51-5.46-2.27
			C255.52,449.68,257.65,450.32,259.79,450.95z"/>
		<path class="st12" d="M396.86,330.14c0.29,0.08,0.81,0.11,0.84,0.25c0.27,1.32,1.18,2.6,0.32,4.01c-0.28,0-0.55,0-0.83,0.01
			c-0.05-0.34-0.09-0.68-0.14-1.01c-0.02-0.28-0.04-0.55-0.06-0.83C396.96,331.75,396.91,330.95,396.86,330.14z"/>
		<path class="st17" d="M395.64,322.41c0.72,1.16,1.33,2.33,0.69,3.74C396.09,324.9,395.86,323.66,395.64,322.41z"/>
		<path class="st12" d="M398.51,336.8c-0.38,0.01-0.76,0.01-1.13,0.02c-0.03-0.33-0.05-0.65-0.08-0.98
			c0.24-0.16,0.49-0.32,0.74-0.48C399.04,335.55,399.29,336.01,398.51,336.8z"/>
		<path class="st25" d="M180.11,352.17c-0.16-1.28-0.31-2.57-0.47-3.85c0.1-0.17,0.21-0.34,0.31-0.5
			C180.01,349.27,180.06,350.72,180.11,352.17z"/>
		<path class="st17" d="M393.92,315.27c0.22,0.7,0.43,1.4,0.65,2.1C394.35,316.67,394.14,315.97,393.92,315.27z"/>
		<path class="st17" d="M395.09,319.99c0.15,0.56,0.29,1.12,0.44,1.68C394.92,321.23,394.72,320.69,395.09,319.99z"/>
		<path class="st11" d="M398.03,335.35c-0.25,0.16-0.49,0.32-0.74,0.48c-0.03-0.48-0.07-0.96-0.1-1.43c0.28,0,0.55,0,0.83-0.01
			C398.03,334.71,398.03,335.03,398.03,335.35z"/>
		<path class="st17" d="M394.65,318.09c0.12,0.41,0.25,0.82,0.37,1.23C394.9,318.91,394.78,318.5,394.65,318.09z"/>
		<path class="st12" d="M396.41,327.26c0.58,0.06,1.41-0.06,0.63,0.92c-0.17-0.01-0.34-0.02-0.51-0.03
			C396.49,327.86,396.45,327.56,396.41,327.26z"/>
		<path class="st17" d="M396.53,328.16c0.17,0.01,0.34,0.02,0.51,0.03c-0.13,0.3-0.25,0.61-0.38,0.91
			C396.63,328.78,396.58,328.47,396.53,328.16z"/>
		<path class="st25" d="M397,332.56c0.02,0.28,0.04,0.55,0.06,0.83C397.04,333.11,397.02,332.83,397,332.56z"/>
		<path class="st24" d="M329.94,448.68c0.15,0.13,0.3,0.25,0.45,0.38C330.23,448.94,330.08,448.81,329.94,448.68z"/>
		<path class="st26" d="M357.57,436.93c2.94-1.45,5.89-2.75,9.31-2.45c2.05,0.18,3.56,1.18,4.29,3.15c0.77,2.09,0.83,4.28,0.28,6.34
			c-1.25,4.69-2.96,9.22-5.36,13.46c-0.34-0.54-0.75-1.04-0.99-1.62c-2.4-5.61-4.78-11.23-7.13-16.86
			C357.7,438.33,357.69,437.61,357.57,436.93z"/>
		<path class="st0" d="M361.1,432.27c-0.42,0.66-0.94,1.01-1.7,0.5C359.93,432.51,360.22,431.36,361.1,432.27z"/>
		<path class="st13" d="M215.08,348.17c0-14.15,0-28.29,0-42.44c0-3.54,0.23-3.78,3.72-2.82c5.28,1.45,10.71,1.76,16.11,2.27
			c3.26,0.31,6.51,0.71,9.78,0.95c5.1,0.37,10.2,0.66,15.3,0.95c7.01,0.4,14.02,0.97,21.04,1.07c7.33,0.11,14.67-0.27,22.01-0.41
			c2-0.04,3.99,0,5.99-0.03c8.87-0.12,17.71-0.68,26.5-1.78c6.56-0.82,13.1-1.84,19.65-2.8c1.76-0.26,2.4,0.12,2.55,1.84
			c0.12,1.35,0.13,2.71,0.13,4.07c0.01,22.7,0,45.4,0,68.1c0,4.47,0.03,8.95-0.01,13.42c-0.03,3.34-0.39,4.07-3.68,4.93
			c-6.32,1.66-12.67,3.26-19.08,4.49c-6.1,1.17-12.28,2.04-18.46,2.68c-6.42,0.66-12.87,1.04-19.32,1.27
			c-7.66,0.27-15.33,0.42-22.99,0.32c-14.89-0.2-29.66-1.74-44.2-5.08c-3.88-0.89-7.69-2.1-11.46-3.37
			c-3.55-1.19-3.56-1.33-3.57-5.18c-0.03-6.79-0.01-13.59-0.02-20.38C215.08,362.88,215.08,355.53,215.08,348.17
			C215.08,348.17,215.08,348.17,215.08,348.17z M217.1,305.52c0,1.08,0,2.03,0,2.97c0,15.74,0,31.48,0,47.23c0,11.67,0,23.33,0,35
			c0,2.27-0.02,2.37,2.13,3.09c3.17,1.07,6.34,2.22,9.6,2.93c5.61,1.22,11.27,2.21,16.93,3.16c3.62,0.61,7.26,1.14,10.91,1.42
			c5.25,0.4,10.52,0.71,15.79,0.77c9.5,0.1,19.01,0.25,28.49-0.13c8.2-0.33,16.4-1.1,24.54-2.14c9.9-1.26,19.59-3.64,29.17-6.44
			c0.37-0.11,0.69-0.37,1.1-0.6c0-28.92,0-57.83,0-86.82c-0.58,0.06-1.05,0.09-1.52,0.16c-3.23,0.48-6.45,1.06-9.7,1.45
			c-4.75,0.57-9.51,1.06-14.27,1.49c-5.24,0.47-10.48,1.05-15.74,1.19c-8.62,0.24-17.26,0.2-25.88,0.2
			c-5.99,0-11.99,0.01-17.97-0.24c-6.85-0.28-13.7-0.76-20.53-1.29c-8.36-0.65-16.71-1.41-25.05-2.21
			C222.49,306.46,219.91,305.94,217.1,305.52z"/>
		<path class="st24" d="M217.1,305.52c2.81,0.42,5.39,0.94,7.99,1.19c8.35,0.8,16.7,1.56,25.05,2.21
			c6.84,0.53,13.68,1.01,20.53,1.29c5.98,0.25,11.98,0.24,17.97,0.24c8.63,0,17.26,0.03,25.88-0.2c5.25-0.14,10.5-0.72,15.74-1.19
			c4.76-0.43,9.52-0.92,14.27-1.49c3.24-0.39,6.47-0.96,9.7-1.45c0.47-0.07,0.94-0.1,1.52-0.16c0,28.99,0,57.9,0,86.82
			c-0.41,0.23-0.73,0.49-1.1,0.6c-9.58,2.8-19.28,5.18-29.17,6.44c-8.14,1.04-16.34,1.81-24.54,2.14
			c-9.48,0.38-18.99,0.23-28.49,0.13c-5.27-0.05-10.54-0.36-15.79-0.77c-3.65-0.28-7.3-0.81-10.91-1.42
			c-5.66-0.95-11.32-1.94-16.93-3.16c-3.26-0.71-6.43-1.86-9.6-2.93c-2.14-0.72-2.12-0.82-2.13-3.09c-0.01-11.67,0-23.33,0-35
			c0-15.74,0-31.48,0-47.23C217.1,307.54,217.1,306.6,217.1,305.52z M320.7,339.47c-0.2-1.32-0.46-3.71-0.96-6.03
			c-0.23-1.05-0.81-2.09-1.47-2.96c-0.89-1.16-2.08-1.24-3.11-0.22c-0.77,0.77-1.51,1.71-1.9,2.71c-2.56,6.56-3.18,13.31-1.56,20.19
			c0.21,0.91,0.63,1.83,1.16,2.6c1.09,1.59,2.57,1.74,3.76,0.24c0.97-1.22,1.73-2.68,2.27-4.15
			C320.26,348.21,320.55,344.38,320.7,339.47z M253.18,345.66c0.11,0.02,0.22,0.04,0.33,0.06c0.06,1.28,0.01,2.57,0.21,3.82
			c0.25,1.57,0.61,3.13,1.09,4.64c0.4,1.23,1.1,2.44,2.57,2.55c1.36,0.1,2.17-0.95,2.76-2c0.63-1.1,1.19-2.27,1.58-3.47
			c1.57-4.86,1.83-9.88,1.35-14.93c-0.16-1.64-0.64-3.31-1.3-4.82c-1.21-2.77-3.34-2.9-4.98-0.33c-0.76,1.19-1.43,2.55-1.72,3.92
			C254.31,338.59,253.79,342.13,253.18,345.66z M296.23,373.84c0.13,0.04,0.25,0.07,0.38,0.11c-0.58,1.72-0.9,3.57-1.77,5.12
			c-3.45,6.14-12.21,6.31-15.57,0.38c-0.88-1.56-1.25-3.25-1.24-5.05c0.01-1.46-0.63-2.21-1.65-2.12c-1.21,0.11-1.55,0.98-1.59,2.02
			c-0.08,2.54,0.48,4.91,1.84,7.08c2.63,4.19,7.43,6.37,12.11,5.51c5.29-0.97,9.43-4.83,10.44-9.94c0.29-1.46,0.23-3.01,0.17-4.51
			c-0.04-0.89-0.71-1.46-1.64-1.4c-0.92,0.06-1.41,0.68-1.46,1.6C296.21,373.04,296.23,373.44,296.23,373.84z"/>
		<path class="st27" d="M320.7,339.47c-0.16,4.91-0.44,8.74-1.8,12.38c-0.55,1.47-1.3,2.93-2.27,4.15c-1.19,1.5-2.67,1.35-3.76-0.24
			c-0.53-0.77-0.95-1.69-1.16-2.6c-1.62-6.89-1.01-13.63,1.56-20.19c0.39-1,1.13-1.94,1.9-2.71c1.03-1.02,2.22-0.94,3.11,0.22
			c0.66,0.87,1.25,1.91,1.47,2.96C320.25,335.76,320.5,338.15,320.7,339.47z"/>
		<path class="st27" d="M253.18,345.66c0.61-3.52,1.13-7.07,1.89-10.56c0.3-1.37,0.96-2.72,1.72-3.92c1.64-2.57,3.78-2.44,4.98,0.33
			c0.66,1.51,1.14,3.19,1.3,4.82c0.48,5.04,0.22,10.06-1.35,14.93c-0.39,1.2-0.96,2.37-1.58,3.47c-0.6,1.05-1.4,2.1-2.76,2
			c-1.47-0.11-2.17-1.32-2.57-2.55c-0.49-1.51-0.84-3.08-1.09-4.64c-0.2-1.25-0.15-2.55-0.21-3.82
			C253.4,345.7,253.29,345.68,253.18,345.66z"/>
		<path class="st28" d="M296.23,373.84c0-0.4-0.02-0.8,0-1.19c0.05-0.92,0.53-1.54,1.46-1.6c0.92-0.06,1.6,0.5,1.64,1.4
			c0.06,1.5,0.12,3.05-0.17,4.51c-1.01,5.11-5.14,8.97-10.44,9.94c-4.67,0.86-9.48-1.33-12.11-5.51c-1.36-2.16-1.92-4.54-1.84-7.08
			c0.03-1.05,0.37-1.92,1.59-2.02c1.02-0.09,1.66,0.66,1.65,2.12c-0.01,1.81,0.36,3.5,1.24,5.05c3.37,5.93,12.13,5.76,15.57-0.38
			c0.87-1.55,1.2-3.41,1.77-5.12C296.48,373.91,296.36,373.87,296.23,373.84z"/>
	</g>
</g>
</svg>
