<?xml version="1.0" encoding="utf-8"?>
<!-- Generator: Adobe Illustrator 25.0.1, SVG Export Plug-In . SVG Version: 6.00 Build 0)  -->
<!--ORIGINAL VALUE: viewBox="0 0 595.28 841.89"-->
<svg version="1.1" id="Layer_1" xmlns="http://www.w3.org/2000/svg" xmlns:xlink="http://www.w3.org/1999/xlink" x="0px" y="0px"
	 viewBox="170 230 260 350" style="enable-background:new 0 0 595.28 841.89;" xml:space="preserve">
<style type="text/css">
	.st0{fill:#FFFFFF;}
	.st1{fill:#1E3E75;}
	.st2{fill:#A36620;}
	.st3{fill:#6B4923;}
	.st4{fill:#A46824;}
	.st5{fill:#1E3E76;}
	.st6{fill:#1D3D76;}
	.st7{fill:#224179;}
	.st8{fill:#7EE0FE;}
	.st9{fill:#FE8900;}
	.st10{fill:#FE8800;}
	.st11{fill:#FE8801;}
	.st12{fill:#7DDFFD;}
	.st13{fill:#7EDFFD;}
	.st14{fill:#7EDFFC;}
	.st15{fill:#7DDEFB;}
	.st16{fill:#FD8801;}
	.st17{fill:#FC8801;}
	.st18{fill:#FC8701;}
	.st19{fill:#FA8702;}
	.st20{fill:#204078;}
	.st21{fill:#EFF4F4;}
	.st22{fill:#FF8B06;}
	.st23{fill:#FF8B05;}
	.st24{fill:#FE8D0D;}
</style>
<g>
	<g>
		<path class="st0" d="M-123,122.89c280.64,0,561.28,0,841.92,0c0,198.4,0,396.8,0,595.2c-280.64,0-561.28,0-841.92,0
			C-123,519.69-123,321.29-123,122.89z M213.61,268.47c-6.16,6.24-9.91,13.75-11.64,22.3c-0.34,1.7-0.53,3.48,0.33,5.15
			c-3.81,7.05-6.58,14.51-8.75,22.21c-2.24,7.96-3.25,16.12-3.6,24.32c-0.37,8.46,0.37,16.89,2.03,25.25
			c1.86,9.39,5.21,18.21,9.32,26.82c4.16,8.73,9.5,16.63,15.89,23.84c7.15,8.07,15.41,14.83,24.71,20.31c0.73,0.43,1.34,1.08,2,1.63
			c-0.28,0.14-0.6,0.24-0.84,0.43c-12.6,9.78-20.68,22.35-23.56,38.13c-0.27,1.48-0.62,2.95-0.93,4.42
			c-2.32,3.62-4.78,7.15-6.93,10.87c-2.6,4.51-4.62,9.29-5.78,14.4c-0.64,2.82-1.02,5.67-0.27,8.54c0.84,3.23,3.22,5.26,6.56,5.24
			c1.65-0.01,3.4-0.22,4.91-0.82c2.8-1.13,5.45-2.62,8.16-3.96c3.48,6.89,7.93,13.1,13.44,18.51c2.33,2.28,4.84,4.38,7.27,6.57
			c-0.59,1.56-1.33,3.08-1.75,4.69c-1.75,6.62-1.62,13.15,1.78,19.27c4.62,8.33,13.87,10.41,21.66,4.94
			c5.12-3.59,8.16-8.62,9.73-14.61c0.47,0.04,0.96,0.04,1.42,0.13c4.93,0.96,9.9,1.44,14.91,1.34c2.69-0.06,5.39-0.21,8.08-0.32
			c1.56,3.67,3.27,7.26,5.87,10.35c2.55,3.04,5.48,5.57,9.29,6.92c5.88,2.08,11.44,0.33,14.89-4.85c1.04-1.57,1.88-3.36,2.42-5.16
			c1.85-6.25,1.34-12.46-0.71-18.58c0.54-0.46,1.07-0.94,1.63-1.39c2.1-1.72,4.32-3.32,6.29-5.17
			c12.48-11.72,19.19-26.1,19.71-43.28c0.14-4.49-0.37-8.93-1.06-13.36c0.76-0.81,1.53-1.61,2.28-2.43
			c4.95-5.43,9.8-10.95,13.68-17.22c3.33-5.38,6.18-10.96,7.79-17.13c0.79-3.01,0.76-6.01,0.1-8.99c-0.69-3.08-2.58-5.14-5.75-5.67
			c-1.46-0.24-3.03-0.3-4.48-0.02c-5.18,0.98-9.84,3.31-14.05,6.38c-5.57,4.07-10.34,9.01-14.6,14.43
			c-1.88-1.88-3.76-3.76-5.64-5.64c2.22-1.25,4.41-2.55,6.65-3.75c3.87-2.07,7.99-3.74,11.6-6.18c8.43-5.68,16.35-12.03,23.01-19.8
			c20.62-24.1,29.91-51.84,26.77-83.56c-0.33-3.33-0.49-6.7-1.13-9.97c-2.42-12.43-7.4-23.88-13.75-34.78
			c-3.44-5.9-7.9-11.02-12.27-16.22c-9.61-11.43-21.89-19.21-34.99-25.9c-5.77-2.95-11.86-5.02-18.09-6.87
			c-6.42-1.91-12.97-2.74-19.55-3.08c-9.16-0.48-18.38-0.63-27.43,1.38c-4.81,1.06-9.56,2.4-14.34,3.6
			c-0.63,0.07-1.26,0.22-1.88,0.2c-7.88-0.21-15.2,1.7-21.97,5.73c-0.79,0.09-1.6,0.09-2.37,0.29c-1.85,0.47-3.43,0-4.96-1.06
			c-2.34-1.61-3.66-3.93-4.71-6.47c-0.49-1.17-0.99-2.36-1.65-3.43c-0.68-1.09-1.51-1.24-2.67-0.68c-0.42,0.21-0.79,0.53-1.18,0.8
			c-4.38,3.06-8.74,6.13-13.13,9.16c-0.96,0.66-1.76,1.34-1.76,2.3c1.88,2.53,3.54,4.86,5.31,7.11c2.02,2.58,2.01,5.2,0.53,8.01
			C214.71,265.49,214.21,267.01,213.61,268.47z"/>
		<path class="st1" d="M243.88,440.3c-0.66-0.55-1.27-1.2-2-1.63c-9.3-5.48-17.56-12.24-24.71-20.31
			c-6.38-7.2-11.72-15.11-15.89-23.84c-4.11-8.61-7.46-17.43-9.32-26.82c-1.65-8.35-2.4-16.78-2.03-25.25
			c0.35-8.2,1.36-16.36,3.6-24.32c2.17-7.71,4.94-15.16,8.75-22.21c1.07-0.1,1.88-0.59,1.64-1.75c-0.21-1.04,0.36-1.51,1.04-1.85
			c1.1-0.56,2.28-0.97,3.42-1.45c-0.29,0.57-0.56,1.14-0.88,1.69c-12.49,21.69-17.16,44.94-13.4,69.7
			c3.47,22.85,13.38,42.64,29.92,58.77c22.49,21.93,49.7,31.84,81.05,30.22c9.94-0.51,19.58-2.72,29-6
			c15.45-5.38,28.82-13.99,40.34-25.54c4.93-4.95,9.15-10.44,12.92-16.32c14.42-22.49,20.18-46.95,16.46-73.44
			c-3.19-22.72-12.97-42.34-29.01-58.73c-14.28-14.59-31.52-24.07-51.39-28.75c-11.14-2.62-22.42-3.26-33.82-2.22
			c-6.63,0.61-13.1,1.95-19.52,3.64c-1.26-0.38-2.52-0.75-3.76-1.17c-0.18-0.06-0.28-0.4-0.41-0.6c4.78-1.21,9.53-2.54,14.34-3.61
			c9.05-2,18.27-1.85,27.43-1.38c6.58,0.34,13.13,1.17,19.55,3.08c6.22,1.85,12.32,3.92,18.09,6.87
			c13.09,6.69,25.37,14.47,34.99,25.9c4.38,5.2,8.84,10.31,12.27,16.22c6.35,10.9,11.32,22.35,13.75,34.78
			c0.64,3.27,0.8,6.64,1.13,9.97c3.15,31.71-6.15,59.46-26.77,83.56c-6.65,7.77-14.58,14.12-23.01,19.8
			c-3.61,2.44-7.74,4.11-11.6,6.18c-2.24,1.2-4.44,2.49-6.65,3.75c-1.29,0.4-2.59,0.79-3.88,1.19c-3.81,0.85-7.61,1.7-11.42,2.55
			c-1.46,0.29-2.93,0.57-4.39,0.86c-5.09,0.68-10.18,1.36-15.27,2.04c-2.11,0.17-4.21,0.35-6.32,0.52c-1.9-0.13-3.8-0.27-5.7-0.39
			c-3.17-0.19-6.34-0.36-9.51-0.54c-0.84-0.16-1.67-0.33-2.51-0.49c-2.82-0.53-5.71-0.82-8.45-1.64c-4.74-1.4-9.38-3.13-14.07-4.72
			c-0.81-0.31-1.62-0.61-2.42-0.92c-2.88-1.28-5.77-2.56-8.65-3.85C245.85,441.34,244.86,440.82,243.88,440.3z"/>
		<path class="st2" d="M255.48,445.7c0.81,0.31,1.62,0.61,2.42,0.92c-0.44,0.34-0.91,0.64-1.31,1.02c-3.62,3.48-6.11,7.75-8.31,12.2
			c-2.8,5.67-4.71,11.67-6.14,17.82c-1.34,5.75-2.11,11.6-2.41,17.47c-0.43,8.3,0.06,16.57,1.84,24.72
			c1.62,7.38,4.02,14.43,8.53,20.62c1.76,2.42,3.88,4.4,6.54,5.84c6.07,3.28,12.42,5.82,19.1,7.54c0.47,0.12,0.98,0.07,1.82,0.12
			c-2.53-3.5-4-7.1-5.29-10.8c-2.95-8.5-4.21-17.35-4.65-26.25c-0.53-10.75-0.18-21.5,1.7-32.17c1.91-10.85,4.64-21.34,11.03-30.55
			c0.2-0.29,0.05-0.82,0.06-1.23c0.84,0.16,1.67,0.33,2.51,0.49c-0.15,0.44-0.19,0.99-0.47,1.32c-3.92,4.49-6.04,9.9-7.86,15.45
			c-3.02,9.2-4.65,18.71-5.09,28.34c-0.55,12.1-0.49,24.23,2.29,36.15c1.27,5.46,2.95,10.74,5.61,15.71
			c1.71,3.21,4.05,5.06,7.87,5.11c4.3,0.06,4.3,0.23,6.57-3.46c0.5-0.81,0.97-1.65,1.42-2.5c5.08-9.66,8.57-19.87,10.85-30.54
			c1.85-8.66,2.97-17.4,3.19-26.25c0.16-6.14-0.33-12.25-1.41-18.31c-1.16-6.48-2.98-12.72-6.81-18.21c-0.4-0.57-0.64-1.26-0.95-1.9
			c2.11-0.17,4.21-0.35,6.32-0.52c-1.49,0.24-2.97,0.48-4.28,0.7c1.21,2.08,2.54,3.99,3.49,6.08c3.04,6.67,4.45,13.8,4.98,21.04
			c0.35,4.9,0.62,9.81,0.27,14.78c-0.49,6.92-1.23,13.78-2.55,20.58c-2.41,12.44-6.34,24.35-12.64,35.41
			c-0.58,1.02-1.11,2.06-1.79,3.31c0.76,0.08,1.29,0.23,1.8,0.18c3.25-0.27,6.5-0.5,9.74-0.88c7.68-0.9,14.94-3.2,21.77-6.82
			c0.81-0.43,1.65-1.04,2.16-1.79c1.46-2.18,2.92-4.39,4.09-6.74c5.51-11.02,7.8-22.85,8.4-35.05c0.37-7.59-0.34-15.13-1.9-22.56
			c-1.79-8.49-4.58-16.6-10.06-23.53c-2.24-2.83-4.81-5.31-8.2-6.76c1.46-0.29,2.93-0.57,4.39-0.86c-0.25,0.19-0.5,0.37-0.73,0.54
			c2.19,2.21,4.47,4.13,6.26,6.42c3.77,4.83,6.26,10.37,8.14,16.18c2.79,8.64,3.56,17.61,3.98,26.61c0.08,1.66-0.21,3.33-0.36,5
			c-0.35,4.04-0.46,8.13-1.12,12.12c-1.36,8.22-3.74,16.15-7.66,23.56c-0.52,0.98-0.91,2.03-1.35,3.04
			c-0.06,0.09-0.13,0.17-0.19,0.26c0.08-0.07,0.17-0.13,0.25-0.2c0.65-0.29,1.37-0.46,1.93-0.88c5.98-4.45,11.36-9.53,15.49-15.78
			c5.4-8.18,8.61-17.11,9.57-26.94c0.56-5.63,0.26-11.16-0.84-16.6c-2.75-13.6-9.31-25.15-19.48-34.61
			c-0.65-0.6-1.63-0.85-2.46-1.27c1.29-0.4,2.59-0.79,3.88-1.19c1.88,1.88,3.76,3.76,5.64,5.64c0.64,0.77,1.29,1.53,1.93,2.3
			c0.21,0.42,0.37,0.88,0.65,1.25c5.4,7.1,9.23,14.96,11.53,23.57c0.31,1.18,0.61,2.36,0.92,3.54c0.69,4.43,1.2,8.87,1.06,13.36
			c-0.52,17.18-7.23,31.56-19.71,43.28c-1.98,1.85-4.19,3.45-6.29,5.17c-0.55,0.45-1.08,0.93-1.63,1.39
			c-1.09,0.67-2.18,1.34-3.27,2.01c-0.65,0.27-1.33,0.49-1.94,0.82c-5.89,3.18-12.08,5.55-18.63,6.96
			c-1.31,0.28-2.61,0.64-3.91,0.96c-1.33,0.19-2.67,0.38-4,0.57c-2.69,0.11-5.39,0.27-8.08,0.32c-5.02,0.1-9.99-0.38-14.91-1.34
			c-0.46-0.09-0.95-0.09-1.42-0.13c-1.16-0.28-2.33-0.56-3.49-0.84c-0.36-0.16-0.71-0.37-1.09-0.48
			c-7.99-2.13-15.43-5.5-22.34-10.04c-0.45-0.3-0.99-0.47-1.49-0.7c-1-0.75-2-1.49-3-2.24c-2.43-2.18-4.94-4.28-7.27-6.57
			c-5.51-5.41-9.96-11.61-13.44-18.5c-0.41-0.78-0.82-1.56-1.23-2.35c-0.79-2.25-1.6-4.5-2.35-6.77
			c-2.21-6.66-3.04-13.52-3.11-20.51c0.01-1.55,0.02-3.11,0.02-4.66c0.31-1.47,0.66-2.94,0.93-4.42
			c2.88-15.78,10.96-28.35,23.56-38.13c0.24-0.19,0.56-0.29,0.84-0.43c0.98,0.52,1.97,1.04,2.95,1.55c-0.58,0.19-1.26,0.26-1.73,0.6
			c-4.98,3.67-9.37,7.97-12.91,13.03c-9.03,12.88-12.65,27.11-10.35,42.78c1.34,9.08,4.59,17.41,9.67,24.99
			c2.43,3.62,5.23,7.04,8.16,10.28c1.95,2.16,4.42,3.84,6.65,5.73c0.18,0.14,0.35,0.28,0.53,0.43c0.08,0.07,0.17,0.13,0.25,0.2
			c-0.07-0.08-0.14-0.16-0.21-0.24c-0.13-0.19-0.27-0.37-0.4-0.56c-0.26-0.74-0.46-1.51-0.79-2.23c-0.66-1.45-1.47-2.84-2.08-4.32
			c-4-9.63-5.35-19.79-5.81-30.1c-0.21-4.71,0.34-9.38,0.82-14.06c0.8-7.9,2.56-15.55,5.3-22.99c1.97-5.34,4.45-10.42,7.93-14.96
			C253.08,448.86,254.28,447.28,255.48,445.7z"/>
		<path class="st3" d="M213.61,268.47c0.61-1.46,1.11-2.98,1.84-4.38c1.49-2.82,1.49-5.43-0.53-8.01c-1.76-2.25-3.43-4.58-5.31-7.11
			c0-0.96,0.8-1.64,1.76-2.3c4.39-3.03,8.76-6.1,13.13-9.16c0.39-0.27,0.76-0.6,1.18-0.8c1.16-0.56,1.99-0.41,2.67,0.68
			c0.67,1.07,1.16,2.26,1.65,3.43c1.06,2.54,2.37,4.85,4.71,6.47c1.53,1.06,3.11,1.53,4.96,1.06c0.76-0.2,1.58-0.2,2.37-0.29
			c0.53,0.37,1.07,0.73,1.6,1.1c0.04,1.24-0.56,2.12-1.55,2.78c-0.66,0.78-1.31,1.56-1.97,2.35c-2.4,2.09-4.81,4.17-7.21,6.26
			c-0.31,0.29-0.63,0.58-0.94,0.87c-3.02,1.8-6.03,3.61-9.05,5.41c-0.5,0.28-1,0.56-1.49,0.84c-1.9,0.68-3.8,1.36-5.7,2.04
			C214.8,269.71,213.99,269.46,213.61,268.47z"/>
		<path class="st4" d="M221.45,267.67c0.5-0.28,1-0.56,1.49-0.84c-0.53,5.62,1.41,10.38,4.54,14.21c1.24-0.96,2.33-1.89,3.52-2.69
			c3.2-2.15,6.63-3.79,10.5-4.4c1.28-0.2,2.55-0.47,4.14-0.76c-1.12-1.39-1.97-2.54-2.91-3.59c-3.06-3.41-6.58-6.21-10.74-8.18
			c0.31-0.29,0.63-0.58,0.94-0.87c0.75,0.23,1.59,0.31,2.23,0.71c3.68,2.27,6.96,5.02,9.75,8.35c0.28,0.33,0.62,0.62,0.94,0.93
			c0.7-1.73,1.12-3.45,2.02-4.87c2.48-3.91,6.34-5.88,10.69-7.02c0.63-0.17,1.26-0.35,1.89-0.52c-5.63-3.05-11.51-4.41-17.73-4.21
			c-0.86,0.03-1.72,0.24-2.58,0.37c0.66-0.78,1.31-1.56,1.97-2.35c0.51,0.15,1.01,0.44,1.52,0.43c6.34-0.12,12.29,1.45,18.02,4.04
			c0.25,0.11,0.57,0.06,1.05,0.1c-0.4-4.95,1.3-8.83,5.57-11.65c-3.54-0.74-6.81-0.81-10.14-0.36c-5.12,0.68-9.9,2.33-14.47,4.65
			c-0.53-0.37-1.07-0.73-1.6-1.1c6.77-4.03,14.09-5.94,21.97-5.73c0.63,0.02,1.26-0.13,1.88-0.2c0.13,0.21,0.23,0.54,0.41,0.61
			c1.24,0.42,2.51,0.79,3.76,1.17c0,0.77,0,1.54,0,2.22c-4.65,2.08-6.6,6.07-5.44,10.78c0.43,1.74-0.12,2.65-1.85,2.7
			c-3.04,0.07-5.77,1.1-8.43,2.41c-5.13,2.52-7.15,6.44-6.28,12.12c0.08,0.5-0.04,1.03-0.06,1.43c-2.09-0.07-4.04-0.48-5.84-0.12
			c-2.95,0.58-5.9,1.41-8.66,2.57c-2.47,1.04-4.01,3.08-3.85,6.04c0.11,1.98-0.52,2.27-2.44,1.68c-1.88-0.59-3.82-1.01-5.77-1.35
			c-1.84-0.32-3.49,0.45-4.88,1.54c-0.62,0.48-1.15,1.39-1.25,2.17c-0.3,2.2-0.32,2.32-2.53,2.08c-1.54-0.17-3.03-0.11-4.4,0.7
			c-1.15,0.48-2.32,0.89-3.42,1.45c-0.68,0.35-1.25,0.81-1.04,1.85c0.24,1.17-0.57,1.66-1.64,1.75c-0.85-1.67-0.67-3.45-0.33-5.15
			c1.73-8.54,5.49-16.05,11.64-22.3c0.38,0.99,1.19,1.24,2.14,1.24c-0.38,1.3-0.72,2.61-1.14,3.89c-1.39,4.19-1.6,8.48-1.23,13.28
			c1.7-2.45,3.73-3.36,6.18-3.92c2.41-0.54,4.65,0.37,7.22,0.35c-0.41-0.76-0.64-1.35-1-1.85
			C222.76,277.36,220.98,272.87,221.45,267.67z M213.41,271.83c-0.47,0.17-0.66,0.18-0.74,0.28c-4.14,4.96-6.82,10.68-8.71,16.79
			c-0.16,0.52-0.09,1.11-0.13,1.67c2.82-0.89,5.36-1.7,8.16-2.59C210.81,282.54,211.96,277.25,213.41,271.83z"/>
		<path class="st5" d="M360.08,483.54c-0.31-1.18-0.61-2.36-0.92-3.54c0.59-0.52,1.26-0.96,1.75-1.56c2.44-2.95,4.92-5.88,7.24-8.93
			c5.54-7.28,10.23-15.06,12.85-23.9c0.53-1.8,0.78-3.79,0.64-5.65c-0.27-3.83-2.44-5.45-5.7-5.41c-1.49,0.02-3.04,0.26-4.44,0.76
			c-5.94,2.12-11.24,5.46-15.79,9.75c-3.23,3.04-5.85,6.73-8.74,10.13c-0.64-0.77-1.29-1.53-1.93-2.3
			c4.26-5.42,9.03-10.37,14.6-14.43c4.21-3.08,8.87-5.4,14.05-6.38c1.44-0.27,3.02-0.22,4.48,0.02c3.18,0.53,5.07,2.59,5.75,5.67
			c0.66,2.98,0.69,5.98-0.1,8.99c-1.61,6.17-4.46,11.75-7.79,17.13c-3.89,6.27-8.73,11.79-13.68,17.22
			C361.61,481.93,360.84,482.73,360.08,483.54z"/>
		<path class="st5" d="M273.86,556.08c1.16,0.28,2.33,0.56,3.49,0.84c-1.57,5.98-4.62,11.01-9.73,14.61
			c-7.79,5.47-17.04,3.39-21.66-4.94c-3.39-6.12-3.53-12.64-1.78-19.27c0.42-1.6,1.16-3.13,1.75-4.69c1,0.75,2,1.49,3,2.24
			c-0.43,1.11-0.92,2.21-1.28,3.34c-1.77,5.63-1.7,11.15,1.29,16.39c2.61,4.58,7.31,6.8,12.06,5.78c2.95-0.63,5.48-2.08,7.55-4.3
			C271.22,563.22,272.99,559.89,273.86,556.08z"/>
		<path class="st6" d="M301.76,558.07c1.33-0.19,2.67-0.38,4-0.57c1.31,3.38,3.13,6.46,5.36,9.3c1.56,2,3.59,3.41,5.85,4.46
			c4.4,2.05,8.28,1.2,11.38-2.53c2.94-3.55,3.48-7.83,3.2-12.2c-0.16-2.61-0.85-5.18-1.31-7.77c1.09-0.67,2.18-1.34,3.27-2.01
			c2.05,6.12,2.56,12.33,0.71,18.58c-0.54,1.81-1.38,3.59-2.42,5.16c-3.44,5.18-9.01,6.93-14.89,4.85
			c-3.81-1.35-6.74-3.88-9.29-6.92C305.04,565.33,303.33,561.74,301.76,558.07z"/>
		<path class="st7" d="M223.99,515.21c0.41,0.78,0.82,1.56,1.23,2.35c-2.71,1.34-5.37,2.83-8.16,3.96
			c-1.51,0.61-3.27,0.82-4.91,0.82c-3.35,0.01-5.72-2.01-6.56-5.24c-0.75-2.87-0.37-5.72,0.27-8.54c1.15-5.11,3.18-9.89,5.78-14.4
			c2.14-3.72,4.61-7.26,6.93-10.87c-0.01,1.55-0.02,3.11-0.02,4.66c-0.9,1.39-1.87,2.75-2.7,4.19c-3.39,5.87-6.37,11.94-7.97,18.57
			c-0.65,2.69-0.75,5.61,1.31,7.65c2.25,2.24,5.16,1.48,7.88,0.55c0.3-0.1,0.59-0.24,0.87-0.39
			C219.94,517.41,221.97,516.31,223.99,515.21z"/>
		<path class="st8" d="M208.39,290.86c1.38-0.81,2.87-0.87,4.4-0.7c2.21,0.24,2.23,0.12,2.53-2.08c0.11-0.78,0.63-1.69,1.25-2.17
			c1.4-1.09,3.04-1.86,4.88-1.54c1.94,0.34,3.88,0.76,5.77,1.35c1.92,0.6,2.54,0.3,2.44-1.68c-0.16-2.97,1.38-5,3.85-6.04
			c2.76-1.17,5.71-2,8.66-2.57c1.8-0.35,3.75,0.05,5.84,0.12c0.02-0.41,0.14-0.94,0.06-1.43c-0.87-5.68,1.15-9.6,6.28-12.12
			c2.67-1.31,5.39-2.34,8.43-2.41c1.73-0.04,2.28-0.95,1.85-2.7c-1.16-4.71,0.79-8.71,5.44-10.78c0-0.68,0-1.45,0-2.22
			c6.42-1.69,12.89-3.03,19.52-3.64c11.4-1.04,22.68-0.4,33.82,2.22c19.87,4.67,37.11,14.15,51.39,28.75
			c16.04,16.39,25.82,36.01,29.01,58.73c3.72,26.49-2.04,50.95-16.46,73.44c-3.77,5.88-7.99,11.37-12.92,16.32
			c-11.51,11.56-24.88,20.16-40.34,25.54c-9.42,3.28-19.06,5.49-29,6c-31.35,1.62-58.56-8.29-81.05-30.22
			c-16.55-16.13-26.46-35.93-29.92-58.77c-3.76-24.76,0.92-48.01,13.4-69.7C207.83,292.01,208.1,291.43,208.39,290.86z
			 M225.12,348.34c0,14.15,0,28.29,0,42.44c0,3.61,0.04,3.86,3.5,4.99c4.24,1.39,8.51,2.78,12.86,3.71
			c15.44,3.32,31.08,4.88,46.88,4.79c6.31-0.04,12.62-0.07,18.92-0.34c6.61-0.28,13.22-0.65,19.8-1.32
			c6.02-0.61,12.05-1.45,17.99-2.61c6.56-1.28,13.06-2.95,19.53-4.65c2.89-0.76,3.28-1.54,3.3-4.47c0.03-4.47,0.01-8.95,0.01-13.42
			c0-22.78,0-45.56,0-68.34c0-1.2-0.01-2.4-0.08-3.59c-0.15-2.39-0.68-2.7-2.99-2.33c-5.83,0.92-11.65,1.9-17.51,2.56
			c-5.62,0.64-11.29,0.99-16.94,1.33c-6.69,0.4-13.38,0.79-20.08,0.92c-7.82,0.15-15.65,0.16-23.47-0.03
			c-6.86-0.17-13.71-0.62-20.56-1.08c-7.57-0.51-15.14-1.07-22.69-1.79c-4.92-0.47-9.87-0.81-14.68-2.16
			c-3.59-1.01-3.8-0.78-3.8,2.96C225.12,320.04,225.12,334.19,225.12,348.34z"/>
		<path class="st9" d="M298.14,454.4c0.31,0.64,0.55,1.33,0.95,1.9c3.83,5.49,5.65,11.74,6.81,18.21
			c1.08,6.05,1.57,12.16,1.41,18.31c-0.23,8.85-1.34,17.58-3.19,26.25c-2.28,10.67-5.77,20.88-10.85,30.54
			c-0.44,0.85-0.91,1.68-1.42,2.5c-2.27,3.69-2.27,3.52-6.57,3.46c-3.82-0.06-6.16-1.9-7.87-5.11c-2.66-4.97-4.34-10.25-5.61-15.71
			c-2.77-11.93-2.84-24.05-2.29-36.15c0.44-9.63,2.07-19.14,5.09-28.34c1.82-5.55,3.94-10.96,7.86-15.45
			c0.29-0.33,0.32-0.87,0.47-1.32c3.17,0.18,6.34,0.35,9.51,0.54C294.34,454.13,296.24,454.27,298.14,454.4z"/>
		<path class="st9" d="M319.72,451.84c3.39,1.45,5.96,3.93,8.2,6.76c5.48,6.92,8.27,15.04,10.06,23.53
			c1.57,7.43,2.28,14.97,1.9,22.56c-0.6,12.2-2.89,24.03-8.4,35.05c-1.17,2.34-2.63,4.56-4.09,6.74c-0.5,0.75-1.34,1.36-2.16,1.79
			c-6.83,3.62-14.09,5.91-21.77,6.82c-3.24,0.38-6.49,0.62-9.74,0.88c-0.51,0.04-1.04-0.1-1.8-0.18c0.68-1.25,1.21-2.29,1.79-3.31
			c6.3-11.06,10.23-22.97,12.64-35.41c1.32-6.8,2.06-13.66,2.55-20.58c0.35-4.98,0.09-9.88-0.27-14.78
			c-0.52-7.24-1.94-14.37-4.98-21.04c-0.95-2.08-2.28-3.99-3.49-6.08c1.3-0.21,2.79-0.46,4.28-0.7
			C309.54,453.2,314.63,452.52,319.72,451.84z"/>
		<path class="st10" d="M280.42,452.97c-0.01,0.42,0.14,0.94-0.06,1.23c-6.39,9.21-9.12,19.7-11.03,30.55
			c-1.88,10.67-2.23,21.42-1.7,32.17c0.44,8.9,1.7,17.74,4.65,26.25c1.28,3.7,2.76,7.3,5.29,10.8c-0.84-0.05-1.35,0-1.82-0.12
			c-6.68-1.72-13.03-4.26-19.1-7.54c-2.66-1.44-4.78-3.43-6.54-5.84c-4.51-6.19-6.91-13.24-8.53-20.62
			c-1.79-8.15-2.27-16.42-1.84-24.72c0.3-5.87,1.07-11.72,2.41-17.47c1.44-6.15,3.34-12.14,6.14-17.82c2.2-4.45,4.69-8.71,8.31-12.2
			c0.4-0.38,0.87-0.68,1.31-1.02c4.68,1.59,9.33,3.31,14.07,4.72C274.71,452.15,277.6,452.45,280.42,452.97z"/>
		<path class="st11" d="M331.27,544.44c0.45-1.02,0.84-2.06,1.35-3.04c3.92-7.41,6.3-15.34,7.66-23.56
			c0.66-3.99,0.77-8.08,1.12-12.12c0.14-1.66,0.43-3.34,0.36-5c-0.41-9-1.18-17.96-3.98-26.61c-1.88-5.81-4.36-11.35-8.14-16.18
			c-1.79-2.29-4.08-4.21-6.26-6.42c0.22-0.17,0.48-0.35,0.73-0.54c3.81-0.85,7.61-1.7,11.42-2.55c0.83,0.41,1.81,0.66,2.46,1.27
			c10.18,9.45,16.74,21.01,19.48,34.61c1.1,5.45,1.39,10.97,0.84,16.6c-0.97,9.83-4.17,18.76-9.57,26.94
			c-4.13,6.26-9.51,11.33-15.49,15.78c-0.55,0.41-1.28,0.59-1.93,0.88L331.27,544.44z"/>
		<path class="st11" d="M246.32,539.27c-2.24-1.89-4.71-3.58-6.65-5.73c-2.93-3.24-5.72-6.66-8.16-10.28
			c-5.08-7.57-8.33-15.91-9.67-24.99c-2.31-15.67,1.32-29.9,10.35-42.78c3.54-5.05,7.93-9.36,12.91-13.03
			c0.47-0.35,1.15-0.41,1.73-0.6c2.88,1.28,5.77,2.56,8.65,3.85c-1.2,1.58-2.4,3.16-3.61,4.74c-3.48,4.54-5.97,9.62-7.93,14.96
			c-2.74,7.44-4.5,15.09-5.3,22.99c-0.48,4.68-1.03,9.36-0.82,14.06c0.45,10.31,1.8,20.47,5.81,30.1c0.61,1.47,1.42,2.86,2.08,4.32
			c0.33,0.71,0.53,1.48,0.79,2.23L246.32,539.27z"/>
		<path class="st12" d="M346.98,455.18c2.89-3.4,5.51-7.09,8.74-10.13c4.55-4.29,9.85-7.62,15.79-9.75c1.4-0.5,2.95-0.74,4.44-0.76
			c3.26-0.04,5.43,1.58,5.7,5.41c0.13,1.86-0.11,3.85-0.64,5.65c-2.62,8.85-7.31,16.62-12.85,23.9c-2.32,3.05-4.8,5.98-7.24,8.93
			c-0.49,0.6-1.16,1.04-1.75,1.56c-2.3-8.61-6.13-16.47-11.53-23.57C347.35,456.06,347.19,455.6,346.98,455.18z"/>
		<path class="st13" d="M273.86,556.08c-0.87,3.81-2.64,7.14-5.31,10c-2.07,2.22-4.6,3.66-7.55,4.3c-4.75,1.02-9.45-1.2-12.06-5.78
			c-2.98-5.24-3.06-10.76-1.29-16.39c0.36-1.14,0.85-2.23,1.28-3.34c0.5,0.23,1.04,0.4,1.49,0.7c6.91,4.54,14.35,7.9,22.34,10.04
			C273.15,555.7,273.5,555.92,273.86,556.08z"/>
		<path class="st14" d="M330.25,548.75c0.45,2.59,1.14,5.17,1.31,7.77c0.28,4.37-0.26,8.65-3.2,12.2c-3.1,3.74-6.98,4.58-11.38,2.53
			c-2.27-1.05-4.29-2.47-5.85-4.46c-2.23-2.85-4.05-5.93-5.36-9.3c1.3-0.32,2.6-0.68,3.91-0.96c6.55-1.41,12.74-3.78,18.63-6.96
			C328.92,549.25,329.6,549.03,330.25,548.75z"/>
		<path class="st15" d="M223.99,515.21c-2.02,1.1-4.05,2.2-6.08,3.29c-0.28,0.15-0.57,0.28-0.87,0.39
			c-2.71,0.94-5.63,1.69-7.88-0.55c-2.05-2.05-1.96-4.96-1.31-7.65c1.6-6.63,4.58-12.69,7.97-18.57c0.83-1.44,1.79-2.79,2.7-4.19
			c0.08,6.98,0.91,13.85,3.11,20.51C222.39,510.71,223.21,512.96,223.99,515.21z"/>
		<path class="st11" d="M246.49,539.1c0.13,0.19,0.27,0.37,0.4,0.56l-0.04,0.04c-0.18-0.14-0.35-0.28-0.53-0.43
			C246.32,539.27,246.49,539.1,246.49,539.1z"/>
		<path class="st11" d="M246.89,539.65c0.07,0.08,0.14,0.16,0.21,0.24c-0.08-0.07-0.17-0.13-0.25-0.2
			C246.85,539.69,246.89,539.65,246.89,539.65z"/>
		<path class="st11" d="M331.33,544.5c-0.08,0.07-0.17,0.13-0.25,0.2c0.06-0.09,0.13-0.17,0.19-0.26
			C331.27,544.44,331.33,544.5,331.33,544.5z"/>
		<path class="st16" d="M231.99,261.41c4.16,1.97,7.68,4.77,10.74,8.18c0.95,1.05,1.79,2.2,2.91,3.59
			c-1.59,0.29-2.86,0.56-4.14,0.76c-3.86,0.61-7.29,2.25-10.5,4.4c-1.19,0.8-2.28,1.73-3.52,2.69c-3.13-3.83-5.07-8.59-4.54-14.21
			C225.96,265.02,228.97,263.22,231.99,261.41z"/>
		<path class="st17" d="M240.14,254.28c0.86-0.13,1.72-0.34,2.58-0.37c6.22-0.2,12.1,1.16,17.73,4.21
			c-0.63,0.17-1.26,0.35-1.89,0.52c-4.36,1.14-8.22,3.11-10.69,7.02c-0.9,1.42-1.32,3.14-2.02,4.87c-0.32-0.31-0.66-0.6-0.94-0.93
			c-2.79-3.33-6.07-6.08-9.75-8.35c-0.64-0.4-1.48-0.48-2.23-0.71C235.33,258.45,237.74,256.36,240.14,254.28z"/>
		<path class="st16" d="M243.65,249.15c4.58-2.33,9.35-3.97,14.47-4.65c3.33-0.44,6.6-0.38,10.14,0.36
			c-4.27,2.82-5.97,6.7-5.57,11.65c-0.48-0.04-0.8,0.01-1.05-0.1c-5.73-2.59-11.68-4.15-18.02-4.04c-0.5,0.01-1.01-0.28-1.52-0.43
			C243.09,251.27,243.7,250.39,243.65,249.15z"/>
		<path class="st18" d="M221.45,267.67c-0.47,5.2,1.31,9.69,4.33,13.8c0.36,0.49,0.59,1.08,1,1.85c-2.57,0.02-4.8-0.9-7.22-0.35
			c-2.45,0.55-4.48,1.47-6.18,3.92c-0.37-4.81-0.16-9.09,1.23-13.28c0.42-1.28,0.76-2.59,1.14-3.89
			C217.65,269.03,219.55,268.35,221.45,267.67z"/>
		<path class="st19" d="M213.41,271.83c-1.45,5.41-2.6,10.71-1.42,16.15c-2.8,0.89-5.34,1.69-8.16,2.59
			c0.04-0.56-0.03-1.15,0.13-1.67c1.9-6.12,4.57-11.84,8.71-16.79C212.75,272.01,212.94,272,213.41,271.83z"/>
		<path class="st20" d="M225.12,348.34c0-14.15,0-28.29,0-42.44c0-3.74,0.2-3.97,3.8-2.96c4.81,1.36,9.76,1.69,14.68,2.16
			c7.55,0.72,15.12,1.28,22.69,1.79c6.85,0.46,13.7,0.92,20.56,1.08c7.82,0.19,15.65,0.18,23.47,0.03
			c6.7-0.13,13.39-0.52,20.08-0.92c5.65-0.34,11.31-0.69,16.94-1.33c5.86-0.66,11.68-1.64,17.51-2.56c2.32-0.36,2.84-0.06,2.99,2.33
			c0.08,1.2,0.08,2.4,0.08,3.59c0,22.78,0,45.56,0,68.34c0,4.47,0.02,8.95-0.01,13.42c-0.02,2.92-0.41,3.71-3.3,4.47
			c-6.47,1.7-12.97,3.36-19.53,4.65c-5.94,1.16-11.97,2-17.99,2.61c-6.58,0.67-13.19,1.04-19.8,1.32c-6.3,0.27-12.61,0.3-18.92,0.34
			c-15.8,0.09-31.44-1.47-46.88-4.79c-4.35-0.93-8.62-2.32-12.86-3.71c-3.46-1.14-3.5-1.38-3.5-4.99
			C225.12,376.63,225.12,362.49,225.12,348.34z M365.79,305.87c-1.18,0.23-2.25,0.48-3.33,0.65c-9.86,1.52-19.77,2.6-29.71,3.25
			c-7.17,0.46-14.36,0.6-21.54,0.68c-14.21,0.16-28.43,0.08-42.62-0.92c-7.41-0.52-14.82-0.94-22.22-1.59
			c-5.17-0.45-10.31-1.19-15.46-1.83c-1.18-0.15-2.34-0.42-3.66-0.66c0,29.24,0,58.29,0,87.48c3.63,1.76,7.46,2.91,11.33,3.78
			c5.68,1.27,11.43,2.23,17.17,3.19c3.69,0.62,7.42,1.14,11.15,1.43c5.25,0.41,10.52,0.73,15.79,0.78
			c9.34,0.1,18.69,0.24,28.01-0.14c8.36-0.34,16.71-1.13,25.02-2.17c8.95-1.12,17.72-3.24,26.41-5.69c1.21-0.34,2.41-0.75,3.67-1.14
			C365.79,363.89,365.79,334.99,365.79,305.87z"/>
		<path class="st21" d="M365.79,305.87c0,29.12,0,58.03,0,87.09c-1.26,0.39-2.45,0.8-3.67,1.14c-8.68,2.45-17.46,4.57-26.41,5.69
			c-8.3,1.04-16.66,1.83-25.02,2.17c-9.32,0.38-18.68,0.24-28.01,0.14c-5.27-0.06-10.54-0.38-15.79-0.78
			c-3.73-0.29-7.46-0.81-11.15-1.43c-5.74-0.96-11.49-1.92-17.17-3.19c-3.87-0.86-7.7-2.02-11.33-3.78c0-29.19,0-58.24,0-87.48
			c1.32,0.24,2.48,0.51,3.66,0.66c5.15,0.64,10.29,1.38,15.46,1.83c7.4,0.65,14.81,1.07,22.22,1.59c14.19,1,28.4,1.08,42.62,0.92
			c7.18-0.08,14.38-0.22,21.54-0.68c9.94-0.65,19.86-1.73,29.71-3.25C363.54,306.35,364.61,306.1,365.79,305.87z M330.75,339.66
			c-0.2-1.34-0.46-3.8-0.96-6.21c-0.22-1.05-0.81-2.1-1.47-2.96c-0.88-1.17-2.05-1.23-3.11-0.24c-0.68,0.64-1.33,1.43-1.69,2.28
			c-2.88,6.83-3.47,13.87-1.66,21.08c0.19,0.76,0.57,1.51,1.02,2.14c1.12,1.58,2.57,1.75,3.77,0.26c0.97-1.22,1.73-2.68,2.28-4.15
			C330.27,348.31,330.56,344.55,330.75,339.66z M273.22,340.46c0-1.12,0.17-2.27-0.04-3.35c-0.39-2.02-0.75-4.11-1.58-5.97
			c-1.03-2.32-2.96-2.44-4.44-0.38c-0.87,1.21-1.55,2.63-2,4.05c-1.58,4.94-1.93,10.03-1.34,15.15c0.2,1.79,0.77,3.61,1.56,5.23
			c1.01,2.04,2.83,2.17,4.17,0.34c0.97-1.33,1.71-2.89,2.24-4.45C272.94,347.65,273.37,344.08,273.22,340.46z M306.27,373.81
			c0.05,6.76-6.16,11.57-12.26,9.52c-3.61-1.21-5.75-4.33-5.94-8.67c-0.08-1.69-0.58-2.42-1.65-2.39c-1.05,0.03-1.61,0.86-1.61,2.5
			c0,2.45,0.61,4.74,1.96,6.81c2.65,4.06,7.4,6.17,11.97,5.33c5.3-0.97,9.44-4.82,10.45-9.93c0.29-1.46,0.25-3.01,0.19-4.51
			c-0.03-0.89-0.71-1.45-1.63-1.41c-0.93,0.04-1.42,0.65-1.48,1.57C306.25,373.01,306.27,373.41,306.27,373.81z"/>
		<path class="st22" d="M330.75,339.66c-0.19,4.89-0.47,8.65-1.81,12.2c-0.55,1.47-1.31,2.93-2.28,4.15
			c-1.19,1.5-2.65,1.32-3.77-0.26c-0.45-0.64-0.84-1.39-1.02-2.14c-1.81-7.21-1.22-14.25,1.66-21.08c0.36-0.85,1-1.64,1.69-2.28
			c1.06-0.99,2.23-0.92,3.11,0.24c0.66,0.87,1.25,1.91,1.47,2.96C330.29,335.86,330.55,338.32,330.75,339.66z"/>
		<path class="st23" d="M273.22,340.46c0.15,3.62-0.28,7.19-1.43,10.62c-0.53,1.56-1.27,3.13-2.24,4.45
			c-1.34,1.83-3.16,1.69-4.17-0.34c-0.8-1.61-1.36-3.44-1.56-5.23c-0.58-5.12-0.24-10.22,1.34-15.15c0.46-1.42,1.13-2.84,2-4.05
			c1.49-2.05,3.41-1.93,4.44,0.38c0.83,1.86,1.19,3.95,1.58,5.97C273.39,338.19,273.22,339.34,273.22,340.46z"/>
		<path class="st24" d="M306.27,373.81c0-0.4-0.02-0.8,0-1.19c0.06-0.92,0.56-1.53,1.48-1.57c0.92-0.04,1.6,0.52,1.63,1.41
			c0.05,1.5,0.1,3.05-0.19,4.51c-1.02,5.11-5.16,8.96-10.45,9.93c-4.58,0.83-9.32-1.27-11.97-5.33c-1.35-2.06-1.96-4.36-1.96-6.81
			c0-1.64,0.57-2.46,1.61-2.5c1.07-0.03,1.58,0.7,1.65,2.39c0.2,4.34,2.33,7.46,5.94,8.67C300.1,385.37,306.32,380.57,306.27,373.81
			z"/>
	</g>
</g>
</svg>
