<?xml version="1.0" encoding="utf-8"?>
<!-- Generator: Adobe Illustrator 25.0.1, SVG Export Plug-In . SVG Version: 6.00 Build 0)  -->
<!--ORIGINAL VALUE: viewBox="0 0 595.28 841.89"-->
<svg version="1.1" id="Layer_1" xmlns="http://www.w3.org/2000/svg" xmlns:xlink="http://www.w3.org/1999/xlink" x="0px" y="0px"
	 viewBox="150 200 250 400" style="enable-background:new 0 0 595.28 841.89;" xml:space="preserve">
<style type="text/css">
	.st0{clip-path:url(#SVGID_2_);}
	.st1{fill:#FFFFFF;}
	.st2{fill:#020101;}
	.st3{fill:#020202;}
	.st4{fill:#1E3E76;}
	.st5{fill:#1E3E77;}
	.st6{fill:#425787;}
	.st7{fill:#D3261E;}
	.st8{fill:#536792;}
	.st9{fill:#556792;}
	.st10{fill:#7EE0FE;}
	.st11{fill:#F6F5EF;}
	.st12{fill:#802319;}
	.st13{fill:#214078;}
	.st14{fill:#050404;}
	.st15{fill:#070707;}
	.st16{fill:#DB271F;}
	.st17{fill:#DA271F;}
	.st18{fill:#EFF4F4;}
	.st19{fill:#FF8B06;}
	.st20{fill:#FE8D0F;}
</style>
<g>
	<defs>
		<rect id="SVGID_1_" x="-103.32" y="134.89" width="801.92" height="595.2"/>
	</defs>
	<clipPath id="SVGID_2_">
		<use xlink:href="#SVGID_1_"  style="overflow:visible;"/>
	</clipPath>
	<g class="st0">
		<g>
			<path class="st1" d="M-127.32,730.09c0-198.4,0-396.8,0-595.2c267.31,0,534.61,0,801.92,0c0,198.4,0,396.8,0,595.2
				C407.29,730.09,139.98,730.09-127.32,730.09z M365.3,466.99c0-0.32,0.01-0.63,0.01-0.95c0.22-3.94-0.46-7.75-2.07-11.33
				c-2.66-5.92-7.21-9.5-13.71-10.31c-3.05-0.38-5.97,0.22-8.92,1.28c-4.93,1.77-9.07,4.63-12.65,8.3c-1.95,2-3.62,4.29-5.26,6.56
				c-1.26,1.74-2.29,3.65-3.36,5.39c-1.95-2.28-3.86-4.5-5.78-6.73c0.02-0.17,0.04-0.35,0.05-0.52c0.27-0.14,0.53-0.29,0.8-0.43
				c3.85-1.97,7.71-3.91,11.54-5.91c1.34-0.7,2.67-1.46,3.87-2.37c3.46-2.6,6.89-5.25,10.25-7.98c2.18-1.77,4.32-3.61,6.29-5.61
				c6.42-6.53,11.99-13.72,16.65-21.62c4.11-6.97,7.48-14.28,9.95-21.97c4.61-14.35,6.64-29.02,5.17-44.1
				c-0.3-3.1-0.4-6.22-0.78-9.31c-1.04-8.35-3.59-16.3-6.83-24.02c-3.47-8.28-7.47-16.3-13.07-23.41c-1.46-1.85-2.85-3.75-4.4-5.52
				c-3-3.43-5.84-7.06-9.2-10.1c-5.23-4.74-11-8.84-17.09-12.45c-3.32-1.97-6.79-3.7-10.17-5.58c-6.16-3.42-12.82-5.62-19.61-7.11
				c-9.46-2.07-19.14-2.26-28.81-1.89c-1.89,0.07-3.78,0.22-5.67,0.33c0.14-3.44-1.97-5.76-4.1-8.01c-0.46-0.48-1.38-0.8-2.05-0.75
				c-1.17,0.09-2.43,0.31-3.44,0.86c-4.43,2.43-8.78,4.99-13.16,7.51c-0.76-1.18-1.52-2.37-2.29-3.55
				c-0.82-1.71-1.64-3.43-2.47-5.13c-3.58-7.29-7.16-14.59-10.75-21.88c-0.8-1.64-1.6-3.28-2.42-4.9c-1.45-2.86-3.06-3.56-6.12-2.64
				c-1.16,0.35-2.35,0.68-3.43,1.21c-5.45,2.67-10.9,5.32-16.28,8.12c-6.55,3.4-12.73,7.4-18.65,11.81
				c-1.76,1.31-2.12,2.43-1.33,4.55c0.48,1.28,1.06,2.52,1.64,3.76c4.11,8.73,8.23,17.45,12.37,26.17c0.52,1.09,1.1,2.15,1.66,3.22
				c0.45,1.34,0.89,2.69,1.34,4.03c-1.59,0.69-3.22,1.29-4.76,2.08c-2.15,1.09-4.29,2.21-6.33,3.5c-2.24,1.42-2.94,3.38-2.11,5.83
				c0.72,2.14,1.6,4.24,2.54,6.3c0.88,1.92,2.65,2.75,4.67,2.13c1.57-0.48,3.05-1.28,4.57-1.94c0.13,0.21,0.41,0.5,0.35,0.61
				c-0.28,0.53-0.63,1.04-0.99,1.52c-5.09,6.71-8.83,14.15-12.01,21.9c-3.03,7.39-5.3,15.01-6.54,22.9
				c-1.31,8.26-1.93,16.55-1.56,24.96c0.41,9.4,2.09,18.54,4.63,27.55c1.47,5.21,3.86,10.05,5.97,15
				c3.17,7.46,7.41,14.27,12.37,20.63c2.43,3.11,5.01,6.12,7.75,8.96c3.89,4.05,8.17,7.71,12.76,10.95c3.89,2.75,7.95,5.26,12,7.92
				c-0.14,0.24-0.29,0.5-0.44,0.75c-3.5,2.44-5.37,6.19-7.71,9.88c-2.56-5.87-5.81-10.96-10.26-15.22
				c-4.49-4.3-9.53-7.55-15.87-8.26c-6.94-0.78-12.39,1.83-16.21,7.6c-2.49,3.75-3.63,8.05-3.83,12.51
				c-0.49,11.09,2.92,20.98,9.71,29.69c1.76,2.26,3.87,4.29,5.98,6.23c3.24,2.98,7.12,4.94,11.36,5.99
				c2.17,0.54,4.49,0.52,6.65,0.75c0.58,16.92,6.45,31.87,16.89,45.25c-1.12,1.92-2.51,3.93-3.53,6.11c-2.82,6-3.77,12.33-2.83,18.9
				c1.13,7.92,4.22,14.67,11.24,19.21c4.24,2.74,11.64,2.93,15.89,0.3c5.86-3.64,9.49-8.88,11.35-15.4
				c0.68-2.39,1.09-4.85,1.66-7.47c6.47,1.67,13.11,2.01,19.89,1.61c0.13,0.59,0.25,1.09,0.34,1.6c1.27,7.59,4.23,14.23,10.51,19.08
				c5.05,3.9,10.59,4.94,16.5,2.59c5.35-2.12,8.5-6.48,10.5-11.69c2.13-5.55,2.17-11.28,1.11-17.05c-0.62-3.38-1.61-6.63-3.46-9.57
				c0.32-0.39,0.62-0.8,0.97-1.16c1.84-1.91,3.86-3.68,5.49-5.75c2.83-3.59,4.98-7.62,6.77-11.82c3.66-8.6,5.87-17.54,6.46-26.87
				c0.14-2.17,0.19-4.35,0.29-6.55c0.58-0.07,0.95-0.16,1.32-0.17c6.57-0.17,12.01-3.17,16.82-7.26
				c5.82-4.95,10.01-11.17,12.72-18.34c1.51-3.99,2.64-8.08,2.63-12.4C365.26,467.59,365.28,467.29,365.3,466.99z"/>
			<path class="st2" d="M191.68,269.96c-0.55-1.07-1.14-2.13-1.66-3.22c-4.13-8.72-8.25-17.44-12.37-26.17
				c-0.58-1.24-1.16-2.48-1.64-3.76c-0.79-2.12-0.43-3.24,1.33-4.55c5.92-4.41,12.11-8.4,18.65-11.81
				c5.38-2.8,10.83-5.45,16.28-8.12c1.08-0.53,2.27-0.86,3.43-1.21c3.07-0.92,4.67-0.22,6.12,2.64c0.82,1.63,1.62,3.27,2.42,4.9
				c3.58,7.29,7.17,14.58,10.75,21.88c0.84,1.7,1.65,3.42,2.47,5.13c-2.13,1.15-4.26,2.32-6.39,3.46
				c-5.81,3.11-11.62,6.22-17.45,9.3C206.31,262.3,198.99,266.13,191.68,269.96z"/>
			<path class="st3" d="M191.6,291.89c-1.52,0.66-2.99,1.46-4.57,1.94c-2.02,0.62-3.79-0.21-4.67-2.13
				c-0.94-2.06-1.82-4.16-2.54-6.3c-0.83-2.46-0.14-4.41,2.11-5.83c2.03-1.29,4.18-2.41,6.33-3.5c1.54-0.78,3.17-1.39,4.76-2.08
				c0.76-0.35,1.53-0.67,2.26-1.06c6.83-3.67,13.64-7.38,20.48-11.02c4.83-2.57,9.72-5.04,14.57-7.59c3.16-1.66,6.28-3.38,9.42-5.08
				c4.38-2.52,8.73-5.08,13.16-7.51c1.01-0.55,2.27-0.77,3.44-0.86c0.67-0.05,1.59,0.26,2.05,0.75c2.13,2.26,4.24,4.57,4.1,8.01
				c-0.46,1.06-0.92,2.13-1.38,3.19c-1.13,0.77-2.2,1.63-3.38,2.29c-5.08,2.86-10.2,5.67-15.3,8.5c-5.57,3.09-11.13,6.19-16.71,9.26
				c-7.24,3.99-14.5,7.94-21.73,11.95c-1.72,0.95-3.35,2.06-5.02,3.1C196.51,289.25,194.06,290.57,191.6,291.89z"/>
			<path class="st4" d="M261.12,252.82c0.46-1.07,0.92-2.13,1.38-3.19c1.89-0.11,3.78-0.26,5.67-0.33
				c9.67-0.37,19.36-0.19,28.81,1.89c6.79,1.49,13.45,3.69,19.61,7.11c3.38,1.88,6.84,3.61,10.17,5.58
				c6.08,3.61,11.86,7.71,17.09,12.45c3.36,3.04,6.2,6.67,9.2,10.1c1.55,1.77,2.94,3.68,4.4,5.52c5.6,7.11,9.59,15.13,13.07,23.41
				c3.24,7.72,5.79,15.67,6.83,24.02c0.39,3.09,0.48,6.21,0.78,9.31c1.47,15.08-0.56,29.75-5.17,44.1c-2.47,7.69-5.84,15-9.95,21.97
				c-4.66,7.9-10.23,15.09-16.65,21.62c-1.97,2-4.11,3.84-6.29,5.61c-3.36,2.73-6.79,5.37-10.25,7.98c-1.2,0.91-2.53,1.67-3.87,2.37
				c-3.83,2.01-7.69,3.95-11.54,5.91c-0.27,0.14-0.53,0.29-0.8,0.43c-0.02,0.17-0.04,0.35-0.05,0.52c-0.25-0.01-0.5-0.02-0.74-0.03
				c-0.65,0.11-1.32,0.15-1.95,0.35c-3.44,1.1-6.85,2.32-10.31,3.35c-2.46,0.73-4.99,1.22-7.48,1.81c-0.01-0.98-0.01-1.96-0.02-2.95
				c4.47-0.62,8.67-2.22,12.92-3.6c1.73-0.56,3.52-0.99,5.19-1.69c7.44-3.15,14.34-7.2,20.91-11.95
				c6.39-4.62,12.08-9.89,17.27-15.79c4.5-5.11,8.25-10.75,11.55-16.64c7.95-14.16,12.88-29.3,14.18-45.58
				c1.17-14.6-0.3-28.87-4.77-42.8c-4.29-13.4-10.91-25.53-20-36.32c-6.87-8.16-14.84-15.02-23.83-20.69
				c-6.18-3.9-12.77-7.1-19.71-9.39c-12.31-4.07-24.92-6.23-37.95-5.13C266.27,252.37,263.69,252.6,261.12,252.82z"/>
			<path class="st5" d="M191.6,291.89c2.46-1.32,4.92-2.65,7.37-3.97c-2.24,3.06-4.56,6.06-6.7,9.19
				c-7.53,10.97-12.68,23.01-15.75,35.94c-3.45,14.55-3.93,29.21-1.41,43.95c3.55,20.77,12.32,39.05,26.52,54.63
				c6.33,6.93,13.47,12.97,21.65,17.68c2.96,1.7,5.95,3.36,8.97,4.94c1.74,0.91,3.57,1.65,5.35,2.46c-0.06,1.02-0.12,2.05-0.18,3.08
				c-2.94-1.28-5.9-2.51-8.8-3.87c-0.87-0.41-1.54-0.4-2.27,0.12c-0.16-0.16-0.32-0.32-0.48-0.48c0.15-0.25,0.3-0.51,0.44-0.75
				c-4.05-2.66-8.11-5.17-12-7.92c-4.59-3.24-8.86-6.9-12.76-10.95c-2.73-2.84-5.32-5.85-7.75-8.96
				c-4.97-6.36-9.2-13.17-12.37-20.63c-2.1-4.96-4.5-9.79-5.97-15c-2.54-9.02-4.22-18.15-4.63-27.55
				c-0.37-8.4,0.25-16.69,1.56-24.96c1.25-7.89,3.51-15.51,6.54-22.9c3.18-7.75,6.93-15.19,12.01-21.9
				c0.37-0.48,0.71-0.99,0.99-1.52C192.01,292.4,191.72,292.1,191.6,291.89z"/>
			<path class="st6" d="M225.89,455.56c0.16,0.16,0.32,0.32,0.48,0.48c-3.03,3.03-5.55,6.43-7.42,10.31
				c-0.17,0.36-0.55,0.61-0.94,1.04c-0.27-0.53-0.47-0.85-0.61-1.19c-2.51-6.04-5.84-11.5-10.77-15.91
				c-4.16-3.72-8.75-6.56-14.37-7.37c-6.63-0.96-12.56,2.01-15.95,7.84c-3.46,5.95-4.13,12.41-3.04,18.98
				c1.83,11.06,6.58,20.61,15.4,27.9c4.23,3.5,9.02,5.53,14.47,5.99c1.33,0.11,2.68,0.02,4.07,0.02c-1.27,8.6,1.3,16.65,4.21,24.57
				c2.91,7.93,6.54,15.53,12.77,21.54c-0.38,0.54-0.63,0.92-0.91,1.28c-3.66,4.69-5.68,10.04-6.21,15.92
				c-0.75,8.32,0.76,16.11,6.31,22.63c2.55,3,5.87,5.05,9.86,5.75c5.82,1.01,10.48-1.43,14.34-5.39c3.97-4.08,6.18-9.16,7.12-14.78
				c0.27-1.62,0.47-3.24,0.7-4.89c6.57,1.93,9.65,2.2,21.73,1.93c0.15,0.86,0.3,1.75,0.45,2.64c1.35,7.96,4.7,14.72,11.55,19.42
				c4.45,3.06,11.66,3.35,16.03,0.48c3.81-2.49,6.49-5.91,8.03-10.21c2.81-7.82,2.42-15.52-0.84-23.11
				c-0.5-1.17-0.97-2.36-1.45-3.53c0.29,0.11,0.58,0.21,0.88,0.32c1.85,2.94,2.84,6.19,3.46,9.57c1.06,5.77,1.02,11.5-1.11,17.05
				c-2,5.22-5.15,9.57-10.5,11.69c-5.91,2.34-11.45,1.31-16.5-2.59c-6.28-4.85-9.24-11.49-10.51-19.08
				c-0.08-0.51-0.21-1.01-0.34-1.6c-6.78,0.39-13.42,0.06-19.89-1.61c-0.57,2.62-0.98,5.08-1.66,7.47
				c-1.86,6.53-5.49,11.76-11.35,15.4c-4.24,2.64-11.65,2.44-15.89-0.3c-7.02-4.54-10.11-11.3-11.24-19.21
				c-0.94-6.57,0.02-12.9,2.83-18.9c1.02-2.18,2.41-4.19,3.53-6.11c-10.44-13.37-16.31-28.33-16.89-45.25
				c-2.16-0.23-4.48-0.21-6.65-0.75c-4.24-1.06-8.12-3.02-11.36-5.99c-2.12-1.95-4.22-3.97-5.98-6.23
				c-6.79-8.71-10.2-18.6-9.71-29.69c0.2-4.46,1.34-8.76,3.83-12.51c3.83-5.77,9.27-8.38,16.21-7.6c6.34,0.71,11.38,3.96,15.87,8.26
				c4.45,4.26,7.7,9.35,10.26,15.22C220.51,461.75,222.39,458,225.89,455.56z"/>
			<path class="st7" d="M239.74,249.24c-3.14,1.7-6.26,3.42-9.42,5.08c-4.85,2.55-9.74,5.01-14.57,7.59
				c-6.84,3.64-13.65,7.35-20.48,11.02c-0.73,0.39-1.51,0.71-2.26,1.06c-0.45-1.34-0.89-2.69-1.34-4.03
				c7.31-3.84,14.63-7.66,21.94-11.52c5.83-3.08,11.64-6.19,17.45-9.3c2.14-1.14,4.26-2.3,6.39-3.46
				C238.22,246.87,238.98,248.06,239.74,249.24z"/>
			<path class="st8" d="M311.77,558.2c-0.29-0.11-0.58-0.21-0.88-0.32c0.14-0.16,0.26-0.34,0.41-0.49c1.93-1.93,4.05-3.71,5.76-5.81
				c2.74-3.36,4.84-7.14,6.62-11.12c4.82-10.77,7.36-22,7.12-33.82c-0.01-0.52,0.06-1.04,0.1-1.65c1.36,0,2.64,0.11,3.91-0.02
				c5.43-0.55,9.99-3.17,14.07-6.51c5.3-4.34,9.28-9.79,12.04-16.09c2.02-4.62,3.41-9.4,3.62-14.48c0.23,0,0.45,0,0.68,0
				c0,4.32-1.13,8.41-2.63,12.4c-2.71,7.16-6.89,13.38-12.72,18.34c-4.81,4.09-10.24,7.08-16.82,7.26
				c-0.37,0.01-0.74,0.09-1.32,0.17c-0.09,2.19-0.15,4.37-0.29,6.55c-0.58,9.33-2.8,18.27-6.46,26.87
				c-1.79,4.21-3.93,8.24-6.77,11.82c-1.64,2.07-3.66,3.84-5.49,5.75C312.39,557.4,312.09,557.81,311.77,558.2z"/>
			<path class="st9" d="M312.82,459.18c0.25,0.01,0.5,0.02,0.74,0.03c1.91,2.23,3.82,4.46,5.78,6.73c1.07-1.74,2.1-3.65,3.36-5.39
				c1.65-2.27,3.31-4.56,5.26-6.56c3.58-3.67,7.73-6.53,12.65-8.3c2.95-1.06,5.86-1.66,8.92-1.28c6.5,0.81,11.05,4.39,13.71,10.31
				c1.61,3.58,2.29,7.39,2.07,11.33c-0.18,0.01-0.36,0.01-0.54,0.02c0.03-3.93-0.76-7.71-2.34-11.29
				c-3.09-7.02-10.03-10.48-16.77-9.53c-3.97,0.56-7.81,1.95-11.17,4.29c-5.83,4.07-10.42,9.24-13.68,15.58
				c-0.41,0.79-0.88,1.54-1.37,2.4C317.14,464.63,314.98,461.9,312.82,459.18z"/>
			<path class="st8" d="M364.77,466.06c0.18-0.01,0.36-0.01,0.54-0.02c0,0.32-0.01,0.63-0.01,0.95c-0.18-0.01-0.36-0.02-0.54-0.03
				C364.76,466.67,364.77,466.37,364.77,466.06z"/>
			<path class="st9" d="M364.76,466.97c0.18,0.01,0.36,0.02,0.54,0.03c-0.02,0.3-0.04,0.6-0.06,0.9c-0.23,0-0.45,0-0.68,0
				C364.62,467.58,364.69,467.28,364.76,466.97z"/>
			<path class="st9" d="M313.61,458.69c0.27-0.14,0.53-0.29,0.8-0.43C314.14,458.4,313.88,458.55,313.61,458.69z"/>
			<path class="st10" d="M237.61,456.71c-1.79-0.81-3.62-1.55-5.35-2.46c-3.02-1.59-6.01-3.24-8.97-4.94
				c-8.18-4.71-15.33-10.74-21.65-17.68c-14.21-15.57-22.97-33.85-26.52-54.63c-2.52-14.74-2.04-29.41,1.41-43.95
				c3.07-12.93,8.22-24.97,15.75-35.94c2.14-3.12,4.46-6.13,6.7-9.19c1.67-1.04,3.3-2.14,5.02-3.1c7.23-4.01,14.49-7.96,21.73-11.95
				c5.58-3.07,11.14-6.17,16.71-9.26c5.1-2.83,10.22-5.64,15.3-8.5c1.18-0.67,2.26-1.52,3.38-2.29c2.57-0.22,5.15-0.46,7.72-0.67
				c13.03-1.1,25.65,1.07,37.95,5.13c6.94,2.29,13.53,5.49,19.71,9.39c8.98,5.67,16.96,12.53,23.83,20.69
				c9.09,10.8,15.7,22.92,20,36.32c4.47,13.94,5.94,28.2,4.77,42.8c-1.31,16.29-6.23,31.42-14.18,45.58
				c-3.31,5.89-7.05,11.53-11.55,16.64c-5.2,5.9-10.88,11.17-17.27,15.79c-6.57,4.74-13.47,8.8-20.91,11.95
				c-1.67,0.71-3.46,1.13-5.19,1.69c-4.26,1.38-8.45,2.99-12.92,3.6c-0.09-2.51-0.2-5.02-0.27-7.52c-0.08-3-0.28-3.17-2.97-2.02
				c-4.33,1.85-8.67,3.7-12.97,5.63c-3.02,1.36-6.13,2.19-9.44,2.4c-2.58,0.17-5.17,0.41-7.7,0.9c-1.21,0.23-2.23,0.07-3.3-0.29
				c-5.4-1.81-10.8-3.63-16.2-5.42C238.35,454.81,238.34,454.85,237.61,456.71z M204.26,360.56c0.02,0,0.05,0,0.07,0
				c0,3.73,0,7.46,0,11.19c0,10.66,0,21.31,0,31.97c0,2.8,0.24,3.34,2.88,4.2c4.69,1.52,9.38,3.17,14.2,4.16
				c6.69,1.36,13.47,2.39,20.26,3.13c6.8,0.74,13.65,1.18,20.49,1.35c8.5,0.21,17.01,0.19,25.49-0.69c4.91-0.51,9.86-0.6,14.76-1.12
				c7.4-0.79,14.77-1.84,21.99-3.73c3.67-0.96,7.38-1.81,11.05-2.78c5.04-1.34,4.83-2.69,4.82-6.37
				c-0.03-14.08-0.06-28.16-0.06-42.24c0-12.71,0.05-25.42,0.06-38.13c0-1.52,0-3.05-0.16-4.56c-0.17-1.56-1.03-2.02-2.51-1.54
				c-0.58,0.18-1.16,0.38-1.76,0.46c-6.78,0.91-13.55,1.88-20.34,2.66c-3.54,0.41-7.13,0.49-10.69,0.7
				c-6.58,0.39-13.16,0.85-19.75,1.13c-4.4,0.19-8.82,0.22-13.23,0.16c-5.4-0.08-10.79-0.27-16.19-0.53
				c-3.57-0.17-7.12-0.56-10.68-0.82c-4.77-0.35-9.55-0.63-14.33-1c-3.72-0.29-7.44-0.54-11.14-1.04
				c-3.97-0.53-8.01-0.63-11.86-2.09c-2.91-1.1-3.38-0.59-3.4,2.61c0,0.23,0,0.46,0,0.69C204.26,332.4,204.26,346.48,204.26,360.56z
				"/>
			<path class="st11" d="M364.76,466.97c-0.07,0.31-0.14,0.62-0.21,0.92c-0.22,5.07-1.6,9.86-3.62,14.48
				c-2.76,6.3-6.74,11.75-12.04,16.09c-4.08,3.34-8.64,5.96-14.07,6.51c-1.26,0.13-2.55,0.02-3.91,0.02
				c-0.04,0.61-0.11,1.13-0.1,1.65c0.24,11.83-2.3,23.06-7.12,33.82c-1.78,3.97-3.88,7.76-6.62,11.12c-1.72,2.1-3.83,3.88-5.76,5.81
				c-0.15,0.15-0.28,0.33-0.41,0.49c0.48,1.18,0.95,2.36,1.45,3.53c3.26,7.6,3.65,15.29,0.84,23.11c-1.54,4.3-4.22,7.72-8.03,10.21
				c-4.38,2.87-11.58,2.58-16.03-0.48c-6.85-4.7-10.2-11.46-11.55-19.42c-0.15-0.89-0.3-1.77-0.45-2.64
				c-12.08,0.27-15.16,0-21.73-1.93c-0.23,1.65-0.43,3.27-0.7,4.89c-0.93,5.62-3.14,10.7-7.12,14.78c-3.86,3.96-8.52,6.4-14.34,5.39
				c-3.99-0.69-7.31-2.75-9.86-5.75c-5.55-6.52-7.05-14.31-6.31-22.63c0.53-5.89,2.55-11.23,6.21-15.92
				c0.28-0.36,0.52-0.73,0.91-1.28c-6.23-6.01-9.85-13.61-12.77-21.54c-2.91-7.91-5.48-15.97-4.21-24.57
				c-1.39,0-2.74,0.09-4.07-0.02c-5.45-0.46-10.24-2.49-14.47-5.99c-8.82-7.29-13.57-16.84-15.4-27.9
				c-1.09-6.58-0.42-13.03,3.04-18.98c3.39-5.83,9.32-8.8,15.95-7.84c5.62,0.82,10.22,3.65,14.37,7.37
				c4.93,4.41,8.27,9.87,10.77,15.91c0.14,0.34,0.33,0.66,0.61,1.19c0.4-0.43,0.77-0.69,0.94-1.04c1.87-3.87,4.39-7.27,7.42-10.31
				c0.73-0.53,1.4-0.53,2.27-0.12c2.9,1.36,5.86,2.59,8.8,3.87c0.07,0.75,0.21,1.51,0.2,2.26c-0.09,5.55-0.2,11.1-0.32,16.66
				c-0.08,3.84-0.3,4.16,3.84,2.77c5.32-1.79,10.63-3.62,15.96-5.4c0.59-0.2,1.29-0.23,1.92-0.16c0.87,0.1,1.72,0.52,2.59,0.55
				c3.57,0.13,7.15,0.31,10.73,0.2c3.68-0.11,6.98,1.18,10.36,2.27c2.89,0.93,5.81,1.78,8.74,2.59c1.27,0.35,1.69-0.03,1.77-1.31
				c0.04-0.53-0.02-1.06-0.02-1.6c-0.04-4.64-0.08-9.28-0.12-13.92c2.5-0.6,5.03-1.08,7.48-1.81c3.46-1.03,6.87-2.24,10.31-3.35
				c0.62-0.2,1.3-0.24,1.95-0.35c2.16,2.72,4.32,5.44,6.61,8.32c0.49-0.85,0.97-1.61,1.37-2.4c3.26-6.34,7.85-11.51,13.68-15.58
				c3.36-2.34,7.2-3.73,11.17-4.29c6.74-0.95,13.68,2.51,16.77,9.53c1.58,3.58,2.37,7.36,2.34,11.29
				C364.77,466.37,364.76,466.67,364.76,466.97z M256.41,504.78c-0.09,4.95,4.33,8.95,8.92,7.87c3.5-0.82,6.23-2.78,7.38-6.42
				c0.97-3.07,0.45-5.9-1.73-8.27c-1.99-2.16-4.58-2.49-7.35-2.02C259.8,496.58,256.22,500.98,256.41,504.78z M271.69,485.08
				c0.03-3.34-2.35-5.75-5.68-5.74c-3.42,0.01-6.07,2.62-6.09,6.01c-0.02,3.32,2.42,5.79,5.7,5.78
				C269.01,491.12,271.65,488.48,271.69,485.08z"/>
			<path class="st12" d="M293.07,464.69c0.04,4.64,0.08,9.28,0.12,13.92c0,0.53,0.06,1.07,0.02,1.6c-0.09,1.28-0.51,1.66-1.77,1.31
				c-2.93-0.8-5.85-1.66-8.74-2.59c-3.38-1.09-6.68-2.38-10.36-2.27c-3.57,0.11-7.15-0.07-10.73-0.2c-0.87-0.03-1.72-0.45-2.59-0.55
				c-0.63-0.07-1.32-0.04-1.92,0.16c-5.33,1.77-10.63,3.61-15.96,5.4c-4.14,1.39-3.93,1.07-3.84-2.77
				c0.12-5.55,0.23-11.1,0.32-16.66c0.01-0.75-0.13-1.51-0.2-2.26c0.06-1.02,0.12-2.05,0.18-3.07c0.72-1.86,0.74-1.9,2.58-1.28
				c5.41,1.79,10.8,3.61,16.2,5.42c1.08,0.36,2.09,0.52,3.3,0.29c2.53-0.49,5.12-0.73,7.7-0.9c3.31-0.22,6.42-1.05,9.44-2.4
				c4.3-1.93,8.63-3.78,12.97-5.63c2.69-1.14,2.88-0.98,2.97,2.02c0.07,2.51,0.18,5.01,0.27,7.52
				C293.06,462.73,293.07,463.71,293.07,464.69z M291.18,479.03c0-1.35,0.04-2.25-0.01-3.14c-0.1-1.81-0.32-3.62-0.35-5.43
				c-0.07-4.63-0.04-9.26-0.08-13.89c0-0.63-0.14-1.25-0.24-2.09c-5.54,2.63-11.12,4.33-16.1,7.29c0.78,4.31-0.16,8.62,1.09,12.78
				C280.6,476.02,285.67,477.46,291.18,479.03z M239.76,479.7c1.56-0.59,3.01-1.18,4.48-1.7c4.29-1.5,8.57-3.02,12.89-4.4
				c1.4-0.44,1.75-1.22,1.63-2.51c-0.16-1.73-0.32-3.46-0.4-5.2c-0.09-2-0.05-2.01-2.01-2.68c-4.81-1.63-9.61-3.25-14.43-4.85
				c-0.62-0.21-1.28-0.33-2.17-0.55C239.76,465.18,239.76,472.33,239.76,479.7z M273.16,474.85c-0.69-4.58-0.29-8.73-1.34-12.95
				c-3.79,0.8-7.52,0.53-11.22,1.63c0.11,3.67-0.26,7.21,0.82,10.81C265.18,474.51,268.87,474.67,273.16,474.85z"/>
			<path class="st13" d="M204.26,360.56c0-14.08,0-28.16,0-42.24c0-0.23,0-0.46,0-0.69c0.01-3.19,0.49-3.71,3.4-2.61
				c3.85,1.46,7.89,1.56,11.86,2.09c3.69,0.49,7.42,0.75,11.14,1.04c4.77,0.37,9.55,0.66,14.33,1c3.56,0.26,7.12,0.65,10.68,0.82
				c5.39,0.26,10.79,0.45,16.19,0.53c4.41,0.06,8.83,0.03,13.23-0.16c6.59-0.28,13.17-0.74,19.75-1.13c3.57-0.21,7.15-0.3,10.69-0.7
				c6.79-0.78,13.56-1.75,20.34-2.66c0.6-0.08,1.18-0.28,1.76-0.46c1.48-0.47,2.34-0.02,2.51,1.54c0.16,1.51,0.16,3.04,0.16,4.56
				c-0.01,12.71-0.06,25.42-0.06,38.13c0,14.08,0.04,28.16,0.06,42.24c0.01,3.67,0.22,5.02-4.82,6.37
				c-3.67,0.98-7.37,1.82-11.05,2.78c-7.22,1.89-14.59,2.94-21.99,3.73c-4.91,0.52-9.86,0.61-14.76,1.12
				c-8.49,0.88-17,0.9-25.49,0.69c-6.84-0.17-13.69-0.61-20.49-1.35c-6.79-0.74-13.57-1.76-20.26-3.13
				c-4.82-0.98-9.51-2.64-14.2-4.16c-2.64-0.85-2.87-1.4-2.88-4.2c-0.01-10.66,0-21.31,0-31.97c0-3.73,0-7.46,0-11.19
				C204.3,360.56,204.28,360.56,204.26,360.56z M206.25,404.99c0.47,0.26,0.78,0.48,1.13,0.63c3.98,1.74,8.06,3.09,12.35,3.88
				c4.11,0.75,8.15,1.86,12.27,2.47c4.88,0.73,9.8,1.2,14.72,1.61c4.77,0.4,9.56,0.77,14.34,0.84c11.86,0.18,23.74,0.33,35.56-1.06
				c6.24-0.73,12.51-1.01,18.69-2.4c6.96-1.57,13.99-2.82,20.78-5.11c2.22-0.75,2.26-0.65,2.27-2.91c0-27.63,0-55.26-0.01-82.9
				c0-0.64-0.09-1.28-0.14-1.81c-6.8,0.94-13.39,1.99-20.01,2.73c-6.19,0.69-12.41,1.17-18.62,1.51c-4.86,0.26-9.74,0.21-14.61,0.2
				c-11.18-0.01-22.37,0.19-33.54-0.59c-5.53-0.39-11.09-0.53-16.61-1.07c-8.93-0.88-17.83-2-26.75-3.03
				c-0.57-0.07-1.14-0.19-1.81-0.3C206.25,346.85,206.25,375.84,206.25,404.99z"/>
			<path class="st14" d="M256.41,504.78c-0.19-3.8,3.39-8.2,7.21-8.84c2.77-0.47,5.36-0.14,7.35,2.02c2.19,2.38,2.7,5.2,1.73,8.27
				c-1.14,3.64-3.87,5.6-7.38,6.42C260.74,513.73,256.32,509.73,256.41,504.78z"/>
			<path class="st15" d="M271.69,485.08c-0.03,3.4-2.68,6.04-6.06,6.05c-3.29,0.01-5.72-2.46-5.7-5.78c0.02-3.39,2.67-6,6.09-6.01
				C269.34,479.33,271.72,481.74,271.69,485.08z"/>
			<path class="st16" d="M291.18,479.03c-5.51-1.57-10.59-3.01-15.69-4.47c-1.24-4.17-0.31-8.47-1.09-12.78
				c4.98-2.96,10.57-4.66,16.1-7.29c0.1,0.84,0.23,1.47,0.24,2.09c0.03,4.63,0.01,9.26,0.08,13.89c0.03,1.81,0.25,3.62,0.35,5.43
				C291.22,476.78,291.18,477.68,291.18,479.03z"/>
			<path class="st16" d="M239.76,479.7c0-7.36,0-14.52,0-21.88c0.89,0.22,1.54,0.34,2.17,0.55c4.81,1.61,9.62,3.23,14.43,4.85
				c1.96,0.66,1.91,0.67,2.01,2.68c0.08,1.74,0.24,3.47,0.4,5.2c0.12,1.29-0.23,2.06-1.63,2.51c-4.33,1.38-8.6,2.91-12.89,4.4
				C242.77,478.52,241.32,479.11,239.76,479.7z"/>
			<path class="st17" d="M273.16,474.85c-4.29-0.19-7.98-0.35-11.75-0.51c-1.08-3.6-0.71-7.14-0.82-10.81
				c3.7-1.1,7.44-0.82,11.22-1.63C272.86,466.12,272.47,470.27,273.16,474.85z"/>
			<path class="st18" d="M206.25,404.99c0-29.15,0-58.14,0-87.31c0.68,0.12,1.24,0.24,1.81,0.3c8.91,1.03,17.82,2.14,26.75,3.03
				c5.52,0.54,11.07,0.68,16.61,1.07c11.17,0.79,22.36,0.59,33.54,0.59c4.87,0,9.75,0.06,14.61-0.2c6.22-0.33,12.44-0.82,18.62-1.51
				c6.62-0.74,13.21-1.79,20.01-2.73c0.04,0.53,0.14,1.17,0.14,1.81c0.01,27.63,0.01,55.26,0.01,82.9c0,2.26-0.05,2.16-2.27,2.91
				c-6.79,2.29-13.81,3.54-20.78,5.11c-6.19,1.39-12.46,1.67-18.69,2.4c-11.82,1.39-23.69,1.23-35.56,1.06
				c-4.78-0.07-9.57-0.44-14.34-0.84c-4.92-0.41-9.84-0.88-14.72-1.61c-4.12-0.62-8.17-1.72-12.27-2.47
				c-4.29-0.78-8.37-2.14-12.35-3.88C207.03,405.47,206.72,405.26,206.25,404.99z M305.15,352.73c-0.53-2.77-1.01-5.52-1.6-8.25
				c-0.14-0.64-0.52-1.27-0.94-1.78c-0.95-1.15-2.06-1.23-3.13-0.19c-0.58,0.57-1.09,1.28-1.41,2.03
				c-2.75,6.56-3.29,13.34-1.91,20.29c0.22,1.09,0.71,2.16,1.28,3.13c1.01,1.72,2.49,1.86,3.56,0.22c0.98-1.5,1.96-3.14,2.36-4.86
				C304.16,359.87,304.57,356.32,305.15,352.73z M250.47,352.61c-0.45-2.68-0.85-5.36-1.38-8.02c-0.14-0.71-0.55-1.43-1-2.01
				c-1-1.28-2.15-1.38-3.28-0.22c-0.62,0.63-1.14,1.43-1.48,2.25c-2.46,5.89-2.93,12.04-2.07,18.3c0.21,1.54,0.68,3.13,1.4,4.51
				c1.14,2.19,2.53,2.27,3.91,0.27c0.89-1.28,1.63-2.75,2.1-4.24C249.78,359.95,250.22,356.34,250.47,352.61z M284.74,386.66
				c-0.09-0.75-0.01-1.59-0.32-2.22c-0.24-0.49-1.02-1.03-1.51-0.98c-0.49,0.05-0.95,0.76-1.32,1.26c-0.14,0.19-0.01,0.59,0.01,0.89
				c0.14,2.45-0.58,4.67-1.95,6.66c-3.72,5.38-11.89,4.6-14.17-0.63c-0.62-1.43-0.86-3.03-1.24-4.55c-0.07-0.28,0.01-0.61,0-0.91
				c-0.04-0.97-0.56-1.65-1.5-1.68c-0.97-0.03-1.49,0.68-1.59,1.61c-0.21,2.17,0.16,4.27,1.07,6.22c2.21,4.74,6.86,7.7,12.37,6.8
				C279.6,398.3,284.66,392.87,284.74,386.66z"/>
			<path class="st19" d="M305.15,352.73c-0.58,3.59-0.99,7.13-1.79,10.59c-0.4,1.72-1.37,3.36-2.36,4.86
				c-1.08,1.64-2.55,1.5-3.56-0.22c-0.57-0.96-1.06-2.04-1.28-3.13c-1.38-6.94-0.83-13.73,1.91-20.29c0.31-0.75,0.83-1.46,1.41-2.03
				c1.07-1.05,2.18-0.97,3.13,0.19c0.42,0.51,0.81,1.15,0.94,1.78C304.14,347.21,304.62,349.96,305.15,352.73z"/>
			<path class="st19" d="M250.47,352.61c-0.25,3.72-0.69,7.34-1.8,10.83c-0.47,1.49-1.2,2.95-2.1,4.24c-1.38,2-2.77,1.92-3.91-0.27
				c-0.72-1.38-1.19-2.97-1.4-4.51c-0.86-6.26-0.39-12.41,2.07-18.3c0.34-0.82,0.86-1.62,1.48-2.25c1.13-1.15,2.29-1.06,3.28,0.22
				c0.45,0.58,0.86,1.3,1,2.01C249.62,347.25,250.02,349.94,250.47,352.61z"/>
			<path class="st20" d="M284.74,386.66c-0.08,6.21-5.13,11.64-10.15,12.46c-5.51,0.9-10.16-2.06-12.37-6.8
				c-0.91-1.95-1.28-4.05-1.07-6.22c0.09-0.93,0.61-1.65,1.59-1.61c0.95,0.03,1.47,0.71,1.5,1.68c0.01,0.3-0.07,0.62,0,0.91
				c0.38,1.53,0.62,3.13,1.24,4.55c2.28,5.23,10.45,6.01,14.17,0.63c1.37-1.99,2.09-4.2,1.95-6.66c-0.02-0.3-0.15-0.7-0.01-0.89
				c0.37-0.5,0.84-1.21,1.32-1.26c0.49-0.05,1.27,0.49,1.51,0.98C284.73,385.07,284.65,385.91,284.74,386.66z"/>
		</g>
	</g>
</g>
</svg>
